<?xml version="1.0" encoding="utf-8"?>
<!-- Generator: Adobe Illustrator 26.2.1, SVG Export Plug-In . SVG Version: 6.00 Build 0)  -->
<svg version="1.1" id="Layer_1" xmlns="http://www.w3.org/2000/svg" xmlns:xlink="http://www.w3.org/1999/xlink" x="0px" y="0px"
	 viewBox="0 0 820.2 489.6" style="enable-background:new 0 0 820.2 489.6;" xml:space="preserve">
<g>
	<path d="M387.2,123.1h-27.4l49.8-46.8l50.1,46.8h-28.2v64.4c0,7.2-5.8,13.1-13,13.1l-33,0.2c-38.4,0-57.6,20.4-57.6,61.3v108.3
		h159.9v-53.5H387.4l-0.1-46.2c0-7.1,5.7-12.9,12.8-12.9c0,0,0.1,0,0.1,0l33.7,0.1c38.4,0,57.6-20.4,57.6-61.3V98.7
		c0-26.3-21.3-47.7-47.6-47.8l-71.2-0.2c-26.4-0.1-47.9,21.2-47.9,47.6c0,0.1,0,0.2,0,0.3v55.5h62.4L387.2,123.1z"/>
	<path d="M146.8,411.7l-3.6,7.8h7.2l-3.5-7.8H146.8z M408.9,403.3c-5.1-0.2-9.5,3.8-9.7,8.9c-0.2,5.1,3.8,9.5,8.9,9.7
		c5.1,0.2,9.5-3.8,9.7-8.9c0-0.1,0-0.3,0-0.4c0.3-4.8-3.4-9-8.2-9.3C409.4,403.3,409.2,403.3,408.9,403.3z M462.8,411.7l-3.6,7.8
		h7.2l-3.5-7.8H462.8z M670.2,411.7l-3.6,7.8h7.2l-3.5-7.8H670.2L670.2,411.7z"/>
	<path d="M714.9,383.4H103.2l-24.7,55.5h663.2L714.9,383.4z M154.5,428l-1.5-3.2h-12.1l-1.5,3.2h-8.1l15-31.8h1.4l15.1,31.8H154.5z
		 M190.2,403.9h-6.8V428h-7.6v-24.2h-7v-6.7h21.4L190.2,403.9z M227.7,428h-7.4v-12.2h-12V428h-7.5v-30.8h7.5v12.1h12v-12.1h7.5
		L227.7,428z M261.6,428h-20.9v-30.8h20.4v6.7h-12.8v5.5h11.8v6.6h-11.8v5.5h13.4L261.6,428z M300.9,428h-7.8l-12-18.3V428h-7.5
		v-30.8h7.8l12,18.3v-18.3h7.5L300.9,428z M326.2,409.6c5.5,1.7,8.1,4.7,8.1,9.5c-0.1,5.6-4.8,10.1-10.4,9.9
		c-5.4,0.4-10.1-3.6-10.5-9c0-0.4,0-0.7,0-1.1h7.3c0,1.8,1.4,3.2,3.2,3.2c0,0,0,0,0,0c1.5,0.2,2.9-0.9,3.1-2.3c0-0.1,0-0.2,0-0.3
		c0-2.2-3-3-5.5-3.8c-5.2-1.9-8.1-4.3-8.1-9.5c0.2-5.6,4.8-10.1,10.5-9.9c6.8,0,10.1,4.5,10.5,10.1h-7.1c-0.1-1.8-1.6-3.1-3.4-3.1
		c-1.6,0.1-2.9,1.3-3,2.9C320.8,408.4,323.6,408.8,326.2,409.6L326.2,409.6z M382.7,403.9h-7V428h-7.6v-24.2h-6.8v-6.7h21.4
		L382.7,403.9z M408.9,429.1c-9.1-0.1-16.3-7.5-16.3-16.6c0.1-9.1,7.5-16.3,16.6-16.3c9,0.1,16.3,7.4,16.3,16.4
		c0.2,8.9-6.9,16.2-15.7,16.4C409.4,429,409.2,429,408.9,429.1L408.9,429.1z M470.5,428l-1.5-3.2h-12.2l-1.5,3.2h-8.1l15-31.8h1.3
		l15.1,31.8H470.5z M506.2,403.9h-7V428h-7.6v-24.2h-6.9v-6.7h21.4V403.9z M537.6,428h-20.9v-30.8h7.5v24.3h13.4V428z M570.6,428
		l-1.5-3.2h-12.2l-1.5,3.2h-8.1l15.1-31.8h1.3l15.1,31.8L570.6,428z M616.5,428h-7.8l-12-18.3V428h-7.5v-30.8h7.9l12,18.3v-18.3h7.5
		L616.5,428z M648.5,403.9h-7V428h-7.6v-24.2h-6.8v-6.7h21.4L648.5,403.9z M677.8,428l-1.5-3.2h-12.2l-1.5,3.2h-8.1l15-31.8h1.3
		l15.1,31.8H677.8z"/>
	<path d="M563,411.7l-3.6,7.8h7.2l-3.5-7.8H563z"/>
	<path d="M205.6,303.2H248v-45.6h-23l32.8-77.7v190.4H313l-0.5-247.2l-78.5,0.3c-5.1,0-9.8,3-12,7.6L107.8,370.2h69.6L205.6,303.2z
		 M558.5,179.9l32.8,77.8h-22.7v45.6h42l28.3,66.9h69.6L594.1,130.6c-2.1-4.5-6.6-7.3-11.6-7.3l-78.8-0.2l-0.6,247.4h55.4
		L558.5,179.9z"/>
</g>
</svg>
