<?xml version="1.0" encoding="utf-8"?>
<!-- Generator: Adobe Illustrator 27.5.0, SVG Export Plug-In . SVG Version: 6.00 Build 0)  -->
<svg version="1.1" id="Layer_1" xmlns="http://www.w3.org/2000/svg" xmlns:xlink="http://www.w3.org/1999/xlink" x="0px" y="0px"
	 viewBox="0 0 652.2 698.4" style="enable-background:new 0 0 652.2 698.4;" xml:space="preserve">
<g id="iaGjv2.tif">
	<g>
		<g>
			<path d="M648.2,288.1c-0.1,0.6-0.2,1.2-0.3,1.8c-2.4,13.8-4.9,27.6-7.3,41.4c-0.1,0.3-0.2,0.6-0.2,1c-11.7,0-23.4,0-35.1,0
				c-3.6,20.4-7.2,40.7-10.8,61c-0.9,0.3-47.4,0.4-49.8,0.1c0.8-5.1,1.8-10.1,2.7-15.2c0.9-5.1,1.8-10.2,2.7-15.3
				c0.9-5.1,1.8-10.2,2.7-15.3c0.9-5.1,1.8-10.2,2.7-15.3c-0.9-0.3-15.4-0.3-16.9-0.1c-3.6,20.3-7.2,40.7-10.8,61.1
				c-18.6,0-37.2,0-55.9,0c-7.8-12.6-15.5-25.2-23.3-37.8c-0.1,0-0.2,0-0.2,0c-0.8,4.1-1.5,8.3-2.2,12.5c-0.8,4.2-1.5,8.5-2.2,12.7
				c-0.7,4.2-1.5,8.4-2.2,12.6c-16.6,0-33.1,0-49.7,0c0.3-2.1,0.7-4,1-6.1c-0.4,0.1-0.6,0.2-0.8,0.3c-5.3,3-11,4.7-16.9,5.6
				c-4.2,0.7-8.4,1-12.6,1c-10.2,0-20.3,0.1-30.5,0.1c-6.2,0-12.4,0-18.6-0.2c-6.2-0.2-12.3-1.1-18.1-3.3c-4.7-1.8-8.8-4.3-12.1-8
				c-0.6-0.6-1.1-1.3-1.7-2.1c-0.9,1-1.7,1.9-2.6,2.7c-4.6,4.5-10.2,7.2-16.4,8.6c-3.7,0.9-7.5,1.3-11.3,1.3c-31.7,0-63.4,0-95.2,0
				c-0.5,0-1,0-1.6,0c6.3-35.4,12.5-70.6,18.8-106c0.4,0,0.8,0,1.2,0c22.9,0,45.7,0,68.6,0c5.6,0,11.2-0.1,16.7,0.1
				c6.1,0.2,12.1,1,17.9,3.3c3.9,1.6,7.3,3.7,10.1,6.9c1.2,1.4,2.2,2.9,3.3,4.5c0.5-0.6,1.1-1.3,1.7-1.9c4.5-4.8,9.9-8,16-10.1
				c5.1-1.8,10.3-2.7,15.6-3.1c7-0.6,14.1-0.4,21.1-0.4c10.2,0,20.4,0,30.6,0.1c6.3,0,12.5,0.5,18.6,2.2c5.1,1.4,9.7,3.6,13.7,7.1
				c0.1,0.1,0.3,0.2,0.6,0.4c0.5-3,1.1-5.9,1.6-8.8c0.4,0,0.8-0.1,1.2-0.1c17.9,0,35.7,0.1,53.6,0.1c0.9,0,1.3,0.3,1.7,1
				c7.3,11.9,14.6,23.7,21.9,35.6c0.3,0.4,0.5,0.9,1,1.2c2.2-12.6,4.4-25.1,6.7-37.7c16.9,0,33.7,0,50.6,0c16.8,0,33.6,0,50.5,0
				c16.9,0,33.7,0,50.6,0C648.2,287.8,648.2,288,648.2,288.1z M505.5,298.2c-2.4,13.4-4.7,26.8-7.1,40.2c9.5,0,18.9,0,28.3,0
				c1-5.6,2-11.1,3-16.7c12.8,0,25.4,0,38.3,0c-1,5.6-2,11.1-3,16.7c9.5,0,18.9,0,28.4,0c1-5.6,2-11.1,3-16.8c11.8,0,23.5,0,35.2,0
				c1.4-7.9,2.8-15.6,4.2-23.5C592.2,298.2,548.9,298.2,505.5,298.2z M174.2,341.7c-2.4,13.7-4.8,27.3-7.3,41.1c0.6,0,1,0,1.5,0
				c5.6,0,11.2,0,16.9,0c21.7,0,43.4,0,65.2,0c3.5,0,7-0.4,10.4-1.2c7-1.8,12.2-5.8,15.3-12.4c1.3-2.7,2.2-5.6,2.7-8.5
				c0.7-3.6,1.1-7.2,0.6-10.9c-0.4-2.8-1.5-5.4-3.6-7.4c-0.5-0.5-1.1-0.7-1.8-0.7c-5.9,0-11.7,0-17.6,0c-27,0-54,0-81.1,0
				C175.1,341.7,174.7,341.7,174.2,341.7z M182,297.9c-2.4,13.5-4.7,26.9-7.1,40.4c0.6,0,1,0,1.5,0c11.6,0,23.1,0,34.7,0
				c15.7,0,31.3,0,47,0c4.9,0,9.9,0,14.8,0c0.7,0,1.3-0.2,1.9-0.6c2.2-1.6,3.8-3.7,5.1-6.1c1.2-2.2,2-4.6,2.5-7.1
				c0.9-3.9,1.6-7.8,1.1-11.8c-0.4-3.1-1.5-5.9-3.6-8.2c-2.2-2.4-5.1-3.8-8.1-4.8c-4.8-1.5-9.7-1.9-14.6-1.9
				c-10-0.1-19.9,0-29.9-0.1c-14.6,0-29.2,0-43.9,0C182.8,297.9,182.4,297.9,182,297.9z M288.9,341.7c-0.1,0.3-0.2,0.5-0.2,0.8
				c-0.7,4.3-1.6,8.6-2.2,12.9c-0.5,3.8-0.6,7.5,0.1,11.3c1.2,6,4.4,10.5,10,13.2c1.5,0.7,3.1,1.4,4.8,1.8c5.3,1.5,10.7,1.9,16.2,2
				c13.4,0.1,26.9,0.1,40.3,0.1c3.5,0,6.9-0.1,10.4-0.4c4.1-0.2,8.1-0.9,12-2.1c7.9-2.4,13.9-7.2,17.7-14.6c1.4-2.7,2.5-5.5,3.2-8.5
				c0.8-3.6,1.5-7.3,2.2-11c0.3-1.8,0.6-3.5,0.9-5.3c-1-0.3-27.9-0.3-29,0c-0.2,1.1-0.4,2.3-0.6,3.5c-0.5,2.6-1.1,5.2-2.2,7.7
				c-1.4,3-3.6,5.1-6.9,5.8c-1.8,0.4-3.7,0.7-5.6,0.7c-11.4,0-22.9,0-34.3,0c-2,0-4-0.2-5.8-1c-1.7-0.7-2.7-2-3.1-3.8
				c-0.2-0.8-0.2-1.7-0.3-2.5c-0.1-2.6,0.4-5.2,0.8-7.7c0.2-0.9,0.3-1.8,0.4-2.7C308.1,341.7,298.5,341.7,288.9,341.7z M404.9,338.4
				c0.6-3.4,1.2-6.6,1.7-9.7c0.8-4.5,1.2-9,0.5-13.5c-1-6.7-4.4-11.6-10.6-14.5c-3.6-1.7-7.5-2.5-11.4-3c-4-0.5-7.9-0.6-11.9-0.6
				c-12.4,0-24.7,0-37.1,0c-3.7,0-7.5,0.1-11.2,0.4c-4,0.2-8,1-11.8,2.2c-6,1.9-11.1,5.2-14.8,10.3c-2.9,3.9-4.8,8.3-5.9,13
				c-1,4.5-1.8,9-2.6,13.5c-0.1,0.6-0.2,1.2-0.3,1.8c9.7,0,19.3,0,29,0c0.1-0.4,0.2-0.8,0.3-1.2c0.5-2.9,1.1-5.7,2.3-8.4
				c1.5-3.1,3.8-5.2,7.1-6.3c2.3-0.8,4.7-1,7.2-1c10.4,0,20.7,0,31.1,0c2,0,4,0.3,5.9,0.9c2.8,1,4.3,2.9,4.6,5.8
				c0.3,2.4,0,4.8-0.4,7.1c-0.2,1-0.3,2-0.5,3.1C385.7,338.3,395.3,338.5,404.9,338.4z M452.5,341.9c0.3,0.5,0.5,0.8,0.7,1.2
				c8,13,16,26,24,39c0.4,0.7,0.9,1,1.8,1c12.9,0,25.8,0,38.7,0c0.4,0,0.8,0,1.2,0c2.4-13.7,4.8-27.4,7.2-41.1c-9.5,0-18.9,0-28.3,0
				c-0.8,4.2-1.5,8.4-2.2,12.6c-0.1,0-0.2,0-0.2,0c-2.6-4.2-5.2-8.4-7.8-12.6C475.8,341.9,464.2,341.9,452.5,341.9z M442.7,326.6
				c0.1,0,0.2,0,0.3,0c0.2,0.4,0.5,0.7,0.7,1.1c2,3.3,4,6.5,6,9.8c0.5,0.8,1,1,1.9,1c7.7,0,15.4,0,23.1,0c0.4,0,0.8,0,1.2,0
				c3,0,6,0,9,0.1c0.1,0,0.2-0.1,0.4-0.1c-0.2-0.4-0.4-0.7-0.6-1.1c-7.8-12.7-15.7-25.5-23.5-38.2c-0.5-0.8-1-1.1-1.9-1.1
				c-12.8,0-25.7,0-38.5,0c-0.4,0-0.9,0-1.4,0c-2.4,13.5-4.8,26.9-7.1,40.3c9.5,0,18.9,0,28.4,0C441.3,334.4,442,330.5,442.7,326.6z
				 M439.9,341.9c-9.5,0.1-18.9-0.2-28.4,0c-2.4,13.7-4.8,27.4-7.2,41c1.2,0.3,27.4,0.2,28.4,0C435.1,369.2,437.5,355.6,439.9,341.9
				z M564.4,341.9c-2.4,13.7-4.8,27.3-7.2,41c1.5,0.3,27.5,0.2,28.4-0.1c2.4-13.6,4.8-27.2,7.2-40.9
				C583.2,341.9,573.9,341.9,564.4,341.9z M366.3,331.9c-0.6,0-1-0.1-1.3-0.1c-10.4,0-20.7,0-31.1,0c-0.6,0-1.2,0.1-1.8,0.2
				c-0.8,0.2-1.5,0.7-1.8,1.5c-0.3,0.7-0.5,1.4-0.7,2.2c-0.7,4-1.4,7.9-2.1,11.9c-0.1,0.5-0.1,0.9-0.2,1.5c0.6,0,1,0,1.4,0
				c6.3,0,12.6,0,18.9,0c4.3,0,8.5,0.1,12.8-0.1c2.9-0.1,2.5,0.1,3.1-2.5c0.7-2.9,1.2-5.9,1.7-8.9
				C365.7,335.8,366,333.9,366.3,331.9z"/>
			<path d="M4,324.7c0.1-1.2,0.4-2.3,0.4-3.5c0.3-5.1,1.2-10,2.7-14.9c3-10,8.2-18.8,15.5-26.3c0.3-0.3,0.6-0.5,1-0.9
				c0.2,1.4,0.4,2.7,0.6,3.9c0.4,1.9,0.9,3.7,1.3,5.6c0.1,0.5,0.2,0.9-0.2,1.3c-4.2,5.3-7,11.4-9.2,17.7c-1.9,5.4-3.2,10.9-4.1,16.5
				c-0.3,1.6-0.3,3.3-0.3,4.9c-0.3,10.6,1.3,20.8,5.8,30.5c2,4.4,4.6,8.5,7.9,12.1c0.1,0.1,0.2,0.2,0.1,0.6
				c-0.3-0.2-0.5-0.3-0.8-0.6c-3.4-3.1-6.3-6.6-8.9-10.5c-5.9-8.8-9.6-18.6-11.1-29.1c-0.2-1.7-0.3-3.5-0.5-5.2
				c0-0.2-0.1-0.4-0.2-0.6C4,325.6,4,325.2,4,324.7z"/>
			<path d="M183.8,436.5c0.1-1.2,0.2-2.5,0.3-3.7c1.4,0.1,2.7,0.4,4,0.4c2.7,0.1,5.3,0,8,0c1.3,0,1.6-0.3,2-1.6
				c0.2-0.6,0.3-1.2,0.5-2c-1.3,0.7-2.5,0.6-3.7,0.6c-1.6,0-3.3,0-4.9-0.1c-2.9-0.3-4.5-2.4-3.8-5.2c0.6-2.6,1.3-5.1,2-7.6
				c0.6-2.2,2-3.5,4.3-3.6c2.7-0.1,5.4-0.1,8.1-0.1c0.7,0,1.4,0.3,1.8,1.2c0.2-0.4,0.4-0.8,0.5-1.1c2.9,0,5.7,0,8.5,0
				c0,0.1,0.1,0.2,0.1,0.3c-1.5,2.5-1.8,5.3-2.6,8c-1,3.6-1.9,7.1-2.8,10.7c-0.1,0.5-0.3,0.9-0.4,1.4c-0.4,1.2-1.2,2-2.5,2.4
				c-0.3,0.1-0.5,0.2-0.8,0.3C196.3,436.5,190,436.5,183.8,436.5z M196.7,427C196.7,427,196.7,426.9,196.7,427
				c0.4-0.1,0.9,0,1.3-0.1c0.8-0.1,1.4-0.4,1.6-1.2c0.6-2.5,1.3-4.9,1.9-7.4c0.2-0.9-0.2-1.5-1.1-1.6c-0.9-0.1-1.7-0.1-2.6,0
				c-0.6,0-1.2,0.4-1.3,1c-0.7,2.6-1.4,5.3-2.1,7.9c-0.2,0.7,0.2,1,0.9,1.1C195.7,426.9,196.2,426.9,196.7,427z"/>
			<path d="M423.4,436.5c0.1-1.3,0.1-2.5,0.2-3.6c1.8,0.1,3.5,0.3,5.2,0.4c2.1,0.1,4.1,0.1,6.2,0c2-0.1,2.2-0.2,2.7-2.2
				c0.1-0.4,0.2-0.9,0.3-1.5c-1.2,0.7-2.4,0.7-3.6,0.6c-1.7,0-3.4,0-5.1-0.1c-1.8-0.1-3.1-1-3.6-2.8c-0.2-0.8-0.2-1.8,0-2.7
				c0.5-2.3,1.2-4.5,1.7-6.7c0.9-3.6,2.7-4.3,5.5-4.4c2.3-0.1,4.6,0,6.9,0c0.8,0,1.5,0.3,2.1,1.2c0.2-0.4,0.3-0.8,0.4-1.1
				c2.9,0,5.8,0,8.6,0c-2.2,5.2-3,10.7-4.6,16.1c-0.4,1.3-0.7,2.5-1,3.8c-0.4,1.6-1.4,2.7-3,3c-0.1,0-0.2,0.1-0.3,0.2
				C435.9,436.5,429.6,436.5,423.4,436.5z M436.2,427C436.2,427,436.2,426.9,436.2,427c0.2,0,0.5,0,0.7,0c1.6,0,1.9-0.2,2.4-1.8
				c0.6-2.2,1.2-4.4,1.7-6.7c0.3-1.1-0.1-1.6-1.3-1.7c-0.6,0-1.1,0-1.7,0c-1.5,0-2,0.4-2.4,1.8c-0.4,1.5-0.8,3-1.2,4.5
				c-0.2,0.8-0.5,1.6-0.6,2.4c-0.2,0.9,0.1,1.3,1,1.4C435.2,426.9,435.7,426.9,436.2,427z"/>
			<path d="M59.6,323.3c-2.5-2.2-4.6-4.7-6.7-7.2c-1.5,1.9-2.6,3.9-3.6,6c-0.1-1.4,0.1-2.7,0.5-4c0.3-1.2,0.8-2.4,1.2-3.6
				c0.1-0.4,0.2-0.7,0-1.1c-1.1-1.6-2.2-3.2-3.3-4.9c-2,2.3-3.6,4.8-5.2,7.3c-0.1,0-0.1-0.1-0.2-0.1c0.1-0.7,0.2-1.4,0.4-2.1
				c0.6-2.6,1.6-5,2.8-7.3c0.4-0.7,0.4-1.2,0-1.9c-3.1-6.1-5.1-12.5-5.8-19.3c0-0.2,0-0.5-0.1-0.7c-0.1-0.7,0.2-1.2,0.8-1.6
				c7.7-5.4,16.2-8.8,25.4-10.4c5.7-1,11.3-1.1,17-0.4c6.4,0.7,12.5,2.5,18.3,5.3c4.5,2.1,8.6,4.7,12.5,7.7c0.3,0.2,0.6,0.5,0.8,0.7
				c0.1,0,0.1,0.1,0.1,0.3c-0.4,0.2-0.8,0.4-1.3,0.6c-7.1,3.1-13.4,7.3-18.9,12.7c-0.6,0.5-1.1,0.8-1.9,0.8c-2.5,0-5.1,0-7.6,0.1
				c-0.3,0-0.5,0-1,0.1c1.6,1.9,3.1,3.7,4.6,5.5c-2.2,3.4-4.4,6.8-6.7,10.2C72.9,313.4,65.5,316,59.6,323.3z M58.2,299.3
				c2.6-0.9,5.3-1.9,8-2.8c2.8-0.9,5.6-1.3,8.6-1.4c0.6-1.8,1.1-3.5,1.7-5.2C72.2,289.6,60.5,295.6,58.2,299.3z M73.7,299.9
				c-4.5,1-11.9,5.9-13,8.7c3.8-2.3,7.8-3.6,12.1-4C73.1,302.9,73.4,301.4,73.7,299.9z"/>
			<path d="M122.9,373.7c-5.9-14.2-15.8-25-29.2-32.6c1.1-4.2,1.2-8.4-0.1-12.6c-1.3-4.1-3.9-7.4-7.3-10.2c0.4-0.4,0.7-0.8,1.1-1.2
				c6.5-6.9,14.1-12.4,22.9-16.1c4.4-1.8,9.1-3,13.8-3.5c0.7-0.1,1.1,0.2,1.4,0.7c4.3,6.3,7.2,13.3,9,20.7c1.3,5.4,2,11,1.9,16.6
				c-0.3,13.9-4.7,26.4-12.9,37.5c-0.1,0.2-0.2,0.3-0.4,0.5C123.1,373.5,123,373.6,122.9,373.7z M104.5,331.2
				c4.9,1.3,9.6,2.5,14.6,3.8c-1.7-4.1-4.4-7.3-7.5-10.2c-3-2.8-9.5-6.3-11.1-6.1C102.8,322.5,104.2,326.7,104.5,331.2z"/>
			<path d="M112.8,383.8c-21.9,17.2-53,17.1-74.5,0c14.1-6.5,24.3-17,31.3-30.8c3.1,0.8,6.2,1,9.4,0.4c0,3.2-0.3,6.3-0.6,9.6
				c2.6-0.1,5-0.8,7.4-1.6c-2.2,2.3-4.9,3.6-7.8,4.6c-0.4,2-0.8,4-1.3,6.2c3.3-0.1,6.4-0.7,9.7-1.4c-0.2,0.3-0.4,0.4-0.5,0.5
				c-0.2,0.1-0.3,0.2-0.5,0.3c-2.7,1.8-5.7,3-8.8,3.8c-0.8,0.2-1.2,0.6-1.5,1.3c-0.3,0.8-0.6,1.5-1.1,2.5c7.2-0.1,13.9-1.5,20.3-4.4
				c0.4-5.9-3.5-19.6-7.1-25.1c1.5-1.5,2.9-3.1,4.5-4.7c5.7,5.1,10.4,11,14.2,17.8C109.7,369.4,112.1,376.3,112.8,383.8z"/>
			<path d="M60.6,346.3c-3,1.3-5.8,2.6-8.7,3.9c0.7,1,1.4,2,2.2,2.9c0.8,0.9,1.6,1.7,2.4,2.7c-2.8-0.9-5.1-2.7-7.2-4.6
				c-2,0.6-4,1.1-6.1,1.7c1.5,2.8,3.4,5.2,5.2,7.8c-0.4-0.2-0.7-0.4-1.1-0.6c-2.5-1.5-4.7-3.3-6.6-5.5c-0.8-0.9-1.6-1.3-2.8-1.1
				c-0.5,0.1-1,0.1-1.7,0.2c2.2,5,5.2,9.1,9,12.9c-0.3,0.2-0.6,0.4-0.9,0.5c-5.2,2.6-10.6,4.2-16.4,4.9c-0.8,0.1-1.2-0.3-1.6-0.9
				c-4-5.7-6.9-11.8-8.9-18.4c-1.6-5.5-2.6-11.1-2.7-16.9c-0.4-14.6,3.9-27.8,12.3-39.7c0.2-0.3,0.4-0.5,0.8-1
				c2.5,6.2,5.8,11.7,9.9,16.8c-0.7,1.6-1.4,3.1-2,4.6c-1.9,4.7-3.2,9.5-3.5,14.6c-0.1,1.2-0.1,1.2,1.1,1.8
				c3.7,1.8,7.7,2.9,11.7,3.6c3.7,0.6,7.3,1,11.1,1c0.3,0,0.5,0,0.9,0.1C57.4,340.6,58.6,343.5,60.6,346.3z"/>
			<path d="M112.9,385.5c-0.2,0.3-0.5,0.6-0.7,0.9c-4.5,5.2-9.8,9.4-15.8,12.8c-7.3,4.2-15.1,6.9-23.5,8.1c-4.1,0.6-8.3,0.5-12.4,0
				c-6.8-0.7-13.4-2.5-19.6-5.4c-6.8-3.1-12.7-7.4-18-12.7c-0.2-0.2-0.4-0.5-0.7-0.8c0.8-0.1,1.4-0.2,2-0.3c2.5-0.6,5-1.2,7.5-1.8
				c0.5-0.1,0.9-0.3,1.4,0.1c5.6,4.5,12.1,7.4,18.8,9.6c4.8,1.6,9.6,2.9,14.6,3.5c2.4,0.3,4.9,0.3,7.4,0.3c3.7,0,7.4-0.4,11-1.1
				c9.2-1.7,17.7-5.1,25-11.2c0.9-0.7,1.7-1.5,2.6-2.3C112.8,385.4,112.8,385.4,112.9,385.5z"/>
			<path d="M127.3,298.4c0.3,0.3,0.6,0.6,0.9,0.9c8.1,8.5,13.5,18.5,16.5,29.9c1.6,5.9,2.3,11.9,1.9,18c-1,15.8-6.7,29.7-17.6,41.3
				c-0.6,0.7-1.2,1.3-2,2.1c-0.1-0.4-0.2-0.6-0.2-0.8c-0.3-3.2-1-6.3-1.8-9.4c-0.1-0.5-0.2-0.9,0.2-1.4c3.8-4.7,6.5-10.1,8.6-15.7
				c2.2-5.8,4-11.8,5-18c0.3-2,0.4-4,0.4-5.9c0.2-7.2-0.5-14.2-2.4-21.2c-1.9-7-4.9-13.4-9.5-19.1c-0.1-0.1-0.2-0.3-0.3-0.4
				C127.2,298.5,127.3,298.4,127.3,298.4z"/>
			<path d="M39.4,281.6c0.9-1,1.8-2,2.8-2.9c9.1-8.3,19.8-13.6,31.9-15.9c12.2-2.4,23.8-0.3,35,4.7c7.8,3.5,14.5,8.7,20.3,15.1
				c0.2,0.2,0.4,0.4,0.5,0.6c0,0.1,0,0.1,0,0.3c-1.6,0.2-3.2,0.4-4.8,0.7c-1.4,0.3-2.9,0.6-4.3,0.9c-0.5,0.1-0.9,0.1-1.3-0.3
				c-4.9-4.5-10.6-7.6-16.7-10.1c-5.2-2.2-10.6-3.8-16.1-4.9c-1.5-0.3-3-0.5-4.5-0.6c-7.1-0.5-14.2-0.1-21.1,1.6
				c-7.3,1.8-14,4.8-19.9,9.5c-0.6,0.5-1.1,0.9-1.7,1.4C39.6,281.7,39.5,281.6,39.4,281.6z"/>
			<path d="M313.9,430.1c0.2-1.5,0.4-2.9,0.6-4.5c2.1,1.1,4.2,0.7,6.4,0.8c1.8,0,3.7,0,5.5,0c1.1,0,2.2-1.4,1.8-2.5
				c-0.1-0.3-0.4-0.5-0.6-0.6c-0.3-0.1-0.7-0.1-1.1-0.1c-2,0-4,0-6,0c-0.7,0-1.4-0.1-2.1-0.3c-1.5-0.4-2.3-1.4-2.2-3
				c0-0.8,0.2-1.7,0.4-2.5c0.4-1.8,1-3.6,1.4-5.4c0.8-3.5,3.3-4.6,5.8-4.6c5.4-0.1,10.8,0,16.3,0c0.2,0,0.3,0,0.6,0.1
				c-0.2,1.5-0.3,3-0.5,4.7c-1.7-1.1-3.4-0.9-5.2-0.9c-2.1,0-4.2,0-6.3,0c-1.5,0-2.4,1.1-2.2,2.5c0,0.3,0.3,0.6,0.6,0.7
				c0.4,0.1,0.8,0.1,1.2,0.1c2.2,0,4.4,0,6.6,0c0.5,0,1,0.1,1.4,0.2c1.2,0.3,1.8,1.1,2.1,2.2c0.1,0.4,0.1,0.9,0,1.3
				c-0.7,3-1.4,6-2.3,8.9c-0.6,1.8-2.1,2.7-4,3c-0.5,0.1-1,0.1-1.4,0.1c-5.4,0-10.8,0-16.1,0C314.3,430.2,314.2,430.1,313.9,430.1z"
				/>
			<path d="M215.4,407.5c3,0,5.9,0,8.9,0c-0.5,2.2-1.1,4.3-1.6,6.6c1.7-0.9,3.4-0.6,5-0.6c1.3,0,2.6,0,3.9,0.2
				c2.3,0.3,3.9,2.6,3.5,4.9c-0.5,2.5-1.2,4.9-1.8,7.4c-0.2,0.7-0.4,1.4-0.5,2.1c-0.1,0.7,0,1.4,0,2.2c-3.1,0-6.3,0-9.4,0
				c1.7-3.1,2.1-6.5,3.1-9.7c0.2-0.5,0.3-1.1,0.4-1.6c0.3-1.5-0.1-2-1.6-2.1c-0.4,0-0.7,0-1.1,0c-1.9,0-2.3,0.3-2.8,2.2
				c-0.6,2.5-1.3,4.9-1.9,7.4c-0.3,1.2-0.6,2.5-0.3,3.8c-3.2,0-6.3,0-9.5,0c1.7-3.1,2.1-6.5,3.1-9.7c0.7-2.5,1.3-5.1,2-7.6
				C215.1,411,215.7,409.4,215.4,407.5z"/>
			<path d="M385.4,430.2c-2,0-4,0-6,0c-1,0-1.9,0-2.8-0.6c-1.6-1.1-2.1-2.7-1.7-4.5c0.6-2.8,1.4-5.6,2.1-8.3c0.5-1.6,1.5-2.7,3.2-3
				c1-0.2,2-0.3,3-0.4c3.8,0,7.6,0,11.4,0c1.5,0,2.7,0.5,3.7,1.7c0.8,1,1,2.2,0.8,3.4c-0.3,1.4-0.6,2.9-1,4.3
				c-0.3,1.3-0.6,2.6-1,3.8c-0.7,2.3-2.1,3.4-4.4,3.5C390.3,430.2,387.8,430.1,385.4,430.2C385.4,430.2,385.4,430.2,385.4,430.2z
				 M385.8,427C385.8,427,385.8,427,385.8,427c0.4,0,0.7,0,1.1,0c1.6,0,1.9-0.3,2.3-1.8c0.5-2,1-4,1.5-6c0.1-0.3,0.2-0.6,0.2-0.9
				c0.1-1-0.2-1.4-1.2-1.5c-1-0.1-2.1,0-3.1,0c-0.8,0-1.3,0.5-1.5,1.3c-0.7,2.5-1.3,5.1-1.9,7.6c-0.2,0.7,0.1,1.1,0.8,1.2
				C384.5,426.9,385.2,426.9,385.8,427z"/>
			<path d="M552.8,430.1c-2.7,0-5.3,0-8,0c-0.1-0.3-0.2-0.6-0.4-0.9c-0.1,0-0.2,0-0.2,0c-0.7,0.8-1.7,1-2.7,1c-1.8,0-3.6,0-5.4,0
				c-1.3,0-2.5-0.3-3.5-1.2c-1-1-1.4-2.1-1.2-3.5c0.2-1.2,0.5-2.3,0.9-3.5c0.6-1.8,1.8-2.9,3.8-3c1.9-0.1,3.8-0.1,5.7-0.1
				c1.1,0,2.2,0,3.2,0c0.4,0,0.8,0,1.2-0.1c0.5-0.1,0.8-0.7,0.7-1.2c0-0.5-0.4-0.8-0.9-0.8c-0.4-0.1-0.8-0.1-1.2-0.1
				c-2.6,0-5.3,0-7.9,0c-1.1,0-2.2,0.2-3.4,0.4c0.5-1.1,1-2.3,1.6-3.3c0.1-0.2,0.4-0.3,0.6-0.3c0.2-0.1,0.5,0,0.7,0
				c4.7,0,9.4,0,14.1,0c3.2,0,5.1,2.2,4.5,5.4c-0.4,2.1-1,4.3-1.6,6.4C553,426.8,552.5,428.4,552.8,430.1z M545.8,422.2
				c-1.6,0-2.9,0-4.3,0c-0.7,0-1.2,0.4-1.4,1.1c-0.2,0.7-0.4,1.5-0.6,2.2c-0.2,0.9,0,1.2,0.9,1.3c1.1,0.1,2.2,0,3.3,0
				c0.6,0,0.9-0.4,1.1-0.9C545.2,424.8,545.5,423.6,545.8,422.2z"/>
			<path d="M403.1,413.4c2.6,0,5.4,0,8.2,0c0.1,0.2,0.2,0.4,0.3,0.6c0.7-0.5,1.5-0.7,2.4-0.6c1.8,0,3.7,0,5.5,0c3.2,0,5,2,4.6,5.1
				c-0.1,1.3-0.5,2.5-0.8,3.7c-0.3,1.4-0.7,2.8-1.1,4.2c-0.3,1.2-0.6,2.4-0.3,3.7c-3.2,0-6.3,0-9.5,0c1.8-3.4,2.2-7.1,3.3-10.6
				c0.1-0.5,0.3-1,0.4-1.5c0.1-0.7-0.1-1.2-0.8-1.2c-1.1-0.1-2.3-0.1-3.5,0c-0.7,0.1-1,0.7-1.2,1.3c-0.5,1.7-0.9,3.5-1.4,5.2
				c-0.3,1.2-0.7,2.3-0.9,3.5c-0.2,1-0.3,2.1-0.4,3.2c-0.6,0.2-7.6,0.3-9.1,0c0.5-1.3,1-2.6,1.4-3.9c0.9-3.1,1.7-6.3,2.5-9.5
				C403,415.7,403,414.7,403.1,413.4z"/>
			<path d="M518.3,430.1c-3.1,0-6.4,0-9.7,0c0-0.1-0.1-0.2-0.1-0.2c1.3-2.2,1.7-4.6,2.3-7c1-3.9,2-7.8,3-11.7
				c0.3-1.2,0.6-2.4,0.3-3.6c0.9-0.3,18.8-0.3,20.3,0c-0.2,1.3-0.3,2.7-0.5,4.1c-3.7-0.8-7.3-0.3-10.9-0.4c-0.1,0-0.2,0.1-0.4,0.1
				c-0.4,1.7-0.9,3.3-1.3,5.2c3.9-0.1,7.6,0.2,11.5-0.3c-0.3,1.5-0.7,3-1.1,4.3c-1.5-0.1-2.8-0.2-4.1-0.2c-2.3,0-4.7,0-7.1,0
				c-0.1,0.3-0.2,0.5-0.3,0.8c-0.5,2-1.1,3.9-1.5,5.9C518.5,428,518.5,429,518.3,430.1z"/>
			<path d="M578.4,413.4c0,1.3,0,2.5,0,3.8c-0.4-0.1-0.6-0.1-0.9-0.1c-0.9-0.1-1.8-0.3-2.7-0.3c-2.4,0-4.9,0-7.3,0
				c-0.3,0-0.7,0-0.9,0.1c-0.2,0.1-0.5,0.5-0.5,0.7c0,0.2,0.4,0.5,0.6,0.5c0.4,0.1,0.9,0.1,1.3,0.1c1.8,0,3.6,0,5.4,0
				c2.5,0,4,1.7,3.6,4.2c-0.3,1.6-0.7,3.2-1.2,4.7c-0.6,1.8-2.1,2.8-3.9,3c-0.6,0.1-1.1,0.1-1.7,0.1c-4.5,0-9.1,0-13.6,0
				c-0.4,0-0.8,0-1.3,0c0.1-1.3,0.3-2.5,0.4-3.7c3.7,0.6,7.3,0.4,10.8,0.4c1.2,0,1.5-0.3,1.5-1.6c-0.5-0.1-1-0.2-1.5-0.2
				c-1.6,0-3.1,0-4.7,0c-0.5,0-1,0-1.5-0.1c-2.1-0.2-3.4-1.7-3.1-3.7c0.2-1.9,0.7-3.8,1.5-5.6c0.6-1.3,1.6-2,3.1-2.2
				c0.8-0.1,1.5-0.2,2.3-0.2c4.4,0,8.8,0,13.1,0C577.5,413.4,577.9,413.4,578.4,413.4z"/>
			<path d="M263.4,423.4c-0.2,0.8-0.4,1.4-0.5,2.1c-0.1,0.8,0.1,1.2,1,1.3c0.3,0,0.6,0.1,0.8,0.1c3.5-0.1,7.1-0.1,10.6-0.2
				c0.2,0,0.4,0,0.7-0.1c-0.5,1.2-0.9,2.3-1.4,3.4c-0.3,0-0.7,0.1-1,0.1c-4.6,0-9.2,0-13.9,0c-0.8,0-1.6-0.1-2.3-0.4
				c-1.9-0.6-3-2.5-2.8-4.5c0.1-0.6,0.2-1.2,0.4-1.9c0.5-2,1.1-4.1,1.6-6.1c0.7-2.6,2.2-3.9,4.8-4c4.1-0.1,8.1,0,12.2,0
				c0,0,0.1,0,0.1,0c4.1,0.2,5.1,3.1,4.4,5.9c-0.4,1.3-0.7,2.6-1.1,4.1c-1.5,0-3,0-4.5,0c-1.6,0-3.1,0-4.7,0
				C266.6,423.4,265.1,423.4,263.4,423.4z M264.3,420.2c2,0,3.7,0,5.5,0c0.2-0.6,0.3-1.1,0.4-1.5c0.1-0.2,0.1-0.4,0.1-0.6
				c0.1-0.8-0.1-1.3-0.9-1.3c-1.1-0.1-2.1,0-3.2,0c-0.5,0-0.9,0.3-1.1,0.8C264.8,418.3,264.6,419.1,264.3,420.2z"/>
			<path d="M472.1,423.4c-4.7,0-9.2,0-13.8,0c-0.2,0.7-0.4,1.5-0.6,2.2c-0.1,0.7,0.2,1.1,0.9,1.2c0.5,0.1,1.1,0.1,1.7,0.1
				c2.5,0,5.1,0,7.6,0c0.9,0,1.9-0.1,3-0.2c-0.4,1.1-0.8,2.1-1.3,3c-0.1,0.2-0.4,0.4-0.6,0.4c-0.3,0.1-0.6,0-0.8,0
				c-4.4,0-8.8,0-13.3,0c-0.6,0-1.3,0-1.9-0.1c-2.4-0.5-3.9-2.6-3.4-5c0.6-2.8,1.3-5.5,2.1-8.2c0.6-2.2,2.2-3.4,4.6-3.4
				c4.1-0.1,8.1-0.1,12.2,0c0.9,0,1.9,0.2,2.7,0.7c1.5,0.8,2.2,2.2,1.9,3.8C472.9,419.7,472.5,421.5,472.1,423.4z M459.1,420.1
				c1.9,0,3.7,0,5.5,0c0.2-0.7,0.4-1.4,0.5-2.1c0.1-0.9-0.1-1.2-1-1.2c-1-0.1-2,0-3,0c-0.7,0-1.2,0.4-1.4,1.1
				C459.5,418.5,459.3,419.2,459.1,420.1z"/>
			<path d="M619.1,423.4c-4.7,0-9.2,0-13.8,0c-0.2,0.8-0.4,1.5-0.5,2.3c-0.1,0.6,0.2,1,0.9,1.1c0.6,0.1,1.3,0.1,1.9,0.1
				c2.4,0,4.9,0,7.3,0c1,0,2-0.1,3.1-0.2c-0.5,1.2-0.9,2.3-1.4,3.4c-0.4,0-0.7,0.1-1.1,0.1c-4.5,0-9.1,0-13.6,0
				c-0.8,0-1.7-0.1-2.5-0.4c-2-0.6-3.2-2.6-2.7-4.6c0.7-2.9,1.4-5.7,2.2-8.5c0.6-2.1,2.3-3.2,4.6-3.3c4-0.1,8,0,12.1,0
				c0.3,0,0.6,0.1,0.9,0.1c2.4,0.1,4.2,2.1,3.8,4.9C620,420.1,619.5,421.7,619.1,423.4z M606.2,420.1c1.9,0,3.7,0,5.5,0
				c0.2-0.8,0.4-1.5,0.5-2.2c0.1-0.8-0.2-1.1-1-1.2c-1,0-2.1,0-3.1,0c-0.7,0-1.1,0.4-1.3,1C606.6,418.5,606.4,419.2,606.2,420.1z"/>
			<path d="M155.7,407.4c3.4,0,6.7,0,10,0c-0.1,0.3-0.2,0.5-0.3,0.8c-0.4,0.9-0.8,1.8-1.1,2.8c-1.3,4.9-2.5,9.8-3.8,14.7
				c0,0.2-0.1,0.4-0.1,0.7c4-0.1,7.9,0.3,12-0.3c-0.5,1.5-1,2.8-1.6,4.1c-6.9,0-13.8,0-20.8,0c0.2-0.3,0.3-0.5,0.4-0.8
				c0.5-1.3,1-2.7,1.4-4c1.2-4.6,2.4-9.3,3.6-14C155.7,410.1,156,408.8,155.7,407.4z"/>
			<path d="M582.3,416.7c-1.2,0-2.2,0-3.3,0c0.3-1.2,0.6-2.2,0.8-3.3c1.2,0,2.2,0,3.4,0c0.3-1.1,0.6-2.1,0.9-3.2
				c2.7-0.2,5.5-0.3,8.4-0.5c-0.3,1.3-0.6,2.4-0.9,3.7c2.2,0,4.3,0,6.6,0c-0.3,1.2-0.6,2.2-0.8,3.3c-2.2,0-4.3,0-6.5,0
				c-0.1,0.4-0.3,0.7-0.4,1c-0.6,2.3-1.2,4.7-1.8,7c-0.4,1.5-0.1,1.9,1.4,2.1c1.9,0.2,3.7,0.2,5.7-0.4c-0.2,0.7-0.3,1.3-0.4,1.9
				c-0.1,0.6-0.3,1.1-0.5,1.7c-0.2,0.1-0.3,0.1-0.4,0.1c-3.5,0-6.9,0-10.4-0.1c-2.1-0.1-3.6-1.5-3.8-3.4c-0.1-0.8,0.1-1.6,0.2-2.3
				c0.5-2.2,1.1-4.4,1.7-6.6C582.2,417.4,582.2,417.1,582.3,416.7z"/>
			<path d="M342.5,416.7c-1.2,0-2.2,0-3.4,0c0.3-1.2,0.5-2.2,0.8-3.3c1.2,0,2.3,0,3.4,0c0.3-1.1,0.6-2.1,0.9-3.2
				c2.7-0.2,5.4-0.3,8.4-0.5c-0.3,1.3-0.6,2.4-0.9,3.7c2.2,0,4.3,0,6.4,0c0.1,1.2-0.5,2.2-0.6,3.3c-2.3,0-4.4,0-6.6,0
				c-0.2,0.7-0.4,1.4-0.6,2c-0.5,2-1,4-1.5,6c0,0.2-0.1,0.3-0.1,0.5c-0.2,1,0.1,1.4,1.1,1.6c1.8,0.3,3.6,0.3,5.5-0.2
				c0.2,0,0.3-0.1,0.6-0.1c-0.1,1.3-0.6,2.4-0.8,3.5c-0.1,0.1-0.2,0.2-0.3,0.2c-3.4,0-6.8,0-10.3-0.1c-3.2-0.1-4.7-3-4-5.5
				c0.6-2.1,1.1-4.2,1.7-6.3C342.2,417.8,342.3,417.4,342.5,416.7z"/>
			<path d="M253.8,426.5c-0.3,1.3-0.6,2.5-0.9,3.5c-0.2,0.1-0.2,0.2-0.3,0.2c-3.5,0-6.9,0-10.4-0.1c-1.1,0-2.2-0.4-3-1.3
				c-1.1-1.2-1.3-2.6-0.9-4.1c0.4-1.6,0.8-3.2,1.2-4.7c0.3-1,0.5-2.1,0.8-3.2c-1.2,0-2.2,0-3.4,0c0.3-1.1,0.5-2.2,0.8-3.3
				c1.2,0,2.3,0,3.4,0c0.3-1.1,0.6-2.1,0.9-3.2c2.8-0.2,5.5-0.3,8.4-0.5c-0.3,1.3-0.6,2.4-0.9,3.7c2.2,0,4.3,0,6.6,0
				c-0.3,1.2-0.5,2.2-0.8,3.3c-2.2,0-4.4,0-6.6,0c-0.3,1.3-0.7,2.6-1,3.8c-0.4,1.5-0.8,2.9-1.1,4.4c-0.3,1.4-0.1,1.8,1.4,2
				c1.7,0.2,3.4,0.2,5.1-0.2C253.3,426.6,253.4,426.6,253.8,426.5z"/>
			<path d="M484.8,415.5c1.1-1.8,2.8-2.2,4.6-2.1c1.4,0,2.8,0,4.3,0c-0.5,1.9-0.9,3.6-1.4,5.5c-2.1-1.1-4.3-0.7-6.4-0.7
				c-0.8,0-1.3,0.5-1.5,1.3c-0.7,2.8-1.5,5.6-2.1,8.4c-0.2,0.7,0,1.5,0,2.3c-3.2,0-6.2,0-9.4,0c1.9-4.1,2.5-8.6,3.8-12.8
				c0.4-1.2,0.6-2.5,0.3-3.8c2.6,0,5,0,7.6,0c0,0.7,0,1.3,0,1.9C484.7,415.4,484.7,415.5,484.8,415.5z"/>
			<path d="M629.4,430.1c-3.2,0-6.3,0-9.4,0c2-4.4,2.7-9.1,4-13.6c0.3-0.9,0.2-1.9,0.3-3c2.4,0,4.8,0,7.4,0c0,0.7,0,1.3,0,2
				c0.2,0,0.2,0,0.2,0c1.1-1.7,2.7-2.1,4.5-2.1c1.4,0,2.8,0,4.4,0c-0.5,1.9-0.9,3.6-1.4,5.5c-2.1-1.1-4.3-0.7-6.4-0.7
				c-0.9,0-1.4,0.7-1.6,1.5c-0.6,2.2-1.1,4.4-1.7,6.6C629.4,427.5,629.2,428.7,629.4,430.1z"/>
			<path d="M282.4,413.5c2.4,0,4.8,0,7.4,0c0,0.7,0,1.4,0,2.3c0.3-0.4,0.5-0.5,0.6-0.7c0.7-0.9,1.6-1.5,2.7-1.5c1.9-0.1,3.8,0,5.9,0
				c-0.5,1.8-0.9,3.6-1.4,5.4c-2.1-1.2-4.4-0.7-6.5-0.7c-0.8,0-1.2,0.5-1.4,1.3c-0.7,2.8-1.5,5.7-2.2,8.6c-0.1,0.6,0,1.3,0,2
				c-0.8,0.3-7.8,0.4-9.3,0.1c0.5-1.3,1-2.5,1.4-3.9c0.9-3.1,1.7-6.3,2.5-9.5C282.3,415.7,282.3,414.7,282.4,413.5z"/>
			<path d="M377,413.4c-0.5,1.9-0.9,3.6-1.4,5.4c-2.1-1.2-4.3-0.7-6.4-0.7c-0.8,0-1.3,0.5-1.5,1.3c-0.7,2.9-1.5,5.9-2.2,8.8
				c-0.1,0.6,0,1.2,0,1.9c-3.1,0-6.2,0-9.4,0c0.1-0.3,0.3-0.5,0.4-0.8c0.5-1.4,1.1-2.8,1.5-4.3c0.8-2.7,1.5-5.4,2.1-8.1
				c0.3-1.1,0.3-2.3,0.5-3.6c2.3,0,4.8,0,7.3,0c0,0.7,0,1.4,0,2c0.1,0.1,0.2,0.1,0.3,0.2c0-0.2,0.1-0.3,0.1-0.5
				c0.7-1.1,1.8-1.7,3.1-1.8C373.1,413.4,375,413.4,377,413.4z"/>
			<path d="M182.3,430.1c-3.2,0-6.3,0-9.5,0c1.7-2.8,2-6,2.9-8.9c0.4-1.3,0.6-2.5,1-3.8c0.4-1.3,0.6-2.5,0.3-3.9c3,0,5.9,0,8.9,0
				c-0.4,1.8-0.9,3.4-1.3,5.1c-0.7,2.6-1.3,5.1-2,7.7C182.3,427.5,182,428.8,182.3,430.1z"/>
			<path d="M292.6,430.2c0.5-2,1-3.9,1.5-5.9c2.8-0.1,5.6,0,8.6-0.1c-0.4,1.4-0.8,2.6-1,3.8c-0.2,1.6-1.1,2.7-2.5,3.5
				c-1.3,0.7-2.5,1.6-3.6,2.5c-0.7,0.5-1.4,0.8-2.3,0.7c-0.5-0.1-1,0-1.8,0c1.3-1.7,2.7-2.9,4-4.6
				C294.5,430.2,293.6,430.2,292.6,430.2z"/>
			<path d="M497.5,424.3c-0.5,1.9-0.9,3.8-1.4,5.5c-0.1,0.3-0.4,0.6-0.7,0.8c-1.8,1.3-3.6,2.5-5.4,3.8c-0.4,0.2-0.9,0.4-1.3,0.4
				c-0.7,0.1-1.4,0-2.4,0c1.4-1.6,2.7-3,4-4.4c-0.9-0.4-1.9,0-2.8-0.4c0.5-1.9,1-3.8,1.5-5.8C491.8,424.3,494.5,424.3,497.5,424.3z"
				/>
			<path d="M179.3,407.4c2.8,0,5.4,0,8.2,0c-0.2,1.5-0.7,2.9-1,4.4c-2.8,0-5.4,0-8.3,0C178.5,410.3,178.9,408.9,179.3,407.4z"/>
			<path d="M199.3,359.9c0.6-3.2,1.1-6.3,1.7-9.4c0.5,0,0.9,0,1.4,0c13.9,0,27.8,0,41.7,0c1.3,0,2.5,0.1,3.8,0.3
				c0.3,0,0.6,0.1,0.9,0.2c1.5,0.5,2.2,1.3,2.1,2.9c0,0.9-0.2,1.9-0.5,2.8c-0.5,1.5-1.7,2.3-3.1,2.7c-1.6,0.5-3.2,0.6-4.8,0.6
				c-12.7,0-25.5,0-38.2,0c-1.2,0-2.4,0-3.6,0C200.3,359.9,199.9,359.9,199.3,359.9z"/>
			<path d="M204.6,330.2c0.6-3.2,1.1-6.2,1.7-9.4c0.5,0,0.9,0,1.3,0c4,0,8,0,12,0c10,0,19.9,0,29.9,0.1c0.8,0,1.7,0.1,2.5,0.3
				c1.4,0.3,2,1,2,2.4c0.1,1.5-0.2,2.9-0.9,4.1c-0.9,1.6-2.4,2.3-4.1,2.5c-0.8,0.1-1.7,0.1-2.5,0.1c-3.9,0-7.8,0-11.7,0
				c-9.6,0-19.3-0.1-28.9-0.1C205.5,330.2,205.1,330.2,204.6,330.2z"/>
		</g>
	</g>
</g>
</svg>
