<?xml version="1.0" encoding="utf-8"?>
<!-- Generator: Adobe Illustrator 26.3.1, SVG Export Plug-In . SVG Version: 6.00 Build 0)  -->
<svg version="1.1" id="Layer_1" xmlns="http://www.w3.org/2000/svg" xmlns:xlink="http://www.w3.org/1999/xlink" x="0px" y="0px"
	 viewBox="0 0 820.2 489.6" style="enable-background:new 0 0 820.2 489.6;" xml:space="preserve">
<style type="text/css">
	.st0{fill:#F15A22;}
	.st1{fill:#FFF200;}
	.st2{fill:#B2D235;}
	.st3{fill:#AB4A9C;}
	.st4{fill:#ED1164;}
</style>
<g>
	<path class="st0" d="M692.3,136.2c24.9,0,47.1,11.9,61.2,30.2l-23.7,40.9l-41-71.1C690.1,136.4,691.2,136.2,692.3,136.2z"/>
	<path class="st1" d="M682.2,137l23.6,40.9h-34.1h-48C635.2,156.1,656.8,140.4,682.2,137z"/>
	<path class="st2" d="M615,213.7c0-10.4,2.1-20.4,5.9-29.6h47.3l-41,71C619.4,243.1,615,228.9,615,213.7z"/>
	<path class="st3" d="M692.3,291c-24.9,0-47.1-11.9-61.2-30.2l23.6-41l41,71.1C694.5,290.9,693.4,291,692.3,291z"/>
	<path class="st4" d="M702.5,290.2l-23.7-41H713h48C749.4,271.1,727.9,286.9,702.5,290.2z"/>
	<path d="M76,335.1H63.8v7.3h11.9v4.3H63.9V357h12.2v4.3H59.2v-30.4H76C76,330.9,76,335.1,76,335.1z"/>
	<path d="M94.5,361.2v-30.4h6.4c3.1,0,5.4,0.3,7.2,0.9c1.9,0.6,3.7,1.6,5.2,3c3.1,2.9,4.7,6.7,4.7,11.3s-1.7,8.4-4.9,11.3
		c-1.7,1.4-3.3,2.4-5.2,3c-1.7,0.6-4.1,0.9-7.1,0.9H94.5z M99.2,356.9h2.1c2.1,0,3.8-0.2,5.1-0.7c1.3-0.4,2.6-1.2,3.7-2.2
		c2.2-2.1,3.4-4.8,3.4-8.1c0-3.3-1.1-6-3.3-8.1c-2-1.9-5-2.8-8.9-2.8h-2.1C99.2,335,99.2,356.9,99.2,356.9z"/>
	<path d="M136.9,330.8l7.9,20.3l8.3-21.8l7.9,21.8l8.4-20.3h5l-13.7,32.3l-7.8-21.6l-8.2,21.6l-12.9-32.4h5V330.8z"/>
	<path d="M206,353.8h-13l-3.4,7.4h-4.9l15.1-32.3l14.6,32.3h-5L206,353.8z M204.1,349.5l-4.6-10.3l-4.8,10.3H204.1z"/>
	<path d="M240.9,348.2l9.4,13h-5.7l-8.7-12.4h-0.8v12.4h-4.6v-30.4h5.3c4,0,6.9,0.8,8.7,2.2c2,1.7,3,3.9,3,6.7c0,2.1-0.7,4-1.9,5.6
		C244.5,346.8,242.9,347.8,240.9,348.2z M235.2,344.8h1.4c4.3,0,6.6-1.7,6.6-5c0-3.1-2.1-4.7-6.3-4.7h-1.7V344.8z"/>
	<path d="M267.4,361.2v-30.4h6.4c3.1,0,5.4,0.3,7.2,0.9c1.9,0.6,3.7,1.6,5.2,3c3.1,2.9,4.7,6.7,4.7,11.3s-1.7,8.4-4.9,11.3
		c-1.7,1.4-3.3,2.4-5.2,3c-1.7,0.6-4.1,0.9-7.1,0.9H267.4z M272,356.9h2.1c2.1,0,3.8-0.2,5.1-0.7c1.3-0.4,2.6-1.2,3.7-2.2
		c2.2-2.1,3.4-4.8,3.4-8.1c0-3.3-1.1-6-3.3-8.1c-2-1.9-5-2.8-8.9-2.8H272L272,356.9L272,356.9z"/>
	<path d="M338.9,348.8v12.3h-4.6v-30.4h5.2c2.6,0,4.4,0.2,5.8,0.6c1.3,0.3,2.4,1,3.4,2c1.8,1.7,2.7,3.9,2.7,6.4c0,2.8-0.9,5-2.8,6.7
		c-1.9,1.7-4.3,2.4-7.6,2.4L338.9,348.8L338.9,348.8z M338.9,344.6h1.7c4.2,0,6.3-1.7,6.3-4.9c0-3.1-2.2-4.7-6.6-4.7h-1.6v9.6H338.9
		z"/>
	<path d="M373.1,342.7h13.1v-11.9h4.6v30.4h-4.6V347h-13.1v14.2h-4.6v-30.4h4.6V342.7z"/>
	<path d="M409.2,345.9c0-4.3,1.6-8,4.7-11c3.1-3.1,6.9-4.7,11.3-4.7c4.3,0,8.1,1.6,11.1,4.7c3.1,3.1,4.7,6.8,4.7,11.2
		c0,4.3-1.6,8.1-4.7,11.1c-3.1,3.1-6.9,4.6-11.3,4.6c-3.9,0-7.4-1.3-10.6-4.1C410.9,354.7,409.2,350.7,409.2,345.9z M413.8,345.9
		c0,3.3,1.1,6.1,3.4,8.3c2.2,2.2,4.9,3.2,7.8,3.2c3.2,0,5.9-1.1,8.1-3.3c2.2-2.2,3.3-5,3.3-8.1c0-3.2-1.1-6-3.2-8.1
		c-2.1-2.2-4.8-3.3-8-3.3c-3.2,0-5.9,1.1-8,3.3C414.9,340,413.8,342.7,413.8,345.9z"/>
	<path d="M466.6,335.1v26.1h-4.6v-26.1h-7v-4.3h18.6v4.3H466.6z"/>
	<path d="M487.8,345.9c0-4.3,1.6-8,4.7-11c3.1-3.1,6.9-4.7,11.3-4.7c4.3,0,8.1,1.6,11.1,4.7c3.1,3.1,4.7,6.8,4.7,11.2
		c0,4.3-1.6,8.1-4.7,11.1c-3.1,3.1-6.9,4.6-11.3,4.6c-3.9,0-7.4-1.3-10.6-4.1C489.4,354.7,487.8,350.7,487.8,345.9z M492.4,345.9
		c0,3.3,1.1,6.1,3.4,8.3c2.2,2.2,4.9,3.2,7.8,3.2c3.2,0,5.9-1.1,8.1-3.3c2.2-2.2,3.3-5,3.3-8.1c0-3.2-1.1-6-3.2-8.1
		c-2.1-2.2-4.8-3.3-8-3.3s-5.9,1.1-8,3.3C493.4,340,492.4,342.7,492.4,345.9z"/>
	<path d="M553.5,345.4h12.6v1c0,2.3-0.2,4.3-0.8,6.1c-0.6,1.7-1.4,3.1-2.7,4.6c-2.8,3.2-6.4,4.8-10.8,4.8c-4.2,0-7.9-1.6-11-4.7
		c-3-3.1-4.6-6.8-4.6-11.1c0-4.4,1.6-8.1,4.7-11.2c3.1-3.1,6.9-4.7,11.3-4.7c2.3,0,4.6,0.4,6.7,1.4c2,1,3.9,2.6,5.8,4.8l-3.2,3.1
		c-2.4-3.3-5.6-5-9.1-5c-3.2,0-5.9,1.1-8.1,3.3c-2.2,2.2-3.2,4.9-3.2,8.2c0,3.4,1.2,6.2,3.7,8.3c2.2,2,4.8,3.1,7.4,3.1
		c2.2,0,4.3-0.8,6.1-2.3c1.8-1.6,2.8-3.3,3-5.6h-7.8V345.4z"/>
	<path d="M594.8,348.2l9.4,13h-5.7l-8.7-12.4h-0.8v12.4h-4.6v-30.4h5.3c4,0,6.9,0.8,8.7,2.2c2,1.7,3,3.9,3,6.7c0,2.1-0.7,4-1.9,5.6
		S596.8,347.8,594.8,348.2z M589,344.8h1.4c4.3,0,6.6-1.7,6.6-5c0-3.1-2.1-4.7-6.3-4.7H589V344.8L589,344.8z"/>
	<path d="M639.1,353.8h-13l-3.4,7.4h-5l15.1-32.3l14.6,32.3h-5L639.1,353.8z M637.2,349.5l-4.6-10.3l-4.8,10.3H637.2z"/>
	<path d="M668.3,348.8v12.3h-4.6v-30.4h5.2c2.6,0,4.4,0.2,5.8,0.6c1.3,0.3,2.4,1,3.4,2c1.8,1.7,2.7,3.9,2.7,6.4c0,2.8-0.9,5-2.8,6.7
		c-1.9,1.7-4.3,2.4-7.6,2.4L668.3,348.8L668.3,348.8z M668.3,344.6h1.7c4.2,0,6.3-1.7,6.3-4.9c0-3.1-2.2-4.7-6.6-4.7h-1.6v9.6H668.3
		z"/>
	<path d="M702.6,342.7h13.1v-11.9h4.6v30.4h-4.6V347h-13.1v14.2H698v-30.4h4.6v11.9H702.6z"/>
	<path d="M746.3,348l-9.9-17.3h5.3l7,12.2l7-12.2h5.3l-10,17.3v13.1h-4.6V348H746.3z"/>
	<path d="M167.9,253.6h-66.3l-17.2,37.7H59.1l76.7-164.8l74,164.8h-25.6L167.9,253.6z M158.4,231.6l-23-52.7l-24.1,52.7H158.4z"/>
	<path d="M256,136.2v133h45.6v22h-69v-155H256z"/>
	<path d="M323.6,279.9c0-3.8,1.3-7,4.1-9.8c2.8-2.8,6-4.1,9.9-4.1c3.8,0,7.1,1.3,9.9,4.1c2.8,2.8,4.1,6,4.1,9.9
		c0,3.9-1.3,7.2-4.1,9.9c-2.7,2.7-6,4-9.9,4c-4,0-7.2-1.3-9.9-4C325,287.4,323.6,284,323.6,279.9z"/>
	<path d="M347.8,136.2l42.9,107.4l43.4-107.4h25.6l-69.6,166.7l-68-166.7C322.1,136.2,347.8,136.2,347.8,136.2z"/>
	<path d="M531.6,253.6h-66.3L448,291.2h-25.2l76.7-164.8l74,164.8h-25.6L531.6,253.6z M522.1,231.6l-23-52.7L475,231.6
		C475,231.6,522.1,231.6,522.1,231.6z"/>
	<path d="M590.4,279.9c0-3.8,1.3-7,4.1-9.8c2.8-2.8,6-4.1,9.9-4.1c3.8,0,7.1,1.3,9.9,4.1c2.8,2.8,4.1,6,4.1,9.9
		c0,3.9-1.3,7.2-4.1,9.9c-2.7,2.7-6,4-9.9,4c-4,0-7.2-1.3-9.9-4C591.9,287.4,590.4,284,590.4,279.9z"/>
</g>
</svg>
