<?xml version="1.0" encoding="utf-8"?>
<!-- Generator: Adobe Illustrator 26.3.1, SVG Export Plug-In . SVG Version: 6.00 Build 0)  -->
<svg version="1.1" id="Layer_1" xmlns="http://www.w3.org/2000/svg" xmlns:xlink="http://www.w3.org/1999/xlink" x="0px" y="0px"
	 viewBox="0 0 820.2 489.6" style="enable-background:new 0 0 820.2 489.6;" xml:space="preserve">
<style type="text/css">
	.st0{fill:#BCBCBC;}
	.st1{fill:#DADADA;}
	.st2{fill:#CECECE;}
	.st3{fill:#AEAEAE;}
	.st4{fill:#DCDCDC;}
	.st5{fill:#B9B9B9;}
	.st6{fill:#DFDFDF;}
	.st7{fill:#D1D1D1;}
	.st8{fill:#BABABA;}
	.st9{fill:#CDCDCD;}
	.st10{fill:#A2A2A2;}
	.st11{fill:#BFBFBF;}
	.st12{fill:#3C3C3C;}
	.st13{fill:#818181;}
	.st14{fill:#464646;}
	.st15{fill:#A6A6A6;}
	.st16{fill:#F9F9F9;}
	.st17{fill:#010101;}
	.st18{fill:#606060;}
	.st19{fill:#707070;}
	.st20{fill:#898989;}
	.st21{fill:#020202;}
	.st22{fill:#5A5A5A;}
	.st23{fill:#797979;}
	.st24{fill:#ADADAD;}
	.st25{fill:#929292;}
	.st26{fill:#787878;}
	.st27{fill:#C8C8C8;}
	.st28{fill:#8F8F8F;}
	.st29{fill:#A7A7A7;}
	.st30{fill:#7B7B7B;}
	.st31{fill:#9D9D9D;}
	.st32{fill:#B7B7B7;}
	.st33{fill:#B6B6B6;}
	.st34{fill:#C3C3C3;}
	.st35{fill:#0E0E0E;}
	.st36{fill:#D0D0D0;}
	.st37{fill:#424242;}
	.st38{fill:#989898;}
	.st39{fill:#EDEDED;}
	.st40{fill:#030303;}
	.st41{fill:#D9D9D9;}
	.st42{fill:#868686;}
	.st43{fill:#B4B4B4;}
	.st44{fill:#2F2F2F;}
	.st45{fill:#9A9A9A;}
	.st46{fill:#727272;}
	.st47{fill:#A1A1A1;}
	.st48{fill:#4C4C4C;}
	.st49{fill:#737373;}
	.st50{fill:#838383;}
	.st51{fill:#6B6B6B;}
	.st52{fill:#616161;}
	.st53{fill:#646464;}
	.st54{fill:#353535;}
	.st55{fill:#5D5D5D;}
	.st56{fill:#4B4B4B;}
	.st57{fill:#4A4A4A;}
	.st58{fill:#545454;}
	.st59{fill:#1F1F1F;}
	.st60{fill:#959595;}
	.st61{fill:#595959;}
	.st62{fill:#3D3D3D;}
	.st63{fill:#565656;}
</style>
<g>
	<path class="st0" d="M433.6,93.7c1.3,4,2.6,7.9,3.9,11.9c0.3,1.1,0.8,1.4,1.9,1.4c24.3,0,48.6,0,72.9,0c0.7,0,1.4-0.1,2.2,0.2
		c-0.3,0.9-1.2,1.2-1.8,1.7c-5.5,4.3-11,8.6-16.6,12.8c-1.6,1.3-3.2,2.6-5,3.7c-0.2,0.1-0.4,0.2-0.6,0.1c-0.3-0.8,0.4-1,0.9-1.4
		c1.5-1.1,2.9-2.2,3.7-4c-0.7,0-1.3,0.1-1.9,0c-0.5-0.1-1.1-0.2-1.2-0.8c-0.1-0.5,0.2-0.9,0.6-1.2c0.4-0.3,0.9-0.7,1.2-1.2
		c2.5-2.4,5.5-4.2,8.1-6.5c-0.5-0.4-1-0.2-1.5-0.2c-19.3,0-38.5,0-57.8,0c-1.1,0-2.1-0.1-3,0.9c-0.5,0.6-1.2,0.1-1.8-0.3
		c-2-1.4-4-2.8-6.1-4c-0.7-0.5-1.5-0.8-2.3-1.2c-0.9-0.4-1.6-1-2-2c-1.1-2.8-1.9-5.7-2.8-8.6c-2.3-7.7-4.7-15.5-7-23.2
		c-1.5-4.8-3-9.6-4.3-14.4c-0.2-0.7-0.3-1.3-1.2-1.3c-0.3-0.8-0.7-1.5-1.8-1.8c-1-0.3-1.7-1.6-1.5-2.7c0.6-4,1.9-7.8,3-11.7
		c0.1-0.4,0.4-0.8,0.9-0.8c0.6,0,0.8,0.5,0.9,0.9c0.9,3.2,1.9,6.4,2.9,9.6c0.1,0.4,0.2,0.8,0.3,1.2c3.1,9.1,5.6,18.4,8.6,27.5
		c1.1,3.4,1.9,6.9,3.4,10.2c0.3,0.8,0.6,1.5,1.6,1.5c0.2,0,0.5,0.1,0.6,0.3C431.7,91.8,433.1,92.4,433.6,93.7z"/>
	<path class="st1" d="M433.6,93.7c-0.7-1-2.3-1.3-2.4-2.9c0-0.2-0.3-0.5-0.5-0.4c-1.6,0.4-1.7-0.9-2-1.9c-1.8-4.8-3.3-9.8-4.8-14.8
		c-0.9-3.1-2.1-6.1-2.9-9.2c-0.7-2.5-1.7-4.9-2.2-7.5c-0.2-1.3-0.9-2.5-1.3-3.8c-1.3-4.3-2.6-8.6-3.9-12.9c-0.1-0.4-0.1-0.9-0.7-0.9
		c-0.5,0-0.4,0.5-0.5,0.9c-0.7,2.6-1.7,5.2-2.2,7.8c-0.3,1.7-1.3,3.4-0.4,5.1c0.2,0.4,0.5,1,1,0.9c1.6-0.1,1.7,0.9,1.6,2
		c0,0.1,0,0.1,0,0.2c-0.2,1.6-1.1,3.1-1.1,4.7c-1,4.3-2.3,8.4-3.6,12.6c-0.1,0.4-0.2,0.7-0.6,0.8c-0.6-0.4-0.4-1-0.3-1.5
		c0.1-0.6,0.2-1.2,0.5-1.7c0.9-1.4,0-2.7-0.4-4c-0.2-0.7-0.8-0.5-1.2,0c-1.1,1.4-1.4,3.1-2,4.6c-1.2,3.1-2.2,6.2-3.1,9.3
		c-0.9,3.4-2,6.8-3,10.1c-0.7,2.3-1.1,4.6-2,6.9c-0.3,0.6-0.4,1.3-0.5,1.9c-0.2,0.7-0.3,1.4-1.2,1.4c-0.2-0.2-0.3-0.5-0.3-0.8
		c0.1-0.9,0.2-1.8,0.6-2.6c0.6-0.7,0.7-1.5,0.9-2.3c0.7-3.1,1.8-6,2.7-9c0.3-1.1,0.5-2.1,0.3-3.4c-1.3,0.8-1.7,2.5-3.3,2.7
		c1.5-5,3.1-10,4.6-15C403.3,59,407,47,410.8,34.9c0.6-2.1,1.3-4.1,2.3-6.2c0.9,2.8,1.8,5.6,2.7,8.4c3.9,12.3,7.8,24.5,11.7,36.8
		c1.9,6.1,3.9,12.1,5.8,18.2C433.4,92.6,433.6,93.1,433.6,93.7z"/>
	<path d="M558.5,211.3c0.2,3.5-1.2,6.8-3.1,9.9c-2.7,4.5-5.3,9.1-9.1,12.8c-0.5,0.5-1,0.9-1.5,1.3c-1.7,1.4-3.3,1.6-4.5,0.7
		c-1.9-1.5-2.5-3.3-1.6-5.4c0.6-1.5,1.4-2.9,2.1-4.3c1.8-3.7,3.4-7.5,4.1-11.6c0.2-1.3,0.2-2.5,0.1-3.8c-0.3-2.8-0.2-5.6,1.3-8.2
		c1.2-2,2.6-2.5,4.8-1.9C555.4,202,558.9,205.3,558.5,211.3z"/>
	<path class="st2" d="M473.4,139.2c-3.4,2.9-7,5.5-10.5,8.2c-2.6,2-5.2,4-7.8,6c-0.7,0.6-1,1.2-0.7,2.2c0.6,1.7,1,3.4,1.4,5.1
		c0.2,1.6,0.5,3.2,1,4.8c0.1,0.4,0.2,0.7,0.1,1.1c-0.1,0.4-0.2,0.7-0.6,0.9c-0.4,0.1-0.8,0-1-0.3c-0.9-1.4-2.4-2.5-2.4-3.4
		c4.9,15.1,9.1,31.4,15.1,47.1c0.1-0.8,0.2-1.5,0-2.3c-0.1-0.3,0-0.7,0.4-0.8c0.4-0.1,0.6,0,0.9,0.3c0.7,0.9,1.2,1.8,1.5,2.9
		c0.5,1.8,1.1,3.5,1.9,5.1c0.8,2.5,1.5,5.1,2.3,7.6c-0.9,0-1-0.8-1.1-1.3c-0.5-2.1-1.8-3.4-3.8-4.1c-0.2-0.1-0.5-0.1-0.6-0.3
		c-0.7-1.1-1.3-1.6-2.3-0.3c-0.3,0.3-0.9,0-1.3-0.3c-0.8-0.7-1.7-1.1-2.5-1.8c-0.3-0.3-0.8-0.5-1.2-0.7c-0.7-0.2-1.4-0.3-1.5,0.8
		c0,0.3-0.2,0.6-0.6,0.7c-4.2-2.9-8.3-5.8-12.5-8.7c-0.1-0.1-0.2-0.2-0.3-0.3c-0.6-0.7-0.9-1.5-0.3-2.3c0.6-0.8,1.5-0.6,2.3-0.4
		c1.3,0.3,2.4,1.1,3.4,1.9c1.2,1,2.5,1.8,3.9,2.3c0.7,1.1,1.9,1.4,3,2c1.5,0.8,3,1.5,4.5,2.4c0.4,0.3,1,0.6,1.4,0.1
		c0.4-0.4,0.2-1,0.1-1.5c-0.2-0.6-0.5-1-0.8-1.5c-1.3-1.8-2.1-3.8-2.1-6c0-1-0.4-1.8-1.1-2.6c-0.8-0.9-1.2-2-1.4-3.2
		c-0.4-2.7-1.3-5.2-2.5-7.6c-0.5-0.9-1-1.8-1.2-2.9c-0.6-4-2.5-7.5-4.2-11.1c-0.5-1-0.6-2.2-1.5-2.8c0,0.2,0.1,0.5-0.2,0.8
		c-0.9,0-0.6-0.9-1-1.2c-0.6-0.8-0.6-1.8-0.9-2.7c-0.6-2-1.1-4.1-1.9-6c-0.8-2.1-0.8-4,0.5-5.9c0.9-1.5,1.8-3,2-4.7
		c0-0.1,0.1-0.3,0.2-0.4c1.1-1.3,1.3-3,1.5-4.6c0.1-0.3,0.2-0.5,0.4-0.7c0.4-0.3,0.8-0.5,1.2-0.7c0.7-0.3,1.2-0.2,1.6,0.6
		c0.7,1.5,1.4,1.6,2.9,0.6c4.2-2.8,8.6-5.4,12.5-8.7c0.6-0.5,1.4-0.9,2.1-1.4C472.4,139,472.8,138.7,473.4,139.2z"/>
	<path class="st2" d="M368.9,150.2c-2.4-1.4-4.5-3.3-6.7-5c-5.6-4.2-11.1-8.4-16.7-12.6c-4.8-3.6-9.6-7.3-14.4-11
		c1.3-0.7,2-0.6,2.9,0.4c0.8,0.9,1.9,1.3,2.9,1.9c0.5,0.3,1-0.1,1.4-0.4c0.9-1,1.8-0.9,2.6,0.1c0.2,0.2,0.5,0.4,0.8,0.5
		c3.2,2.1,6.2,4.4,9.2,6.8c1.6,1.3,3.4,2.4,4.9,3.7c1.8,1.5,3.7,2.7,5.4,4.3c3.3,2.4,6.6,4.9,10.1,7.2c-1.3-1.2-2.1-2.7-2.1-4.6
		c0-0.4-0.3-0.9,0.2-1.1c0.4-0.2,0.8,0,1.2,0.3c0.6,0.4,1.2,0.8,1.8,1.1c2,0.9,1.8,2.8,2,4.4c0.1,0.9,0.2,1.8,0.5,2.7
		c0.3,1.6,1,3.1,1,4.7c-0.1,0.2-0.3,0.2-0.5,0.1C373.3,152.4,370.9,151.6,368.9,150.2z"/>
	<path class="st3" d="M394.6,98.2c-0.2,0.8-0.4,1.7-0.6,2.5c-0.2,1.3-0.2,2.6-0.7,3.9c-0.1,0.8-0.7,1.7,0.5,2.1c0,0.1,0,0.3-0.1,0.4
		c-1.6,1.1-3.5,1.7-4.8,3.2c-0.2,0.3-0.6,0.3-0.9,0.1c-0.5-0.2-1-0.2-1.5-0.2c-7.8,0-15.5,0-23.3,0c-1.1,0-2.3,0.1-3.3,0.5
		c-0.9,0.3-1.5,0.9-1.3,2c0.4,1.8,0.6,1.9,2,2c0.9,0.1,2-0.4,2.7,0.6c-0.2,0.3-0.5,0.4-0.8,0.4c-3.1,0.2-6.2-0.1-9.2-0.3
		c-0.4,0-0.8-0.2-1-0.7c-0.3-1.2-1.2-2.3-0.7-3.6c0.4-1-0.6-0.9-1.1-1.2c-1-0.8-2.2-1-3.4-0.7c-0.8,0.2-1.6,0.2-2.5,0
		c-2.2-0.5-4.4-0.2-6.6-0.3c-0.8,0-2,0.3-2-0.9c0-1,1.2-0.7,2-0.8c3.4-0.3,6.8-0.3,10.2-0.2c0.7,0,1.4-0.1,2.1-0.2
		c12.2,0,24.3,0,36.5,0c1.2,0,1.9-0.2,2.2-1.5c0.3-1.2,0.8-2.4,1.2-3.6c0.8-1.6,1.5-3.3,2.4-4.9c0.3-0.6,0.9-1.3,1.7-0.8
		C395,96.7,395,97.5,394.6,98.2z"/>
	<path class="st4" d="M472.8,215.9c-1.1-1.3-1.7-2.9-2.1-4.5c-0.3-1.2-0.9-2.2-1.5-3.3c-0.1-0.2-0.2-0.4-0.5-0.3
		c-0.3,0.1-0.2,0.4-0.1,0.6c0.5,1.1,0,2.1-0.2,3.3c-1.8-3.8-3.3-7.6-4.4-11.6c-1.3-4.6-3-9.1-4.5-13.7c-0.5-1.6-0.9-3.2-1.3-4.8
		c-0.6-2.5-1.5-4.9-2.3-7.3c-1-2.7-1.6-5.6-2.5-8.3c-0.4-1.2-0.3-2.5-0.9-3.6c-0.1-0.2-0.1-0.5,0.1-0.6c0.4-0.2,0.5,0.1,0.5,0.4
		c0.1,1.9,1.7,3,2.4,4.6c0.2,0.3,0.5,0.6,0.9,0.4c0.4-0.1,0.4-0.5,0.3-0.9c-0.2-1-0.4-1.9-0.7-2.8c-0.3-1-0.4-1.9-0.1-2.9
		c1.1,2.4,1.6,5,2.4,7.6c1.9,6.1,3.7,12.2,5.6,18.4C466.8,196.3,469.8,206.1,472.8,215.9z"/>
	<path class="st5" d="M350.3,107c-1.4,0.9-3,0.7-4.4,0.4c-2.2-0.4-4.3-0.1-6.4,0.2c-0.8,0.1-1.7,0.1-2.5,0.2c-0.4,0-0.9,0-0.9,0.4
		c0,0.5,0.6,0.4,0.9,0.4c1.3,0,2.6,0,3.9,0c1.5,0,2.9-0.1,4.3,0.5c0.7,0.3,1.2-0.1,1.8-0.3c1.4-0.4,2.6-0.3,3.5,0.9
		c-0.7,0.6-1.6,0.4-2.4,0.4c-7.5-0.1-15,0-22.5,0c-0.5,0-1-0.1-1.5,0.1c1.7,1.7,3.6,3.1,5.5,4.5c2.1,1.5,4.1,3.1,6.2,4.6
		c0.5,0.4,1.1,0.8,1.2,1.5c-0.4,0.8,0.4,1,0.7,1.5c-0.2-0.5-1-0.7-0.7-1.4c1.7,0.2,4.1,2,4.5,3.5c-1.3-1-2.6-1.7-4,0
		c-0.1,0.1-0.5,0.2-0.6,0.1c-1-0.6-2.4-1.1-3-2c-0.8-1.3-1.8-0.9-2.9-0.9c-6.3-4.8-12.7-9.6-19-14.4c0-0.1,0-0.2,0.1-0.3
		c0.7,0,1.4,0,2,0C326.2,107,338.2,107,350.3,107z"/>
	<path class="st6" d="M368.9,150.2c1.7-0.1,2.6,1.6,4.1,1.9c0.2,0,0.4,0.3,0.6,0.3c1.1-0.1,1.6,0.6,2.1,1.4c0.3,0.1,0.5,0.3,0.5,0.6
		c0.5,1.6-0.2,3.1-0.7,4.5c-0.5,1.4-1,2.8-1.4,4.3c-0.8,3.1-2.1,6.1-2.9,9.2c-1.5,5-3.2,10-4.8,15c-0.8,2.5-1.7,5-2.5,7.6
		c-0.2,0.6-0.3,1.2-0.7,1.7c-1.3,0.7-1.2-0.3-1.3-1.1c-0.7,1.3-0.9,3-2.3,3.8c-0.4,0.3-0.8,0.7-1.4,0.5c1.7-5.4,3.4-10.9,5.2-16.3
		c3-9.4,6-18.8,9.1-28.2c0.4-1.4,0.3-2.2-1-3C370.5,151.7,369.6,151.1,368.9,150.2z"/>
	<path class="st7" d="M414.6,184.3c-1-0.9-1.9-0.8-3.1,0c-9.8,6.9-19.6,13.7-29.4,20.5c-0.1,0.1-0.2,0.1-0.3,0.1
		c-0.9-1.6-1.3-1.6-2.3-0.1c-0.4,0.6-0.9,0.9-1.6,0.9c-1.1,0.1-2.2,0.2-3.2,0.8c-0.4,0.3-1,0.6-1.4,0c-0.4-0.6,0.1-0.9,0.5-1.3
		c0.1-0.1,0.2-0.2,0.3-0.3c0.1-0.1,0.2-0.2,0.3-0.2c2-1.4,4-2.7,5.8-4.2c2.2-1.6,4.3-3.5,6.6-5.1c1.3-0.7,2.2-1.8,3.1-2.9
		c0.6-0.6,0.2-1.2,0-1.8c-0.6-2-0.6-2,1.1-3.3c0.6-0.4,1.1-1,1.6-1.6c0.8-0.5,1.3-1.4,2.5-1.2c0.3,0.7-0.3,1-0.7,1.4
		c-0.7,0.7-0.8,1.4-0.3,2.2c0.9,1.4,0.8,1.8-0.4,3c-0.9,0.9-2,1.6-2.8,2.6c1.6-1.4,3.6-1.2,5.4-2c0.7-0.3,1.1-1.1,2.1-1
		c0.5,0.1,0.3-0.5,0.5-0.7c0.6-1.3,1.1-1.5,2.4-0.8c0.3,0.2,0.6,0.2,0.9,0c1.1-0.8,2.3-1.2,3.4-2.1c1.9-1.7,4.2-2.8,6.2-4.3
		c1.1-0.8,1.9-0.6,2.7,0.4C414.7,183.6,414.9,183.9,414.6,184.3z"/>
	<path class="st4" d="M414.6,184.3c-0.1-0.3-0.2-0.6-0.3-0.8c0.2-0.2,0.5-0.3,0.8-0.1c0.6,0.5,1.1,0.4,1.6-0.1
		c0.4-0.3,0.9-0.5,1.3-0.3c1.9,1,4.4,1,5.5,3.3c0.2,0.5,0.7,0.7,1.3,0.7c0.9,0,1.5,0.4,1.7,1.3c0.1,0.5,0.4,0.8,0.9,1
		c2.4,0.9,4.5,2.2,6.4,3.9c0.3,0.3,0.8,0.5,1.2,0.7c2.2,1.2,4.5,2,6.3,3.8c1.3,1.4,3.2,2.1,4.8,3.1c0.2,0.1,0.5,0.3,0.7,0.4
		c0.9,0.8,1.9,1.5,3,2.1c0.1,0.1,0.2,0.1,0.3,0.2c2.1,1.5,4,3.1,6.2,4.4c0.2,0.1,0.3,0.3,0.4,0.6c0,0.1,0,0.1-0.1,0.2
		c-1.9-0.2-3.2-1.5-4.6-2.6c-0.9-0.7-1.9-1.2-3-1.5c-1.6-0.5-2.2,0.1-1.8,1.7c0.1,0.2,0,0.5,0.1,0.7c-0.7-0.1-1.1-0.8-1.7-1.1
		c-0.2-0.8,0.1-1.6,0.4-2.6c-1.1,0.4-0.6,1.5-1.2,2c-7.9-5.5-15.8-11-23.7-16.5c-0.3-0.2-0.6-0.5-0.9-0.7c0.7-0.7,0.9-0.8,1.6-0.1
		c0.7,0.6,1.4,1,2.3,1.2c-2-1.8-4.7-2.6-6.6-4.7c-0.2,1.1,1.5,1.1,0.9,2.2C417.1,186.3,416,185.1,414.6,184.3z"/>
	<path class="st0" d="M473.4,139.2c-2.1,0.5-3.7,1.9-5.2,3.2c-2.5,2.2-5.3,4-8.2,5.6c-0.8,0.5-1.6,1-2.3,1.6
		c-1.6,1.4-2.7,1.1-3.5-0.8c-0.3-0.7-0.6-0.6-1.1-0.4c-0.4,0.2-0.8,0.4-1.2,0.6c-0.3-1.7,0.3-3.3,0.4-5c0-0.5,0.6-0.7,0.9-0.2
		c0.4,0.7,1.4,1.3,0.9,2.5c0.9-0.2,1.4-0.6,1.9-1.1c4-3.2,8.4-6,12.3-9.3c0.4-0.4,0.9-0.7,1.5-0.8c0.7-0.1,1.1-0.8,1.7-1
		c0.6-0.3,1-0.3,1.3,0.5c0.5,1.5,1.2,1.7,2.7,1.1c1.3-0.6,2.3-1.4,3.4-2.3c3.3-2.6,7-4.6,10.1-7.4c0.4-0.4,0.9-0.9,1.6-0.7
		c0.2,0,0.4,0,0.6,0c-2.5,2.3-5.3,4.2-7.9,6.2C480,134.2,476.7,136.6,473.4,139.2z"/>
	<path class="st8" d="M374.5,204.9c0,0.7-1.4,0.8-0.9,1.5c0.6,0.7,1-0.5,1.6-0.6c0.7-0.1,1.4-0.2,2.1-0.3c1-0.1,2.1,0,2.3-1.6
		c0.1-0.7,1-0.8,1.7-0.6c0.9,0.2,0.7,1,0.7,1.6c-5.3,3.7-10.6,7.4-16,11.1c-0.6,0.4-1.1,0.9-1.8,1c-1.9,0-3.8,0.1-5.5,1.1
		c-1.1,0.6-1.5,0.3-1.5-0.9c0.6-0.9,1.5-1.4,2.3-2c4.6-3.2,9-6.7,13.6-9.9C373.5,205,373.9,204.5,374.5,204.9z"/>
	<path class="st0" d="M358.2,199.8c1.6-0.8,2.6-2,3.1-3.7c0.2-0.6,0.3-1.2,1.1-1.3c0.5,0.6-1.2,1.8,0.6,1.9c0.4,0.4,0.3,0.9,0.1,1.3
		c-1.6,4.9-3.2,9.8-4.8,14.7c-0.1,0.2-0.2,0.4-0.3,0.6c-0.6,0.9-1.2,1.8-1.2,2.9c0,0.1-0.1,0.2-0.2,0.3c-0.7,0.4-1.4,0-2-0.1
		c-0.8-0.1-0.9,0.2-1.2,0.8c-0.4,0.8-0.1,2-1.4,2.3c0.5-2.3,1.3-4.6,2-6.8C355.4,208.4,356.8,204.1,358.2,199.8z"/>
	<path class="st9" d="M460.1,216.2c0.1-0.1,0.1-0.3,0.2-0.4c0.3-0.5-0.2-1.4,0.5-1.6c0.8-0.2,1.8,0,2.4,0.5c0.8,0.8,1.9,1.2,2.7,2
		c0.7,0.7,1.3,0.8,1.8-0.2c0.1-0.3,0.3-0.8,0.8-0.7c0.4,0.1,0.6,0.4,0.6,0.8c0.2,1.3,1.5,1.3,2.3,1.7c1.2,0.5,1.8,1.2,2.2,2.3
		c0.4,1,0.5,2.1,1.4,2.9c0.4,1.2,0.8,2.5,1.2,3.7c-0.1,0.1-0.2,0.1-0.3,0.2C470.7,223.7,465.4,219.9,460.1,216.2z"/>
	<path class="st10" d="M352,219.6c0.8-0.7,0.9-1.8,1.1-2.7c0.1-0.9,0.7-0.9,1.3-0.8c0.7,0.1,1.5,0.3,2.2,0.4
		c0.3,0.2,0.6,0.5,0.8,0.8c-0.3,0.8,0.2,1.1,0.7,0.7c0.8-0.5,1.6-0.8,2.4-1.1c1.2-0.4,2.4-0.5,3.6,0.1c-4.8,3.4-9.6,6.8-14.3,10.2
		c-0.1-0.1-0.2-0.1-0.3-0.2C350.3,224.6,351.1,222.1,352,219.6z"/>
	<path class="st11" d="M394.6,98.2c0-0.4,0-0.9-0.1-1.2c-0.3-0.7-0.8-1-1.3-0.2c-0.5,0.7-1.1,1.3-1.2,2.3c-0.1,1.2-1.4,1.8-1.9,2.8
		c0.8-3.6,2.2-7,3.2-10.6c0.5-1.7,1.1-3.5,1.6-5.2c0.9-0.8,1.8-1.5,2.4-2.5c0.2-0.4,0.5-0.8,0.9-0.6c0.6,0.2,0.6,0.7,0.6,1.3
		c-0.2,2-0.8,3.8-1.5,5.7c-0.8,2.5-1.5,5.1-2.2,7.6C395.1,97.8,394.9,98.1,394.6,98.2z"/>
	<path class="st6" d="M418.6,186.9c-0.1-0.8-0.8-1-1.3-1.4c-0.4-0.4-0.5-0.7-0.1-1c0.3-0.3,0.5-0.2,0.9,0.2c0.9,0.7,1.5,2.3,3.1,2
		c0.2,0,0.5,0.2,0.6,0.3c0.5,0.9,1.3,1.3,2.3,1.6c0.5,0.2,1.1,0.5,0.9,1.1c-0.3,0.7-0.9,0.3-1.3,0c-0.7-0.4-1.6-0.5-2.1-1.4
		c-0.3-0.5-0.9-0.4-1.3,0C419.7,187.8,419,187.6,418.6,186.9z"/>
	<path class="st9" d="M444.8,205.5c0-0.6-0.1-1.1,0.1-1.7c0.1-0.5,0.7-0.9,1.2-0.7c0.6,0.2,0.5,0.7,0.1,1.1c-0.5,0.5,0,1.3-0.5,1.8
		C445.4,205.9,445.1,205.7,444.8,205.5z"/>
	<path class="st12" d="M335.6,436.6c-0.4,2.2-0.3,4.4,0,6.5C334.7,440.9,334.6,438.8,335.6,436.6z"/>
	<path d="M637.7,276.1c-3.6-2.2-7.5-3.9-11.5-5.3c-9.2-3.3-18.6-6-27.8-9.1c-1.7-0.6-3.6-0.9-5.1-2c-3.1-2.1-6.1-4.2-8.7-6.8
		c-5-4.9-8.2-10.8-10-17.5c-0.5-1.8,0.3-3.2,1.5-4.3c1.5-1.2,3.3-2.2,4.9-3.3c0.4-0.3,0.8-0.4,1.2-0.1c1.2,1,2.7,1.6,3.6,3.1
		c2.4,4,4.4,8.3,6.6,12.4c2.5,4.5,4.7,9.2,8,13.2c1.2,1.5,2.7,2.2,4.6,1.6c4.2-1.3,8.2-3.1,11.4-6.2c3.8-3.6,4.2-7.7,1.1-11.7
		c-2.8-3.6-5-7.5-6.7-11.7c-1.3-3.1-2.3-6.3-2.5-9.8c-0.2-2.7,0.8-5.1,1.4-7.6c0.7-3,1.4-6,0.6-9c-0.5-1.7-1.9-2.8-3.6-2.4
		c-1.7,0.4-3.4,0.9-4.9,1.8c-1.5,1-2.8,2.3-3.3,4.2c-0.5,1.7-1,3.3-1.6,5c-0.2,0.7-0.4,1-1.3,0.7c-2-0.6-4-0.5-6-0.1
		c-2.6,0.5-4.4,2.4-6.5,3.9c-4.5,3.3-8.5,7.5-13.5,10c-3.1,1.6-5.5,3.8-7.6,6.6c-1.3,1.8-3,3.4-3.5,5.7c-1.1,4.5-1,9-0.2,13.6
		c0.3,2,1,3.8,1.6,6c-0.4-0.2-0.6-0.3-0.8-0.4c-3.9-3.2-8.5-5.2-13.3-6.6c-9.3-2.8-18.8-3.5-28.4-3.9c-8.9-0.4-17.9,0.3-26.7,1.7
		c-4.6,0.7-9.1,1.7-13.2,3.8c-1.3,0.6-1.7,0.3-2.3-0.7c-1.1-1.9-2.5-3.6-4.1-5.2c-4.7-4.8-10.6-7.7-16.7-10.2
		c-2.2-0.9-4.3-0.7-6.6,0c-5.8,2-11,5-16.7,7.1c-1.6,0.6-3.4,1-4.6,2.3c-0.5,0.5-0.8,0.6-1.5,0.1c-3-2-6.3-3.1-9.9-3.2
		c-9.2-0.3-18,1.9-26.4,5.5c-4.2,1.8-7.8,4.5-9.8,8.9c-1.4,3.1-1.8,6.4-2.2,9.7c-0.1,0.5,0,1-0.7,1.1c-4.2,1-7.9,3.1-11.5,5.4
		c-0.3,0.2-0.7,0.7-1.1,0.4c-0.3-0.2-0.1-0.7-0.1-1.1c0.7-8.9,1.4-17.7,1.9-26.6c0.2-2.8,0.3-5.6-0.6-8.4c-0.3-1.1-0.9-1.4-2.1-1.3
		c-3.4,0.4-6.7,1.2-10,1.5c-1.9,0.2-2,0.4-2.1,2.4c0,0.4-0.1,0.8-0.1,1.3c0,0.7,0.2,1.5-0.1,1.9c-0.6,0.8-1.2-0.4-1.9-0.2
		c-0.1,0-0.3,0-0.4,0c-3.1-0.3-6.2,0.1-9.3,0.4c-1.7,0.2-3.1,0.9-4.2,2.3c-2.4,3.2-4.2,6.8-5.8,10.4c-2.9,6.9-4.4,14-4.9,21.5
		c-0.2,2.8-0.1,5.7-0.1,8.6c-0.2-0.2-0.4-0.2-0.4-0.3c-0.3-0.4-0.5-0.8-0.8-1.2c-4.2-6.5-7.8-13.3-11-20.3c-1.6-3.5-3-7-4.4-10.5
		c-0.4-0.9-0.2-1.3,0.9-1.3c1.5,0,3-0.2,4.5-0.2c3.2,0.1,6.3-0.7,9.3-1.5c3-0.8,4.8-3.1,6.6-5.5c1.1-1.4,1.6-3.1,2.7-4.4
		c2.1-2.5,4.3-5,6.1-7.7c1.1-1.6,2.2-3.2,2.5-5.1c0.2-1.6-0.3-2-1.9-1.6c-4.9,1.4-9.8,3.2-14.9,4.1c-5.6,1-11.2,1.6-16.8,1.4
		c-1,0-1.3-0.2-1.1-1.3c0.4-2.3,0.7-4.5,1.1-6.8c0.2-1.4,0.4-2.8,0.2-4.2c-0.1-1-0.7-1.4-1.7-1.3c-5.6,1-11.3,1.9-17,2.9
		c-1.2,0.2-1.9,0.9-2.4,1.9c-0.5,1-0.6,2.1-0.7,3.1c-0.1,0.7-0.3,1.2-1.2,0.7c-2.4-1.1-4.7-2.3-6.5-4.3c-1.4-1.6-2.7-3.1-4.1-4.7
		c-1.3-1.5-2.1-1.6-3.7-0.5c-1.4,0.9-2.4,2.3-3.5,3.4c-2.9,3-5.5,6.5-8.7,9.2c-2.1,1.8-2.2,2.3-0.4,4.4c0.2,0.3,0.5,0.6,0.8,0.8
		c1.2,1,2.4,1.9,3.6,2.9c0.3,0.3,1.1,0.5,0.5,1.1c-1,1.1-1,2.4-1.1,3.7c0,1.1-0.5,1.4-1.5,1.5c-4.9,0.2-9.2-1.8-13.3-4
		c-7.3-3.9-13.7-9.2-19.7-14.9c-6.8-6.4-13.1-13.3-18.9-20.6c-2.3-2.9-4.9-5.5-6.4-8.9c-0.2-0.5-0.7-0.6-1.2-0.6
		c-4.1-0.5-7.7,0.9-10.7,3.4c-5.8,4.7-10,10.9-14,17.2c-0.8,1.2-0.9,2.5-0.6,3.8c0.3,1.1,0.6,2.2,1.1,3.3c2.2,4.6,5.2,8.7,8.3,12.7
		c5,6.5,8.3,14,12.3,21.1c2.3,4.2,3.8,8.8,5.9,13.1c0.9,1.8,1.7,3.7,2.7,5.8c-2.7-1-5.1-2-7.5-2.9c-4.6-1.8-9.3-3.5-14-5.2
		c-0.4-0.2-1.1-0.7-1.2,0.4c-0.1,4.7-0.5,9.4,0,14.1c0.2,1.5,0.8,2.7,2.2,3.5c2.4,1.4,4.9,2.7,7.4,4c6.5,3.2,13.3,5.5,20.4,6.6
		c0.6,0.1,0.9,0.4,1.1,0.9c3.3,6.4,6.6,12.9,10,19.2c2.5,4.7,5.2,9.2,8.5,13.4c0.6,0.8,0.3,1.1-0.2,1.6
		c-6.2,6.6-12.2,13.3-17.8,20.3c-5.2,6.6-10.4,13.2-14.3,20.7c-1.7,3.2-3.2,6.4-3.1,10.1c0.1,2.8,0.6,5.6,2.2,7.9
		c1.8,2.5,4.6,3.7,7.6,4.2c4.5,0.9,9.1,0.6,13.6,0c7.3-1.1,14.6-2.6,21.9-3.9c9.1-1.6,18-4.1,26.8-6.9c5.5-1.8,10.9-3.8,16.3-5.8
		c0.8-0.3,1.3-0.3,2,0.3c5.1,4,10.6,7.4,17.1,8.9c4.1,1,8.3,2.1,12.4,3c4,0.9,8,1.6,12.1,0.2c3.1-1.1,5.5-3.1,7.5-5.7
		c2-2.6,2.8-5.7,3.4-8.8c0.2-0.9,0.5-1.1,1.3-0.9c1.2,0.3,2.4,0.5,3.6,0.6c1,0.1,1.4,0.5,1.5,1.5c0.7,6.7,2.2,13.3,2.6,20.1
		c0,0.3,0.1,0.6,0.2,1c0.9,2.8,1.6,5.6,1.7,8.5c0,1.3,0.6,1.6,1.8,1.7c4.3,0.4,8.7,0.9,13,1.7c2.4,0.5,4.7,0.8,7.4,1.3
		c-1-1.7-2-3.2-2.8-4.7c-1.5-2.8-3.4-5.2-3.7-8.8c-0.4-6.2-1.5-12.3-2.4-18.4c-0.1-1,0.1-1.2,1.1-1.1c4.8,0.2,9.6,1.6,14.4,1.1
		c0.5-0.1,1,0.3,1.4,0.6c6.5,4,13.2,7.6,20.7,9.3c0.6,0.1,0.9,0.4,1.1,0.9c3,6.7,5.7,13.6,9.3,20c1.1,2,2.3,4,4.1,5.5
		c0.9,0.8,1.9,1.6,3.1,0.9c0.9-0.5,1.2-0.2,1.5,0.6c0.4,1,0.9,1.5,1.9,0.4c0.9-1.1,1.9-2.4,3.6-1.9c2.5,0.7,4.2-0.2,5.6-2.3
		c0.1-0.2,0.4-0.4,0.6-0.6c1.1-1.3,2.3-2.5,2.9-4.1c0.1-0.3,0.3-0.6,0-0.9c-0.3-0.2-0.6,0-0.8,0.2c-0.7,0.7-1.2,0.4-1.7-0.2
		c-0.6-0.7-1.3-1.2-1.8-2c-3.4-5.9-7.3-11.6-9.8-18c-0.3-0.8-0.2-1.1,0.5-1.5c5.6-3.4,10.4-7.6,14-13.2c0.3-0.4,1.1-0.9,0.6-1.4
		c-0.5-0.6-1.1,0.1-1.6,0.3c-5.4,2.3-10.9,4.1-16.9,3.7c-1-0.1-1.6-0.3-2.1-1.3c-2.8-5.7-5.7-11.4-8.5-17.1c-0.3-0.6-0.9-1.1-0.7-2
		c2.2,1.3,4.4,2.5,6.7,3.5c4.1,1.9,8.2,3.6,12.6,4.2c7.4,0.9,13.9-1.1,19.4-6.4c0.6-0.6,1.3-1,2.2-1.1c3.3-0.2,6.4-1.1,9.5-2
		c1.4-0.4,2.8-0.9,4.6-1.4c-3,2.6-5.8,4.9-8.5,7.3c-5.5,5-10.8,10.3-14.7,16.8c-2.1,3.5-3.5,7.1-2.9,11.2c0.3,1.8,1.3,3.3,2,4.9
		c0.9,2.2,2.5,3.7,4.5,5.1c1.8,1.2,3.8,2,5.8,2.8c4,1.6,7.9,1.3,11.8-0.3c4.3-1.8,8.5-3.7,12.8-5.5c6.9-2.9,13.7-6,19.7-10.6
		c8.3-6.5,16-13.5,21.7-22.4c0.3-0.5,0.6-0.7,1.1-0.5c3.3,0.8,6.6,0.3,10,0.4c1,0,2-0.5,3.1-0.3c-0.1,0.2-0.1,0.3-0.2,0.3
		c-5.8,2.7-11.4,5.8-16.6,9.4c-3.3,2.4-6.4,5-8.9,8.3c-3.1,4.2-2.7,8.5-0.7,12.9c1.7,3.7,5.1,5.6,8.5,7.3c2.2,1.1,4.8,1.3,7.3,0.8
		c3-0.6,6-1,9-1.6c4.2-0.8,8.4-1.4,12.6-2.5c5.4-1.4,10.4-3.7,15.3-6.4c6.2-3.4,12.1-7.2,16.9-12.5c1.7-1.8,2.4-3.8,1.7-6.3
		c-0.2-0.8-0.4-1-1.2-0.8c-4.7,0.9-9.5,1.8-14.3,2.6c-0.9,0.2-1.8,0.3-1.6,1.6c0.1,0.6-0.3,1.1-0.6,1.5c-2,3.3-5.1,5.5-8.1,7.7
		c-5.5,4.1-11.4,7.4-17.7,10.1c-0.6,0.3-1.1,0.4-1.8,0.2c-3.5-1.1-6.3-3.3-8.7-6c-0.8-0.8-1.7-1.9-1.5-3.2c0.2-2.2,1-4.2,2.3-5.9
		c2.8-3.7,6.3-6.6,10.2-9.2c5.6-3.7,11.6-6.7,17.7-9.6c0.6-0.3,1.1-0.5,1.8-0.4c5.9,0.2,11.8,0.3,17.6,0.7c7.7,0.5,15.4,1,23,2.1
		c7.6,1.1,15.2,2.2,22.4,5.3c2.2,1,4.3,2.2,5.5,4.4c1.5,2.7,0.5,5.2-0.6,7.6c-1.5,3.1-3.8,5.4-6.6,7.3c-1.2,0.8-2.3,1.1-3.7,0.7
		c-4.3-1.2-8.2-3.2-12-5.4c-0.5-0.3-0.9-0.8-0.6-1.4c0.4-0.9,0.1-1.8,0.1-2.8c-0.1-1-0.5-1.2-1.4-1.1c-4.5,0.5-9.1,1-13.6,1.5
		c-3.5,0.4-3.5,0.4-4.5,3.9c-0.5,1.9,0.2,3.5,1.8,4.6c2.7,1.8,5.6,3.3,8.6,4.4c4.3,1.6,8.7,2.6,13.3,2.4c5.5-0.2,10.9-1,16.3-1.5
		c3.8-0.3,7.6-0.7,11.1-2.3c6.4-2.9,12-8.9,11.3-16.8c-0.2-2.6-0.5-5.3-2.4-7.3c-2.4-2.6-5.7-3.8-9-4.8c-6.6-2.1-13.4-3.2-20.3-4
		c-9.4-1.1-18.8-1.8-28.2-2.1c-1.5-0.1-3-0.1-4.7-0.2c0.5-1,1.4-1.1,2.1-1.5c5.5-3.6,10.4-7.9,14.9-12.6c0.3-0.3,0.4-0.8,0.8-0.7
		c0.5,0.1,0.4,0.7,0.5,1.1c0.5,2.4,1.1,4.8,1.5,7.3c0.2,1,0.5,1.4,1.7,1.3c5.2-0.6,10.5-1.2,15.7-1.6c1.3-0.1,1.3-0.6,1.2-1.6
		c-0.3-3-1.2-5.8-1.7-8.7c-0.7-4.1-1.5-8.2-1.8-12.4c-0.1-1.1,0.3-1.4,1.3-1.4c1.7,0,3.4-0.2,5.1-0.3c7.5-0.4,13.8-3.2,18.2-9.4
		c3.7-5.3,7.9-10.4,11.4-15.9c1.7-2.7,3.5-5.3,4.4-8.4c0-0.8,0-1.7,0-2.5C645.3,281.6,641.8,278.6,637.7,276.1z M554.8,284.8
		c4.5-2.1,7.9-5.4,9.4-10.3c0.9-2.8,1.1-5.7,0.6-8.6c0-0.3-0.1-0.6-0.1-0.8c0-0.1,0-0.2,0.1-0.5c1.7,1.8,3.3,3.5,5,5.1
		c0.8,0.8,2.1,1.4,2.3,2.2c0.2,1-1.4,1.4-2,2.2c-2.4,2.8-3.8,6.1-5.4,9.4c-1.4,3-2.6,6.1-3.4,9.4c-0.7,2.7-0.3,5.2,0.8,7.7
		c0.2,0.3,0.5,0.7,0.3,1c-0.3,0.5-0.8,0.2-1.1,0.1c-6.7-1.1-13.5-1.6-20-3.8c-5-1.7-9.5-4.5-13.5-8c-0.2-0.2-0.5-0.3-0.5-0.6
		c0.1-0.4,0.5-0.3,0.8-0.3c3.7-0.2,7.3-0.3,11-0.5C544.4,288.2,549.8,287.1,554.8,284.8z M514.4,257.6c6.7,0.7,13.2,1.7,19.4,4.5
		c2,0.9,3.8,2,5.3,3.6c3.7,3.9,2.7,8.9-2.1,11.2c-4.2,2-8.5,2.8-13.1,2.8c-0.6,0-1.2,0-1.8,0c0,0,0,0,0,0.1c-1.6,0-3.2-0.1-4.8,0
		c-0.9,0-1.2-0.3-1.5-1.1c-0.6-2.2-1.1-4.4-1.5-6.6c-0.8-4.3-1.3-8.6-1.3-13C513,257.9,513.3,257.5,514.4,257.6z M488.1,257.2
		c2.4-0.4,4.9-0.5,7.3-0.5c3.8,0,7.5,0,11.3,0c0.6,0,1.1-0.1,1.8,0.3c-4.7,0.9-9,2.4-13.5,3.6c-1.2,0.3-1.6,1.1-1.7,2.2
		c-0.7,4.7-0.2,9.4,0.8,14c0.3,1.2,0,1.4-1.1,1c-4.5-1.6-8.9-3.6-11-8.3C479.4,263.6,481.3,258.4,488.1,257.2z M369.9,279.7
		c0.7-0.4,1.2-0.6,1.7,0.3c0.2,0.5,0.7,1.1,1.2,1.2c1.4,0.3,0.9,1,0.5,1.7c-4.5,6.9-9,13.9-15.4,19.2c-2,1.7-4.2,3.1-6.6,3.2
		c-4.6,0-9.7-4.1-10.7-8.3c-0.2-0.7-0.1-0.9,0.7-1.1c3.1-1.2,6.3-1.5,9.5-2.1c2.1-0.5,3.9-1.8,5.5-3.3c0.3-0.3,0.6-0.7,0.5-1.1
		c-0.3-1.2,0.5-1.7,1.3-2.2C361.8,284.5,365.8,282,369.9,279.7z M339.1,266.8c1.1-4.4,2.7-8.6,5.2-12.4c0.1-0.2,0.3-0.6,0.6-0.5
		c0.3,0,0.4,0.4,0.5,0.6c1.7,3.7,2.3,7.6,2.8,11.6c0.3,2.5,0.4,5,1,7.4c0.5,2.1,0.8,2.4,3,2c2.8-0.5,5.6-1,8.5-1.5
		c0.3-0.1,0.6-0.2,1,0.2c-2.1,1.4-4.1,2.8-6.2,4.3c-5.4,3.7-10.8,7.3-16.2,11c-0.8,0.5-1.1,0.5-1.2-0.6
		C337.6,281.5,337.3,274.1,339.1,266.8z M319.8,379.7c-2.2,2.6-5.1,4-8.4,4.8c-0.7,0.1-1.2,0-1.7-0.3c-8.7-4.9-16-11.4-21.6-19.8
		c-1.9-2.8-3.5-5.7-4.7-8.8c-0.7-1.7-1-3.5-1.3-5.3c-0.6-4.5,2-7.1,6.2-9.4c3.4-1.9,7.1-2.6,10.9-3.1c2-0.3,3,1,4.1,1.9
		c5.5,4.8,10.7,9.8,14.8,15.9c2.7,4,4.7,8.2,5.5,13c0.1,0.7,0,1.5,0,2.3C323.8,374.5,322,377.1,319.8,379.7z M355.9,332.8
		c-0.2-2-1.4-1.4-2.6-1.1c-3,0.8-5.9,1.6-8.9,2.3c-1.3,0.3-1.8,0.8-1.7,2.2c0.1,0.7,0.2,1.4,0.4,2.4c-1.4-0.8-2.7-1.5-4.2-2.3
		c0.3,1.7,0.5,3.2,0.7,4.7c1,6.5,2,13,3,19.5c0.4,2.5,0.6,5,1,7.5c0.1,0.8-0.1,1-0.8,1c-1,0-2.1,0-3.1,0.1c-0.9,0.1-1.3-0.3-1.4-1.1
		c-0.8-4.5-3-8.3-5.6-12c-6.2-8.8-14.2-15.6-22.8-21.9c-1-0.7-2.1-0.8-3.2-1.1c-3.7-0.9-7.4-1.7-11.1-2.7c-0.9-0.2-1.4-0.2-1.5,0.9
		c0,0.9-0.5,1.2-1.5,1c-6.6-1-13-0.1-19,3.1c-6.1,3.2-7.8,9.6-6.6,15.7c1.5,7.8,6.2,13.8,11.3,19.6c0.8,0.9,1.6,1.7,2.5,2.5
		c0.5,0.5,0.4,0.8-0.3,1c-4.2,0.8-8.4,1.6-12.6,2.3c-3,0.5-5.7,1.9-8.5,2.9c-8.1,2.9-16.2,5.8-24.5,7.8c-5,1.2-10.1,0.5-14.9-1.6
		c-3.6-1.6-4.7-4.6-3.5-8.3c1.5-4.9,4.2-9.3,7.1-13.5c4.3-6.4,9.1-12.4,14-18.3c0.2-0.2,0.4-0.4,0.6-0.6c0.2-0.2,0.3-0.6,0.6-0.4
		c0.3,0.1,0.3,0.4,0.3,0.7c0.8,4.7,1.6,9.3,2.4,14c0.5,2.8,1.1,5.5,1.6,8.3c0.1,0.7,0.4,1,1.1,0.8c5.2-1,10.5-2,15.7-3
		c1-0.2,2.5,0.2,2.9-0.9c0.4-0.8-0.3-2-0.5-3c-1.3-7.2-2.8-14.5-3.8-21.8c-0.5-3.8-1-7.5-1.4-11.3c-0.2-2.2,0.3-4.4-0.2-6.6
		c-0.2-0.8-0.4-1-1.2-0.8c-2.2,0.5-4.5,0.8-7.2,1.3c1.3-1.6,2.3-3,3.3-4.3c1.4-1.8,2.9-3.5,3.4-5.7c0.1-0.4,0.3-0.7,0-1
		c-0.4-0.3-0.7,0-1,0.3c-1,0.9-1.8,0.6-2.7-0.2c-4.8-4.5-8.3-10-11.3-15.9c-0.6-1.2-1.2-2.4-1.9-3.6c-0.4-0.8-0.3-1.2,0.4-1.7
		c8.1-5.4,14.9-12.2,19.6-20.8c0.2-0.4,0.7-0.9,0.3-1.4c-0.5-0.5-1,0-1.4,0.2c-4.6,2.5-9.3,4.4-14.3,5.8c-3.6,1-7.2,1.4-10.9,1.4
		c-0.9,0-1.5-0.2-2-1.1c-5-8.7-10-17.4-15.1-26.1c-0.1-0.2-0.1-0.3-0.3-0.9c1.8,0.8,3.2,1.5,4.7,2.2c7.4,3.4,15,6.4,23.2,7.2
		c5.2,0.5,10.2-0.3,15.1-1.9c1.2-0.4,1.4-0.1,1.3,1c0,0.6,0,1.1,0,1.7c0.1,1.4,0.8,1.9,2.1,1.3c2.7-1.3,5.1-3.1,7.3-5.1
		c1-0.9,1.4-2.1,1.4-3.4c0-1.2,0.1-2.4,0.2-3.5c0.1-0.8,0.4-1.1,1.3-0.6c2.9,1.6,5.9,3,9,4c0.4,0.1,0.9,0.3,0.8,0.8
		c-0.1,2.9,1,5.6,1.5,8.4c1.7,8.5,4.3,16.6,7.8,24.5c4.7,10.6,10.5,20.6,17,30.3c1.8,2.7,3.5,5.6,5.7,8c2,2.3,3.9,2.5,6.5,0.9
		c3-1.9,5.2-4.7,7.7-7.2c1.4-1.4,2.7-2.9,4.1-4.3c0.4-0.4,0.7-0.6,1.3-0.2c7.2,4.7,14.5,4.3,21.8,0.2c0.5-0.3,1.1-0.6,1.5-1
		c1.8-1.6,3.8-2.8,6.3-3.4c2.4-0.6,4.5-2.2,6.6-3.7c3.7-2.6,7.3-5.5,10.6-8.6c0.6-0.5,0.8-0.6,1.1,0.3c2.3,7.7,5.2,15.1,9.7,21.8
		c0.4,0.5,0.6,1-0.2,1.3c-2.3,0.9-4.1,2.5-5.7,4.3c-2.2,2.4-4.2,4.9-6.3,7.4c-1.7,2.1-1.3,4.1-0.5,6.2c1.3,3.3,3.3,6.2,5.3,9.1
		c0.3,0.4,0.5,0.9,1,1.6c-8.4-3.2-16.3-6.3-23.8-10.5c-1.4-0.7-2.7-1.5-3.8-2.7C356.3,333.1,356,333,355.9,332.8z M395.8,373.7
		c-1.6-0.7-3.2-1.4-4.8-2.2c-4-1.8-8-3.6-12-5.5c-1-0.4-1.2-0.2-1.3,0.8c-0.1,1.9-0.4,3.7-0.4,5.6c0,1-0.3,1.5-1.4,1.3
		c-4.5-0.6-8.9-1.2-13.4-1.8c-0.9-0.1-0.8-0.8-0.9-1.3c-0.5-3.9-1-7.7-1.6-11.6c-0.5-3.7-1.1-7.3-1.6-11c-0.1-0.5-0.4-1.1,0-1.5
		c0.4-0.4,1,0.1,1.4,0.3c7.9,3.2,15.9,6.1,24,8.9c1,0.3,1.7,0.4,2.6-0.3c1.4-1,2-0.7,2.7,0.7c2.7,5.5,4.5,11.4,6.9,17.1
		C395.9,373.4,395.9,373.5,395.8,373.7z M399.4,269.8c-0.8,0-1-0.2-1-0.9c0-0.9,0-1.9,0-2.8c0.1-3.7,0.2-7.3,0.6-11
		c0.4-3.1,1.9-4.2,5-3.4c3,0.8,5.5,2.6,7.8,4.6c4.4,3.9,8.2,8.4,11,13.6c0.2,0.4,0.7,0.8,0.4,1.2c-0.3,0.5-0.9,0.1-1.3,0.1
		c-5.4-0.5-10.8-1.1-16.3-1.5C403.6,269.5,401.5,269.7,399.4,269.8z M400.9,283.5c-0.1-0.8,0.1-1.3,1-1.4c2.1-0.3,4.1-0.1,6.2,0.1
		c6.8,0.7,13.5,1.6,20.2,3.1c2.9,0.6,5.6,1.4,8.7-0.2c3.4-1.6,7.1-2.7,10.5-4.3c3.8-1.8,3.3-4.3,2.1-6.8c-2.1-4.1-4.9-7.8-7.6-11.5
		c-3.5-4.7-7.3-9.1-11-13.5c-0.2-0.3-0.7-0.5-0.5-0.9c0.2-0.5,0.7-0.3,1.1-0.4c10.3-1.4,17.6,3.7,23.6,11.4
		c3.4,4.4,5.4,9.5,6.8,14.9c0.5,1.8,0.5,3.6,0.4,5.2c-0.1,14.5-5.9,25.9-16.6,35c-1.1,1-2.4,1.8-3.5,2.8c-3.1,2.9-7,2.9-10.9,2.6
		c-8.5-0.8-14.7-5.5-19.9-11.8c-4.1-4.9-7.2-10.3-8.9-16.5C401.9,288.8,401.4,286.1,400.9,283.5z M583.4,322.4
		c-3.5,4.5-7.1,9-10.9,13.2c-4.1,4.5-8.5,8.7-13.4,12.5c-1.2,0.9-2.5,1.8-3.8,2.7c-1.8,1.3-3.8,1.6-5.9,2c-2.9,0.5-5.8,1.3-8.7,1.6
		c-4.3,0.5-8.6,0.7-12.8-0.8c-1.3-0.5-1.3-1.1-0.3-2c2.4-2.2,5.2-3.7,8.1-5.1c5.5-2.7,11.3-4.9,17-7c1.3-0.5,1.6-1.5,1-2.7
		c-0.3-0.6-0.8-0.4-1.2-0.3c-4.4,0.8-8.9,1.5-13.4,1.8c-1.4,0.1-2.9,0.4-4-0.1c-3.3-1.5-6.2-0.4-9.2,0.7c-3.4,1.2-6.7,2.6-10.2,4
		c1.1,1.2,2.5,1.2,3.7,1.3c1.3,0.1,2.6,0,3.9,0.3c-1.9,0.9-4,1.8-5.8,2.9c-6.8,4-14.1,6.7-21.2,10c-0.9,0.4-1.1,0.8-1,1.8
		c0.2,2.4-1.1,4.4-2.3,6.4c-4.3,6.7-9.8,12.3-15.7,17.6c-2.3,2.1-4.8,4-7.4,5.9c-0.6,0.4-1.1,0.6-1.8,0.5c-3.8-0.6-7.3-1.8-10.5-3.9
		c-3.3-2.1-4.2-4.3-3.4-8.2c0.8-3.8,2.8-7,5-10.2c4.7-6.6,10.7-11.8,16.7-17.1c6.4-5.6,13.6-9.9,20.9-14.1c0.3-0.2,0.6-0.4,0.9-0.6
		c0.1-0.1,0.2-0.3,0.4-0.4c-7.5,1.9-14.9,3.8-22.2,5.8c-3.2,0.9-6.4,2-9.6,2.7c-2.1,0.4-4.3,0.6-6.4,0.4c-2-0.2-2.3-0.8-1.1-2.4
		c1.5-2.1,3.3-4,5.2-5.7c6.5-5.6,13.4-10.5,20.7-15.1c1.1-0.7,1.1-1.2,0-2c-1.1-0.8-2.2-0.9-3.4-0.4c-4.7,2-9.5,4-14.5,5.3
		c-2.2,0.6-4.4,1.4-6.7,0.4c-0.5-0.2-0.8,0-1.1,0.4c-3.4,3.4-6.8,6.7-10.2,10c-0.1,0.1-0.1,0.2-0.2,0.5c1.3,0.2,2.3-0.5,3.6-0.5
		c-1.6,1.3-3.2,2.6-4.8,3.8c-3.1,2.4-6,5.1-8.4,8.3c-1.1,1.6-1.2,3.2-0.3,5c1,2,0.8,2.1-1.3,2.6c-2.9,0.6-5.5-0.5-8-1.7
		c-4.3-2.1-8-5.1-11.4-8.3c-4.6-4.2-8.7-9-12.6-13.9c-0.2-0.2-0.5-0.4-0.2-0.8c2.8,1,5.8,1.6,8.8,2.1c4.4,0.7,8.6-0.1,12.9-0.8
		c5.6-0.9,10.1-4.1,14.9-6.7c4.8-2.6,9.8-4.7,14.7-7.1c4.4-2.1,8.2-5.1,11.7-8.4c5.7-5.3,9.8-11.6,11.8-19.1c0.2-0.6,0.3-1.3,1.3-1
		c4.6,1.3,9.3,1.4,14,1.3c1.2,0,1.6,0.4,1.9,1.5c1.3,5.3,1.8,10.6,2.6,16c0.5,3.1,1.2,6.2,2.3,9.1c1.3,3.5,3.6,5.2,7.4,5
		c2.5-0.1,5.1-0.3,7.5-1.1c1.9-0.6,2.6-1.6,2.7-3.6c0.2-3.1-0.9-5.9-1.4-8.9c-0.1-0.3-0.2-0.6-0.2-1c-0.1-0.3-0.3-0.7,0-0.9
		c0.3-0.2,0.6,0.1,0.9,0.2c3.3,1.9,6.8,3.4,10.4,4.6c5.4,1.8,11,2.6,16.6,3.1c7.2,0.6,14.5,0.3,21.6-0.9c1.7-0.3,2.7,0.2,3.9,1.4
		c3.3,3.4,7.3,5.7,11.9,7C584.2,321.3,583.9,321.7,583.4,322.4z M625.8,303.9c-2.9,0.8-5.8,1.2-8.4,1.1c-5.7,0.1-10.7-1.5-15.8-2.7
		c-5.1-1.2-9.9-3.4-14.4-6c-5-2.9-9.1-8.5-8-15.2c0.2-1.6,0.2-3.2,0.6-4.7c0.2-0.7,0.3-0.8,0.9-0.4c7.3,4.8,15.6,7.4,23.6,10.8
		c6.8,2.8,13.6,5.7,19.8,9.8c1.3,0.9,2.7,1.8,3.5,3.2C628.7,301.9,628.1,303.3,625.8,303.9z"/>
	<path class="st13" d="M470,135.5c-2.4,1.1-4.2,3.1-6.3,4.6c-3,2-5.8,4.2-8.7,6.4c-0.3,0.2-0.5,0.8-1,0.5c-0.5-0.3-0.3-0.7,0-1.1
		c0.2-0.2,0.1-0.5-0.1-0.6c-0.7-0.2-0.6-0.9-1.1-1.6c-0.2,2-0.3,3.7-0.8,5.4c-0.1,0.2-0.2,0.4-0.2,0.6c-0.1,0.1-0.3,0.1-0.4,0
		c-0.4-1,0.3-1.9,0.3-2.9c0-1.9,0.6-3.8,0.9-5.7c0.1-0.7,0.6-1.2,1.2-1.5c3.8-2.5,7.1-5.5,10.8-8.2c1.5-1.2,3.1-2.3,4.7-3.4
		c0.6-0.4,1.1-0.7,1.8-0.3c0.5,0.2,0.9,0.2,1.3-0.2c3-2.3,6.2-4.1,9-6.6c1.9-1.7,4-3.1,6-4.8c-14.4-0.2-28.7-0.2-43.1-0.2
		c-1.2,0-0.3,0.7-0.2,0.8c1.2,0.8,1.6,2.3,2.4,3.3c0.4,0.6,0.9,1.1,0.5,1.9c-0.2,0.3-0.5,0.5-0.8,0.4c-0.7-0.3-1-0.9-1.2-1.6
		c-0.1-0.3-0.1-0.7-0.4-1.2c-0.1,0.4-0.1,0.9-0.6,0.8c-0.4,0-0.7-0.3-0.9-0.6c-0.5-0.7-0.8-1.6-1.9-1.6c-0.8-0.2-1.3-0.9-1.8-1.4
		c-2.6-3-5.8-5.2-9.1-7.3c-0.1-0.1-0.2-0.2-0.3-0.3c-1.5-1-1.7-1.8-0.7-3.3c0.2-0.3,0.5-0.5,0.8-0.2c0.6,0.5,1.3,0.5,1.9,0.8
		c2.4,1,4.4,2.6,6.5,4.1c0.6,0.4,1.1,1.2,1.6-0.2c0.2-0.7,1.2-0.5,1.9-0.5c14,0,27.9,0,41.9,0c6.1,0,12.1,0,18.2,0
		c0.4,0,1-0.2,1.2,0.2c0.2,0.5-0.4,0.7-0.8,1c-2.8,2.1-5.5,4.3-8.3,6.4c-3.4,2.6-6.7,5.4-10.2,8c-3.7,2.7-7.3,5.5-11.1,8.2
		C471.8,134.2,470.8,134.8,470,135.5z"/>
	<path class="st14" d="M407,74.5c1.5-4.5,2.8-9,4-13.5c0.4-1.6,0.9-3.2,1.4-4.8c0,0,0,0,0,0c0.3-0.2,0.1-0.9,0.6-0.8
		c0.5,0.1,0.4,0.6,0.5,0.9c3,10,6,19.9,9,29.9c1.7,5.6,3.4,11.1,5.1,16.7c0.1,0.3,0.2,0.5,0.3,0.8c0.3,0.9-0.1,1.2-0.9,0.9
		c-0.7-0.2-1.5-0.5-2.1-1.1c-0.6-1.8-1.1-3.6-1.6-5.4c-0.2-0.8-0.3-1.5-0.7-2.3c-1.3-2.4-1.2-5.1-2.2-7.6c-1.2-3-1.7-6.1-2.8-9.1
		c-1.4-4-2.7-8.1-3.6-12.3c-0.2-0.7-0.2-1.5-0.7-2.1c-0.6,0.2-0.7,0.7-0.7,1c0,2.9-1.6,5.4-2.3,8.1c-0.4,1.7-0.9,3.3-1.3,5.1
		c-0.3,1.8-1.3,3.4-1.8,5.2c-0.7,2.5-1.9,5-2.4,7.5c-0.7,3.9-2.8,7.4-3,11.4c-0.1,0.3-0.4,0.5-0.6,0.7c-0.1,0.1-0.3,0.2-0.4,0.2
		c-0.4,0.1-0.9,0.3-1.3,0.4c-0.9,0.2-1.4-0.1-1.3-1c0.9-3.8,2.2-7.5,3.3-11.2c1.5-5.3,3.2-10.6,4.7-15.9
		C406.3,75.5,406.4,74.9,407,74.5z"/>
	<path class="st15" d="M470,135.5c0.7-1.3,2-1.8,3.1-2.6c4-3.1,8.1-6,12.1-9c2.4-1.8,4.7-3.6,7-5.4c0.5-0.4,1-0.9,1.8-1.1
		c-0.2,0.6-0.8,0.8-1.2,1.1c-0.2,0.2-0.5,0.4-0.3,0.7c0.1,0.3,0.4,0.4,0.7,0.4c0.6,0,1.3,0.3,1.9,0c0.3-0.1,0.6-0.4,0.9,0
		c0.2,0.4-0.2,0.6-0.3,0.8c-1.1,1.8-2.6,3.1-4.4,4.1c-0.2,0.1-0.4,0.4-0.5,0.6c-3.7,2.7-7.4,5.5-11.1,8.1c-1.5,1-2.8,2.3-4.6,2.9
		c-1.1,0.4-2.4-0.4-2.4-1.6c0-0.8-0.4-0.6-0.8-0.4C471,134.6,470.8,135.5,470,135.5z"/>
	<path class="st15" d="M425.1,103.3c0.7,0.3,1.4,0.5,2,0.9c0.7,0.4,0.8,0,0.8-0.6c0.5,1.3,1.8,1.6,2.9,2.2c0.4,0.2,0.8,0.2,1.1,0.6
		c-0.2,0-0.5,0-0.7-0.1c-1-0.4-2.1-1.3-1.9,0.9c0,0.2-0.4,0.4-0.7,0.6c0.5,0.7,1.5,0.6,1.9,1.4c-0.6,0.4-1.1,0-1.6-0.3
		c-0.9-0.4-1.7-0.9-2.7-1.3c-0.9-0.4-1.9-1-2.7,0.2c-0.2,0.2-0.5,0.3-0.8,0.2c-2.4-0.6-5.1-0.3-7.3-1.8c-0.3-0.2-0.9-0.3-0.8-0.8
		c0.1-0.5,0.6-0.5,1-0.6c0.4-0.1,0.9,0,1.2,0.1c1.1,0.6,2.4,0.5,3.6,0.5c1.8-0.1,2.6-1,2.4-2.7C423.7,102.5,424.4,102.7,425.1,103.3
		z"/>
	<path class="st16" d="M407,74.5c-2.8,9.6-5.7,19.2-8.5,28.8c-0.6,2.5-2.9,2.6-4.8,3.4c-0.5-0.4-0.8,0.4-1.3,0.2
		c0.2-0.7,0.3-1.4,0.5-2.1c0.5-0.5,0.6-1.2,0.7-1.9c0-0.5,0.1-0.9,0.4-1.3c1.2-1.5,1.5-3.4,1.9-5.2c0.5-2.5,1.6-4.7,2-7.2
		c0.4-2.1,1.3-4.1,1.9-6.2c1-3.3,1.8-6.7,3.2-9.9c0.6-1.4,1.1-2.8,1.4-4.2c0.2-1,1-1.7,1.5-2.5c0.1-0.2,0.4-0.5,0.7-0.2
		c0.4,0.4,0.7,0.8,0.9,1.4c0.2,0.4-0.3,0.9,0,1.3c0.4,0.2,0.4-0.6,0.8-0.3C408.2,70.6,406.8,72.4,407,74.5z"/>
	<path class="st0" d="M412.4,56.2c-0.2,1.7-0.8,3.3-1.4,4.8C411.1,59.3,411.6,57.7,412.4,56.2z"/>
	<path class="st11" d="M394,101.6c-0.1,0.7-0.4,1.3-0.4,2c0,0.7-0.3,0.9-0.7,1.1c0.5-1.3,0.5-2.7,1.1-4
		C394,101.1,394,101.3,394,101.6z"/>
	<path class="st17" d="M629.3,434.8c0-1.8-0.8-2.8-2.3-3.3c-1.4-0.4-2.7,0.2-3.6,1.5c-2.2,3.1-4.4,6.1-6.7,9.2
		c0,0.6-0.3,1.3-0.9,1.4c-0.9,0.2-0.6,0.7-0.6,1.2c0.1,0.2,0.3,0.5,0.4,0.7c0.1,0.4,0.8-0.5,0.6,0.3c-0.1,0.3-0.2,0.7-0.5,0.8
		c-0.3,0.2-0.6-0.1-0.8-0.4c-1.1-1.2-2.3-2.5-3.4-3.7c-1,0-1.6-0.5-2.1-1.3c-1-1.5-2-3-3.2-4.4c-0.5-0.6-0.2-1.1-0.1-1.7
		c-0.6-1-1.5-0.6-2.3-0.7c-0.2,0-0.4,0-0.5-0.1c-0.9-1-0.7-1.5,0.8-2.3c-0.2-0.1-0.4-0.2-0.6-0.3c-1.2,0.5-1.7,1.5-1.7,2.7
		c0,7.8-0.1,15.5-0.1,23.3c0,1.2,0.4,2.3,1.5,3c2.1,1.2,4.6-0.2,4.7-2.7c0.1-3.5,0-7.1,0.1-10.6c0-0.8-0.2-1.7,0.3-2.8
		c1.5,2.1,2.9,4,4.3,5.9c1.6,2.1,3.9,2.2,5.5,0.1c1.3-1.7,2.5-3.4,3.8-5.1c0.2-0.3,0.2-0.8,0.8-0.6c0.4,0.2,0.2,0.6,0.2,0.9
		c0,3.2,0,6.5,0,9.7c0,1.1-0.2,2.2,0.1,3.2c0.4,1.6,1.8,2.5,3.4,2.4c1.6-0.2,2.7-1.4,2.7-3.1C629.3,450.3,629.3,442.5,629.3,434.8z
		 M604.6,460.1c-0.1,0.2-0.3,0.2-0.5,0.1c-0.6-0.3-1.2-0.6-1.2-1.4c0-0.2,0-0.5,0.2-0.6c0.4,0,0.5,0.4,0.7,0.6
		C604.1,459.2,604.9,459.4,604.6,460.1z M607.5,457.3c0,0.3,0,0.7-0.5,0.7c-0.6,0-0.6-0.5-0.6-0.9c0-3.1,0-6.2,0.1-9.3
		c0-1.2-0.1-2.5,0.6-3.7C607.7,448.5,607.5,452.9,607.5,457.3z M614.6,451.1c-0.3-0.1-0.5-0.4-0.3-0.7c0.1-0.3,0.4-0.3,0.6-0.1
		c0.8,0.4,1.5-0.3,2.4,0.1C616.5,451.5,615.6,451.6,614.6,451.1z M625.3,460c-0.7-0.1-1.1-0.4-1.2-1.1c0-0.3,0.1-0.5,0.4-0.5
		c0.4,0.4,0.8,0.8,1.1,1.3C625.8,459.9,625.5,460,625.3,460z M625,434.4c-0.4,0.2-0.9-0.4-0.8-0.9c0.1-0.9,0.8-1.4,1.6-1.4
		c0.6-0.1,1.1,0.2,1.2,0.9C626.8,434.1,625.7,434,625,434.4z"/>
	<path class="st18" d="M481.2,121.4c-2.8,2.4-6.1,4.2-8.9,6.5c-0.2,0.2-0.6,0.3-0.8,0.2c-1.8-1.1-2.9,0.5-4,1.3
		c-4.1,3-8,6.2-11.9,9.3c-0.3,0.2-0.6,0.4-1,0.5c-1.3,0.6-1.7,1.7-2,3.2c-0.5,2.4-0.5,4.9-1.2,7.2c0.2,1.7-0.6,3.1-1.3,4.5
		c0,0.1-0.1,0.1-0.1,0.2c-0.1,0.1-0.1,0.2-0.1,0.4c0,0.4-0.1,1-0.5,1c-0.7,0-0.5-0.6-0.6-1.1c-0.1-0.6-0.2-1.1-0.8-1.4
		c-0.6-0.2-0.5-0.8-0.5-1.4c0.3-1.8,0.9-3.5,1.2-5.3c0.8-4.7,0.6-9.3-0.6-13.9c-0.3-1.1-0.5-2.3-0.8-3.4c-0.2-2.1-1.3-3.8-2.2-5.5
		c-0.5-1-1-2.1-1.9-3c-0.7-0.9-1.6-1.6-1.9-2.8c0.1-0.3,0.1-0.7,0.6-0.3c0.5,0.4,1,0.8,1.3,1.4c0.2,0.4,0.4,1,1,1
		c0.3-0.5-0.7-0.9-0.1-1.5c0.5,0.5,1.3,0.9,1.2,1.8c0,0.2,0.1,0.5,0.2,0.6c0.4,0.3,0.4,1.3,1.1,0.9c0.7-0.4,0.2-1-0.2-1.6
		c-1-1.4-1.9-2.9-3-4.1c-0.6-0.7-0.3-0.9,0.4-0.8c0.8,1.2,1.8,1.6,3.2,1.6c5.9,0,11.8,0.2,17.8-0.1c5.2-0.2,10.3-0.1,15.5-0.2
		c0.5,0,1,0,1.5,0c0.7,0.1,1.2,0.4,1.3,1.1c0.2,0.8-0.4,1.1-1,1.3c-1.3,0.4-2.4,1.2-3,2.7C479.8,121.6,480.4,120.7,481.2,121.4z"/>
	<path class="st4" d="M450.8,175c0-0.4,0-0.7,0-1.1c2,0.5,1.7,2.4,2.5,3.7c1.2,2.1,2,4.5,3,6.7c0.3,0.7,0.5,1.4,0.5,2.2
		c0.2,1.6,0.8,3.2,1.5,4.6c1.2,2.3,2.1,4.8,2.4,7.4c0.1,1.1,0.5,2.2,1.3,3c0.7,0.8,1.2,1.7,1.2,2.8c-0.1,2.3,0.8,4.2,2.1,6
		c0.4,0.6,0.8,1.2,0.9,1.9c0.1,0.6,0.3,1.3-0.2,1.7c-0.5,0.3-1.2,0.1-1.7-0.2c-1.8-1-3.6-2-5.4-3c-0.8-0.5-2-0.6-2.1-1.8l0,0
		c0.8-0.6,1.3,0.1,1.8,0.5c1.1,0.8,2.3,1.2,3.7,1.1c0.7-0.1,1-0.5,0.6-1c-0.8-1.1-1.4-2.2-2-3.4c-0.2-0.5-0.8-0.4-1.2-0.6
		c-1.1-0.7-2.6-0.9-2.8-2.5c0.2-0.1,0.4-0.1,0.7,0c0.4,0.1,0.8,0.6,1.1,0.3c0.5-0.4,0.2-1,0-1.4c-1.9-4.9-2.7-10.1-4.6-14.9
		c-0.4-1-0.4-2.2-1-3.2c-0.9-2.5-1.6-5.1-2.2-7.6C450.7,175.6,450.6,175.3,450.8,175z"/>
	<path class="st19" d="M447.6,152.1c0,0.3,0,0.8,0.1,0.8c1.8,0.2,1.1,1.7,1.3,2.7c0.7-0.2,0.4-1,0.9-1.2c-0.1,1.8-1,3.3-2,4.8
		c-1.5,2.1-1.9,4.5-2.4,6.9c-0.5-0.1-0.7-0.3-1-0.8c-0.9,0.9-1.8,1.8-2.6,2.8c-2.4,3-5.5,5.2-8.7,7.2c-0.7,0.4-1.2,1.4-2.2,0.9
		c-0.1-0.2-0.1-0.4,0-0.5c0.9-0.6,0.8-1.4,0.3-2.2c-0.3-0.5-0.4-1,0-1.4c0.6-0.6,1.3-1.1,2.1-1.6c1.7-0.9,3.2-2.1,4.4-3.6
		c3.3-3,5.7-6.6,7.6-10.5c0.2-0.5,0.4-1,0.9-1.2c0.3,0,0.6,0.4,0.7,0c0.2-0.5,0.2-1.1-0.2-1.5C447,153.1,446.8,152.4,447.6,152.1z"
		/>
	<path class="st15" d="M450.8,175c0.9,2.8,1.7,5.6,2.6,8.5c0.2,0.7,0.4,1.3,0.5,2c0.4,1.5,0.1,1.8-1.5,1.8c-0.6-0.3-0.8-0.9-0.9-1.5
		c-1-3.5-2.2-6.9-3.2-10.3c-0.1-0.7-0.1-1.4,0.1-2.1c0.1-0.4,0.2-0.8,0.6-0.9c0.5-0.1,0.5,0.4,0.7,0.7c0.1,0.2-0.1,1,0.6,0.5
		C450.7,173.9,450.2,174.7,450.8,175z"/>
	<path class="st20" d="M450.2,173.6c0,0.4,0.1,0.8-0.2,1.3c-0.6-0.6-0.4-1.6-0.9-2.4c-0.9,0.9-0.4,1.9-0.5,2.7
		c-0.8-0.1-0.8-0.9-1-1.4c-0.6-2.3-1.4-4.6-2.1-7c-0.1-0.2-0.1-0.5,0-0.7c-0.1-2.7,0.8-5,2.5-7c-1.8,2.4-0.8,4.8,0,7.3
		c0.7,2,1.4,4,1.7,6.1C449.7,172.9,449.9,173.3,450.2,173.6z"/>
	<path class="st0" d="M450.1,154.2c0.2-1.6,1.4-2.9,1.3-4.5c0.1,0,0.2,0,0.2-0.1c0.1,1.6-0.6,3-1.1,4.5
		C450.4,154.3,450.2,154.3,450.1,154.2z"/>
	<path class="st9" d="M458.8,212.6c0.4,0,0.6,0.2,0.6,0.6c0,0.3-0.1,0.5-0.4,0.4c-0.4-0.1-0.7-0.3-0.7-0.7
		C458.3,212.7,458.6,212.6,458.8,212.6z"/>
	<path class="st21" d="M277.2,443.1c-3.9,0-7.8-0.1-11.7,0c-1.9,0-3.2,1.5-3.1,3.4c0.1,1.8,1.3,2.9,3.3,2.9c2.1,0,4.2,0,6.3,0
		c0.4,0,0.9-0.2,1.2,0.2c0.3,0.5-0.2,0.8-0.5,1.2c-1,1.7-2.5,2.7-4.3,3.5c-1.4,0.9-4.5,1-5.6,0.1c-0.7-0.2-1.4-0.4-2-0.9
		c-0.2,0.1-0.4,0.2-0.6,0.3c0.9,0.9,2.1,1.3,3.3,1.7c0.3,0,0.5-0.1,0.8,0c0.2,0,0.5,0.2,0.5,0.4c0,0.3-0.3,0.4-0.5,0.4
		c-0.9,0-2,0.3-2.7-0.6c-4-1.5-6.7-5.4-5.9-8.5c0.5,0.5,0.3,1.2,0.7,1.7c0.6-0.6,0.2-1.3,0.1-1.9c-0.1-1.4-0.2-2.8,0.8-4
		c0.5-0.8,0.9-1.7,1.5-2.4c3.3-3.6,7.9-4.1,11.8-1.1c2.2,1.7,3.7,1.5,5.3-0.5c-0.1-0.9,0.2-1.9-0.3-3c-0.4,0.3-0.2,1.1-0.9,1
		c-0.4,0.2-0.9,0.2-1.2-0.1c-1.7-1.7-4-2.3-6.1-3c-1.1,0-2.2,0-3.2,0c-1,0-1.7,0.4-2.4,1.1c-0.9,0.8-2.2,1.1-3.2,1.9
		c-2.4,1.8-3.8,4.3-4.5,7.1c-0.5-0.8-0.2-2.1,0.6-3.6c0.5-0.9,1.3-1.6,1.6-2.6c-0.5,0.2-1,0.2-1.4,0.6c0.1,0.6-0.4,0.9-0.8,1.3
		c0,0-0.3-0.1-0.3-0.1c0-0.7,0.2-1.3,0.8-1.7c0-0.4,0-0.7,0-1.1c-0.1-0.1-0.2-0.2-0.4-0.4c-1.2,1.2-2,2.7-2.7,4.2
		c-2.3,5.5-0.7,12.1,3.7,16.3c4.4,4.1,10.9,5.3,16.3,2.6c5.4-2.7,8.4-7.1,8.6-13.2C280.3,444.6,278.9,443.1,277.2,443.1z
		 M270.3,437.2c1.3,0.6,2.1,2,3.9,2.2c-0.8,0.7-1.5,0.6-2.1,0.2c-1.8-1.4-3.8-2.4-6-3.1C267.6,436.2,269,436.6,270.3,437.2z
		 M265.3,448.5c-0.8,0-1.2-0.7-1.6-1.2c2.8,1.1,5.9-0.1,8.7,0.9C270.1,448.7,267.7,448.6,265.3,448.5z M265.9,444.9
		c-0.4,0-0.9-0.1-0.9-0.6c0-0.6,0.5-0.5,1-0.5c1.8,0,3.6,0,5.3,0c0,0,0,0,0,0c1.7,0,3.5,0,5.2,0c0.4,0,1-0.1,1,0.5
		c0,0.6-0.6,0.6-1,0.6C272.9,444.9,269.4,444.9,265.9,444.9z M273.2,457.8c-5.5,4.1-12.8,3.1-17.5-1.4c-2.2-2.2-3.3-4.3-3.5-6.5
		c1.1,2.1,2.2,4.2,3.8,5.9c3.3,3.1,7.3,4.1,11.7,3.6c1.4-0.2,2.9-0.7,4.1-1.6c0.3-0.2,0.6-0.4,1-0.4c1.8-1.7,3.7-3.3,4.8-5.6
		c0.4-0.7,0.7-1.5,1.1-2.2C277.9,453,276.5,456,273.2,457.8z"/>
	<path class="st21" d="M300.2,454.6c-2.4,0-4.8,0-7.2,0c-4-0.1-3.9-0.1-3.8-4.1c0-1,0.4-1.1,1.2-1.1c3.2,0,6.5,0.1,9.7,0
		c2.1,0,3.5-1.3,3.4-3.1c0-1.9-1.4-3-3.5-3c-3,0-5.9,0-8.9,0c-2,0-2,0-2-2.1c0-0.7,0.1-1.3,0-2c-0.1-1,0.3-1.3,1.3-1.3
		c3.2,0.1,6.4,0,9.6,0c2.2,0,3.6-1.2,3.6-3.1c0-1.8-1.4-3-3.5-3c-4.5,0-8.9,0-13.4,0c-2.3,0-3.4,1.1-3.5,3.5c0,3.6,0,7.2,0,10.9
		c0,3.7,0,7.3,0,11c0,2.3,1.2,3.5,3.5,3.5c4.5,0,9,0,13.5,0c2,0,3.4-1.4,3.4-3.2C303.6,455.7,302.2,454.6,300.2,454.6z M292.7,455.2
		c2.4-0.1,4.9-0.1,7.3-0.1c0.4,0,1.1-0.1,1,0.6c0,0.6-0.6,0.4-1,0.4c-3,0-6,0.1-9-0.1c-0.5,0-0.9,0-1.6-0.4
		C290.7,455.1,291.7,455.3,292.7,455.2z M290.1,448.2c3.1-0.5,6.1-0.5,9.2,0C296.2,448.6,293.1,448.5,290.1,448.2z M293,443.8
		c2.4,0,4.8,0,7.2,0c0.4,0,0.8-0.1,0.9,0.5c0.1,0.5-0.3,0.6-0.7,0.6c-3.5-0.1-6.9,0.1-10.4-0.2c-0.3,0-0.5-0.2-0.8-0.3
		c0-0.1,0-0.2,0-0.4C290.4,444,291.7,443.9,293,443.8z M300.6,437.1c-3.4,0.1-6.9,0.2-10.3-0.1c-0.1,0-0.1-0.1-0.4-0.4
		c3.4-0.2,6.5-0.6,9.7-0.2c0.9,0.1,1.7,0.1,2.4-0.5C301.8,436.7,301.3,437.1,300.6,437.1z M285,435.7c-1.2-2.3-0.7-3.1,1.9-3.1
		c4.3,0,8.6,0,13,0c0.6,0,1.5-0.2,1.6,0.7c0.1,0.9-0.8,1.1-1.6,1.1c-4.3,0-8.6,0-12.8,0C286.1,434.4,285.1,434.4,285,435.7z
		 M300.2,459.8c-4.1,0.1-8.1,0.1-12.2-0.2c4.5-0.8,9-0.6,13.5-0.3C301.3,459.7,300.7,459.7,300.2,459.8z"/>
	<path class="st21" d="M595.3,436.6c-0.3,0.1-0.3,0.4-0.3,0.6h0c0,0.6-0.1,1.2,0.4,1.8c-1,0-1.2-0.8-1.8-1l0,0
		c-0.4,0.1-0.6,0.3-0.2,0.7c0.3,0.4,0.8,0.7,0.8,1.6c-2.9-3.4-6.2-5.6-10.7-5.4c-4.5,0.3-7.6,2.8-10.1,6.3c0-1,0.7-1.6,1.2-2.3
		c0.7-1-0.2-0.6-0.5-0.6c-0.8,0.5-1.1,1.4-1.9,2.1c-0.1-0.9,0.4-1.5,0.7-2.1c-0.3-0.6,0.5-1.2-0.1-1.8c-2.2,2.2-3.2,5-3.5,8
		c-1.1,10.4,8.2,19,18.8,16C599.3,457.4,602.1,444.1,595.3,436.6z M574.5,447.5c0.9,2,1.6,3.9,3.2,5.4c1.5,1.4,3.3,2.4,5.4,3.1
		C578.4,456.8,573.5,451,574.5,447.5z M587.4,459.9c-5.7,1.3-10.3-0.4-14.2-4.6c-1.6-2-2.6-4.2-2.7-6.7c0.9,2.4,2.1,4.6,3.6,6.7
		c3.6,3.5,7.8,5.1,12.8,4.1c1.4-0.3,2.7-0.7,4-1.2C590,459,588.7,459.6,587.4,459.9z M584,454.8c-4.8-0.1-8.6-4-8.5-8.8
		c0.1-4.7,4.1-8.5,8.8-8.4c4.6,0.1,8.3,4,8.3,8.7C592.6,451.1,588.7,454.9,584,454.8z M593.5,445.5c-0.2-0.8-0.4-1.6-0.6-2.4
		c-0.8-1.9-2-3.5-3.7-4.7c-0.7-0.5-1.7-0.4-2.3-1.2c-0.8,0.1-1.4-0.2-2-0.7c0.9-0.2,1.7-0.2,2.5,0.3c0.1,0,0.2,0.1,0.3,0.2
		c2.4,1,4.4,2.5,5.4,5.1C594,443.1,594.2,444.2,593.5,445.5z"/>
	<path class="st17" d="M330.4,456.6c-0.1-0.2-0.1-0.4-0.1-0.5c-0.1-0.1-0.2-0.2-0.3-0.3c-0.2,0.1-0.4,0.2-0.6,0.3
		c0.6,0.7,0.1,0.8-0.4,0.9c-0.5,0-1,0-1.2-0.6c-2.6-1.5-5.1-3-7.7-4.5c-0.5-0.1-1.1-0.4-0.9-0.9c0.1-0.4,0.7-0.4,0.9,0.1
		c0.9-0.1,1.4-1.4,2.6-0.9c0.6-0.7,1.4-0.7,2.2-0.9c1.2-0.6,2.2-1.4,3.5-2.5c-0.4,1.2-1.2,1.8-1.8,2.4c0.1,0.3,0.3,0.3,0.6,0.3
		c1.3-0.8,2.2-2,2.9-3.3c0.1-1,0.4-1.9,0.8-2.8c-0.1-1.4-0.2-2.8-0.3-4.2l0,0c-0.6-0.3-0.4-1.1-1-1.6c-0.3,1.1,0.3,2.1,0.2,3.1
		c0,0.3,0,0.6-0.3,0.6c-0.3,0-0.3-0.3-0.4-0.5c-0.2-0.6-0.7-1-0.5-1.7c-0.1-0.6-0.8-0.5-1.1-0.9c-1.7-2.2-4.2-2.5-6.7-2.8
		c-0.8-0.1-1.7-0.2-2.5,0c-2.4,0.5-4.6-1.1-6.9-0.9l0,0h0l0,0c-0.3,0.3-0.6,0.6-1,0.9c-0.3,0.3,0.5,1.1-0.4,1
		c-0.6-0.1-0.1-0.9-0.4-1.2c-0.5-0.5,0.3-1.6-0.7-1.8c-0.1,0.5-0.4,1-0.4,1.5c0,7.7,0,15.4,0,23.1c0,1.7,1.4,3,3.1,2.9
		c1.7,0,3-1.3,3-3c0-0.9,0-1.8,0-2.7c-0.1-1.1,0.2-1.2,1.2-0.6c3.4,2,6.9,3.8,10.3,5.7c0.7,0.1,1.4,0.4,2,0.4
		C330.2,460.6,331.3,458.7,330.4,456.6z M310.4,460c-0.6-0.2-1.1-0.6-1.1-1.3c0-0.3,0.3-0.5,0.5-0.3c0.4,0.4,0.8,0.9,1.2,1.3
		C310.9,460,310.7,460.1,310.4,460z M325.4,444.8c-2.9,4-7,2.4-10.7,2.1c1.7-0.5,3.4-0.6,5.2-0.6c1.9-0.1,3.6-0.3,5-1.8
		c0.3-0.7,0.6-1.5,1.4-2.2C326.3,443.4,326.2,444.2,325.4,444.8z M325.5,439.6c-1.6-1.2-3.1-1.9-4.7-2.7
		C322.9,436.4,324.7,437.4,325.5,439.6z M314.5,444.8c0-1,0-2.1,0-3.4c0.1-0.9-0.5-2.5,0.3-3.2c0.7-0.6,2.2-0.2,3.4-0.2
		c1.3,0.1,2.6-0.2,3.9,0.3c2,0.9,3.1,2.2,2.8,3.8c-0.3,1.9-1.8,3.3-3.9,3.4c-1.9,0.1-3.8,0-5.6,0.1
		C314.7,445.8,314.5,445.4,314.5,444.8z M326.3,459.7c-3.1-1.8-6.2-3.6-9.3-5.4c0,0,0,0,0,0c0,0,0,0,0,0c-1-0.2-1.8-0.9-2.4-1.7
		c1.3,0.3,2.5,0.9,3.5,1.7c2.9,1.5,5.7,3,8.3,4.9c0.2,0.1,0.4,0.2,0.6,0.3c0.4,0,0.8,0,1.4,0C327.7,460.4,327,460.1,326.3,459.7z"/>
	<g>
		<path class="st21" d="M410.7,436.6c-0.1,0.1-0.1,0.1-0.2,0.2c-0.4,0.6,0.6,1.5-0.1,1.9c-0.6,0.4-1.3-0.5-2-0.4
			c0.6,0.9,1.7,1.6,1.6,2.9c-1.1-1.8-2.5-3.2-4.2-4.4c-4-2.7-9.6-2.5-13.3,0.5c-0.6,0.5-1,1.1-1.8,1.3c0,0.8-0.8,1.2-1.2,1.7
			c0.1-0.8,0.3-1.5,1.2-1.8c0,0,0,0,0,0l0,0l0,0c-0.1-0.2-0.2-0.4-0.3-0.6c-1.3,0.1-1.7,1.3-2.3,2.1c-0.1,0.2-0.3,0.5-0.5,0.2
			c-0.1-0.1,0-0.4,0.1-0.6c0-1.1,1-1.8,1-2.9c-0.3,0.1-0.5,0.2-0.8,0.4c-5.1,6.8-4,15.8,2.8,21c3.9,3,8.5,3.8,13.1,2.4
			c5.2-1.6,8.7-5.1,10.1-10.4C415.1,445.1,414.2,440.5,410.7,436.6z M389,455.5c-1.8-1.8-2.7-4-2.9-6.6c0.9,2.2,2.1,4.3,3.5,6.3
			c4.3,4.3,9.4,5.4,15.2,3.6C401.7,461.2,393.7,461.1,389,455.5z M408,447.7c-0.6,3.2-2.5,5.3-5.5,6.6c-1.5,1.2-3.2,0.6-4.9,0.7
			c0.1,0.2,0.1,0.3,0.2,0.3c0.4,0.3,1.3,0,1.2,0.7c-0.1,0.6-0.9,0.4-1.4,0.4c-0.7,0-1.5-0.1-2.1-0.6c-3-0.8-6.4-5.3-5.8-8.5
			c0.9,0.8,0.7,2.2,1.5,2.9c0.1-0.2,0.3-0.4,0.4-0.7c-1.4-2-1.1-6,0.5-7.6c2.4-3.6,6.6-5.3,10.2-3.9
			C406.4,439.7,408.7,443.6,408,447.7z M409.1,445.2c-0.4-1.1-0.8-2.2-1.3-3.2c-1.2-2.3-3.1-3.7-5.4-4.8c-0.8,0.1-1.6-0.1-2.5-0.7
			c1.2-0.3,2.1-0.2,3,0.3c0.1,0,0.2,0.1,0.3,0.2c2.4,0.8,4.1,2.5,5.1,4.7C409.3,442.7,409.5,443.9,409.1,445.2z"/>
		<path class="st21" d="M390.7,438.6C390.7,438.6,390.7,438.6,390.7,438.6L390.7,438.6L390.7,438.6z"/>
	</g>
	<g>
		<path class="st17" d="M498.5,455.3c-0.1,0-0.2,0.1-0.3,0.1C498.3,455.4,498.4,455.3,498.5,455.3z"/>
		<path class="st17" d="M510.9,445.4c-0.7-0.7-1.3-1.8-2.6-1.9c-0.1,0.4,0.7,0.8,0.2,1.3c-0.4,0.4-1,0.3-1.5,0.3
			c-3.1,0-6.2-0.1-9.3-0.1c-0.1,0-0.3,0-0.4,0c-0.5-0.1-1.3-0.2-1.2-0.7c0.1-0.6,0.8-0.4,1.3-0.3c0.3,0,0.5,0,0.8,0
			c0.2-0.5,0-0.6-0.4-0.5c-1.2,0.2-1.5-0.4-1.4-1.5c0-1.1,0-2.1-0.1-3.2c0-0.9,0.6-1,1.3-1c3.3,0,6.6,0,9.9,0c1.2,0,2.2-0.3,2.9-1.5
			c0.6-1,0.5-1.9-0.1-2.8c-0.6-1-1.6-1.3-2.7-1.3c-5,0-10,0-15.1,0c-1.4,0.5-2,1.6-2,3.1c0,7.4,0,14.7,0,22.1c0,2.3,1.3,3.4,3.6,3.4
			c4.4,0,8.7,0,13.1,0c2.7,0,3.7-1.1,3.7-3.8c-0.3-0.5-0.6-1.1-1-1.4c-0.5-0.4-1.1-1-1.8-0.2c0.1,0.2,0.4,0.4,0.2,0.8
			c-0.1,0.3-0.3,0.4-0.5,0.4c-3.4,0-6.7-0.1-10.1-0.1c-0.5,0-1.4,0.2-1.3-0.6c0-0.6,0.9-0.4,1.4-0.5c0.2,0,0.5,0.1,0.7,0.1
			c0.5,0,0.9,0,1.4-0.1c-0.2-0.9-0.9-0.4-1.4-0.4c-2.1,0-2.1,0-2.1-2.1c0-0.8-0.1-1.7-0.1-2.5c0-0.8,0.4-1.4,1.3-0.8
			c0.5,0,0.9,0,1.4,0c1.6-0.4,3.2-0.4,4.8,0c0.8,0,1.7,0,2.5,0c0.3-0.1,0.5-0.1,0.8-0.1c0.8-0.2,1.7-0.3,2.5-0.5
			C510.6,447.8,511,446.7,510.9,445.4z M508,437.1c-3.3,0.1-6.6,0.1-9.9-0.3c1.1-0.1,2.1-0.2,3.2-0.2c1.1-0.1,2.3-0.1,3.4-0.1
			c1.1,0,2.2,0.2,3.3,0.3C508,436.8,508,436.9,508,437.1z M492.1,435.7c-0.1-0.4-0.1-0.5-0.1-0.7c-0.5-1.7-0.1-2.4,1.7-2.4
			c4,0,8,0,12,0c0.8,0,1.5,0,2.3,0c0.4,0,0.8,0.1,0.9,0.5c0.1,0.5-0.2,0.8-0.6,1c-0.5,0.3-1,0.3-1.5,0.3c-4.1,0-8.2,0-12.2,0
			C493.5,434.4,492.5,434.4,492.1,435.7z M508.7,459.3c-0.4,0.4-0.4,0.5-1.2,0.5c-4.1,0.2-8.2,0.1-12.3-0.2
			C499.7,458.8,504.3,459,508.7,459.3z M497.5,448.2c3-0.6,6-0.4,9,0C503.5,448.6,500.5,448.5,497.5,448.2z"/>
	</g>
	<path class="st22" d="M358.8,451.5c-0.3,0.1-0.3,0.4-0.3,0.6c-0.7-1.2-1.3-2.4-0.6-4.2C358.3,449.3,358.8,450.3,358.8,451.5z"/>
	<g>
		<path class="st21" d="M376.7,452.8c-3,2.4-6.4,2.8-9.8,0.9c-3-1.7-4.8-5.3-4.2-8.7c0.6-3.4,3.4-6.5,6.8-7.1
			c2.9-0.6,5.4,0.3,7.7,2.2c1.3,1.1,3,0.9,4.2-0.3c1.1-1.2,1.2-2.7,0.1-4c-0.2,0-0.5-0.3-0.7,0.1c0.2,0.4,0.4,0.8-0.1,1.2
			c-0.4,0.4-0.8,0.2-1.2,0.1c-0.5-0.1-0.8-0.5-1.1-0.8c-0.7,0.5-1.3,0.3-1.9-0.1c-1.1-0.7-2.3-1.1-3.6-1.4c-0.8-0.2-0.7-0.5,0.1-0.7
			c0,0,0,0-0.1,0c-1.7-0.1-3.1,0-4.5,0.2c-1.4,0.1-2.6,0.7-3.8,1.5c-1.4,1-2.8,2-4.1,3c0,0,0,0,0,0c0,0,0,0,0,0
			c-0.1,0.6-0.5,0.6-1,0.9c0-0.9,0.5-1.3,0.7-1.8h0c0-0.3-0.1-0.6-0.1-0.9c-0.2,0.1-0.5,0.2-0.7,0.4c-2.6,3.2-3.5,7-2.9,11
			c1.8,11.6,15.2,16.6,24.2,9.2c1.7-1.4,2-3.2,0.8-4.7C380.3,451.5,378.4,451.4,376.7,452.8z M363.3,440c1.4-1.7,3.1-3.1,5.4-3.4
			c0.5-0.4,1-0.3,1.6-0.2c-0.3,0.8-0.9,0.8-1.6,0.7c-1.9,0.8-3.6,1.9-5.1,3.4c-0.1,0.7-0.5,1.1-1.3,1.4
			C362.2,441,362.8,440.5,363.3,440z M361.5,447.4c1.1,3.6,3.3,6.4,6.8,7.8c0.8,0.1,1.5,0.3,2.5,0.9c-1.7,0.3-3,0.1-4.1-0.7
			c0,0,0,0,0,0c0,0,0,0,0,0C363,453.5,361,450.5,361.5,447.4z M361.3,456.1c-1.3-1-2.1-2.5-2.8-4c-0.2-0.4-0.1-0.6,0.3-0.6
			c0.9,1.5,1.9,3,3.1,4.3c4.2,3.9,10.7,5.4,17.6,1.3C376.3,460.9,366.9,462.2,361.3,456.1z"/>
		<path class="st21" d="M359.4,437.5c0.1-0.2,0.2-0.3,0.3-0.5C359.5,437.1,359.4,437.3,359.4,437.5z"/>
	</g>
	<g>
		<path class="st21" d="M556.6,433.8C556.6,433.8,556.6,433.8,556.6,433.8c-0.9-0.1-1.9,0-2.8,0.2
			C554.7,433.9,555.7,433.8,556.6,433.8z"/>
		<path class="st21" d="M561.6,452.6c-0.8,0.7-1.8,1.2-2.7,1.7c-1.7,1-3.5,0.9-5.3,0.3l0,0c-0.2,0.2-1-0.2-0.6,0.6l0,0
			c0.8,0,1.6,0.3,2.3,0.7c-1,0.4-2,0.4-2.9-0.1c-0.1,0-0.2-0.1-0.3-0.1c-2.4-0.7-4-2.4-5.4-4.4c-0.4-0.5-0.5-1.1-0.6-1.8
			c-0.6-0.4-0.5-1.1-0.5-1.8c0-0.4-0.1-1.2,0.4-1.1c0.6,0,0.5,0.7,0.4,1.2c-0.1,0.8,0.4,1.4,0.8,2c0,0,0,0,0,0
			c0.4-0.2,0.2-0.6,0.4-0.9l0,0c-0.9-2.1-1-4.2,0.3-6.2c2.8-5.4,8.8-6.7,13.5-3c1.2,0.9,2.4,1.3,3.7,0.5c1-1,1.6-2.2,1.4-3.7l0,0
			c-0.3,0-0.7-1.1-0.8,0.1c0,0.3-0.2,0.5-0.6,0.5c-0.9,0.3-1.5-0.2-2.1-0.8c-0.6,0.5-1.1,0.3-1.8,0c-1.2-0.6-2.7-0.7-3.6-1.5
			c-1.3-1.2-2.7-0.4-3.9-0.8c-2.8,0.6-5.1,1.8-7.1,3.9c-0.8,0.8-1.8,1.2-2.5,2.3c-0.5-1-0.1-1.5,0.5-1.9c-0.4-0.3,0.6-1.3-0.6-1.2
			c0.1,0.9-0.5,1.3-1.2,1.7c-0.7,0.3-0.4,1-0.7,1.4c-1.4,2.7-1.7,5.6-1.1,8.6c1.1,5.9,4.6,9.8,10.2,11.6c5.1,1.6,9.9,0.5,14.1-2.9
			c1.4-1.2,1.6-3.2,0.6-4.5C564.9,451.6,563.1,451.4,561.6,452.6z M554.1,436.8c-2.8,1-5,2.6-6.9,5.2
			C547.7,439,551.4,436.3,554.1,436.8z M559.2,459.8c-5.7,1.5-10.4-0.3-14.3-4.5c-1.6-1.9-2.7-4.1-2.7-6.7c0.8,2.3,2,4.4,3.3,6.4
			c3.1,3.3,7,4.9,11.6,4.6c0.3,0,0.6,0,0.8-0.1c2.1-0.5,4.2-1.1,6-2.3C562.6,458.4,561.1,459.4,559.2,459.8z"/>
	</g>
	<g>
		<path class="st21" d="M351.7,450.7C351.7,450.7,351.7,450.7,351.7,450.7C351.7,450.7,351.7,450.7,351.7,450.7
			C351.7,450.8,351.8,450.7,351.7,450.7z"/>
		<path class="st21" d="M352.5,450.2c-0.2,0.2-0.5-0.8-0.5,0c-0.1,0.5,0.1,1.1-0.6,1.5c-0.3-0.7-0.6-1.4-0.6-2.1
			c-0.7-1.8-2-3.1-3.8-3.9c-1.8-0.9-3.6-1.8-5.4-2.6c-0.7-0.3-1.1-0.8-1.3-1.8c0.6,0.4,1,0.7,1.4,1c0.4-0.1,0.9,0,0.3-0.6
			c-1.1-1.2-1.2-2.4-0.4-3.3c0.8-0.9,1.9-0.9,3.2-0.1c0.5,0.3,0.9,0.8,1.4,1.2c1.9,2,4,1.8,5.4-0.6c0-0.6,0-1.3,0-2
			c-0.3,0.2-0.6,0.4-0.9,0.6c-0.7,0.4-1.1,0.1-1.6-0.4c-1.2-1.3-2.6-2.4-4.3-2.9c-1,0-2,0-3,0l0,0c-0.7,0.8-1.3,1.5-2,2.3
			c-1.5,1.8-1.6,3.9-0.6,6.1c0.2,0.4,0.5,0.7,0.5,1.4c-1.6-1.7-2.6-3.4-1.8-5.7c-0.6,0-0.7,0.3-0.9,0.7h0l0,0c0,0.5-0.2,0.9-0.7,0.8
			c-0.4-0.1-0.1-0.5-0.1-0.8c-0.1-0.8-0.1-1.5-0.6-2.2l0,0c-0.7,2.2-0.6,4.4,0,6.5c1,2.3,2.7,3.8,5.1,4.7c1.5,0.5,2.8,1.2,4.3,1.9
			c0.9,0.4,1.4,1,1.5,2c0.1,1.2-0.3,2.3-1.5,2.8c-1.1,0.5-2.2,0.4-3.3-0.3c-1-0.7-1.6-1.7-2.3-2.6c-1.1-1.2-2.5-1.5-3.9-0.7
			c-1.2,0.7-1.9,2.3-1.4,3.7c2,4.8,7.4,8,12.9,6C351.4,458.9,353.4,454.9,352.5,450.2z M349.4,439.7c-2.5,0.6-3.1-2.2-4.9-2.9
			C346.8,436.6,347.4,439.3,349.4,439.7z M339.1,452.2c1,1.4,2.1,2.6,3.7,3.4c-3.4,0.6-4.1-2.9-6.3-4.2
			C337.7,450.7,338.4,451.3,339.1,452.2z M335.6,454.8c1.9,2.4,4.3,3.7,7.3,4.8C340,460.1,335.8,457.2,335.6,454.8z M340.9,446.8
			c2.8-0.5,6.4,2,6.8,4.6C346.4,448.5,343.1,448.6,340.9,446.8z"/>
	</g>
	<path class="st21" d="M531.6,455.5c0.8-2,0.8-4,0.2-6.2c-0.1-0.1-0.2-0.2-0.2-0.4c-0.1,1,0.5,1.8-0.1,2.6c-0.7-0.5-1-1.1-0.9-1.9
		c-1-2.4-2.9-3.8-5.3-4.7c-1.7-0.7-3.5-1.2-4.8-2.6c-0.7-0.3-0.4-1-1-1.7c1,0.4,1.3,0.9,1.6,1.4c0.6,0.4,1.1,1,1.9,0.9
		c0.3-0.1,0.6-0.2,0.9-0.3c-0.5-0.2-1-0.4-1.5-0.7c-1.2-0.6-1.8-1.9-1.2-3c0.6-1.3,1.9-1.6,3.2-0.9c0.9,0.4,1.5,1.1,2.1,1.8
		c1.5,1.6,4.7,0.9,5.1-1.3c-0.2-0.6,0.1-1.2-0.2-1.8c-0.5-0.1-0.3,0.7-0.8,0.6c-0.6,0.3-1.1,0.2-1.5-0.3c-1.2-1.4-2.7-2.3-4.4-3
		c-1,0-2,0-3.1,0c-0.7,0.8-1.4,1.6-2.1,2.5c-1.4,1.8-1.7,3.8-0.7,5.9c0.1,0.2,0.2,0.4,0,0.8c-1.3-1.5-1.7-3.1-1.2-4.9
		c-0.4-0.2-0.5,0-0.7,0.1c-0.3,0.2-0.1,1.1-0.8,0.7c-0.5-0.3-0.1-0.7,0-1.1c-0.1-0.1-0.2-0.2-0.3-0.3c-0.5-0.3-0.1-0.9-0.6-1.2
		c-1.6,3.9-0.3,8,3.2,10.3c1.3,0.9,2.8,1.2,4.2,1.9c1.2,0.6,2.7,0.8,3.4,2.2c0.9,1.4,0.3,3-1.1,3.3c-0.1,0.1-0.2,0.1-0.3,0.2
		c-0.6,1-1.8,0-2.5,0.6c0.1,0.1,0.1,0.1,0.2,0.1c0.2,0,0.5-0.1,0.5,0.3c0,0.3-0.2,0.4-0.4,0.5c-0.7,0.1-1.3,0.2-1.7-0.5
		c-1.2-0.7-2.2-1.5-2.9-2.8c-0.2-0.4-0.6-0.6-0.9-0.8c-0.5-0.2-1.8,0.4-0.8-1c-0.2-0.1-0.4-0.1-0.6-0.2c-0.2,0-0.5,0-0.6,0.3
		c0,0.1,0.1,0.3,0,0.4c-1.3,1.1-1.1,2.5-0.8,4c2.1,4.2,7.3,6.9,12.2,5.3C528.6,459.4,530.6,458,531.6,455.5z M529.2,439.5
		c-0.9,0.5-1.3,0.6-2-0.1c-1.1-1-2.2-2.1-3.7-3C526.3,436.2,527.1,439.1,529.2,439.5z M515.4,455c2,2.1,4.3,3.6,7.2,4.4
		C520.2,460.3,516.5,458,515.4,455z M527.1,451.1c-0.7-1.4-1.7-2-2.9-2.5c-1.1-0.5-2.4-0.8-3.4-1.7
		C523.4,446.8,527.5,448.8,527.1,451.1z"/>
	<path class="st18" d="M376,154.4c-0.1-0.2-0.2-0.4-0.3-0.6c-0.3-1.6-1-3.1-1.1-4.8c-0.3-1.8-0.3-3.7-0.7-5.4
		c-0.4-1.4-0.8-2.9-2.1-3.9c-3.1-2.2-6.2-4.4-9.1-6.8c-4.5-3.6-9.1-7.1-13.8-10.4c-1.6-1.1-3.2-2.3-5.4-2.6c-1-0.1-2-1.2-3-1.8
		c-0.8-0.5-1.5-1-2.2-1.5c-0.3-0.2-0.7-0.5-0.6-0.9c0.1-0.5,0.6-0.6,1-0.7c0.5-0.1,0.9,0,1.4,0c3,0,6,0.1,9-0.1
		c4.6,0.2,9.1,0.9,13.7,0.5c6.4-0.5,12.7-0.1,19.1-0.2c0.2,0,0.3,0,0.5,0.1c1,0.7,0.4,1.3-0.1,1.8c-1,1.2-1.9,2.4-2.8,3.7
		c-2,2.9-2.8,6.3-3.8,9.6c-0.4,1.3,0,2.7,0,4.1c0,0.4,0.2,0.8,0.6,0.8c1.2,0.2,1.4,0.9,1.3,1.9c0,0.2,0,0.5-0.1,0.7
		c-0.2,1.7-0.2,3.4,0,5.1c0.1,0.5,0.1,0.9,0.2,1.4c0.2,0.7,0.2,1.5,0.2,2.3c-0.1,0.9,0.2,1.7,0.4,2.5c0.1,0.4,0.2,0.8,0.3,1.2
		c0,0.3,0.1,0.6-0.1,0.8c-0.6,0.8-0.4,1.4,0.6,1.8c0.2,0.1,0.3,0.2,0.4,0.4c0.3,0.7-0.5,2.1-1.5,2.6c-0.9,0.5-1.1-0.2-1.5-0.8
		C376.1,155.2,376,154.8,376,154.4z"/>
	<path class="st23" d="M348.6,115.4c-3.2,0-6.5,0-9.7,0c-0.4,0-1-0.1-1.1,0.4c-0.1,0.4,0.5,0.5,0.8,0.7c1.5,1,3,2.1,4.5,3.1
		c0.1,0.1,0.2,0.3,0.3,0.2c2.5-0.5,4,1.4,5.7,2.6c3.7,2.6,7.3,5.3,10.9,8.1c3.9,3.1,7.9,5.9,11.8,8.9c0.8,0.7,1.5,1.3,1.7,2.8
		c0.4,2.3,0.9,4.5,1,6.8c-0.7-1.3-0.6-2.7-0.7-4.1c-0.1-1.5-0.7-2.3-1.8-3c-3.5-2.5-7.1-4.9-10.5-7.6c-2.3-2-4.9-3.6-7.5-5.7
		c0.3,2,1.3,3.4,2.1,5c0.1,0.2,0.3,0.3,0.4,0.4c0.2,0.3,0.6,0.7,0.2,1.1c-0.4,0.4-0.7-0.1-1.1-0.3c-4.8-3.3-9.2-7.2-14.1-10.4
		c-1.2-1.6-2.8-2.5-4.5-3.4l0,0c-1.3-1.8-3.3-2.8-5-4c-2.8-2.1-5.5-4.3-8.3-6.4c-0.3-0.2-0.6-0.5,0-0.7c0.3-0.1,0.7,0,1,0
		c6.9,0,13.9,0,20.8,0c1.2,0,1.7,0.4,1.8,1.5c0.1,0.8,0.5,1.5,0.8,2.3C348.4,114.3,348.8,114.8,348.6,115.4z"/>
	<path class="st24" d="M361.8,134.1c2.8,2.4,5.9,4.4,8.9,6.6c0.5,0.4,1,0.7,1.3,1.2c-0.9-0.1-1.4-0.7-2-1.2c-0.2-0.1-0.4-0.2-0.6,0
		c-0.1,0.1-0.1,0.2,0,0.4c0.3,1.9,0.7,3.7,2.3,5c0.2,0.2,0.4,0.4,0.1,0.9c-3.7-2.5-7.3-5.1-10.8-7.8c0.1-0.2,0.5-0.3,0.4-0.5
		c-0.5-1.1-0.2-2.3-0.6-3.3c-0.2-0.4-0.8-0.7-0.4-1.2C360.9,133.6,361.4,133.9,361.8,134.1z"/>
	<path class="st25" d="M361.8,134.1c-0.4,0-1-0.2-1.2,0.2c-0.3,0.5,0.4,0.6,0.7,0.9c0.1,0.2,0.3,0.5,0.2,0.6c-0.4,1,0,1.8,0.5,2.8
		c0.4,0.9-0.5,0.7-1,0.6c-1.8-1.4-3.6-2.8-5.4-4.2c0.3,0.1,0.6,0.1,1.1,0.2c-0.2-0.9-1.1-1.2-1.3-1.8c-0.4-1.6-1.6-2.8-1.8-4.5
		c0-0.2-0.1-0.3,0-0.5c0.3-0.2,0.5,0,0.7,0.1c0.9,0.7,1.9,1.3,2.8,2.1C358.7,131.9,360.5,132.6,361.8,134.1z"/>
	<path class="st26" d="M377.1,137.5c0-0.8,0.1-1.8-1.3-1.5c-0.6,0.1-0.6-0.5-0.7-1c-0.4-3,0.4-5.7,1.4-8.5c1-2.9,2.4-5.6,4.2-8.1
		c0.5-0.7,1.1-1.3,1.6-1.9c0.2-0.2,0.3-0.5,0.1-0.7c0.1-0.4,0.5-0.6,0.7-0.9c1.2-1.8,3-2.9,4.5-4.4c0.2-0.1,0.5-0.2,0.7-0.2
		c1.5-1.5,3.3-2.8,5.4-3.4c0.4-0.3,0.9-0.3,1,0.3c0.1,0.8,0.7,1.4,0.6,2.2c-0.9,1.4-2.4,2-3.7,3c-3.4,2.6-6.4,5.6-8.6,9.3
		c-1.9,3.1-3.5,6.3-4.3,9.9c-0.1,0.4-0.1,1-0.7,1.1c-0.3-0.2-0.3-0.6-0.4-0.9c-0.8,1.5-0.8,1.5-0.7,2.1c0.6-0.1,0.1-1.6,1.3-1
		c0.1,1.5-0.3,3-0.6,4.5C377.4,137.5,377.3,137.6,377.1,137.5z"/>
	<path class="st27" d="M388.4,110.4c-0.1,0.2-0.3,0.3-0.5,0.3c-6.1-0.3-12.2-0.1-18.3-0.1c-0.9,0-1.6,0.3-1.9,1.2
		c-0.3,0.9-0.1,1.9,0,2.8c0.1,0.4,0.7,0.2,1.2,0.3c4.2,0,8.4,0,12.5,0c0.7,0,1.4-0.1,2,0.4c-0.2,0.4-0.5,0.6-0.9,0.6
		c-0.1,0-0.2,0-0.3-0.1c-0.5-0.3-1-0.1-1.5-0.1c-5.3,0-10.6,0-15.9,0c-0.5,0-1,0.2-1.5-0.2c-1.3-0.5-2.6-0.1-3.9-0.3
		c-0.5,0-1,0.1-0.7-0.7c0.2-0.4-0.2-0.8-0.3-1.2c-0.6-1.4-0.2-2.4,1.3-2.9c1-0.3,2-0.5,3-0.5c8.1,0,16.2,0,24.4,0
		C387.5,109.8,388.2,109.5,388.4,110.4z"/>
	<path class="st28" d="M363.3,115.4c5.8,0,11.6,0,17.4,0.1c0.5,0,1-0.2,1.5,0.2c-8.6,0-17.3,0-25.9,0c-2.6,0-5.1-0.2-7.7-0.2
		c-0.8-1.4-1.7-2.8-1.7-4.5c0-1-0.7-0.8-1.3-0.8c-4,0-8,0-12,0c-3,0-6,0-9,0c-0.3,0-1.1-0.4-0.8,0.6c-0.3,0-0.8-0.2-0.7-0.5
		c0.1-0.6,0.7-0.3,1.1-0.3c8,0,15.9,0,23.9,0c0.8,0,1.7,0,2.5,0c2,0,2,0,1.3,1.9c-0.2,0.5,0,0.8,0.1,1.2c0.4,2.2,1.7,2.3,3.6,2.4
		C358.2,115.4,360.7,115.4,363.3,115.4z"/>
	<path class="st29" d="M395.1,109.5c0-0.8-1.2-1.3-0.7-2.3c0.1-0.2-0.4-0.2-0.7-0.3c0-0.1,0-0.2,0-0.3c0.5-0.6,1.3-0.8,1.9-1.1
		c1.2-0.5,2.4-1,2.9-2.3c0.1,0.5,0,1,0.8,0.7c0.6-0.2,1.2-0.3,1.8-0.4c0.4,0.6-0.9,0.6-0.4,1.5c0.8,1.5,1.8,2,3.8,1.4
		c0.7-0.2,1.4-0.6,2.1-0.9c0.6-0.3,1.2-0.4,1.9-0.3c0.8,0.1,1.2,0.5,1.3,1.2c0.1,0.7-0.4,1.1-1,1.1c-2.7,0.2-5.3,1.5-8.1,0.4
		c-1-0.4-2,0.4-2.9,0.8C396.9,109.2,396.2,110.1,395.1,109.5z"/>
	<path class="st2" d="M337,121.1c0.2,0.7,0.9,0.8,1.3,1.2c0.2,0.2,0.4,0.4,0.2,0.6c-0.1,0.2-0.5,0.3-0.6,0.1
		C337.4,122.5,336.4,122.1,337,121.1C337,121.1,337,121.1,337,121.1z"/>
	<path class="st30" d="M357.3,217.3c-0.6,0.1-0.9-0.2-0.8-0.8c0,0,0,0,0,0c0.2-1.1,0.7-2.1,1.1-3.1c1.3-3.7,2.6-7.5,3.7-11.3
		c0.5-1.8,1.4-3.5,1.6-5.3c2.6-8.1,5.3-16.2,7.9-24.3c0.1-0.1,0.1-0.1,0.2-0.2c0.2-0.4,0.1-1.1,0.8-1c0.7,0.1,0.7,0.8,0.7,1.4
		c-0.2,1.7-0.1,3.4,0.2,5c0.1,0.3,0,0.6,0.1,0.8c1,1.5,0.8,3,0.4,4.6c0,0.6-0.3,1.2-0.5,1.7c-2.1,6.3-4.1,12.7-6.2,19
		c-0.1,0.3-0.3,0.7-0.1,1.3c1.5-1.2,2.9-2.2,4.4-3.2c2.3-1.5,4.4-3.4,6.8-4.8c0.9-0.1,1.4-1.3,2.4-1c0.9,0.2,0.8,1.4,1.4,2
		c0.8,0.7,0.7,1.3-0.2,1.8c-0.3,0.2-0.6,0.6-0.9,0.9c-1.9,1.4-3.9,2.8-5.8,4.2c0,0,0,0,0,0c-1.6,0.7-3,1.9-4.4,2.9
		c-3.3,2.3-6.4,4.9-9.7,7.1C359.3,215.6,358.3,216.5,357.3,217.3z"/>
	<path class="st31" d="M372.9,183.2c0.3-1.7,0.1-3.2-0.4-4.9c-0.6-1.8-0.7-3.8-0.3-5.8c0.1-0.5,0-0.8-0.4-1.1
		c-0.4,0.2-0.3,0.9-0.9,1c0.3-2.3,1.4-4.3,2-6.5c0.2-0.9,0.6-1.9,0.9-2.8c0.7-0.8,1,0,1.2,0.4c0.4,0.9,0.3,1.8,0.2,2.8
		c-0.1,1.3,0.2,2.5,1.1,3.8c0.8-1.5,1.1-3,1.7-4.4c0.2-0.5,0.2-1.2,1-1.1c0.6,1,1.3,2.1,1.1,3.4c-1.2,5-3,9.8-4.5,14.7
		c-0.1,0.2-0.2,0.4-0.4,0.6c-0.7,0-0.4-0.7-0.6-1C373.9,182.4,373.6,183.1,372.9,183.2z"/>
	<path class="st32" d="M378.8,164.5c-0.7,1.8-1.3,3.6-2,5.4c-0.1,0.3-0.1,0.7-0.5,0.7c-0.4,0.1-0.7-0.3-0.8-0.6
		c-0.4-1.3-1.1-2.6-0.7-4.2c0.2-0.7,0-1.6-0.2-2.3c-0.2-0.5-0.4-0.6-0.8-0.4c0.6-2,1.1-4.1,1.9-6c0.4-1,0.1-1.9,0.3-2.8
		c0.4,0.1,0.2,0.7,0.5,0.9c0.8,1.7,1.7,3.3,2.6,4.8C380.1,161.8,380.1,162.9,378.8,164.5z"/>
	<path class="st21" d="M224.2,446.2c0-3.9,0-7.8,0-11.7c0-1.8-1.3-3.1-3.1-3.2c-1.7,0-3.1,1.2-3.1,3c0,7.8,0,15.7,0,23.5
		c0,2,1.3,3.2,3.2,3.2c1.8,0,3-1.3,3-3.3C224.3,453.9,224.2,450.1,224.2,446.2C224.2,446.2,224.2,446.2,224.2,446.2z M220.7,460.1
		c-0.4,0.3-0.9-0.1-1.2-0.4c-0.4-0.4-0.8-0.8-0.4-1.5c0.5,0,0.7,0.5,1.1,0.8C220.5,459.3,221.2,459.6,220.7,460.1z M220,434.4
		c-0.5-0.1-0.9-0.5-0.8-1c0.1-0.9,0.9-1.3,1.8-1.4c0.6,0.1,1.1,0.3,1.1,1C222.1,433.5,220.6,434.5,220,434.4z M223.1,458
		c-0.8,0-0.5-0.7-0.5-1c0.1-4.1-0.4-8.1,0.4-12.2c0-0.2,0.1-0.4,0.2-0.7c0.5,0.3,0.4,0.8,0.4,1.2c0,3.9,0.1,7.8,0.1,11.7
		C223.6,457.3,223.8,458,223.1,458z"/>
	<path class="st33" d="M378.2,150.8c-0.4-0.3-0.2-0.8-0.3-1.2c-0.1-0.8-0.5-1.5-0.4-2.4c0.3-0.9,0.7-1.7,1.4-2.3
		c1-0.8,1.8-0.7,2.7-0.1c0.9,0.6,1.3,1.5,0.6,2.5c-0.1,0.2,0-0.1-0.1,0.1c-0.1,0.3-0.4,0.7,0,1c0.1,0.1,0.3,0.2,0.5,0.1
		c0.5-0.2,0.4-0.6,0.4-0.9c-0.1-0.5,0-1,0.2-1.5c1-2.1,3.3-2.4,4.4-0.5c0.8,1.4,1.8,2.5,2.8,3.6c0.8,0.9,1.1,2.2,2.1,2.9
		c1.2,1.2,2.1,2.5,3.5,3.4c0.7,1.7,0.2,3.3,0,5c-0.2,1.9,0.9,3.2,2.7,3c0.4-0.1,0.8-0.1,0.9-0.6c0.1-0.8,0.4-1.1,1.2-0.6
		c0.7,0.4,1.5,0.9,1,2c-0.4,0.7-1,1.1-1.8,1.1c-0.6,0-1.2-0.1-1.8,0c-0.6,0-1.2-0.3-2-0.4c1.1,0.5,2,1,2.9,1.4
		c0.5,0.2,0.9,0.6,0.8,1.2c-0.1,0.6-0.7,0.5-1,0.7c2.2,0.2,4.4,1,6.7,1.3c0.4,0.1,0.8,0.3,0.8,0.8c0,0.5-0.5,0.5-0.8,0.6
		c-1.3,0.4-2.5,0.9-3.3,2c-0.3,0.5-0.9,0.5-1.5,0.7c0.7,0.4,1.4,0.4,1.9,0.8c0,1.3-0.7,2.2-1.3,3.3c1.4,0.7,1.5,0.9,0.7,2.1
		c-1.9,1.3-3.6,2.9-5.6,4.1c-0.4,0.2-0.7,0.7-1.3,0.6c-0.8,0.5-1.5,0.9-2.3,1.4c-1.7-0.1-2.7,1.1-4,1.9c-0.6,0.4-1.1,1.1-2,0.7
		c-0.2-1,0.7-1.3,1.3-1.6c3.6-2.4,7.2-5,10.7-7.5c0.3-0.2,0.8-0.3,0.8-0.7c0-0.5-0.6-0.5-1-0.7c-0.4-0.2-1-0.2-1.2-0.8
		c0.5-1.5,0.4-2.9-0.9-4.1c-0.7-0.6-0.5-1.1,0.4-1.4c0.6-0.2,1.2-0.1,1.9-0.4c-1.1-0.6-2-1.3-3.3-0.7c-0.8,0.4-1.8,0.3-2.8,0.4
		c-1.6-0.4-2.6-1.7-3.7-2.7c-0.5-0.5-0.4-1,0.3-1.3c1-0.3,1.9-0.5,2.9,0c0.5,0.3,1,0.5,1.6,0.5c-0.8-1.1-2.4-1.6-4.2-1.2
		c-2.3,0.5-2.7,0.3-4.1-1.6c-1-1.4-2-2.8-3.1-4.2c-0.4-0.5-0.8-1-1-1.5c-0.4-1-0.2-1.5,0.9-1.3c1.4,0.2,2.8-0.2,4.5,0.1
		c-0.6-0.6-1.1-0.6-1.6-0.6c-1.2,0-2.4,0-3.7,0c-0.8,0-1.5-0.3-1.7-1.2C379.5,154.3,378.6,152.6,378.2,150.8z"/>
	<path class="st6" d="M395.2,184.6c2.3-1.6,4.5-3.2,6.8-4.8c0.8-0.8,1.6-1.3,2.8-0.8c0.9,0.3,1.1-0.4,1.3-1.1
		c0.1-0.6,0.1-1.3,0.9-1.3c0.8,0.1,1.5,0,2.3-0.1c1.9-0.1,3.8,0,5.8,0c0.3,0,0.8,0.2,0.9-0.1c0.5-1.3,1.5-0.9,2.5-0.9
		c0.7,0,1.3,0,2,0c0.3,0,0.7,0.1,0.8,0.4c0.1,0.5-0.3,0.6-0.6,0.8c-0.6,0.2-1.3,0.3-1.9,0.6c-0.6,0.3-0.7,0.6-0.1,1.1
		c1,0.8,2,1.2,3.2,0.6c0.5-0.2,1.1-0.2,1.6,0.1c0.1,0.1,0.2,0.2,0.3,0.3c0,0.1,0,0.3-0.1,0.4c-0.9,0.4-1.8,0.5-2.7,0.5
		c-0.6,0-1.3,0.2-1.4,0.9c-0.1,0.7,0.4,1,0.9,1.3c5.1,3,9.6,6.8,14.4,10c3.3,2.2,6.6,4.5,9.8,6.9c0.7,0.5,1.6,0.8,1.7,1.9
		c-2-0.8-3.8-1.8-5.3-3.3c-1.8-1.8-4.2-2.6-6.4-3.7c-0.4-0.2-0.9-0.3-1.2-0.7c-1.6-1.8-3.7-2.9-5.9-3.7c-0.8-0.3-1.2-0.4-1.3-1.4
		c0-0.7-0.5-1.1-1.2-1c-0.9,0.1-1.5-0.2-1.8-1.1c-0.5-1.2-1.5-1.8-2.7-2c-0.7-0.1-1.3-0.5-1.9-0.8c-0.8-0.5-1.6-0.2-2,0.4
		c-0.6,0.9-0.8,0.7-1.2,0c-0.2-0.4-0.6-0.4-1-0.4c-1.3-1-1.6-0.9-3.4,0.4c-2.9,2.1-5.9,4.1-8.9,6.1c-0.3,0.2-0.5,0.3-0.7-0.1
		c-0.3-0.5-0.5-1-1.2-0.7c-0.6,0.3-1,0.8-1,1.4c0.1,0.9,0,1.3-0.9,0.6c-0.3-0.2-0.5,0-0.7,0.2c-0.1,0.1-0.1,0.2-0.2,0.3
		c-0.5,0.4-6.4,2.4-7.1,2.3c0.8-1.4,2.3-2,3.4-3c0.9-0.9,1.2-1.6,0.4-2.6c-0.9-1.1-0.8-1.9,0.3-2.7
		C394.8,185.4,395.1,185.1,395.2,184.6z"/>
	<path class="st34" d="M387,188.5c1.5-0.3,2.6-1.4,3.7-2.3c0.8-0.7,1.4-0.7,2.3-0.3c-0.7,0.8-1.3,1.7-2.4,2.1
		c-0.5,0.2-0.9,0.6-0.6,1.2c0.4,0.9,1.2,2.1,0.8,2.7c-0.9,1.4-1.9,3-3.7,3.6c-0.5-1-0.7-2.6-1.5-2.9c-0.8-0.3-1.9,0.9-2.9,1.4
		c-1.7,1-3.4,2-5,3.1c-3.6,2.6-7.2,5.2-10.8,7.8c-0.3,0.2-0.5,0.8-1,0.4c-0.4-0.3,0-0.7,0.1-1c2.3-7,4.6-13.9,6.9-20.9
		c0-0.1,0-0.3,0.1-0.4c0.4-0.9,1.4-1.1,2.1-2c0,0.8-0.1,1.4-0.1,2c0.3,1-0.2,1.9-0.5,2.8c-1.6,4.5-2.9,9.1-4.3,13.7
		c0,0.1-0.1,0.3,0,0.5c2.2-1.5,4.3-3.1,6.5-4.6c3.1-2.1,6.1-4.4,9.1-6.6C386,188.7,386.4,188.3,387,188.5z"/>
	<path class="st15" d="M377.7,197.3c1.8-1.6,3.8-2.9,5.9-4.1c0.7-0.4,1.4-1.2,2.1-1.1c0.9,0.1,0.4,1.4,1,2.1
		c0.3,0.4,0.8,0.8,0.3,1.5c-2.1,1.8-4.3,3.5-6.5,5.1c-0.1,0.1-0.2,0.1-0.3,0c1.6-1,1.3-2.1,0.4-3.5c-0.6-0.9-0.8-1.3-1.7-0.4
		C378.6,197.1,378.1,197.3,377.7,197.3z"/>
	<path class="st8" d="M380.2,200.7c0.1,0,0.2,0,0.3,0c-1.8,1.6-3.8,3.1-5.9,4.2C376.2,203.2,378.2,202,380.2,200.7z"/>
	<path class="st16" d="M446.2,201.2c-2.1-1.9-4.4-3.6-6.7-5.2c-3.1-2.2-6.2-4.4-9.4-6.5c-3.3-2.2-6.3-4.9-9.9-6.8
		c-0.8-0.4-1.5-1-1.3-1.8c0.2-0.8,1.1-1.2,2-1.2c0.9,0,1.8-0.2,2.6-0.2c1.7,0.4,2.9,1.7,4.2,2.6c2.4,1.8,4.9,3.4,7.4,5.1
		c0.8,0.6,1.7,1.2,2.4,1.9c4.9,3.6,9.9,6.9,14.8,10.6c0.7,0.6,1.7,0.8,2.3,1.6c0.2,0.3,0.5,0.6,0.7,0.8c1,1,2.2,1.9,2.1,3.6
		c0,0.5,0.3,1.1,0.6,1.5c0.3,0.4,0.5,0.7,0.1,1.1c-0.4,0.5-0.9,0.2-1.3,0c-1.8-1.1-3.7-2.2-5.4-3.6c-0.5-0.4-1.1-0.9-1.8-1.1l0,0
		c-1-0.8-2.1-1.5-3.1-2.3C446.6,201.5,446.4,201.5,446.2,201.2z"/>
	<path class="st6" d="M449.9,203.8c0.4,0,0.7,0.1,1,0.3c2,1.5,4.1,2.8,6.3,4.1c0.3,0.2,0.5,0.5,0.8,0.2c0.4-0.4,0-0.5-0.2-0.8
		c-0.5-0.5-0.8-1.3-0.7-1.9c0.3-1.7-1-2.3-1.9-3.2c-0.3-0.3-0.5-0.6-0.8-1c0.2-0.2,0.3-0.2,0.5-0.1c0.6,0.3,1.1,0.9,1.6,1.4
		c0,0.1,0.1,0.1,0.1,0.2c1.1,1,2.1,2.2,3.7,2.3c0.3,0,0.5,0.1,0.6,0.4c0.6,1.4,1.5,2.7,2.3,4c0.5,0.7,0.3,1.3-0.8,1.4
		c-1.7,0.1-3.1-0.3-4.4-1.4c-0.4-0.3-0.8-0.7-1.4-0.6c-0.8-0.9-1.9-1.4-2.9-2.1C452.4,205.8,451.2,204.7,449.9,203.8z"/>
	<path class="st6" d="M446.8,201.5c1.2,0.5,2.2,1.3,3.1,2.3C448.7,203.2,447.6,202.7,446.8,201.5z"/>
	<path class="st6" d="M425.7,190.4c0.3,0.1,0.7,0.1,0.7,0.5c0,0.2-0.1,0.4-0.3,0.4c-0.4,0-0.6-0.2-0.7-0.6
		C425.4,190.6,425.5,190.4,425.7,190.4z"/>
	<path class="st10" d="M357.6,213.4c-0.1,1.1-0.5,2.2-1.1,3.1C356.3,215.2,356.9,214.3,357.6,213.4z"/>
	<path class="st35" d="M537.3,455c-1.6,0-2.9,1.4-2.9,3.2c0,1.8,1.3,3,3,3c1.6,0,2.9-1.4,3-3C540.4,456.5,538.9,454.9,537.3,455z
		 M536.2,460.1c-0.4-0.3-0.9-0.6-0.9-1.1c0-0.2,0.1-0.4,0.3-0.4c0.5,0,0.7,0.5,1,0.8c0.2,0.2,0.3,0.4,0.4,0.6
		C536.7,460.3,536.5,460.3,536.2,460.1z M536.4,458c-0.5,0.2-1-0.1-1-0.7c0.1-1,0.8-1.3,1.7-1.5c0.6,0.1,1.2,0.1,1.1,0.9
		C538.1,457.8,537.1,457.7,536.4,458z"/>
	<path class="st36" d="M392.6,152.4c-0.4,0-0.9,0-1-0.4c-0.5-1.9-2-3.1-3.4-4.4c-0.7-0.6-0.3-1.8-1.4-2.3c-0.9-0.5-1.7-0.8-2.4-0.2
		c-0.7,0.6-1.6,1.5-1,2.7c0.3,0.6,0.2,0.9-0.2,1.2c-0.5,0.4-1.1,0.1-1.6-0.1c-0.5-0.3-0.2-0.8,0-1.2c1-1.6,0.6-2.5-1.1-2.9
		c-1.3-0.3-1.7,0.9-2.3,1.6c-0.2,0.3-0.2,0.7-0.6,0.8c-0.1,0.1-0.2,0.1-0.2-0.1c0-0.8,0.1-1.5-0.2-2.3c0.1-1.8-0.2-3.5-0.1-5.3
		c0-0.7,0-1.4,0.3-2.1c-0.2-1.6,0.5-3.2,0.6-4.8l0,0c0.9-2.9,1.8-5.8,3.3-8.5c1.6-2.9,3.5-5.5,5.8-8c2.4-2.6,5.3-4.5,8.1-6.6
		c0.9,0.1,1.5-0.6,2.3-0.9c1.3-0.7,2.6-1.6,4.2-0.6c0.4,0.2,1,0.2,1.5,0.1c1.9-0.3,3.8-0.6,5.7-0.9c0.4-0.1,0.7-0.3,0.6-0.7
		c-0.1-0.4-0.2-0.9-0.8-0.9c-1.3-0.2-2.4,0.5-3.4,1c-1.3,0.7-2.6,0.3-3.8,0.4c-0.6,0-0.5-0.6-0.7-0.9c-0.2-0.4,0-1.1-0.9-1.1
		c-0.5,0-0.2-0.4,0-0.6c0.4-0.2,1-0.2,1.3-0.7c0,0,0,0,0,0c2.7-1.2,5.6-1.9,8.5-2c3-0.1,6-0.3,9,0.2c0.2,0,0.5,0,0.7,0
		c1.2,0.1,2.5,0.1,3.5,1c0,0.5,1.1,0.7,0.5,1.5c-0.6,0.9-1.4,1.6-2.5,1.6c-1.5,0-3,0.3-4.4-0.6c-0.6-0.4-1.1,0.1-2.1,0.2
		c2.2,0.9,4,2.1,6.2,1.8c0.5-0.1,0.9,0,1.4,0.3c0.7,0.4,1.4,0.6,1.8-0.5c0.2-0.6,0.6-0.5,1.1-0.3c1.9,0.9,3.7,1.7,5.6,2.6
		c3.7,2,6.8,4.6,9.6,7.7c0.3,0.4,0.7,0.7,1.1,1.1c0.6,0.8,1.3,1.7,1.9,2.5c1.7,2.3,2.8,4.9,4,7.6c0.2,2.5,0.2,2.5-2,3.5
		c-0.3,0.1-0.6,0.3-0.8,0.5c-0.5,0.5-1,0.5-1.5,0c-0.5-0.4-1-0.8-1.6-0.7c-1.7,0.3-3-0.7-4.3-1.3c-1.5-0.7-2.3-0.5-3,1.2
		c-0.1,1.3,0,2.5,0,3.8c0,0.6,0,1.1,0.6,1.5c0.5,0.3,1.2,0.7,1.5,0.2c0.4-0.7,0.6-1.7,0.5-2.5c0-0.3-0.2-0.5-0.3-0.8
		c-0.2-0.7-0.1-1.3,0.5-1.8c0.5-0.5,1-0.2,1.6,0.1c1,0.4,1.8,1,2.2,2c0.4,1,1,1.3,2.2,0.8c1.5-0.6,3.2-0.6,4.6,0.5
		c0.1,0.1,0.2,0.2,0.3,0.3c1.9,0.5,1.8,2.1,1.8,3.6c0.1,2.3,0.1,4.7-0.3,7c-0.1,0.4-0.3,0.8-0.3,1.2c-0.1,1.2-0.4,2.2-2,1.9
		c-0.3-0.1-0.7,0.1-0.8,0.4c-0.2,0.4,0.2,0.4,0.5,0.6c0.8,0.6,0.6,1-0.2,1.3c-0.6,0.2-0.9,0.4-0.9,1c0,1.1-0.7,1.3-1.6,1.4
		c-0.6,0-1.2,0.1-1.8-0.1c-0.4-0.1-0.8-0.3-0.9-0.8c0-0.6,0.5-0.6,0.9-0.7c0.4-0.1,0.8,0,1.3-0.2c0-0.3-0.3-0.2-0.4-0.2
		c-0.5-0.1-1.3,0.1-1.4-0.6c-0.2-0.8,0.6-0.9,1.2-1.1c-0.6,0-1.1,0-1.5-0.5c-0.4-0.7-0.2-1.2,0.5-1.7c-0.8,0.3-1.5,0.4-2.2,0.8
		c-0.9,0.4-1.9,0.2-2.9,0.5c-4,0.2-8,0.1-12-0.5c-3.5-0.6-6.9-1.4-10.3-2.3c-3.7-1-7.4-1.7-11-3c-1.6-0.8-3.3-0.8-5.1-0.8
		c-2.1,0-2.2-0.1-2.2-2.3c-0.1-1.7,0.2-3.5,0.1-5.2c-0.1-0.8,0.1-1.7,0.6-2.3c0.5-0.6,0.8-1,0-1.6c-0.4-0.4-0.2-0.9,0.2-1.2
		c1-0.8,2.1-1.4,3.5-0.8c1.5,0.6,3.1,1,4.7,1.6c0.6,0.2,1.2,0.4,2.1,0.2c-1.3-0.9-2.7-1.1-3.9-1.5c-1.3-0.5-2.6-0.8-3.9-1.3
		c-0.5-0.2-0.9-0.2-1.1,0.3c-0.3,0.6-0.7,0.9-1.4,0.7c-0.7-0.2-0.9-0.8-0.8-1.5c0.3-2.8,0.5-2.8,3.2-2.7c-0.3-0.3-0.8-0.3-1.1-0.6
		c-0.6-0.6-1.2-0.7-2-0.3c-0.8,0.4-1.6,0.1-2.1-0.6c-0.5-0.6-1-1.2-1.5-1.8c0.5,0.7,1,1.5,1.5,2.2c0.9,1.2,0.9,1.9-0.2,3
		c-0.8,0.8-1.2,1.6,0,2.4c0.6,0.4,0.3,0.9,0,1.3c-0.4,0.5-1,0.7-1.4,1.2c-0.3,0.4-0.5,0.9-0.2,1.4c0.4,0.5,0.8,0.3,1.2,0
		c0.7-0.5,1-0.1,1.3,0.5c0.1,0.3,0.2,0.6,0.2,1c-0.3,2.4-0.1,4.9-0.2,7.3c0,0.7-0.5,0.7-1,0.4c-0.5-0.3-0.7-0.9-1-1.4
		c0.4,1,1.1,2.1,0.2,3.2c-0.8,1.5,0.4,2.4,1.2,3.3c0.1,0.2,0.1,0.4,0.1,0.6c0,0.2,0,0.4-0.1,0.6c-0.2,0.9-1.9,0.4-1.6,1.7
		C392.5,150.8,392.4,151.6,392.6,152.4z"/>
	<path class="st37" d="M481.2,121.4c-0.9-0.2-1.3,0.5-1.9,1c-0.3,0.2-0.6,0.6-1,0.3c-0.4-0.3,0.1-0.6,0.2-0.8c0.5-1.5,1.5-2.5,3.1-3
		c0.5-0.2,1.2,0,1.2-0.9c-0.1-0.9-0.8-0.9-1.5-0.9c-4.6,0-9.1-0.2-13.7,0.1c-7.2,0.4-14.3,0.1-21.5,0.2c-1.5,0-2.3-0.7-2.4-2
		c14.5,0,29,0,43.5,0c0.4,0,0.9-0.2,1.1,0.4c0.1,0.5-0.4,0.7-0.7,0.9C485.4,118.2,483.2,119.6,481.2,121.4z"/>
	<path class="st18" d="M422.8,102.8c-1.1-0.1-2.2-0.6-3.4-0.6c-0.6-0.3-1.3-0.4-1.9-0.4c-4.8,0-9.7-0.5-14.4,1.2
		c-0.4,0.2-1,0.4-1.5,0.1c-0.1-2.4,0.9-4.6,1.5-6.8c0.4-1.4,1.1-2.7,1.2-4.3c0.1-1.4,0.9-3,1.5-4.5c0.6-1.5,1-3,1.3-4.6
		c0.1-0.5,0.5-1,0.7-1.5c0.9-1.8,1.1-3.8,1.6-5.7c0.6-2.4,1.4-4.8,2.3-7.1c0.5-1.3-0.1-2.7,0.8-3.8c0.2-0.3,0.1-0.8,0.6-0.8
		c0.4,0,0.5,0.5,0.6,0.8c0.7,1.6,0.7,3.5,1.4,5.1c0.8,1.8,1.3,3.7,1.7,5.6c0.5,2.5,1.8,4.8,2.3,7.3c0.4,2.2,1.3,4.3,2,6.4
		c0.3,0.9,0.7,1.9,0.7,2.8c0,1.2,0.4,2.2,0.9,3.2c1.1,2.6,1.7,5.3,2.3,8C424.3,103.1,423.6,102.9,422.8,102.8z"/>
	<path class="st29" d="M401.7,103c5.2-1.6,10.6-1.6,16-1.4c0.7,0,1.3,0,1.8,0.5c-2.6-0.3-5.2-0.3-7.8-0.3c-2.8,0-5.6,0.3-8.2,1.3
		c-0.7,0.3-1.6,0.2-2.3,0.4C401.3,103.4,401.5,103.2,401.7,103z"/>
	<path class="st0" d="M440.9,149.3c0.8,0.6,1.8,0,2.9,0.6c-0.9,0.3-1.5,0.4-2.2,0.6c-0.2,0.1-0.4,0.3-0.3,0.5
		c0.1,0.1,0.3,0.2,0.5,0.2c0.5,0,0.9,0,1.4,0c0.3,0,0.7,0.1,0.7,0.6c0,0.4-0.4,0.5-0.7,0.5c-0.3,0-0.7,0-1,0
		c-0.4,0.1-1.1-0.3-1.1,0.4c0,0.6,0.7,0.4,1.2,0.4c0.5,0,0.9,0,1.4,0c0.8,0,1.3-0.2,1-1.2c-0.2-0.9,0.1-1.4,1.1-1.2
		c0.3,0.1,0.6,0.1,0.7-0.2c0.1-0.5-0.3-0.5-0.6-0.4c-0.4,0.1-0.6,0.1-0.7-0.4c0-0.4,0-0.8,0.4-1c0.2-0.1,0.5-0.3,0.8-0.3
		c2,0.4,2.1-1,2.3-2.4c0-0.1,0.1-0.2,0.2-0.4c0.3,0.3,0.2,0.6,0,0.9c-0.2,1.8-0.8,3.6-1.2,5.3c-0.4,0.5-0.4,1.1-0.6,1.7
		c0.2,0.6-0.2,1-0.6,1.4c-1.3,2.5-2.6,5-4.2,7.2c-1.3,1.7-2.5,3.4-4.2,4.7c-0.1,0.1-0.4,0.3-0.5,0.1c-1.4-1.4-3.1-0.7-4.8-0.9
		c-0.6,0-1.2,0-1.7-0.5c-0.3-0.3-0.6-0.7-0.4-1.1c0.2-0.5,0.6-0.5,1.1-0.5c0.7,0,1.5,0.4,2.2-0.1c0-0.5-0.5-0.4-0.7-0.6
		c-0.7-1.1-1.8-1.9-1.9-3.4c0-0.8-0.1-1.6,0.9-1.8c0.9-0.1,1.4,0.4,1.6,1.3c0.3,1.6,1.5,2.4,3,2.2c0.9-0.2,1.9-0.1,2.9-0.3
		c-0.7-1.1-1-1.9,0.4-2.7c0.5-0.3,0.5-1.3-0.1-1.8c-1.1-1-1.1-1,0.1-2c-0.9-0.6-1.8-0.5-2.7-0.6c-0.5-0.1-1.2,0-1.3-0.7
		c-0.1-0.6,0.5-0.9,1-1C439.1,152.4,439.9,150.8,440.9,149.3z"/>
	<path class="st10" d="M448.8,146.8c0-0.3,0-0.6,0-0.9c0.3-3,0.5-5.9,0-8.9c-0.1-0.5,0-1-0.7-0.8c-0.2,0-0.5-0.1-0.6-0.3
		c-0.9-1.5-2.5-1.2-3.9-1.4c-0.4-0.1-0.6,0-0.9,0.2c-1.6,0.9-2.5,0.7-2.9-1c-0.4-1.5-1.9-1.1-2.5-2.1c-0.1-0.2-0.5,0-0.7,0.3
		c-0.3,0.4-0.6,0.9-0.2,1.4c1.2,1.2,0.1,2.5-0.1,3.6c-0.2,1.1-1.4,0.1-2.1,0c1.1-0.4,1.5-1.2,1.4-2.3c-0.1-1.2-0.1-2.4,0.4-3.6
		c0.3-0.6-0.2-0.8-0.8-0.6c-0.6,0.2-1.1,0.8-1.8,0.6c0.9-1.9,1.9-1.9,3.6-1.2c1.3,0.6,2.4,1.8,4.1,1.2c0.3-0.1,0.8,0,1.1,0.2
		c0.9,0.7,1.5,0.8,2.7,0.1c2.1-1.1,2.2-0.9,2.1-3.2c0.7-0.1,0.2,0.7,0.5,0.9c1.3,4.6,2.3,9.3,2,14.1
		C449.3,144.3,449.2,145.6,448.8,146.8z"/>
	<path class="st13" d="M447.4,129c-0.2-0.3-0.4-0.6-0.5-0.9c-1-2.6-2.5-5.1-3.8-7.6c1.2,0.6,1.5,2,2,3
		C446,125.3,447.2,127,447.4,129z"/>
	<path class="st34" d="M455,201.5c-0.2,0-0.4,0-0.6,0c-2.6-1.9-5.3-3.8-7.9-5.6c-3-2.2-6-4.3-9.1-6.5c0.2-0.7,0.2-1.7,1.3-1.7
		c2.2,0.9,3.9,2.6,5.8,3.9c3.8,2.6,7.4,5.4,11.4,8.1c-1-3.8-2.3-7.2-3.4-10.7c-0.2-0.6-0.6-1.2-0.1-1.9c1.4-0.1,1.6-0.8,1.1-2
		c-0.2-0.5-0.4-1.1-0.3-1.6c1,2.3,1.4,4.8,2.3,7.1c0.7,1.8,1,3.7,1.6,5.5c0.1,0.3,0.4,0.6,0.3,0.9c-0.3,1.5,0.8,2.6,1.2,3.9
		c0.3,1,1.1,2.1,0.3,2.9c-0.7,0.7-1.4-0.7-2.3-0.7C456.1,202.5,455.6,201.9,455,201.5z"/>
	<path class="st18" d="M452.5,187.1c0.6,2.7,1.7,5.2,2.4,7.8c0.5,1.6,1,3.1,1.5,4.7c0.1,0.3,0.3,0.5,0,0.7c-0.3,0.2-0.5-0.1-0.7-0.3
		c-2.5-1.9-5-3.7-7.6-5.6c-3-2.2-6.1-4.3-9.2-6.5c-1.7-0.6-3-1.9-4.4-2.9c-2.6-1.8-5-3.7-7.6-5.5c-1.4-1.3-1.3-1.5,0.4-2.2
		c0.8-0.3,1.6-0.7,2.4-1.1c0.4-0.2,0.8-0.6,1.3-0.2c1.7-0.4,3-1.7,4.4-2.6c3.4-2.1,6.1-5.1,8.6-8.2c0.2-0.3,0.5-0.7,0.9-0.6
		c0.5,0.1,0.3,0.6,0.3,0.9c0,0.2,0.1,0.5,0.3,0.6c1.1,2.1,1.5,4.4,2.2,6.6c0.3,0.8,0.6,1.6,0.9,2.4c1.2,3.8,2.4,7.5,3.6,11.3
		C452.2,186.8,452.3,186.9,452.5,187.1z"/>
	<path class="st38" d="M432.7,166c0.3,0,0.7,0,1,0c1.6-0.1,3.1-0.2,4.4,1.1c-1.2,1.6-2.7,2.9-4.5,3.7c0.1-1.2,1.2-1.4,1.8-2.1
		c0.3-0.4,1.1-0.6,0.8-1.3c-0.3-0.6-1.1-0.7-1.6-0.4c-1.5,0.8-3,0.9-4.6,0.7c-0.4,0-0.7,0.1-0.8,0.5c-0.1,0.4,0,0.7,0.3,1
		c0.4,0.4,1,0.5,1.1,1.2c0.5,1.8,0.4,1.9-2.2,2.5c-0.8,0-1.5-0.1-2.2-0.3c-2.2-0.9-4.5-0.8-6.8-0.4c1.5,0,3,0.2,4.5,0.2
		c0.7,0,1.4-0.1,2.1,0.2c0.3,0.1,0.7,0.2,0.7,0.6c0,0.4-0.3,0.8-0.7,0.8c-1.9-0.2-3.4,0.4-5,1.5c-0.7,0.5-1.8,0.3-2.6,0.1
		c-0.9-0.2-1.6-0.1-2.5-0.1c-1.3,0.1-2.5-0.5-3.8-0.8c-0.6-0.2-0.5-0.9,0.1-1.3c0.7-0.3,1.4-0.2,2.1,0c0.3,0.1,0.8,0.4,0.9-0.2
		c0.1-0.5-0.1-0.9-0.7-1c-0.1,0-0.2,0-0.3,0c-1.7,1.3-3.5,0.4-5.3,0.3c-0.4,0-0.8,0-1.2,0.4c0.6,0.4,1.3,0.2,1.8,0.3
		c0.7,0.2,1.2,0.6,0.8,1.4c-0.4,0.7-0.1,1.7-1,2.2c-0.8,0.2-1.5,0.6-2.3,0c-0.6-0.2-1.4-0.2-1.2-1.3c0.1-0.8-0.5-0.6-1-0.6
		c-0.7,0-1.4,0.4-2-0.1c-0.6-0.1-1.3-0.2-1.9-0.3c-0.3-0.1-0.7-0.3-0.7-0.6c0-0.5,0.4-0.5,0.7-0.5c0.8,0.1,1-0.5,1.5-0.9
		c0.9-0.7,1.8-1.6,3.1-1.6c0.3,0,0.8,0.1,0.7-0.4c0-0.4-0.4-0.4-0.8-0.5c-2.6-0.1-5-1.4-7.9-1.1c0.5-0.7,1-0.7,1.4-0.8
		c0.3-0.1,0.7,0.1,0.8-0.3c0.1-0.4-0.3-0.8-0.6-0.8c-1-0.1-1.6-1-2.6-1.2c-0.4-0.1-1.1-0.1-0.9-0.8c0.2-0.5,0.9-0.4,1.2-0.2
		c0.9,0.6,2,0.3,3,0.4c0.9,0.1,1.5-0.3,1.9-1.1c0.4-1-0.7-0.8-1-1.2c-0.1-0.2-0.3-0.3-0.7-0.6c0.4,1.5-0.3,1.8-1.3,1.8
		c-1.2,0-2.1-0.1-2.6-1.4c-0.7-1.7,0-3.3,0.1-5c0-0.7-0.1-1.4-0.2-2.1c-0.5-1.5-0.7-3-0.8-4.6c1.1-0.3,1.7,0.2,1.6,1.5
		c-0.1,0.9-0.3,1.9-0.1,2.8c0,0.2,0,0.6,0.4,0.4c1-0.7,1.5-1.9,2.3-2.7c0.4-0.4,0.8-0.9,1.5-0.8c0.1,0,0.2,0.1,0.3,0.2
		c-0.1,0.8-1.1,1.1-1.2,1.9c-0.1,0.8-1,1.1-1.3,1.8c1.3-0.6,2.6-1.1,3.6-2c0.8-0.7,1.5-1.4,3-0.9c-0.7-0.7-1.7-0.1-1.8-1
		c1.6-0.8,3.2-0.3,4.7-0.1c0.2,0,0.3,0.1,0.5,0.1c0,0,0.1,0,0.1,0c0.6,0.2,1.5,0.2,1.5,1.1c0,0.9-0.9,0.8-1.4,1
		c-1.3,0.1-2.7,0.4-4,0c-0.7-0.2-1.2,0.1-1.6,0.6c-0.4,0.6-0.9,1.1-1.7,1.2c1.5,0.6,3.3,0.9,3.7,2.8c0.1,0.5,0.5,0.6,1,0.6
		c0.4,0,0.8,0.1,1.3,0.2c0.4,0.1,0.9,0.6,1.2,0c0.2-0.4-0.6-1.5-1-1.6c-0.4-0.1-0.8,0-1.3-0.1c-0.5,0-1,0-1.2-0.6
		c-0.2-0.5,0-1,0.3-1.4c0.4-0.5,0.8-0.3,1.3-0.1c0.6,0.3,1.3,0.3,1.9,0c0.5-0.2,1-0.3,1.5-0.3c1.5,0.6,3,1,4.6,0.9
		c0.4,0,0.8,0.1,0.8,0.6c0,0.5-0.5,0.5-0.8,0.6c-0.5,0.2-1.2-0.3-1.5,0.6c0.1,0.1,0.2,0.1,0.3,0.1c0.7,0.1,1.7,0,1.8,1
		c0.1,1-0.9,1-1.5,1.3c-0.3,0.1-0.6,0.2-0.6,0.6c0,0.4,0.3,0.5,0.7,0.6c0.5,0.1,0.9,0.4,1.2,0.6c0.8,0.6,1.6,0.6,2.4,0.1
		c0.9-0.6,1.8-0.8,2.8-0.9c0.1-0.1,0.2-0.1,0.4-0.2c0.9-0.4,1.6-1.1,2.3-1.8c0.7-0.7,1.6-1,2.6-0.8c0.8,0.2,1.4,0.3,1.5-0.8
		c0-0.3,0.4-0.5,0.8-0.3c0.4,0.7,1,1.1,1.9,0.9c0.4-0.1,0.8-0.1,0.9,0.4c0.1,0.4,0,0.9-0.3,1c-1,0.4-1.4,1.4-2.2,2
		c-0.5-0.1-1-0.3-1.5-0.5c-0.1-0.2-0.1-0.3-0.1-0.5c0-0.3,0.3-0.7-0.2-0.8c-0.4-0.1-0.9,0-0.9,0.6c0,0.3,0,0.6-0.3,0.8
		c-1.4,0.4-2.7,1-4.2,1.1c-1.6,0.2-3,1-3.6,2.7c-0.3,0.8-0.8,0.9-1.4,0.3c-0.2-0.2-0.4-0.4-0.6-0.5c-0.4-0.1-0.7-0.1-1.1,0.1
		c-0.3,0.3-0.2,0.6,0,0.9c0.6,1.1,0.1,1.4-0.9,1.5c-1.4,0.1-2.8,0.1-4.2,0.2c-0.7-0.1-1.5-0.3-2.2-0.2c-0.3,0-0.7,0-0.7,0.4
		c0,0.4,0.3,0.6,0.6,0.6c1.1,0.2,2.1,0.3,3.2,0.2c0.2,0,0.5,0,0.7,0c0.6,0.2,0.7,0.7,0.7,1.2c0,0.7,0.3,0.7,0.8,0.4
		c0.5-0.4,0.9-0.9,1.5-1.3c1-0.6,1.8-0.4,2.2,0.6c0.2,0.4,0.4,0.7,0.8,0.6c2.2-0.4,4.4-0.4,6.6-0.3c-1.1-1-2.4-0.9-3.7-0.8
		c-0.5,0-0.9,0.2-1.4,0c-0.6-0.3-0.9-0.9-0.8-1.5c0.1-0.7,0.6-0.9,1.2-0.9c1.4,0,2.8-0.2,4.1-0.8c0.6-0.1,1.2-0.1,1.8-0.1
		c2,0.1,2.2,0.3,1.9,1.9c0.5,0.1,0.9-0.1,1-0.5c0.5-1.6,1.9-1.5,3.1-1.6c0.6-0.1,1.1,0.1,1.7,0.1C432.6,166.3,433,166.6,432.7,166z"
		/>
	<path class="st0" d="M428.5,172.5c0.4-0.1,0.8-0.1,1.1-0.3c0.4-0.2,1.8-0.1,0.6-1.2c0.5-1.2-0.6-1.3-1.1-1.7
		c-0.8-0.5-0.2-1.1-0.1-1.6c0.1-0.5,0.5-0.5,1-0.4c1.4,0.2,2.8,0.6,4.1-0.5c0.3-0.2,0.9-0.1,1.4-0.1c0.6,0,1.3,0.2,1.5,0.8
		c0.2,0.7-0.5,1-0.9,1.3c-0.8,0.7-1.6,1.4-2.4,2.1c-0.7,0.5-1.3,0.9-2,1.4c-0.7,0.5-1.4,1.3-2.4,1.2
		C428.7,173.2,428.1,173.2,428.5,172.5z"/>
	<path class="st38" d="M429.3,173c0.9,0.1,1.4-0.9,2.3-0.8c-0.3,0.4-0.2,0.7,0.1,1.1c0.9,1.2,0.6,2.1-0.7,2.8
		c-1.6,0.7-3.2,1.5-4.9,2.3c0.4,0.4,0.7,0.8,1,1.1c-1.2,0.8-2.4,1.1-3.4-0.3l0,0c-0.1-0.7,0.4-0.7,0.9-0.8c1.3-0.4,1.6-0.9,1-2.1
		c-0.4-0.7-0.3-1.3,0.5-1.7C427.1,174,428.1,173.2,429.3,173z"/>
	<path class="st18" d="M446.5,155.2c-0.1-0.6,0.3-0.9,0.6-1.4c0.2,0.1,0.8,0.1,0.6,0.2c-0.8,0.6,0.6,1.3-0.2,1.7
		C447.1,156,446.6,155.8,446.5,155.2z"/>
	<path class="st21" d="M483.4,454.6c-2.5-0.1-5-0.1-7.5,0c-4,0-3.9,0-3.9-3.9c0-1.1,0.4-1.3,1.4-1.3c3.1,0.1,6.3,0,9.4,0
		c1.4,0,2.6-0.3,3.2-1.8c0.5-1.5,0-2.8-1.1-3.9c-0.4,0.2-0.7-0.2-1.2-0.2c-0.1,0.4,0.6,0.9,0.1,1.3c-0.4,0.4-0.9,0.3-1.3,0.3
		c-3.2-0.1-6.4,0.2-9.6-0.2c-0.3,0-0.6,0-0.8-0.1c-0.3-0.1-0.7-0.1-0.7-0.6c0-0.4,0.5-0.4,0.8-0.4c0.3,0,0.5,0.1,0.8,0.1
		c0.2,0,0.4,0,0.5,0c0.2-0.4,0.8-0.2,1.1-0.5c-1,0-1.6,0-2-0.2c0,0,0,0,0,0c-0.9-0.2-0.9-0.9-0.9-2.8c0-2.8,0-2.8,2.8-2.8
		c3.2,0,6.5,0,9.7,0c0.6-0.5,1.1-0.9,1.7-1.4c0.9-2.7-0.4-4.4-3.2-4.4c-4.5,0-8.9,0-13.4,0c-2.4,0-3.4,1.1-3.5,3.4
		c0,1.8,0,3.7,0,5.5c0,5.4,0,10.8,0,16.2c0,2,1.1,3.6,2.8,3.6c4.9,0.1,9.8,0.1,14.7,0c1.7,0,3-1.5,2.9-3.2
		C486.3,455.8,485.2,454.7,483.4,454.6z M481.9,448.3c-3.1,0.3-6.1,0.3-9.2-0.1C474.8,447.6,480.7,447.6,481.9,448.3z M475.8,455.2
		c2.3-0.1,4.6-0.1,6.9-0.1c0.4,0,1.1-0.1,1,0.6c0,0.6-0.6,0.4-1,0.4c-2.7,0-5.4,0-8.1,0c-0.7,0-1.5,0-2.3-0.4
		C473.5,455,474.7,455.3,475.8,455.2z M472.6,436.7c3.9-0.4,7.6-0.7,11.2,0C482.9,437.4,474.5,437.4,472.6,436.7z M467.5,435.4
		c-0.7-2.4-0.4-2.8,2.1-2.8c4.4,0,8.7,0,13.1,0c0.6,0,1.5-0.2,1.5,0.8c0,0.9-0.9,1-1.6,1c-4.3,0-8.5,0-12.8,0
		C468.9,434.4,468,434.4,467.5,435.4z M483.2,459.9c-4.4,0.2-8.7,0.3-13.1-0.2c-0.1,0-0.1-0.1-0.6-0.4c1.8-0.2,3.1-0.4,4.5-0.4
		c2.9-0.1,5.8-0.3,8.7,0.2c0.8,0.1,1.5-0.4,2.3-0.6C484.8,459.6,484,459.9,483.2,459.9z"/>
	<path class="st21" d="M210,443.5c-2.4,0-4.9,0-7.3,0c-1.3,0-3,0.6-3.8-0.3c-0.8-0.9-0.1-2.6-0.3-4c-0.1-0.8,0.2-1.2,1.1-1.2
		c3.4,0,6.9,0,10.3,0c2,0,3.3-1.3,3.3-3.1c0-1.7-1.4-3.1-3.3-3.1c-4.7,0-9.3,0-14,0c-2.5,0-3.5,1.1-3.5,3.7c0,3.6,0,7.2,0,10.9
		c0,0,0,0,0,0c0,3.9,0,7.8,0,11.7c0,1.9,1.3,3,3,3c1.8,0,3-1.2,3-3.1c0-2.3,0.1-4.6,0-6.9c0-1.1,0.3-1.5,1.4-1.5
		c3.3,0.1,6.6,0,9.9,0c2,0,3.4-1.3,3.4-3.2C213.3,444.7,212,443.5,210,443.5z M198.2,435.1c3.1-0.2,6.2-0.3,9.2,0
		C204.4,435.6,201.3,435.4,198.2,435.1z M200.3,436.9c3.4-0.5,6.9-0.5,10.3,0C207.2,437.3,203.7,437.2,200.3,436.9z M193.7,458.2
		c0.5,0.6,0.9,1,1.4,1.6C193.8,459.8,193.6,459.5,193.7,458.2z M196.9,434.4c-0.7,0-1.4-0.1-2.1,0.3c-0.5,0.2-1,0.1-1.2-0.4
		c-0.2-0.4,0-0.8,0.3-1.1c0.5-0.5,1-0.6,1.7-0.6c2.4,0,4.7,0,7.1,0c0,0,0,0,0,0c2.3,0,4.6,0,6.9,0c0.6,0,1.4-0.1,1.5,0.7
		c0.1,0.9-0.7,1.1-1.5,1.1C205.4,434.4,201.1,434.4,196.9,434.4z M198.5,444.9c-0.2,0-0.4-0.1-0.4-0.4c1.2-0.4,2.4-0.6,3.6-0.6
		c2.6,0,5.3,0,7.9,0c0.5,0,1,0.1,1.1,0.6c0.1,0.5-0.4,0.7-0.8,0.7C206.1,445.3,202.3,445.4,198.5,444.9z M199.9,448.4
		c3.7-0.6,7.5-0.3,11.3-0.2C207.5,449.1,203.7,448.8,199.9,448.4z"/>
	<path class="st21" d="M459,443.5c-3.3,0-6.7,0-10,0c-0.8,0-1.2-0.1-1.1-1.1c0.1-1,0.1-2,0-3c-0.1-1.1,0.3-1.4,1.4-1.4
		c3.4,0.1,6.8,0.1,10.2,0c2-0.1,3.2-1.4,3-3.3c-0.1-1.8-1.3-2.8-3.4-2.8c-4.7,0-9.4,0-14.1,0c-2.1,0-3.4,1.4-3.4,3.5
		c0,3.7,0,7.4,0,11.1c0,0,0,0,0,0c0,3.8,0,7.5,0,11.3c0,2,1.3,3.3,3,3.4c1.9,0,3.1-1.3,3.1-3.4c0-2.3,0.1-4.5,0-6.8
		c0-1.1,0.4-1.4,1.4-1.4c3.2,0,6.5,0,9.7,0c2.1,0,3.5-1.2,3.5-3C462.4,444.6,461.2,443.5,459,443.5z M447.7,435.1
		c3-0.3,5.9-0.3,8.9,0C453.7,435.5,450.7,435.5,447.7,435.1z M459.3,437.1c-3.5,0.2-7,0.2-10.7-0.1c0.4-0.5,0.8-0.4,1.2-0.4
		c2.8-0.1,5.6-0.2,8.4-0.1c0.9,0.1,1.7,0.2,2.5-0.4C460.3,436.7,460,437.1,459.3,437.1z M444.2,459.8c0,0.1-0.2,0.2-0.3,0.2
		c-0.6,0-0.9-0.4-1.1-0.9c-0.1-0.2-0.2-0.4,0-0.6c0.4-0.2,0.5,0.1,0.7,0.3C443.7,459.1,444.3,459.2,444.2,459.8z M445.7,434.4
		c-0.6,0-1.1-0.1-1.6,0.3c-0.5,0.3-0.9,0-1.2-0.4c-0.3-0.4,0-0.8,0.3-1.1c0.5-0.6,1.1-0.6,1.8-0.6c2.3,0,4.6,0,6.9,0
		c2.3,0,4.6,0,6.9,0c0.6,0,1.5-0.1,1.5,0.8c0,0.9-0.8,1-1.6,1C454.3,434.4,450,434.4,445.7,434.4z M447.8,444.9
		c-0.2,0-0.4-0.2-0.8-0.3c1.1-0.5,2.2-0.7,3.3-0.7c2.8-0.1,5.6-0.1,8.5-0.1c0.6,0,1.1,0.1,1.1,0.8c0,0.5-0.5,0.6-1,0.6
		C455.2,445.3,451.5,445.4,447.8,444.9z M448.7,448.3c4.2-0.5,8-0.1,11.8-0.3C459.5,448.9,451.8,449.2,448.7,448.3z"/>
	<path class="st17" d="M436.7,443.9c-0.2-0.1-0.4-0.2-0.6-0.3c-0.5,0.1-1.1-0.1-1.6,0.2c0.5,0.1,1.1-0.1,1.1,0.7
		c0,0.5-0.5,0.7-0.9,0.7c-3.7,0.1-7.5,0.1-11.2-0.3c-0.2,0-0.3-0.1-0.8-0.3c1.7-0.6,3.2-0.7,4.7-0.7c-1-0.3-1.9-0.2-2.9-0.2
		c-0.9,0-1.3-0.5-1.2-1.3c0.2-1.1,0-2.2,0-3.3c-0.1-1,0.3-1.3,1.3-1.3c3,0,6.1-0.1,9.1,0c1.6,0,3-0.3,4.2-1.5
		c0.8-2.5-0.5-4.5-2.9-4.5c-4.6,0-9.3,0-13.9,0c-2.5,0-3.5,1-3.5,3.5c0,7.5,0,15,0,22.5c0,1.9,1.3,3.2,3,3.2c1.8,0,3-1.2,3.1-3.1
		c0.1-2.3,0.1-4.5,0-6.8c0-1.3,0.3-1.7,1.6-1.7c3.2,0.1,6.4,0,9.6,0c1.4,0,2.4-0.5,3.1-1.8C437.9,446.4,437.7,445,436.7,443.9z
		 M423.2,435.1c3-0.3,6.1-0.3,9.1,0C429.3,435.5,426.2,435.5,423.2,435.1z M424.8,436.9c3.6-0.5,7.2-0.4,10.8-0.1
		C432,437.4,428.4,437.3,424.8,436.9z M419.5,460.1c-0.7-0.1-1.1-0.6-1.2-1.2c-0.1-0.2,0.1-0.5,0.5-0.5c0.4,0.4,0.8,0.9,1.2,1.4
		C420.1,459.9,419.7,460.1,419.5,460.1z M421.3,434.4c-0.4,0-0.9,0-1.2,0.1c-0.7,0.2-1.4,0.5-1.6-0.4c-0.2-0.9,0.5-1.4,1.3-1.5
		c0.8-0.1,1.6,0,2.4,0c1.7,0,3.5,0,5.2,0c0,0,0,0,0,0c2.3,0,4.5,0,6.8,0c0.7,0,1.8-0.3,1.7,0.8c0,1-1,1-1.9,1
		C429.8,434.4,425.5,434.4,421.3,434.4z M424.2,448.3c4-0.5,8-0.1,11.9-0.3C435.6,449,427,449.3,424.2,448.3z"/>
	<path class="st23" d="M378.2,150.8c0.9,1.6,1.4,3.4,2,5.2c0.3,0.8,0.7,1,1.5,1c1.6,0.1,3.3-0.3,4.9,0.1c0.6,0.2,1,0.4,0.5,1
		c-0.2,0.3-0.3,0.4-0.7,0.2c-1.6-0.8-3.3,0.4-5.1-0.6c0.6,2.2,2,3.4,3,4.8c0.7,1,1.4,2.1,2.3,3c0.5,0.5,1,1,1.8,0.7
		c2.4-0.8,4.6-0.7,6.5,1.4c-0.9,0.4-1.8,0.3-2.6-0.2c-0.5-0.3-0.9-0.5-1.4-0.5c-0.7,0.1-1.6,0-1.9,0.6c-0.2,0.5,0.7,0.9,1.1,1.2
		c0.8,0.7,1.5,1.6,2.6,1.8c0.1,0.1,0.2,0.2,0.4,0.2c2.2,1,2.4,1.9,1,3.8c-0.1,0.2-0.3,0.4-0.4,0.5c-0.5,0.3-0.9-0.1-1.3-0.3
		c-2.8-1.8-5.5-3.8-7.8-6.2c-1.2-1.2-2.5-2.2-3.2-3.9c-0.7,0.4-0.6,1.1-0.9,1.6c-0.3,0.5-0.1,1.3-0.9,1.4c0.5-1.3-1-2.2-0.9-3.4
		c1.3-2.3,0.3-4.1-1-6c-0.7-1-1.2-2.1-1.4-3.3c0.6,0,0.2,1.3,1,0.8c1-0.5,1.7-1.3,1.6-2.6c-0.4,0.1-0.2,0.7-0.6,0.7
		c-0.4,0-0.4-0.4-0.5-0.7c-0.3-0.8-0.2-1.7-0.8-2.3C377.4,150.4,378.2,152.5,378.2,150.8z"/>
	<path class="st33" d="M377.4,137.4c-0.1,2.5,0.3,4.9-0.2,7.4c0-0.5-0.1-0.9-0.1-1.4c-0.2-1.8-0.2-3.6,0-5.4c0-0.2,0-0.4,0-0.5
		C377.2,137.5,377.3,137.5,377.4,137.4z"/>
	<path class="st23" d="M377.1,138c0,1.8,0,3.6,0,5.4C376.7,141.6,376.6,139.8,377.1,138z"/>
	<path class="st23" d="M377.4,147c0.1,0,0.2,0,0.2,0c0,0.9,0.5,1.6,0.3,2.5C377.5,148.8,377.3,148,377.4,147z"/>
	<path class="st39" d="M383.3,115.2c-5.5,0-11.1,0-16.9,0c0.8-0.8,0.8-1.5,0.6-2.3c-0.4-1.5,0.7-2.8,2.3-2.8c5.8,0,11.6,0,17.3,0
		c0.5,0,1.1-0.2,1.2,0.6C386.4,112.3,384.6,113.5,383.3,115.2z"/>
	<path class="st18" d="M377.9,132.7c-0.8,0.5-0.4,1.5-0.8,2.2c-1.2-1.4-0.9-3,0.8-3.8C377.9,131.6,377.9,132.1,377.9,132.7
		C377.9,132.7,377.9,132.7,377.9,132.7z"/>
	<path class="st40" d="M249.2,432.8c-0.4-0.3-0.8-0.6-1.1,0c0.1,0.1,0.2,0.2,0.3,0.2c0.5,0.9,0.2,1.3-0.8,1.7
		c-4.8,1.5-9.7,0.7-14.6,0.8c-0.3,0-0.5-0.1-0.8-0.1c-0.1,0-0.1-0.1-0.1-0.2c0.4-0.4,1,0,1.6-0.5c-1.2,0-2.3,0-3.3,0
		c-0.6,0-0.8-0.4-0.9-0.9c-0.1-0.5,0-0.9,0.6-1l0,0c-1-0.9-1.3,0.6-2,0.5c-1.3,2.5,0,4.7,2.8,4.7c1.3,0,2.6,0.1,3.9,0
		c1.1-0.1,1.5,0.2,1.4,1.4c-0.1,4.1,0,8.3,0,12.4c0,2-0.1,4,0.1,6.1c0.2,2.3,2.6,3.5,4.5,2.3c1.2-0.8,1.5-1.9,1.5-3.3
		c0-5.9,0-11.9,0-17.8c0-0.8,0.2-1.2,1.1-1.1c1.5,0.1,2.9,0,4.4,0c0.9,0,1.8-0.2,2.3-1C250.3,435.4,250.8,433.9,249.2,432.8z
		 M228.7,436c2.3,1,4.8,0.2,7.1,0.8C234.1,437.8,229.3,437.3,228.7,436z M238.1,459.6c-0.7-0.1-1.1-0.6-1.2-1.2
		c0-0.3,0.2-0.6,0.3-0.5c0.6,0.3,0.8,1,1.3,1.2C238.5,459.5,238.4,459.6,238.1,459.6z M241.3,457.2c0,0.4,0,0.8-0.5,0.8
		c-0.4,0-0.5-0.3-0.5-0.7c0-4.3-0.2-8.5,0.3-12.8c0-0.3,0.2-0.6,0.3-0.9C241.5,448.2,241.4,452.7,241.3,457.2z M242.1,437
		c1.1-0.6,2.9-0.7,5.4-0.1C245.8,437.2,244,437.3,242.1,437z"/>
	<path class="st18" d="M379.6,167.9c0.5-0.8,0.6-1.7,0.9-2.6c0.1-0.4,0.4-1,0.9-1c0.6,0,0.5,0.6,0.6,1c0.7,1.6,2.2,2.5,3.3,3.7
		c2.2,2.4,5,4.1,7.7,6c0.2,0.1,0.4,0.2,0.6,0.2c1.5,0.2,2.8,1,3.9,2c0.6,0.3,1.3,0.5,1.9,0.8c0.3,0.1,0.8,0.1,0.8,0.6
		c0,0.4-0.4,0.5-0.7,0.6c-3.1,2.2-6.2,4.4-9.2,6.6c-1.2,0.9-2.7,1.4-3.6,2.6c-4.1,2.9-8.2,5.8-12.2,8.7c-1.5,1.1-3.2,2.1-4.6,3.4
		c-0.2,0.2-0.5,0.4-0.7,0.1c-0.2-0.2,0-0.4,0-0.7c1.6-4.8,3.1-9.6,4.7-14.4c0.3-0.8,0.5-1.7,0.7-2.6c1.2-3.7,2.4-7.4,3.6-11.1
		C378.9,170.7,379.2,169.3,379.6,167.9z"/>
	<path class="st38" d="M397.7,177.3c-1.3-0.7-2.6-1.3-3.9-2c0-0.1,0-0.3,0-0.4c1.2-2.2,1.2-2.2-0.7-3.9c-0.1-0.1-0.1-0.2-0.1-0.2
		c1.1-0.5,2.3-0.3,3.5-0.7c1.1-0.4,2,0.7,3,1.2c0.4,0.2-0.1,0.6-0.5,0.7c-0.6,0.1-1.2-0.1-1.8,0.2c-0.2,0.1-0.6,0.1-0.7,0.4
		c-0.1,0.4,0.2,0.4,0.4,0.6C398.4,174.3,398.6,175.6,397.7,177.3z"/>
	<path class="st34" d="M402.8,174.7c1-0.1,1.9-0.2,2.9-0.3c0.5,0,1,0.2,0.6,0.7c-0.8,1.1,0.2,1.2,0.7,1.6c-0.7,0.1-0.5,0.7-0.5,1.1
		c-0.3,1.6-0.6,1.9-2.1,1.4c-1.1-0.4-1.6,0.4-2.4,0.6c0.5-0.7,0.8-1.3-0.5-1.4c-0.3,0-0.7-0.3-0.3-0.6
		C402,176.9,401.9,175.5,402.8,174.7z"/>
	<path class="st41" d="M395.4,150.7c0.1,1.6,0.9,3.1,0.5,4.8c-0.3,0.1-0.7,0.4-0.9,0.1c-0.4-1.4-2.2-1.7-2.5-3.1
		c-0.4-0.4-0.7-0.9-0.5-1.5c0-0.1,0.1-0.3,0.1-0.4c-0.1-1.6-0.1-1.6,1.5-2.4c0.8,0.4,0.8,1.5,1.6,2
		C395.4,150.4,395.6,150.5,395.4,150.7z"/>
	<path class="st38" d="M392.2,155.1c1.8-1.1,1.9-1,2.2,1.6c-1.3-0.3-2.5-0.5-3.4-1.6c-0.6-0.7-0.1-2.2,0.7-2.4
		c0.3-0.1,0.5,0.1,0.6,0.4C392.4,153.7,392.7,154.2,392.2,155.1z"/>
	<path class="st42" d="M389.3,161.4c-0.9,0.1-1.5-0.1-1.6-0.8c-0.1-0.8,0.6-0.7,1.1-0.9c1.4-0.4,2.7,0.2,4,0.1
		c0.4,0,0.9,0.1,0.9,0.7c-0.1,0.5-0.6,0.6-1,0.6C391.5,161.2,390.2,161,389.3,161.4z"/>
	<path class="st43" d="M429.3,173c-1,0.6-2,1.4-3.1,1.9c-1.1,0.5-0.5,1-0.3,1.5c0.2,0.4,1.1,0.6,0.7,1c-0.6,0.5-0.9,1.6-2,1.4
		c-0.5-0.1-0.7,0.1-0.9,0.4c-0.7-0.2-1.3-0.3-2.1,0.1c-1,0.6-3.5-0.4-4.1-1.4c-0.3-0.5,0.1-0.7,0.4-0.9c0.9-0.7,2.1-0.7,3.1-1.1
		c0-0.1,0-0.3,0-0.4c-1.4,0-2.8,0-4.2,0c-0.1,0-0.3,0.2-0.3,0.2c0.4,1.8-0.8,0.9-1.5,0.9c-1.9,0-3.8,0-5.8,0
		c0.5-0.8,0.1-1.8,0.8-2.6c0.4-0.4-0.2-0.6-0.6-0.7c-0.6-0.1-1.1,0-1.7-0.1c-0.4,0-0.9,0.1-0.9-0.4c-0.1-0.5,0.4-0.6,0.8-0.8
		c1.1-0.4,2.2-0.1,3.3,0.1c0.8,0.2,1.6,0.5,2.3-0.3c0.4-0.5,1.3-0.6,1.8-0.3c0.7,0.4,0.6,1.3,0.6,1.9c0,0.8-0.7,0.4-1.1,0.3
		c-0.7-0.2-1.3-0.7-2.1-0.3c-0.2,0.1-0.5,0.1-0.5,0.4c0,0.3,0.3,0.5,0.6,0.5c1.5-0.4,2.8,1.2,4.3,0.4c0.4-0.2,1,0.1,1.5,0.3
		c1.5,0.7,3.1,0.2,4-1.2c0.4-0.7,1-0.6,1.6-0.4c0.8,0.2,1.6,0.4,2.4-0.2c0.1,0,0.1-0.3,0-0.4c-0.8-0.5-1.6-0.6-2.4-0.3
		c-0.5,0.1-0.9,0-1.4,0c-0.7-0.1-1.4-0.4-2.1,0.1c-0.7,0.5-1.3-0.3-1.8-0.7c-0.1,0-0.1-0.3-0.1-0.4c0.2-0.3,0.5-0.1,0.8-0.1
		c3.2-0.5,6.2,0.5,9.2,1.1C428.5,173,428.9,173,429.3,173z"/>
	<path class="st43" d="M423.7,179.2c1,1.2,2.3,0.2,3.4,0.3c3.2,1.9,6,4.3,9,6.4c1,0.7,1.9,1.4,2.8,2.1c-0.4,0-0.8,0-0.8,0.6
		c0,0.4-0.1,0.7-0.6,0.8c-4.6-3.3-9.2-6.6-13.9-9.9C423.6,179.4,423.7,179.3,423.7,179.2z"/>
	<path class="st4" d="M455,201.5c0.8,0.1,1.2,0.8,1.7,1.4C455.8,202.8,455.5,202.1,455,201.5z"/>
	<path class="st44" d="M401.1,152.4c-1.3,0-1.5,1.3-2.2,2c-0.5,0.5-0.9,1.1-1.4,1.7c-0.7-0.1-0.4-0.6-0.4-0.9
		c0.7-4,0.2-7.9-0.4-11.9c-0.1-0.4-0.2-0.8,0.3-1.1c2-0.1,4,0,5.9,0.6c4,1.1,8,2.3,12.1,3.2c3.4,0.8,6.8,1.6,10.3,2.2
		c3.8,0.6,7.5,0.6,11.2,0.5c1-0.3,2.1,0.1,3-0.4c0.3-0.2,0.7,0,0.8,0.4c0.2,0.4,0.1,0.8-0.2,1.2c-0.4,0.4-0.9,0.3-1.4,0.4
		c-4.4,0.9-8.8,0-13.1,0.4c-0.6,0.1-1.1-0.2-1.5-0.6c-0.7-0.7-1.4-0.6-2.2-0.3c-1.4,0.4-2.7,1.2-4.2,1.5c-0.9-0.4-1.9-0.5-2.8-0.8
		c-1.8-0.6-3,0.5-4.1,1.4c-0.6,0.5-1.1,0.9-1.8,0.6l0,0c-1.3-1-2.9-0.7-4.3-0.5C403.3,152,402.2,152.1,401.1,152.4z"/>
	<path class="st45" d="M428.2,162.3c0.4-0.2,0.6-0.5,0.6-0.9c0-0.6,0.2-0.8,0.8-0.8c0.8,0,0.9-0.6,1.1-1.3c-1.2,0.1-2.6,0.7-2.8-1.2
		c0.2-0.9,0.9-0.6,1.4-0.7c0.3-0.1,0.7,0.1,1.1-0.2c-1-0.3-2.1-0.3-2.9-0.8c-0.3-0.7-0.2-1.4,0.4-1.9c0.6-0.5,1.2-0.1,1.8,0.2
		c0.7,0.3,1.3,1.1,2.5,0.9c-1.1-0.8-1.7-1.6-1.3-2.8c0.1-0.4-0.2-0.9,0.3-1.2c0.5-0.3,1.1-0.2,1.6,0c0.4,0.2,0.7,0.5,1,0.8
		c0.3,0.3,0.7,0.7,1.3,0.5c-0.1-0.6-1-0.9-0.5-1.6c0.3-0.5,1-0.5,1.5-0.7c0.8-0.3,1.7-0.6,2.6-0.4c0.7,0.1,1.3,0.2,1.5-0.8
		c0.2-0.9-0.5-1-1.1-1.2c0.7-0.2,1.5-0.5,2.2-0.7c0.3-0.1,0.6-0.1,0.7,0.2c0.1,0.3-0.2,0.5-0.5,0.5c-0.8,0.1-0.9,0.6-0.8,1.2
		c-0.1,1.4-1.6,3-2.9,3.4c-0.6,0.2-1.6,0.3-1.6,1c0,0.5,1,0.2,1.6,0.3c0.4,0.1,0.8,0.1,1.2,0.2c0.5,0.1,1.3,0,1.4,0.7
		c0.1,0.7-0.6,0.6-1.1,0.9c-0.2,0.1-0.3,0.2-0.2,0.4c0.1,0.2,0.3,0.3,0.6,0.4c0.4,0.1,1.2,0,0.9,0.6c-0.4,0.7,0.9,2-0.8,2.2
		c-0.9,0.1-0.8,0.6-0.3,1.2c0.3,0.3,0.8,0.6,0.6,1.2c-0.3,0.6-0.8,0.1-1.3,0.2c-0.6,0.1-1.2-0.1-1.7,0.1c-1.7,0.7-2.7-0.5-3.8-1.3
		c-0.4-0.2-0.1-0.7,0-1c0.1-0.5-0.1-0.8-0.5-1.1c-0.3-0.2-0.7-0.2-1.1,0c-0.4,0.3-0.5,0.9-0.3,1.1c0.6,0.7-0.2,2.2,1.4,2.2
		c0.3,0-0.2,0.9,0.2,1.2c-0.3,0.4-0.8,0.4-1.2,0.3c-1.2-0.2-2.3-0.2-3.5-0.1c-0.4,0-0.9,0.1-1.1-0.4
		C427.4,162.7,427.7,162.4,428.2,162.3z"/>
	<path class="st38" d="M402.8,142.8c-2-0.2-3.9-0.8-5.9-0.5c-0.7,0.6-1.9,0.1-2.5,0.9c-0.1,0.1-0.3,0.3-0.5,0.4
		c-0.5,0.2-0.8,0.9-1.6,0.7c-0.1-0.2-0.1-0.4,0.1-0.6c0.9-1,0.4-1.9-0.1-2.8c-0.2-0.3-0.7-0.4-0.5-0.9c0.1-0.2,0.4-0.3,0.6-0.2
		c0.4,0.1,0.8,0.4,0.8,0.9c-0.1,0.8,0.5,0.9,0.9,1.3c0.4-2.5-0.2-4.9,0.3-7.3c0.1-0.5,0-1-0.2-1.5c-0.2-0.6-0.5-0.6-0.8-0.1
		c-0.4,0.7-0.9,0.8-1.5,0.3c-0.6-0.5-0.8-1.1-0.3-1.9c0.4-0.6,1-0.9,1.5-1.4c0.4-0.4,1.2-0.8-0.1-1.1c-0.9-0.2-0.9-1.7-0.1-2.4
		c1.4-1.2,1.5-1.6,0.4-3c-0.6-0.8-0.8-1.9-1.8-2.4c-0.2-0.1-0.3-0.4-0.1-0.6c0.2-0.3,0.4-0.1,0.6,0.1c0.7,0.8,1.6,1.3,2.1,2.3
		c0.5,0.8,1.1,1.1,2,0.4c0.3-0.3,0.7-0.7,1.1-0.3c0.8,0.8,1.9,1.3,3.2,1.6c-0.9,0.9-1.8,0.4-2.5,0.5c-0.5,0.1-1.2-0.1-1.3,0.5
		c-0.1,0.9-0.7,1.9-0.1,2.9c0.2,0.3,0.5,0.3,0.7,0.3c0.5-0.1,0.6-0.4,0.6-0.8c0-1,0.5-0.9,1.2-0.6c2,1.1,4.3,1.5,6.4,2.3
		c0.8,0.3,2.3,0.7,2.1,1.3c-0.3,0.9-1.6,0.4-2.5,0.1c-1.7-0.6-3.4-1.2-5.2-1.8c-0.8-0.3-2.8,0.3-3.2,0.9c-0.3,0.5-0.1,0.7,0.4,0.9
		c0.8,0.2,0.7,1.1,0.2,1.3c-1.3,0.5-1,1.7-1.1,2.5c-0.2,2,0,4-0.1,6c0,0.9,0.2,1.2,1.2,1.2c1.7-0.1,3.5,0,5.2,0.5
		C402.5,142.5,402.6,142.7,402.8,142.8z"/>
	<path class="st46" d="M439.2,148.2c1.1-0.2,1.5,0.4,1.4,1.4c-0.1,1.1-1.1,1-1.6,0.8c-1.5-0.5-2.6,0.6-3.9,0.8
		c-0.5,0.1-0.4,0.5-0.1,0.9c0.3,0.3,1.2,0.5,0.7,1c-0.5,0.4-1.4,0.6-1.9-0.3c-0.4-0.5-0.9-1-1.5-1.2c-0.4-0.1-0.8-0.1-1,0.2
		c-0.3,0.5,0.1,0.5,0.4,0.7c0.3,0.3,0.1,0.5-0.1,0.7c-0.8,0.7-0.3,1.2,0.4,1.4c0.7,0.2,0.8,0.7,0.7,1.1c-0.2,0.6-0.9,0.3-1.3,0.1
		c-0.5-0.2-0.8-0.6-1.3-0.8c-1.7-1-2.1-0.8-2.3,1.2c-1.1,0.4-3.4-1-3.3-2c0.1-0.8,0.7-0.7,1.2-0.5c0.5,0.2,0.7,0.3,0.8-0.4
		c0.1-0.8-0.5-0.5-0.8-0.6c-0.9-0.1-1.8-0.1-2.4,1c-0.4,0.8-1.8,0.7-2.5,0.1c-0.5-0.5-0.3-1,0.1-1.5c0.4-0.6,1.2-0.8,1.8-1.2
		c-0.9-0.1-1.6,0.1-2.1,0.8c-0.5,0.8-1.2,1-2.1,0.6c-0.5-0.9,0.5-1,0.8-1.5c-0.7,0.3-1.3,0.7-2.1,0.2c-0.1-0.1-0.1-0.2,0-0.4
		c1.5-0.5,3-1,4.4-1.6c1-0.4,1.9-0.6,2.5,0.6c0.2,0.4,0.6,0.5,1.1,0.4c2.3-0.4,4.6-0.2,6.9,0c2.4,0.3,4.8-0.6,7.3-0.5
		c0.5,0,0.7-0.5,0.6-0.9c-0.1-0.6-0.6-0.5-1-0.3c-0.9,0.3-1.7,0.3-2.6,0.2C437.2,148.2,438.3,148.6,439.2,148.2z"/>
	<path class="st15" d="M412.4,113.9c0.1-2.1,0-4.5-0.5-6.9c-0.2-0.8-0.2-2,0.8-2.1c1.1-0.1,1.2,1.1,1.4,1.9c0.5,1.6,0.4,3.3,0.1,5
		c0,0.3-0.2,0.6-0.1,0.8c0.9,1.8-0.1,3.3-0.5,4.9c-0.3,1.4-0.3,2.8-0.3,4.2c0,1.2-0.2,1.4-1.3,0.9c-0.3-0.1-0.5-0.2-0.8-0.3
		c-0.2-0.1-0.5-0.2-0.6,0c-0.2,0.3,0.1,0.5,0.3,0.7c0.4,0.5,1.2,0.8,0.8,1.6c-0.4,0.8-1.2,0.7-1.9,0.6c-0.8-0.1-1.6,0.7-2.3,0.1
		c-0.6-0.6,0-1.6-0.3-2.3c-0.5-1.3,0-2,1-2.7c0.5-0.3,1.3-0.8,0.6-1.7c-0.2-0.3-0.1-0.6,0.2-0.8c0.3-0.2,0.7-0.4,1-0.1
		c0.4,0.3,0.8,0.6,0.8,1.1c0.1,0.6,0.4,0.9,0.9,0.8c0.6-0.1,0.5-0.7,0.5-1.2C412.4,117.2,412.4,115.7,412.4,113.9z"/>
	<path class="st46" d="M433.3,131c0.6-0.4,1.3-0.8,1.9-1.2c0.4-0.2,0.6-0.1,0.9,0.1c0.2,0.3,0.8,0.6,0.5,0.9c-1.3,1.3-0.7,3-0.7,4.4
		c0,1.4-0.5,1.9-1.8,1.7c-0.8-0.1-0.9-0.7-0.9-1.4C433.3,134,433.3,132.5,433.3,131z"/>
	<path class="st47" d="M422.8,142.1c0,0.3,0,0.7,0,1c0,0.6-0.5,0.8-0.9,1c-0.4,0.2-0.7-0.2-0.9-0.5c-0.7-1-2-1.6-1.6-3.2
		c0.2-0.7,0.4-1,1.1-1C421.9,139.4,422.8,140.5,422.8,142.1z"/>
	<path class="st15" d="M413.2,130.7c-0.1,0.7-0.5,0.9-1.1,0.8c-0.7-0.2-1.3-0.4-2-0.7c-0.4-0.2-0.8-0.5-0.8-0.9c0-0.6,0.5-0.5,1-0.6
		c0.6-0.1,1.2-1,1.8-0.1C412.6,129.6,413.2,130,413.2,130.7z"/>
	<path class="st33" d="M391.9,147.1c-0.2,0.6-0.7,1.1-1.4,1.1c-0.5,0-1.3-0.2-1.2-1c0.1-1,0.8-1.2,1.6-1.3
		C391.5,145.9,391.9,146.2,391.9,147.1z"/>
	<path class="st29" d="M397.7,109.5c0.4,0,0.6,0,0.8,0c0.4,0,0.8-0.1,1,0.3c0.1,0.4-0.3,0.6-0.6,0.9c-0.2,0.2-0.4,0.3-0.6,0.3
		c-0.5,0.1-0.8,1-1.4,0.4c-0.4-0.4-0.5-1.1-0.4-1.6C396.6,109.3,397.4,109.6,397.7,109.5z"/>
	<path class="st48" d="M430.3,144.6c-0.5-0.2-1.2-0.1-1.1-0.9c0.1-0.5,0-1.1,0.8-1c0.6,0.1,1.3,0.1,1.3,1
		C431.2,144.3,430.9,144.6,430.3,144.6z"/>
	<path class="st45" d="M407.5,128.2c-0.3,0.6-0.8,0.6-1.1,0.4c-0.6-0.2-1.4-0.3-1.4-1.2c0-0.6,0.5-0.8,1-0.7
		C406.7,127,407,127.8,407.5,128.2z"/>
	<path class="st49" d="M392.4,144.3c0.5-0.3,0.7-0.9,1.3-0.9c-0.2,0.9-0.3,1.8,0.4,2.7c0.3,0.4,0.3,1,0,1.5
		c-0.1,0.1-0.2,0.1-0.4,0.1c0-0.2,0-0.3-0.1-0.5c-0.3-0.7-1.1-1-1.3-1.8C392.3,144.9,392,144.6,392.4,144.3z"/>
	<path class="st33" d="M392.4,144.3c-0.2,1.2,1.2,1.7,1.3,2.8c-1.7-1.2-1.9-1.9-1.4-3.4C392.4,143.9,392.4,144.1,392.4,144.3z"/>
	<path class="st33" d="M393.8,147.6c0.1,0,0.2,0,0.3,0c0,0,0.1,0.1,0.1,0.1c0.4,0.6,0.6,1.2,1,1.8c0.1,0.1,0.1,0.2,0.2,0.4
		c0,0.2,0,0.4-0.2,0.5c-1-0.4-1-1.5-1.4-2.2C393.7,148,393.8,147.8,393.8,147.6z"/>
	<path class="st50" d="M428.2,162.3c-0.1,0.3-0.7,0.6-0.4,1c0.2,0.3,0.6,0,0.9,0c1.5-0.3,3.1,0.2,4.6,0.2c0.6,0.1,1.5,0,1.5,0.6
		c0,0.7-1,0.7-1.6,0.7c-0.4,0-0.8-0.2-1.2-0.2c-0.4,0-0.9-0.2-1,0.2c-0.2,0.5,0.3,0.9,0.7,1.1c0.3,0.2,0.7,0.1,1.1,0.1
		c0.2,0.1,0.4,0.3,0.7,0.5c-1.5,0.2-2.9-0.1-4.3,0.3c-0.3,0.1-0.8,0-0.8,0.5c-0.2,1.9-1.5,1.4-3,1.4c0.6-0.6,1.6-0.6,1.2-1.5
		c-0.4-0.7-1.1-0.3-1.6-0.4c0-0.4,0-0.5-0.5-0.5c-1.2,0.1-2.4-0.3-3.5-0.9c-0.8-0.3-1.5-0.3-2.3-0.1c-0.1,0.1-0.2,0.2-0.2,0.3
		c0.2,0.8,0,1.4-1,1.3c-0.7,0-1.4,0.1-1.8,0.8c-0.1,0.1-0.2,0.3-0.3,0.3c-1.9,0.1-2.6,1.9-3.9,2.8c0,0-0.1,0-0.1,0
		c0-0.5,0.2-1-0.6-1.1c-0.1-0.5-0.2-1-0.8-1.1c-0.3-0.1-0.7-0.1-0.6-0.6c1.5-0.1,3-0.2,4.5-0.3c0.9,0,0.7-0.5,0.3-0.8
		c-0.7-0.6-0.7-1.3-0.1-1.6c0.6-0.3,1.6-0.8,2.2,0.3c0.1,0.3,0.1,0.7,0.6,0.6c0.1,0,0.2-0.3,0.3-0.4c0.8-2.1,2.6-3.4,4.8-3.3
		c0.7,0,1.2,0.1,1.7-0.6c0.3-0.5,1.1-0.1,1.7-0.2c0.5-0.3,0.9-0.4,1.4,0C427.3,161.9,428,161.4,428.2,162.3z"/>
	<path class="st51" d="M408.7,152.4c0.6-0.1,1.2-0.1,1.5-0.9c0.5-1.2,3.1-1.9,4.4-1.4c-0.1,0.2-0.3,0.3-0.5,0.3
		c-0.7,0.1-1.5,0.2-2.1,1c2-0.6,3.5,0.1,5,1c-0.4,0.8-1.1,0.6-1.7,0.5c-1.7-0.4-1.7-0.5-3.5,0c1.3,0.3,2.6,0.2,3.8,0.9
		c0.7,0.4,1.3,0.7,1.3,1.6c0,1,0.7,0.7,1.3,0.6c0.1-0.2-0.1-0.2-0.2-0.3c-0.6-0.2-1.4-0.4-1.1-1.3c0.3-0.8,1.1-1,1.8-0.7
		c1.2,0.7,2.5,0.7,3.8,0.8c0.5,0,1.1,0.1,1.2,0.9c-0.7,0.6-1.6,0.2-2.5,0.4c0,0,0,0.1,0.1,0.2c0.1,1.4,1.1,1.4,2.2,1.3
		c0.2,0,0.4,0,0.6,0c0.5,0,1.2,0,1.3,0.6c0.2,0.7-0.5,0.9-1,1.1c-0.7,0.3-1.3,0.9-2.2,0.9c-0.5,0-0.6,0.3-0.6,0.8
		c0.1,0.6-0.3,0.8-0.7,1.1l0,0c-1.3,0.2-2.6,0-3.9,0.6c-0.9,0.4-1.7-0.1-2.1-0.9c-0.4-0.8,0.3-1.1,0.8-1.6c0.4-0.3,0.6-0.8,1-1.2
		c0.4-0.4,0.8-0.7,1.4-0.4c0.1,0.9,0.5,1.3,1.5,1c1.1-0.3,2.4-0.3,3.7-1c-1.9-0.1-3.5,0.3-5.1,0.2c-0.1-0.4-0.1-1.2-0.9-0.5
		c-1.2,1-2.6,0.7-4,0.5c-0.3-0.1-0.6-0.1-0.7-0.4c0-0.3,0.2-0.3,0.4-0.4c0.8-0.4,1.7-0.2,2.6-0.6c-1.8-0.2-3.6-0.2-5.2-1.1
		c-0.1-0.1-0.1-0.2-0.1-0.4c0.4-0.6,0.9-0.3,1.4-0.2c0.7,0.2,1.4,0.3,2.3,0c-0.5-0.9-1.3-1-2.1-1c-0.9-0.1-1.9,0.2-2.8-0.3
		c0-0.1-0.1-0.1-0.1-0.2c0.2-0.1,0.3-0.2,0.5-0.2c0.3-0.1,0.8,0,0.8-0.6c0-0.4-0.3-0.6-0.8-0.6C409.2,152.7,408.9,152.7,408.7,152.4
		z"/>
	<path class="st52" d="M411.2,170.8c0.2-1.2,1.9-1.3,2-2.7c0,0,0.3-0.1,0.5-0.1c0.8,0,1.4,0.1,1.8-1c0.4-0.9,1.6-0.2,2.5-0.5
		c0.1-0.4-0.7-0.9,0-1.3c1.3,0.6,2.7,0.8,4,1.3c0.3,0.1,0.7,0.1,0.9,0.4c-1.2,0.8-2.5,0.9-3.9,0.8c-0.5,0-1.2-0.1-1.1,0.7
		c0.1,0.6,0.4,1.5,1.4,1.2c0.9-0.3,1.8-0.2,2.7-0.2c1,0.1,2,0.2,2.4,1.4c-0.7,0.5-1.5,0.4-2.2,0.2c-1.8-0.4-3.4,0-5.1,0.3
		c-0.6,0.1-1.7,0.4-1.3-1c0.1-0.2,0-0.5-0.2-0.6c-0.5-0.1-1-0.2-1.5,0.2c-0.6,0.5-1.1,1.1-1.7,1.7c-0.3,0.3-0.6,0.4-1,0.1
		C410.9,171.4,410.9,171.1,411.2,170.8z"/>
	<path class="st49" d="M395.2,150.4c0-0.2,0-0.4,0-0.6c0.6-0.1,0.6-0.6,0.5-1.1c-0.2-1.6-0.8-3.1-0.6-4.8c0.1-0.7-0.7-0.6-1-0.9
		c0.7-1.2,1.8-0.7,2.8-0.8c0.7,2.7,0.7,5.6,0.9,8.4c0.1,1.4,0,2.9-0.3,4.3c-0.1,0.4-0.5,0.8-0.1,1.2c-0.5,0.4-1,0.6-1-0.2
		c0-0.9-0.3-1.9,0-2.8c0.4-1.1,0.1-1.9-1-2.4C395.4,150.6,395.3,150.5,395.2,150.4z"/>
	<path class="st51" d="M410.4,155.8c0,0.1,0,0.2,0,0.3c-0.6,0-1.1,0.1-1.6,0.4c-0.6,0.3-1.3,0.3-1.9-0.1c-0.2-0.2-0.5-0.7-0.8-0.3
		c-0.3,0.3-0.4,0.9-0.4,1.3c0,0.5,0.6,0.4,0.9,0.4c1.3-0.1,2.4-0.1,2.7,1.6c0.1,0.3,0.4,0.6,0.1,0.9c-0.3,0.3-0.7,0.6-1.1,0.2
		c-0.6-0.4-1.2-0.4-1.9-0.4c-0.6,0-1.1-0.2-1.2-0.8c-0.5-2.1-2.1-2.4-3.8-2.6c-0.3,0-0.6,0-0.6-0.4c0-0.3,0.3-0.5,0.6-0.5
		c1.1,0.2,1.6-0.5,2-1.3c0.3-0.6,0.8-0.8,1.3-0.6c1.5,0.6,2.9,0.1,4.4,0.2c0,0,0.1,0.1,0.1,0.1c-0.1,0.7-1,0.3-1.3,0.9
		C408.4,156.1,409.7,155.1,410.4,155.8z"/>
	<path class="st50" d="M420.9,162c0.1-0.4,0.7-0.6,0.5-1c-0.9-1.5,0.2-1.2,1-1.3c0,0,0.1,0,0.1,0c1-0.3,2.5-0.7,2.5-1.6
		c0-0.8-1.6-0.2-2.5-0.4c-0.5-0.1-0.9,0-1.6,0c0.7-1,0.3-1.6-0.4-2.3c1,0,2.1,0,3.1,0c0.3-0.2,0.6-0.2,0.8,0c1.1,1.1,2.6,1.2,4,1.5
		c0.4,0.1,1.1,0,1.2,0.7c-0.6,0.1-1.2-0.2-1.7,0.3c-0.3,0.1-0.6,0.3-0.5,0.6c0.3,1.5-0.5,1.2-1.3,0.9c-1.1-0.4-2.1-0.1-2.9,0.8
		C422.6,161.1,421.9,161.8,420.9,162z"/>
	<path class="st22" d="M401.9,158c-0.5,0.8-1.3,1-2.1,1.2c-0.3,0.1-0.7,0-0.6,0.4c0.1,0.4,0.5,0.4,0.8,0.4c0.9,0.1,1.8-0.5,2.8-0.1
		c0.4,0.2,1.1,0.1,0.9,0.7c-0.2,0.6-0.8,0.6-1.3,0.4c-1-0.3-1.9-0.8-2.9,0.2c-0.4,0.4-1.7,0.4-2.4-0.2c-0.6-0.6-0.4-1.7-0.6-2.5
		c0-0.2,0.3-0.5,0.4-0.5C398.6,158.8,400.1,157.2,401.9,158z"/>
	<path class="st50" d="M418,158.6c-1.6,0.1-2,1.7-2.9,2.5c-0.4,0.4,0.7,1,1.3,1.2c0.2,0.1,0.5,0,0.7-0.1c1.2-1,2.5-0.4,3.8-0.3
		c-1.2,0.4-2.4,0.5-3.4,1.3c-0.5,0.4-1.6,0.4-2.3-0.4c-0.3-0.4-0.7-0.6-1.2-0.6c-0.6,0.1-1-0.2-0.9-0.9c0-0.7,0.2-1.1,1-1.1
		c0.2,0,0.5,0,0.7-0.1c0.4-0.1,0.9-0.2,0.8-0.8c-0.1-0.5-0.5-0.5-0.9-0.6c-0.5,0-1,0.1-1.3-0.3c1.4,0.1,2.9,0,4-1
		c0.4-0.3,0.8-0.7,1.2-0.3C418.8,157.9,418.2,158.2,418,158.6L418,158.6z"/>
	<path class="st36" d="M403.6,152.4c0.5,0,1,0,1.5,0c0.3,0,0.9,0,0.8,0.5c-0.1,0.4-0.5,0.7-0.9,0.5c-1.1-0.5-1.6,0.3-2.4,0.9
		c-1.1,0.9-2.5,1.5-3.8,2.2c-0.2,0.1-0.6,0.1-0.8-0.1c-0.1-0.1,0-0.3,0-0.4c1.5-0.8,1.6-2.9,3.2-3.6
		C402.1,151.9,402.9,152.1,403.6,152.4z"/>
	<path class="st53" d="M409.3,168c0.3,0.4,0.8,0.2,1.1,0.3c0.7,0.3,1.1,0.7,0.3,1.4c-1.2,0.4-2.5,0-3.7,0c-0.7,0-1.3-0.6-1.3-1.2
		c0-0.9,0.8-0.7,1.4-0.7C407.8,167.6,408.6,167.7,409.3,168z"/>
	<path class="st54" d="M422.9,166.9c-1.6,0.3-2.8-1-4.3-1c-0.3,0-0.5-0.4-0.5-0.7v0c0.9-0.2,1.9-0.2,2.8,0c1.5,1,3.2,0.9,5,0.9
		c-0.2,0.7-0.8,0.4-1,0.8C424.1,166.8,423.5,166.8,422.9,166.9z"/>
	<path class="st51" d="M403.6,152.4c-0.7,0.3-1.5-0.1-2.2,0c-0.1,0-0.2-0.1-0.3-0.1c1.6-0.9,3.5-0.5,5.3-0.9c1.1-0.2,1.8,0,2.4,0.9
		c-1.3,0-2.5-0.5-3.8-0.3C404.5,152.2,404,152,403.6,152.4z"/>
	<path class="st55" d="M406.3,163.1c0,0-0.3,0-0.6-0.1c-0.3-0.1-0.6-0.3-0.5-0.7c0.1-0.3,0.5-0.2,0.7-0.3c0.3,0,0.6,0,0.8,0
		c0.5,0,1.3-0.6,1.3,0.4C408,163,407.3,163.2,406.3,163.1z"/>
	<path class="st45" d="M426.8,161.7c-0.5,0-0.9,0-1.4,0c-0.4-1.5,0.1-2.1,1.5-1.6C428,160.5,427,161.2,426.8,161.7z"/>
	<path class="st56" d="M398.5,162.3c0.5,0,1.1,0,1.1,0.7c0,0.7-0.6,0.7-1.2,0.7c-0.5,0-1.2,0.1-1.2-0.6
		C397.2,162.5,397.9,162.3,398.5,162.3z"/>
	<path class="st44" d="M392.7,160.5c-1.5,0-3,0-4.4,0c0-0.1,0-0.2,0-0.4c1.5-0.3,3-0.2,4.4,0C392.7,160.3,392.7,160.4,392.7,160.5z"
		/>
	<path class="st46" d="M414,150.2c0.2,0,0.4,0,0.6,0c0.9,0.3,1.9,0.1,2.6,0.8c0,0-0.1,0.1-0.1,0.1
		C415.8,151.4,414.8,151.1,414,150.2z"/>
	<path class="st57" d="M429.6,157.8c-0.3-0.3-0.7-0.3-1-0.3c-1.8-0.3-3.5-0.8-4.9-1.9c-0.5-0.6-1.1-0.5-1.8-0.6
		c-1-0.1-2.1,0.4-3-0.7c-0.3-0.3-1-0.2-1.5,0.1c-0.2,0.1-0.4,0.3-0.3,0.6c0.2,0.6,0.7,0.6,1.3,0.6c0.3,0,0.8-0.1,0.8,0.3
		c0.1,0.5-0.4,0.6-0.7,0.7c-1.2,0.5-1.8,0.1-1.9-1.3c0-0.5-0.4-0.6-0.7-0.8c-1.1-0.5-2.2-1.1-3.5-0.9c-0.4,0.1-0.9,0.1-1.2-0.2
		c-0.2-0.1-0.4-0.3-0.3-0.6c0.1-0.1,0.3-0.3,0.4-0.3c0.8,0,1.5-0.2,2.3-0.6c0.3-0.2,0.7-0.1,1,0.3c0.7,0.8,1.5,0.6,2.3,0.3
		c0.4-0.4,0.9-0.4,1.4-0.1c0.9,0.1,1.6,0.1,2.1-0.9c0.6-1.1,1.8-0.7,2.9-0.8c-0.4,0.9-1.1,1.1-1.7,1.4c-0.5,0.3-1,0.7-0.9,1.3
		c0.1,0.6,0.9,0.7,1.4,0.6c0.5,0,1.2-0.2,1.1-1c-0.1-0.6,0.2-0.6,0.6-0.6c1.1,0,2.1,0,3.1,0c0.3,0.7-0.5,0.7-0.4,1.2
		c0.1,1,0.1,1-0.8,0.5c-0.3-0.2-0.7-0.5-1-0.2c-0.3,0.4,0.1,0.9,0.4,1.1c0.8,0.4,1.4,1.5,2.5,1.2c0.9,0,1.7,0.5,2.6,0.5
		c0.3,0,0.9,0,0.9,0.5c0,0.6-0.6,0.5-1,0.5C430,157.8,429.8,157.8,429.6,157.8z"/>
	<path class="st53" d="M434.8,158.7c-0.8,0-1.5,0-1.5-0.8c0.1-0.9,0.8-1,1.6-1c0.6,0,1.2,0.1,1.1,0.9
		C435.9,158.6,435.3,158.7,434.8,158.7z"/>
	<path class="st58" d="M435.1,156.1c-0.5-0.1-1.3,0.2-1.2-0.7c0.1-0.8,0.7-0.7,1.3-0.7c0.7,0,1.3,0.1,1.3,0.9
		C436.4,156.4,435.5,156,435.1,156.1z"/>
	<path class="st59" d="M394,143.1c1.2-0.5,1.6,0,1.4,1.2c-0.3,1.8,0.7,3.3,0.7,5c0,0.3,0.2,0.7-0.1,0.9c-0.4,0.2-0.5-0.3-0.8-0.3
		c0,0,0,0,0,0c-0.5-0.7-0.7-1.5-1.1-2.3c0,0,0,0,0,0c0-0.6,0.1-1.3-0.4-1.7c-1-0.9-0.7-1.7,0-2.5C393.8,143.3,393.9,143.2,394,143.1
		z"/>
	<path class="st18" d="M395,126.3c0.1,0,0.3,0.1,0.3,0.1c0.3,1,0,2.1,0.9,2.9c0,0-0.5,1-0.9,1.3c-0.7,0.4-1.4,0.9-2.1,1.3
		c-0.2,0.1-0.4,0.5-0.7,0.1c-0.2-0.2-0.1-0.6,0-0.8c0.2-0.3,0.5-0.6,0.8-0.8c0.7-0.7,1.3-1.4,0.4-2.3c-0.4-0.5-0.1-0.9,0.1-1.3
		C394,126.5,394.5,126.4,395,126.3z"/>
	<path class="st60" d="M418.3,152.4c-0.5,0-0.9,0-1.4,0.1c-0.7,0-1.3-0.1-2-0.6c-0.8-0.6-1.8-0.4-2.7,0c-0.3,0.2-0.6,0.3-0.8-0.1
		c-0.2-0.4,0.1-0.6,0.4-0.8c0.7-0.5,1.3-0.9,2.2-0.8c1,0.6,2,0.7,3.1,0.9c1.1,0.7,1.9-0.5,3-0.6
		C419.8,151.5,418.7,151.6,418.3,152.4z"/>
	<path class="st61" d="M420,140.8c-0.1-0.5,0.2-0.9,0.8-0.8c0.8,0.1,1.3,0.5,1.4,1.3c0,0.5-0.2,1.1-0.9,1
		C420.5,142.1,420,141.7,420,140.8z"/>
	<path class="st49" d="M394.1,147.6c0.8,0.5,0.8,1.5,1.1,2.3C394.5,149.3,394.1,148.5,394.1,147.6z"/>
	<path class="st52" d="M420.9,165.1c-0.9,0-1.9,0-2.8,0C419,164.6,419.9,164.7,420.9,165.1z"/>
	<path class="st62" d="M410.4,155.8c-0.8-0.2-1.6,0.4-2.5,0c-0.4-0.2-0.9-0.4-0.9-1c0.1-0.6,0.6-0.4,1-0.4c0.3,0,0.7,0,0.9-0.3
		c1,0,2.1-0.1,3.1,0c0.7,0,1.4,0.2,1.9,0.7c0.3,0.3,0.6,0.6,0.5,1c-0.1,0.5-0.6,0.3-1,0.3c-0.8,0-1.7,0.2-2.4-0.4
		C410.9,155.5,410.6,155.5,410.4,155.8z"/>
	<path class="st12" d="M418,158.6c1.2-0.4,4.5-0.6,5.7-0.5c-0.2,0.8-0.8,1-1.4,1.1c-1.1,0.3-2.3,0.5-3.4,0.7c-0.4,0.1-1,0.2-1.3-0.3
		C417.3,159.2,417.9,159,418,158.6C418,158.6,418,158.6,418,158.6z"/>
	<path class="st63" d="M408.9,160.1c-1-0.2-1.8-0.4-2.6-0.6c-0.4-0.1-0.7-0.3-0.6-0.8c0.1-0.5,0.4-0.6,0.8-0.6
		C408,157.7,408.4,158.8,408.9,160.1z"/>
</g>
</svg>
