<?xml version="1.0" encoding="utf-8"?>
<!-- Generator: Adobe Illustrator 27.5.0, SVG Export Plug-In . SVG Version: 6.00 Build 0)  -->
<svg version="1.1" id="Layer_1" xmlns="http://www.w3.org/2000/svg" xmlns:xlink="http://www.w3.org/1999/xlink" x="0px" y="0px"
	 viewBox="0 0 652.2 698.4" style="enable-background:new 0 0 652.2 698.4;" xml:space="preserve">
<g id="SF6POF_00000074419442293806531820000009600037647582110363_">
	<g>
		<g>
			<path d="M391.3,443.1c-44.8,0-89.6,0-134.4,0.1c-3.1,0-4.7-1-6.2-3.7c-15-26.9-29.8-53.8-45.3-80.3c-6.7-11.4-7.2-22.4-1.1-33.7
				c9.6-18,19.4-35.8,29.4-53.6c6.4-11.3,16.7-16.5,29.5-16.6c24.4-0.1,48.8-0.2,73.2,0c11.1,0.1,14.7,5.4,9.8,15.6
				c-6.6,13.6-14.4,26.7-21.8,40c-17.6,32-35.1,63.9-52.7,95.9c-0.7,1.3-1.3,2.6-1.9,4c-1.9,4.5-2.9,9.1,0.9,13.1
				c3.8,3.9,8.6,3.3,13.1,2c9.9-2.8,16.8-9.4,21.7-18.3c10.8-19.7,21.6-39.4,32.5-59.1c13.7-25,27.4-49.9,41.3-74.8
				c6.3-11.4,15.8-17.6,29.2-17.6c24.9,0.1,49.9,0,74.8,0.1c2,0,4,0.2,5.9,0.7c4.2,1.2,6.4,4.8,5.1,9c-1.2,3.7-2.7,7.2-4.5,10.6
				c-23.3,42.6-46.7,85.2-70,127.9c-1.9,3.5-3.5,7.2-4.5,11c-1.6,6.2,2.1,11,8.5,11.2c10.1,0.2,18.2-4.7,23.7-12.6
				c5.7-8.1,10.3-17.1,15.1-25.8c20.9-38,41.7-76.1,62.6-114.1c6.3-11.5,15.9-17.7,29.5-17.7c24.8,0.1,49.6-0.2,74.4-0.3
				c1.6,0,3.2,0,4.8,0.2c5.8,0.7,8.9,5.1,6.9,10.5c-1.6,4.3-3.8,8.5-6,12.6c-22.9,41.6-45.9,83.2-68.8,124.9
				c-4.2,7.6-8.2,15.3-12.6,22.7c-6.4,10.6-15.8,16.4-28.3,16.4C480.3,443.1,435.8,443.1,391.3,443.1
				C391.3,443.1,391.3,443.1,391.3,443.1z"/>
			<path d="M59.9,443.2c-12.5,0-25.1,0-37.6,0c-2.1,0-4.3-0.3-6.2-1.1c-3.2-1.4-5.2-4.1-4.1-7.7c1.4-4.4,3-8.8,5.2-12.9
				c26.4-48.6,52.9-97.3,79.6-145.8c2.6-4.8,6.3-9.2,10.2-13.1c4.6-4.5,10.6-6.6,17.1-6.6c26.1-0.1,52.3-0.1,78.4,0
				c8.3,0,11.3,4.1,8.6,11.9c-1.9,5.4-4.7,10.4-7.4,15.4c-25.3,46.4-50.6,92.8-76,139.1c-1.9,3.5-4.1,6.9-6.7,9.9
				c-6.1,7.1-14.1,10.8-23.6,10.8C84.9,443.1,72.4,443.1,59.9,443.2C59.9,443.2,59.9,443.2,59.9,443.2z"/>
		</g>
	</g>
</g>
</svg>
