<?xml version="1.0" encoding="utf-8"?>
<!-- Generator: Adobe Illustrator 26.3.1, SVG Export Plug-In . SVG Version: 6.00 Build 0)  -->
<svg version="1.1" id="Layer_1" xmlns="http://www.w3.org/2000/svg" xmlns:xlink="http://www.w3.org/1999/xlink" x="0px" y="0px"
	 viewBox="0 0 820.2 489.6" style="enable-background:new 0 0 820.2 489.6;" xml:space="preserve">
<g>
	<g>
		<path d="M256.6,223.7c-0.8-0.4-1.5-0.8-2.3-1.1c-9.6-3.9-20.7-2.5-30.8-2.5c-11,0.1-22.1,0.1-33.1,0.2
			c-10.2,0.1-20.6,0.2-30.2,3.5c-4.3,1.5-8.6,3.8-10.9,7.8c-2.3,3.8-2.3,8.6-2.2,13c0.1,7.6,0.2,15.1,0.2,22.7
			c0,1.9,0.1,3.9,1.2,5.3c0.9,1.2,2.3,1.8,3.6,2.4c7.6,2.9,16,3.5,23.9,1.6c1.9-0.5,3.7-1.1,5.2-2.3c3.6-2.9,3.8-8.1,3.7-12.7
			c-0.1-8-0.2-16-0.3-24.1c0-1.3,0-2.7,0.9-3.7c1-1.1,2.7-1.2,4.2-1.2c10,0,19.9,0,29.9,0c2.3,0,4.8,0,6.8,1.2s3.2,4,1.9,6
			c-1.2,1.7-3.6,1.9-5.6,1.9c-7.2,0.1-14.4,0.1-21.7,0.2c-3.5,0-7.6,0.5-9.1,3.6c-1.3,2.8,0.6,6.2,3.3,7.7s5.9,1.6,9,1.6
			c8.4,0.1,16.9,0.1,25.3,0.2c5.6,0,11.3,0.1,16.8-1.1c5.5-1.2,10.9-3.8,14.3-8.3c3.5-4.4,4.8-10.8,2.2-15.8
			C261.6,227.2,259.3,225.1,256.6,223.7z"/>
	</g>
	<g>
		<path d="M548.6,238.3c-0.2-1.2-0.4-2.4-0.8-3.5c-1.6-4.7-5.3-8.3-9.6-10.8c-6.6-3.8-14.3-5.4-22-5.8c-7.6-0.3-22.9,0.2-22.9,0.2
			s-19.5-2.3-19.6,6.8c0,2.3,0.9,4.3,2.9,5.5c2.3,1.4,8.1,1.3,8.1,1.3s21.8-0.5,25.5,0.4c3.7,0.9,7.3,2.9,9.4,6.1
			c-11.3,0-22.5-0.1-33.8-0.1c-5.4,0-11.2,0.1-15.7,3.2c-4.8,3.3-6.9,9.4-7.3,15.2c-0.4,6.1,1.2,13.1,6.5,16.3
			c3.3,2,7.5,2.1,11.3,2.1c9,0,18,0,27,0c1.5,0,3.1,0,4.6-0.6c3.3-1.3,4.7-6,2.7-9c-2.4-3.4-7.3-3.5-11.4-3s-8.9,1-11.9-1.9
			c-2.2-2-2.7-5.6-1.2-8.2c0.5-0.8,1.1-1.6,2-2c1-0.5,2.2-0.5,3.3-0.5c7.8,0,15.6,0,23.4,0.1c0.4,0,0.9,0,1.2,0.3
			c0.3,0.3,0.3,0.8,0.3,1.2c-0.1,4.2-0.1,8.3-0.2,12.5c0,2.5,0,5.1,1.2,7.2c2,3.5,6.6,4.3,10.6,4.6c5.4,0.3,11.6-0.2,14.6-4.7
			c1.8-2.7,1.9-6.2,1.9-9.4c0-5.6,0.1-11.3,0.1-16.9C548.9,242.6,548.9,240.4,548.6,238.3z"/>
	</g>
	<g>
		<path d="M774.3,267.3c-1-1.8-2.9-3.3-4.9-4.1c-3.3-1.3-6.9-1-10.4-0.9c-6.1,0.3-12.3,0.3-18.5,0.1c-2.4-0.1-4.9-0.2-7-1.2
			c-4.8-2.2-7-8.1-6.6-13.3c0.2-3.3,1.3-6.7,3.8-8.9c3.4-3,8.4-3.1,12.9-3c5.8,0.1,11.6,0.2,17.5,0.2c2.3,0,4.7,0,6.7-1.1
			c1.9-1.1,3.1-3.1,3.6-5.1c0.6-2.8-0.2-6.1-2.5-7.8c-2.1-1.5-4.8-1.6-7.4-1.7c-7.2-0.1-14.3-0.3-21.5-0.4
			c-5.6-0.1-11.2-0.2-16.7,0.9c-12.1,2.4-21.2,12.5-23,24.7c-0.9,6.4,0.4,13.1,4,18.5c5.6,8.3,15.8,12.3,25.7,13.5
			c9.9,1.2,19.9,0.1,29.9,0.5c3.1,0.1,6.2,0.3,9.2-0.6c3-0.9,5.7-3.2,6.1-6.3C775.3,269.8,775,268.5,774.3,267.3z"/>
	</g>
	<g>
		<path d="M764.9,241c-0.8-0.1-1.6-0.1-2.4-0.1c-8,0-16,0-23.9,0c-5.6,0-9.6,2.2-8.4,8.5c0.2,1.2,0.8,2.5,1.7,3.3
			c1.4,1.2,3.5,1.3,5.4,1.3c8.5,0,17.1,0.1,25.6,0.1c1.9,0,3.9,0,5.6-0.9c2.2-1.1,3.6-3.6,3.4-6c-0.2-2.4-1.8-4.7-4-5.6
			C767,241.2,765.9,241.1,764.9,241z"/>
	</g>
	<g>
		<path d="M625.4,267.3c-0.7-2.2-2.6-4.1-4.8-4.8c-1.6-0.5-3.3-0.5-5-0.5c-6.9,0.1-13.7,0.1-20.6,0.2c-3.8,0-7.9,0-11.1-2.2
			c-2.6-1.7-4.1-4.6-4.9-7.7c-1.3-5.3,0.2-11.5,4.7-14.5c3.6-2.4,8.2-2.4,12.6-2.3c4.5,0.1,9,0.2,13.5,0.3c2.9,0.1,6,0.1,8.6-1.2
			c4-1.9,6.2-7.6,3.5-11.1c-2.3-3-6.6-3.2-10.4-3.3c-7.1,0-14.2-0.1-21.4-0.1c-9.5,0-20,0.1-27.9,6c-7.5,5.6-12.1,14.7-11.4,24.1
			c0.7,9.2,6.4,17.8,14.6,21.9c7.4,3.8,16.2,3.9,24.5,3.9c8.5,0,17,0,25.5,0c2.6,0,5.5-0.1,7.6-1.6c2-1.5,3-4.3,2.4-6.7
			C625.5,267.6,625.5,267.4,625.4,267.3z"/>
	</g>
	<g>
		<path d="M700.3,267.4c-0.1-0.2-0.1-0.3-0.2-0.5c-0.4-1-1-2.1-2-2.6c-0.9-0.5-1.9-0.5-2.9-0.5c-7,0-14,0.1-21,0.1
			c-5,0-11.9,0.5-16.3-2.4c-4.2-2.8-4.9-8.5-5.1-13.1c-0.2-5.2-0.2-10.5,0-15.7c0.1-2.5,0.2-5.2-0.9-7.5c-1.3-2.6-4.1-4.1-6.9-4.9
			c-4.6-1.3-9.7-1.2-14.2,0.5c-1.8,0.7-3.6,1.7-4.5,3.4c-0.8,1.5-0.8,3.3-0.8,5c0,8.5,0,16.9,0,25.4c0,2.8,0,5.6,1,8.2
			c0.9,2.4,2.6,4.4,4.4,6.1c2.7,2.5,5.8,4.6,9.2,6c7.8,3.3,16.5,3.2,25,3.1c9.5-0.1,19-0.2,28.5-0.3c1.5,0,3.1-0.1,4.5-0.8
			C701.4,275.4,701.6,270.9,700.3,267.4z"/>
	</g>
	<g>
		<path d="M376.9,252.9c0-5.9,0-11.8,0-17.6c0-2.8,0-5.6-1.1-8.2c-1.6-3.8-5.4-6.4-9.3-7.6s-8.2-1.2-12.3-1.1
			c-8.5,0-17,0.1-25.5,0.1c-7.8,0-16.2-1.1-23.2,3c-2.7,1.6-5,3.9-5.9,6.9c-0.5,1.8-0.5,3.6-0.5,5.5c0,11.3,0,22.7,0,34
			c0,1.4,0,2.9,0.6,4.2c1.3,3.1,5.1,4.2,8.5,4.7c2.8,0.4,5.6,0.7,8.4,0.1c2.7-0.6,5.4-2.1,6.8-4.5c1.4-2.3,1.4-5.2,1.4-7.9
			c0-9.3,0-18.6-0.1-27.9c0-1.2,0-2.5,0.6-3.6c0.7-1.2,2-1.9,3.2-2.4c5.5-2.3,11.9-2.4,17.6-0.4c1.8,0.6,3.6,1.6,4.4,3.4
			c0.5,1.1,0.5,2.2,0.5,3.4c0,10.1-0.1,20.2-0.1,30.3c0,1.9,0,3.9,1.1,5.5c1,1.4,2.8,2.1,4.4,2.6c4.4,1.2,9.1,1.4,13.6,0.5
			c2.4-0.5,5-1.5,6.3-3.7c0.9-1.5,0.9-3.4,0.9-5.1C377,262.4,376.9,257.6,376.9,252.9z M324.2,238.5c-0.2,0-0.4-0.1-0.6-0.1
			C323.8,238.5,324,238.5,324.2,238.5L324.2,238.5z"/>
	</g>
	<g>
		<path d="M292.3,252.8c0-7,0-14.1,0-21.1c0-2.4,0-5-1.3-7.1c-3.8-6.1-19.5-6.4-23.3-0.1c-1.1,1.9-1.2,4.3-1.2,6.5
			c0,11.8,0,23.6,0,35.4c0,2.2,0,4.5,1.1,6.4c2.2,3.8,7.4,4.1,11.8,4c3.8-0.1,8.2-0.4,10.7-3.3c2.1-2.4,2.2-6,2.2-9.2
			C292.3,260.5,292.3,256.7,292.3,252.8z"/>
	</g>
	<g>
		<path d="M136.6,265.5c-10.8-12-21.6-23.9-32.5-35.9c-4.6-5.1-9.1-15.6-3.7-19.8c2.2-1.7,6-3.6,13.9-3.6
			c214.5,0,637.7,2.1,637.7,2.1c-15.5-2.1-25.3-2.6-35.8-3.4c-10.9-0.9-17.9-0.9-28.7-1.7c-21.7-1.6-43.5-3.2-65.2-4.7
			c-43.5-2.9-87-5.5-130.6-7.8s-87.1-4.2-130.7-5.7c-42.9-1.5-85.8-3-128.6-4.7c-43.6-1.7-87.2-2.2-130.8-1.7
			c-15.3,0.2-31.1,0.6-45.2,6.8c-3.7,1.6-7.5,3.8-9.4,7.4c-4.7,8.5-1.4,17.4,10.4,28.5c8.6,8.1,55.9,41.2,92.7,59.1
			C145.7,275.4,141.2,270.5,136.6,265.5z"/>
	</g>
	<g>
		<g>
			<path d="M458.7,267.4c0-0.1,0-0.3,0-0.4c0-10.5-0.1-21-0.1-31.5c0-3.2,0-6.6-1.5-9.4c-1.7-3.3-5.2-5.5-8.8-6.6
				c-3.6-1-7.4-1-11.2-1.1c-7.1,0-14.1,0-21.2-0.1c-10.1,0-29.8-3-34.4,9.4c-0.8,2.1-0.8,4.4-0.8,6.6c0,11,0,22,0,33
				c0,1.6,0,3.2,0.6,4.6c1.5,3.5,5.9,4.6,9.6,4.9c2.7,0.2,5.4,0.3,7.9-0.4s5-2.3,6.2-4.6c1.1-2.1,1.1-4.5,1.1-6.9
				c0-9.3-0.1-18.6-0.1-27.9c0-1.2,0-2.5,0.5-3.6c0.8-1.8,2.7-2.8,4.5-3.4c4.9-1.8,10.4-1.9,15.4-0.5c2.3,0.7,4.7,1.9,5.7,4.2
				c0.5,1.2,0.5,2.4,0.5,3.7c0,10.1-0.1,20.1-0.1,30.2c0,1.5,0,3,0.7,4.4c1.2,2.6,4.4,3.5,7.2,3.9c3.5,0.5,7,0.4,10.5-0.1
				c2.7-0.4,5.6-1.3,6.9-3.7C458.6,270.9,458.7,269.1,458.7,267.4z"/>
		</g>
		<g>
			<path d="M383.7,224.3C383.7,224.3,383.7,224.3,383.7,224.3C383.7,224.3,383.7,224.3,383.7,224.3
				C383.7,224.3,383.7,224.3,383.7,224.3C383.7,224.3,383.7,224.3,383.7,224.3C383.7,224.3,383.7,224.3,383.7,224.3z"/>
		</g>
	</g>
	<g>
		<path d="M234.9,310.5h-13.1l-10-9v9h-10.5v-23.4h16.3c2.3,0,4.2,0.2,5.9,0.6c1.7,0.4,3.1,0.9,4.2,1.6c1.1,0.7,1.9,1.4,2.5,2.3
			c0.6,0.9,0.8,1.8,0.8,2.8c0,1.8-0.7,3.2-2.2,4.3c-1.5,1.1-3.7,1.9-6.6,2.2L234.9,310.5z M211.8,297.5h2c2.1,0,3.7-0.2,4.8-0.7
			c1.1-0.5,1.7-1.2,1.7-2.1c0-0.9-0.6-1.6-1.7-2.1c-1.1-0.5-2.7-0.7-4.8-0.7h-2V297.5z"/>
		<path d="M322.5,306.4h-15l-2.4,4.1h-11.2l15.4-23.4h11.5l15.4,23.4h-11.2L322.5,306.4z M319.7,301.8L315,294l-4.7,7.8H319.7z"/>
		<path d="M426.7,294.9c-2.4-1.7-5.4-2.6-9-2.6c-1.6,0-3,0.2-4.4,0.5c-1.3,0.3-2.5,0.8-3.5,1.3c-1,0.6-1.7,1.2-2.3,2
			c-0.6,0.8-0.8,1.6-0.8,2.5c0,0.9,0.3,1.8,0.8,2.6c0.6,0.8,1.3,1.5,2.3,2c1,0.6,2.1,1,3.5,1.4c1.3,0.3,2.8,0.5,4.3,0.5
			c3.4,0,6.4-0.8,9.1-2.5v7.2l-1.1,0.2c-1.6,0.3-3.1,0.6-4.5,0.7c-1.4,0.2-2.8,0.2-4.1,0.2c-2.8,0-5.5-0.3-8-0.9
			c-2.6-0.6-4.8-1.5-6.8-2.6c-1.9-1.1-3.5-2.4-4.7-3.9c-1.2-1.5-1.8-3.2-1.8-5c0-1.8,0.6-3.4,1.7-4.9c1.2-1.5,2.7-2.8,4.7-3.9
			c1.9-1.1,4.2-1.9,6.8-2.5c2.6-0.6,5.3-0.9,8.1-0.9c1.6,0,3.2,0.1,4.7,0.3c1.6,0.2,3.2,0.5,4.9,0.9V294.9z"/>
		<path d="M502.3,287.1v23.4h-10.5v-23.4H502.3z"/>
		<path d="M569.2,310.5v-23.4h10.5l19.4,14.3v-14.3h10.5v23.4h-10.5l-19.4-14.3v14.3H569.2z"/>
		<path d="M696.8,297.4h20.8c0,1.2-0.1,2.4-0.3,3.4c-0.2,1-0.5,2-1.1,2.8c-0.8,1.2-1.8,2.3-3.1,3.2c-1.3,0.9-2.8,1.7-4.5,2.4
			c-1.7,0.6-3.6,1.1-5.7,1.4c-2.1,0.3-4.3,0.5-6.5,0.5c-3.1,0-6-0.3-8.6-0.9c-2.6-0.6-4.8-1.4-6.7-2.5c-1.9-1.1-3.3-2.4-4.3-3.9
			c-1-1.5-1.6-3.2-1.6-5c0-1.8,0.5-3.5,1.5-5c1-1.5,2.5-2.8,4.3-3.9c1.9-1.1,4.1-1.9,6.8-2.5c2.6-0.6,5.6-0.9,8.8-0.9
			c4.2,0,7.9,0.5,11.1,1.6c3.2,1.1,5.7,2.7,7.6,4.9l-10,2.4c-0.9-1.3-2.1-2.2-3.6-2.8c-1.5-0.6-3.2-0.8-5.1-0.8
			c-1.6,0-3,0.2-4.3,0.5s-2.4,0.8-3.3,1.5c-0.9,0.6-1.6,1.4-2.1,2.3c-0.5,0.9-0.8,1.9-0.8,3c0,1,0.2,1.9,0.7,2.8
			c0.4,0.8,1.1,1.6,2,2.2c0.9,0.6,2,1.1,3.3,1.4c1.3,0.3,2.9,0.5,4.6,0.5c1,0,2-0.1,3-0.2c1-0.1,1.8-0.4,2.6-0.7
			c0.8-0.3,1.4-0.7,1.9-1.2c0.5-0.5,0.8-1.1,1-1.7h-8.6V297.4z"/>
	</g>
</g>
</svg>
