<?xml version="1.0" encoding="utf-8"?>
<!-- Generator: Adobe Illustrator 26.2.1, SVG Export Plug-In . SVG Version: 6.00 Build 0)  -->
<svg version="1.1" id="Layer_1" xmlns="http://www.w3.org/2000/svg" xmlns:xlink="http://www.w3.org/1999/xlink" x="0px" y="0px"
	 viewBox="0 0 820.2 489.6" style="enable-background:new 0 0 820.2 489.6;" xml:space="preserve">
<g id="fQO5Om.tif">
	<g>
		<g>
			<path d="M764.7,258.3c-0.4,2-0.8,4.1-1.3,6.1c-3,11.9-12.3,20-24.5,20.5c-10.4,0.5-20.9,0.2-31.4,0.3c-1.9,0-2.8-1-2.8-2.9
				c0-25,0-49.9,0-74.9c0-2,0.8-3,2.9-3c9.8,0.1,19.5-0.1,29.3,0.1c15.1,0.4,25.5,10,27.4,24.9c0.1,0.4,0.3,0.8,0.4,1.3
				C764.7,239.9,764.7,249.1,764.7,258.3z M724.3,267.3c3.9,0,7.5,0.2,11-0.1c5.1-0.4,8.5-3.4,9.1-8.4c1.2-9.4,1.2-18.8,0-28.2
				c-0.5-3.7-2.6-6.3-6.2-7.6c-4.6-1.6-9.3-0.6-14-0.8C724.3,237.5,724.3,252.3,724.3,267.3z"/>
			<path d="M287.8,249.9c-5.7-3.4-11.2-6.7-16.8-9.9c-18.5-10.7-37-21.4-55.5-32c-7.5-4.3-15.1-8.5-22.5-13
				c-5.6-3.4-10.6-2.8-15.6,1c-11.6,8.7-23.2,17.4-34.8,26.2c-1.8,1.4-2.9,1.2-4.5-0.1c-3.7-3.1-7.5-6.1-11.4-9
				c-5.1-3.9-7.9-3.9-13.1-0.2c-15.9,11.5-31.9,23-47.8,34.5c-1.9,1.4-4,2.6-6.4,4.1c-1-1.1-1.8-2.1-2.7-3.1
				c-1.8-2.1-1.7-4.9,0.1-7.1c0.5-0.5,1-1,1.5-1.5c36.6-36.5,73.1-73,109.7-109.5c4.1-4.1,6.3-4.1,10.4,0
				c36.6,36.6,73.2,73.1,109.8,109.7C291.9,243.7,291.9,246.3,287.8,249.9z"/>
			<path d="M278.8,259c-3.9,3.9-7.6,7.8-11.6,11.4c-0.9,0.8-2.8,0.9-4.2,0.9c-20.8-1.2-41.6-0.3-62.5,0c-16.5,0.2-32.9-0.1-49.4-0.1
				c-15.1,0.1-30.1,0.4-45.2,0.7c-6.1,0.1-12.2,0.3-18.2,0.4c-0.6,0-1.3-0.1-1.9,0.1c-3.7,1.3-6-0.6-8.4-3.2c-2.9-3.2-6.1-6-9.2-9.1
				c7.3-4.9,14.5-9.5,21.4-14.5c8.8-6.3,17.5-12.7,26.2-19.2c3.2-2.3,4.2-2.4,7.5-0.1c11.9,8.5,23.8,17.1,35.9,25.5
				c5,3.5,10.3,6.8,16.4,8.1c1.5,0.3,3.1,0.5,4.6,0.4c0.7,0,1.9-0.5,2.1-1c0.2-0.7-0.2-1.9-0.7-2.5c-1.3-1.3-2.8-2.4-4.3-3.6
				c-8.3-6.6-16.6-13.1-24.9-19.7c-0.6-0.5-1.1-1.1-1.8-1.7c10.1-7.5,20.3-14.6,29.9-22.4c4.3-3.5,7.3-3.3,11.9-0.6
				c27.5,16.2,55.1,32,82.7,48C276.4,257.6,277.6,258.3,278.8,259z"/>
			<path d="M226.2,311.4c-0.6,0.7-1.1,1.2-1.5,1.7c-15.7,15.7-31.5,31.4-47.2,47.1c-2.8,2.8-5.7,2.8-8.4,0.1
				c-16.1-16.1-32.2-32.2-48.4-48.3c-0.3-0.3-0.6-0.7-0.9-1c3.8,0,7.6,0,11.4,0c1.5,0,3,0,4.4,0c0.2,0,0.3,0,0.5,0
				c2.7-0.3,3.3-1.8,3.1-7.4c-0.1-2.6-1.1-3.7-3.4-3.8c-8.6-0.2-17.2-0.3-25.7-0.5c-1.2,0-2.6-0.6-3.4-1.4c-3.7-3.5-7.3-7.2-11-10.9
				c-0.5-0.5-0.9-1-1.7-1.9c26.9-1.2,53.3-1,79.7-0.9c26.4,0.1,52.9-0.4,79.3-0.6c0.1,0.3,0.2,0.5,0.2,0.8c-0.3,0.4-0.6,0.9-1,1.3
				c-3.5,3.5-7.2,7-10.5,10.6c-1.6,1.8-3.4,2.2-5.6,2.2c-8.2,0-16.4,0-24.6,0c-3.9,0-5.2,1.2-5.2,5.2c0,7,0.8,7.8,7.8,7.8
				C217.9,311.5,221.9,311.4,226.2,311.4z M173.1,310.7c0-0.2,0-0.4,0-0.5c6.3,0,12.6,0,18.9,0c2.7,0,3.8-1.1,3.9-3.8
				c0-0.8,0-1.6,0-2.3c-0.2-4.2-0.7-4.8-5-4.7c-11.2,0.1-22.4,0.3-33.7,0.4c-6.7,0.1-6.9,0.2-6.7,6.8c0.1,3.3,1.2,4.3,4.4,4.2
				C161,310.7,167,310.7,173.1,310.7z"/>
			<path d="M385.6,251.2c3.9,7.6,7.7,14.9,11.5,22.2c1.5,2.8,3,5.7,4.4,8.5c1,2.1,0.3,3.3-2.1,3.3c-5.4,0.1-10.8,0.1-16.2-0.1
				c-1,0-2.3-1-2.7-1.9c-4.5-8.9-8.9-17.8-13.2-26.8c-0.7-1.4-1.4-2-3-1.9c-1.8,0.1-3.5,0-5.6,0c0,3.6,0,6.9,0,10.2
				c0,5.7,0,11.4,0,17.1c0,2.8-0.5,3.3-3.2,3.4c-4.3,0-8.6,0-12.9,0c-2.1,0-3-0.8-3-2.9c0-25,0-50,0-75.1c0-1.9,0.7-2.9,2.8-2.9
				c10.7,0.1,21.4-0.5,32.1,0.2c22.2,1.4,28,21.9,22.2,35.3C394.6,245,390.8,248.6,385.6,251.2z M358.9,238.1c4.6,0,9,0.2,13.3-0.1
				c4.6-0.3,7.6-3.5,7.7-7.9c0.1-4.3-2.5-7.9-6.7-8.2c-4.7-0.4-9.5-0.1-14.3-0.1C358.9,227.3,358.9,232.6,358.9,238.1z"/>
			<path d="M567.7,244.8c0-12.2,0-24.5,0-36.7c0-3.3,0.3-3.6,3.6-3.6c8.8,0,17.6,0,26.5,0c17.1,0,28.4,10.4,29.4,26.1
				c0.7,10.8,1.3,21.7-0.6,32.4c-2.2,12.7-11.9,21.4-24.7,22c-10.5,0.5-21.1,0.2-31.6,0.3c-2.4,0-2.5-1.5-2.5-3.3
				C567.7,269.6,567.7,257.2,567.7,244.8z M586.8,221.9c0,15.5,0,30.7,0,46.1c1.1,0,1.9,0,2.8,0c2.7,0,5.5,0.1,8.2-0.1
				c5.7-0.4,9.2-3.4,10-9.2c1.3-9.4,1.4-18.8,0-28.2c-0.7-4.9-4.3-8.2-9.2-8.5C594.7,221.6,590.8,221.9,586.8,221.9z"/>
			<path d="M414.3,245c0.3-5.8,0.3-11.7,1.1-17.5c2-14.7,15.2-23.5,28.3-23.7c10.2-0.2,18.8,3.2,25.3,11.2c3.7,4.5,5.4,9.8,5.7,15.5
				c0.7,10.6,1,21.2-0.4,31.7c-1.8,13.3-13.9,23.1-27.7,23.6c-12.1,0.4-21.8-4-28.2-14.6c-3.3-5.5-3.7-11.7-3.8-17.8
				c-0.1-2.8,0-5.6,0-8.4C414.5,245,414.4,245,414.3,245z M433.1,244.5c0.4,5.2,0.5,10.5,1.3,15.6c0.8,5.3,5,8.5,10.4,8.5
				c5.4,0.1,9.7-3.1,10.6-8.3c0.6-3.3,1-6.6,0.9-10c-0.1-7-0.2-14-0.9-20.9c-0.6-5.2-5.2-8.5-10.5-8.4c-5.4,0-9.7,3.2-10.5,8.4
				C433.6,234.4,433.5,239.5,433.1,244.5z"/>
			<path d="M545.8,285.2c-2.3,0-4.5-0.1-6.8,0c-1.8,0.1-2.7-0.6-3.2-2.3c-1-3.3-2.2-6.5-3.2-9.8c-0.4-1.2-1-1.7-2.3-1.7
				c-7,0.1-14.1,0.1-21.1,0c-1.3,0-1.9,0.5-2.3,1.7c-1,3.3-2.3,6.5-3.3,9.7c-0.5,1.7-1.5,2.4-3.2,2.3c-4.5-0.1-8.9,0-13.4,0
				c-3.1,0-3.7-0.9-2.7-3.9c4.3-11.9,8.6-23.7,12.9-35.5c4.7-12.9,9.4-25.7,14-38.6c0.7-2,1.7-2.9,3.9-2.8c3,0.2,5.9,0.1,8.9,0
				c2-0.1,3,0.6,3.8,2.6c9,24.8,18.1,49.6,27.1,74.4c1.1,3,0.5,3.9-2.6,3.9C550.1,285.3,547.9,285.2,545.8,285.2z M526.6,255
				c-2.2-6.6-4.4-13-6.7-19.9c-2.4,7-4.6,13.3-6.9,19.9C517.6,255,521.9,255,526.6,255z"/>
			<path d="M689.3,261c0,6.9,0,13.9,0,20.8c0,2.9-0.5,3.5-3.4,3.5c-4.2,0-8.4,0-12.6,0c-2.8,0-3.4-0.6-3.4-3.2
				c0-10.9-0.1-21.8,0.1-32.7c0-1.1,0.8-2.6,1.7-3.2c4.4-3.1,8.9-6,13.5-8.9c0.8-0.5,2.2-0.9,2.9-0.5c0.7,0.4,1.2,1.8,1.2,2.7
				C689.4,246.6,689.3,253.8,689.3,261z"/>
			<path d="M670,214.8c0-2.4,0-4.8,0-7.2c0-1.8,0.8-2.6,2.5-2.6c4.8,0,9.7,0,14.5,0c1.6,0,2.5,0.9,2.5,2.4c0,4.9,0,9.8,0,14.7
				c0,1.7-1,2.5-2.7,2.5c-4.8,0-9.5,0-14.3,0c-1.7,0-2.6-0.7-2.6-2.5C670,219.6,670,217.2,670,214.8z"/>
		</g>
	</g>
</g>
</svg>
