<?xml version="1.0" encoding="utf-8"?>
<!-- Generator: Adobe Illustrator 26.2.1, SVG Export Plug-In . SVG Version: 6.00 Build 0)  -->
<svg version="1.1" id="Layer_1" xmlns="http://www.w3.org/2000/svg" xmlns:xlink="http://www.w3.org/1999/xlink" x="0px" y="0px"
	 viewBox="0 0 820.2 489.6" style="enable-background:new 0 0 820.2 489.6;" xml:space="preserve">
<g id="pC6PtY.tif">
	<g>
		<g>
			<path d="M552.6,209.3c3.6,1,7,1.9,10.4,2.8c4.6,1.3,9.1,3,13.2,5.7c9.1,6,15.1,14.3,18.6,24.5c2.6,7.5,3.9,15.2,4.3,23.1
				c0.2,4.3,0.2,8.7,0.2,13c0,22.2,0,44.3,0,66.5c0,0.5,0,0.9,0,1.5c-26,0-51.8,0-77.8,0c0-0.6,0-1.1,0-1.6c0-21.9,0-43.8,0-65.7
				c0-5.8-0.5-11.5-2.1-17.1c-0.5-1.9-1.2-3.7-2-5.5c-2.5-5.7-6.9-9.6-12.6-12c-5.2-2.2-10.7-3.4-16.3-3.8
				c-5.4-0.4-10.8-0.6-16.2-0.6c-42.6-0.1-85.3,0-127.9,0c-6.9,0-13.8,0.3-20.6,1.8c-3.2,0.7-6.4,1.7-9.4,3
				c-7.3,3-11.4,8.8-13.6,16.2c-1.7,5.8-2.4,11.8-2.4,17.9c0,21.9,0,43.9,0,65.8c0,0.5,0,1,0,1.6c-25.9,0-51.7,0-77.6,0
				c0-0.5-0.1-0.9-0.1-1.3c0-25.2-0.1-50.4,0-75.6c0-11,1.8-21.8,6.4-31.9c3.6-8,9.1-14.6,16.4-19.6c3.9-2.7,8.3-4.2,12.8-5.6
				c3.2-1,6.5-1.8,9.8-2.7c0.4-0.1,0.8-0.2,1.5-0.4c-2.9-0.7-5.5-1.3-8.1-2.1c-5.2-1.7-10.4-3.1-15.4-5.4
				c-13.2-5.9-22.5-16.1-28.9-28.9c-5.7-11.5-7.5-23.9-7.1-36.7c0.3-11.9,3.1-23.3,8.6-33.9c10-19,25.8-30.5,46.7-35.3
				c9.3-2.1,18.8-3.2,28.3-3.6c3-0.1,6-0.2,9.1-0.2c74.4,0,148.8-0.1,223.2,0.1c7.2,0,14.5,1,21.7,1.8c7,0.8,13.8,2.2,20.4,4.8
				c23.2,8.9,37.5,25.7,43.5,49.7c4,15.9,3.4,31.7-2.2,47.1c-5.5,15.2-15.3,27.1-30,34.5c-7.4,3.7-15.4,5.8-23.5,7.7
				C553.6,209.1,553.2,209.2,552.6,209.3z M585.7,332.9c0-0.6,0-1.1,0-1.5c0-19,0-38.1-0.1-57.1c0-5.3-0.4-10.6-0.9-15.8
				c-0.7-6.2-2.5-12.2-5.5-17.7c-4.3-8-10.9-13.1-19.6-15.5c-3.9-1.1-7.9-1.9-11.7-3.2c-5.6-1.8-9.1-6.8-9.1-12.6
				c0-6.4,4-11.5,10.5-13.3c3.4-0.9,6.9-1.7,10.2-2.7c5.1-1.4,10.1-3,14.7-5.8c8.9-5.5,15.4-13.1,19.4-22.8
				c6.7-16.4,6.5-33,0.5-49.6c-5.4-15.1-15.8-25.7-30.5-31.9c-7.3-3.1-15-4.3-22.8-5.3c-10.1-1.2-20.2-1.7-30.3-1.7
				c-30.8,0-61.7,0-92.5,0c-0.3,0-0.7,0-1,0.1c0,13.7,0,27.3,0,41c0.4,0,0.8,0,1.1,0c29,0,57.9,0,86.9,0c6.1,0,12.1,0.7,17.9,2.7
				c9.1,3.1,15.9,8.8,19.3,17.9c2.7,7.1,3.2,14.5,1.2,21.9c-3.1,11.5-10,19.5-21.8,22.9c-6.6,1.9-13.2,2.5-20,2.5
				c-27.7,0-55.5,0-83.2,0c-0.5,0-1,0-1.5,0c0,13.8,0,27.4,0,41.1c0.6,0,1.1,0,1.6,0c21.1,0.1,42.2,0,63.3,0.2
				c8.2,0.1,16.2,1.4,24,3.8c13.8,4.3,22.6,13.5,26.4,27.4c1.9,6.9,2.7,13.9,2.7,21c0,17.5,0,35,0,52.5c0,0.5,0,1,0,1.6
				C552,332.9,568.8,332.9,585.7,332.9z M403,185.5c-0.6,0-1.1,0-1.6,0c-27.7,0-55.4,0-83.1,0c-6.4,0-12.8-0.5-19-2.2
				c-6.1-1.6-11.5-4.5-15.7-9.4c-6.4-7.5-9-16.2-8.1-26c1.1-13,7.6-22.2,19.9-27.1c6.6-2.6,13.5-3.3,20.5-3.3c28.6,0,57.1,0,85.7,0
				c0.5,0,1,0,1.5,0c0-13.8,0-27.4,0-41.1c-0.6,0-1.1,0-1.6,0c-18,0-36.1,0-54.1,0c-16.1,0-32.1,0-48.2,0.3
				C288,76.9,276.9,78,266,80.5c-17.9,4.2-31.2,14.4-38.7,31.4c-6.3,14.3-7.3,29.1-3.8,44.2c2.9,12.6,9.8,22.7,20.3,30.3
				c4.3,3.1,9.2,4.9,14.2,6.4c4.7,1.4,9.5,2.5,14.2,3.9c5.2,1.6,8.9,6.8,9.1,12.2c0.1,6.8-3.9,12-10.7,13.7
				c-3.1,0.8-6.2,1.6-9.3,2.4c-11.4,2.9-18.8,10.2-22.9,21.1c-2.9,7.9-4,16-4,24.3c0,20.4,0,40.8,0,61.3c0,0.4,0,0.8,0,1.3
				c17,0,33.8,0,50.7,0c0-0.6,0-1.1,0-1.6c0-17.5,0-35,0-52.4c0-7.5,0.7-14.8,2.9-22c3.2-10.3,9.1-18.4,18.9-23.4
				c5-2.5,10.2-4,15.7-5.1c7.1-1.3,14.3-1.8,21.5-1.8c19.2,0,38.4,0,57.6,0c0.5,0,1,0,1.5-0.1C403,212.7,403,199.2,403,185.5z
				 M410.1,131C410.1,131,410.1,130.9,410.1,131c-31.6,0-63.2,0-94.8,0c-4.8,0-9.5,0.5-14.1,2c-5.8,2-10,5.6-11.6,11.7
				c-0.8,3.1-1,6.3-0.6,9.6c1,7.1,4.7,13.3,13.1,15.7c5.4,1.5,10.9,1.9,16.4,1.9c60.8,0,121.5,0,182.3,0c5.1,0,10.2-0.3,15.3-1.5
				c6.6-1.5,11.4-5.2,13.7-11.8c1.6-4.5,1.5-9,0.4-13.6c-1.1-5-4-8.6-8.6-10.7c-2.1-1-4.3-1.9-6.5-2.2c-4.1-0.6-8.3-1.1-12.4-1.1
				C471.9,130.9,441,131,410.1,131z"/>
			<path d="M385.6,377.6c2.1,0,4.1,0,6.3,0c0,7.9,0,15.7,0,23.9c0.6-0.5,0.9-0.8,1.2-1.1c7.4-7.4,14.7-14.7,22.1-22.1
				c0.6-0.6,1.2-0.8,2-0.8c2.3,0.1,4.7,0,7.4,0c-6.8,6.6-13.5,13-20.2,19.5c7,9.5,14,19,21.1,28.7c-2.2,0-4.1-0.1-6,0
				c-1.8,0.2-2.8-0.5-3.8-1.9c-4.9-7.2-10-14.3-15.1-21.4c-0.2-0.3-0.5-0.6-0.8-1.1c-2,2-4,4-6.1,5.9c-1.4,1.2-1.9,2.5-1.9,4.4
				c0.1,4.2,0,8.4,0,12.6c0,0.4,0,0.9,0,1.4c-2.1,0-4.2,0-6.3,0C385.6,409.7,385.6,393.7,385.6,377.6z"/>
			<path d="M547.1,377.7c0,0.2,0.1,0.5,0.1,0.7c0,1.6,0,3.2,0,4.9c-9.5,0-19,0-28.5,0c0,5,0,9.8,0,14.8c4,0,8.1,0,12.2,0
				c0,1.9,0,3.7,0,5.7c-4.1,0-8.1,0-12.2,0c0,5.6,0,11,0,16.5c9.9,0,19.7,0,29.5,0c0,1.9,0,3.7,0,5.6c-12,0-23.9,0-35.9,0
				c0-16.1,0-32.1,0-48.2C523.9,377.7,535.5,377.7,547.1,377.7z"/>
			<path d="M554,421c0.4,0,0.9,0,1.3,0c5,0,10,0,15,0c2.8,0,5.5-0.4,8-1.7c4.3-2.1,5.7-7.1,2.9-10.7c-1.2-1.6-3-2.3-4.8-2.9
				c-3.5-1.1-7.1-1.9-10.7-2.9c-2.1-0.6-4.2-1.2-6.2-2.1c-4.5-2-7.3-5.5-7.3-10.6c0-5.2,2.6-9,7.3-11.4c2.8-1.4,5.9-2,9-2.1
				c3.3-0.1,6.5-0.1,9.8,0c3.5,0.1,5.9,2.3,6,5.7c-0.4,0-0.8,0-1.3,0c-4.6,0-9.1,0-13.7,0c-2.4,0-4.8,0.2-7,1.3
				c-3,1.4-4.6,4.6-3.7,7.6c0.5,1.9,1.8,3.2,3.6,3.8c3,1,6,1.7,9,2.6c3,0.9,6,1.6,8.9,2.6c4.4,1.7,7.5,4.7,8.5,9.5
				c1.1,5.2-1.4,10.9-6.1,13.9c-2.7,1.7-5.7,2.7-9,2.7c-4.9-0.1-9.8,0-14.7,0C556.2,426.2,553.9,423.8,554,421z"/>
			<path d="M344.5,421c0.8,0,1.6,0,2.5,0c5.6-0.1,11.2,0,16.8-0.3c2.6-0.1,5.1-1,7.1-3c3.5-3.3,2.9-8.8-1.4-10.8
				c-3.3-1.5-7-2.3-10.5-3.4c-2.6-0.8-5.2-1.4-7.7-2.3c-5.7-2.1-8.7-6.3-8.7-11.5c0.1-5.3,3.4-9.8,9-11.6c2.4-0.8,4.9-1.2,7.5-1.4
				c3.2-0.2,6.4-0.1,9.5,0c3.6,0,6,2.3,6.1,5.7c-0.4,0-0.8,0-1.3,0c-4.6,0-9.1,0-13.7,0c-2.4,0-4.7,0.2-6.9,1.2
				c-3,1.4-4.7,4.6-3.8,7.6c0.5,1.9,1.7,3.2,3.5,3.8c3,1,6.1,1.8,9.1,2.7c3,0.9,6,1.6,8.9,2.6c4.4,1.7,7.5,4.7,8.5,9.5
				c1.1,5.1-1.5,10.8-6.1,13.8c-2.7,1.7-5.7,2.8-9,2.7c-5-0.1-9.9,0-14.9,0C346.6,426.2,344.3,423.7,344.5,421z"/>
			<path d="M470.9,425.8c-2.3,0-4.5,0-6.6,0c-0.3,0-0.8-0.6-0.9-1c-3.3-8.5-6.5-16.9-9.7-25.4c-2-5.4-4-10.8-6-16.2
				c0,0-0.1,0-0.1,0.1c-1.4,6.5-4.1,12.5-6.3,18.7c-2.7,7.5-5.4,15.1-8.1,22.6c-0.3,0.9-0.7,1.3-1.8,1.3c-1.8-0.1-3.6,0-5.5,0
				c0.1-0.5,0.2-0.8,0.3-1.1c5.9-15.4,11.8-30.7,17.7-46.1c0.3-0.8,0.7-1.1,1.5-1.1c1.5,0.1,3.1,0.1,4.6,0c0.9,0,1.2,0.3,1.6,1
				c4.4,10.7,8.8,21.4,13.2,32.2c1.9,4.7,3.8,9.4,5.8,14.1C470.7,425.1,470.8,425.4,470.9,425.8z"/>
			<path d="M286.9,403.9c4.3,2.1,6.9,5.5,9.3,9.1c2.5,3.8,4.9,7.7,7.4,11.5c0.2,0.4,0.4,0.7,0.8,1.3c-2.7,0-5.2,0-7.6,0
				c-0.3,0-0.7-0.5-0.9-0.8c-2.3-3.6-4.6-7.2-6.9-10.8c-1.1-1.6-2.2-3.2-3.3-4.8c-2.4-3.4-5.7-5.2-9.9-5c-2.4,0.1-4.8,0-7.3,0
				c0-1.9,0-3.6,0-5.5c0.4,0,0.9,0,1.4,0c5.4-0.1,10.7,0,16.1-0.3c3.5-0.2,6.4-1.6,7.7-5.2c1.9-5-1.4-9.9-7.2-10.3
				c-4.1-0.3-8.3-0.2-12.4-0.2c-1.8,0-3.6,0-5.6,0c0-1.7,0-3.4,0-5.2c0.3,0,0.6-0.1,1-0.1c5.5,0,11-0.1,16.4,0.1
				c2.3,0.1,4.6,0.4,6.8,1.1c5,1.6,7.4,5.5,7.8,10.5c0.7,7.7-3.5,12.8-11.8,14.3C288,403.7,287.6,403.8,286.9,403.9z"/>
			<path d="M263,398.3c0,2,0,3.8,0,5.7c-7.5,0-15,0-22.6,0c0,7.3,0,14.6,0,21.9c-2.2,0-4.2,0-6.3,0c0-16,0-32.1,0-48.2
				c9.7,0,19.3,0,29,0c0,1.8,0,3.7,0,5.6c-7.6,0-15.1,0-22.7,0c0,5,0,9.9,0,15C247.9,398.3,255.4,398.3,263,398.3z"/>
			<path d="M483.2,425.8c0-14.2,0-28.3,0-42.5c-5.3,0-10.6,0-15.9,0c0-1.9,0-3.7,0-5.6c12.7,0,25.4,0,38.2,0c0,1.8,0,3.6,0,5.6
				c-5.3,0-10.5,0-15.9,0c0,14.3,0,28.4,0,42.6C487.4,425.8,485.4,425.8,483.2,425.8z"/>
		</g>
	</g>
</g>
</svg>
