<?xml version="1.0" encoding="utf-8"?>
<!-- Generator: Adobe Illustrator 26.2.1, SVG Export Plug-In . SVG Version: 6.00 Build 0)  -->
<svg version="1.1" id="Layer_1" xmlns="http://www.w3.org/2000/svg" xmlns:xlink="http://www.w3.org/1999/xlink" x="0px" y="0px"
	 viewBox="0 0 820.2 489.6" style="enable-background:new 0 0 820.2 489.6;" xml:space="preserve">
<g>
	<path d="M724.1,126.8c-6.8-6.7-15-11.4-24-14.5c-34.1-11.8-68.9-13.2-104.2-6.9c-18.1,3.2-35.6,8-50.9,18.9
		c-5.4,3.8-10.8,7.6-16.4,11.5c-0.8-1.1-1.6-2.3-2.5-3.4c-5.4-7.4-12-13.4-20.7-16.7c-12.8-4.9-26-7.9-39.6-8.1
		c-55-0.6-109.9-0.7-164.9-1.1c-3.1,0-4.7,0.9-6.1,3.6c-6.1,11.9-12.3,23.8-18.5,35.6c-3,5.8-6.1,11.5-9.1,17.2
		c-0.3-0.1-0.6-0.2-0.9-0.3c-1.9-18.5-3.9-36.9-5.8-55.6c-45.2,0-89.9,0-135.1,0c-13.8,65.7-27.6,131.3-41.5,197.1
		c1,0.2,1.6,0.3,2.2,0.3c30.4,0,60.7,0,91.1,0.1c2.7,0,3.5-1,4-3.4c1.1-5.7,2.6-11.4,3.9-17.1c1.7,5.5,2.6,10.9,3.1,16.2
		c0.3,3,1.2,4.3,4.5,4.3c28.9-0.1,57.8,0,86.7,0.2c2.8,0,4.3-0.9,5.5-3.3c3.1-5.6,6.4-11.1,9.6-16.7c0.2,0.1,0.5,0.2,0.7,0.3
		c-1.2,6.3-2.4,12.6-3.7,19.1c1.2,0.2,2.1,0.4,2.9,0.4c31.7,0.1,63.4,0.2,95.1,0.5c2.9,0,3.7-1.2,4.2-3.8c3-14.5,6.4-29,9.2-43.6
		c0.7-3.5,2.1-4.1,5.2-4.1c14.7,0,29.5,0.2,44.2-0.5c8.3-0.4,16.6-2.1,24.8-3.7c4.3-0.9,8.4-3,12.8-4.7c0.3,1.2,0.6,2,0.8,2.8
		c8.8,30.2,28.6,48.6,59.4,55.1c23.9,5.1,48.1,6.3,72.5,4.6c22.4-1.6,43.4-8,63.1-18.4c19.1-10.1,33.5-24.6,39.6-45.8
		c7.4-26.1,11.3-52.9,13.1-79.9C739.2,149,734.2,136.8,724.1,126.8z M454.4,232.7c-18.6,0.3-37.1,0.5-55.7,0.7c-1.6,0-3.1,0-5.4,0
		c1.4-6.9,2.6-13,4-19.1c0.9-4,0.7-9.2,3.2-11.6c2.2-2.1,7.4-1.2,11.3-1.6c6.9-0.6,13.8-1.1,20.7-1.5c7.8-0.5,15.3-7.7,17.7-16.9
		c0.4-1.4,0.6-2.9,0.7-4.3c0.9-12.9-4-18.4-16.9-18.6c-9-0.2-18,0.1-27,0.1c-3,0-4.4,1-5.1,4.1c-7.3,34.8-14.7,69.5-22.1,104.3
		c-0.9,4.2-1.9,8.3-2.6,12.5c-0.5,2.8-1.7,4-4.7,3.9c-17.4-0.2-34.8-0.4-52.2-0.4c-3.3,0-3.9-1.3-3.3-4.4
		c6-28.6,11.8-57.3,17.6-85.9c1.5-7.2,3-14.4,4.5-21.6c0.3-1.3,0.3-2.6-0.5-4.3c-0.8,1.2-1.8,2.3-2.5,3.6
		c-20.8,36-41.7,72.1-62.4,108.2c-1.9,3.3-4,4.4-7.7,4.4c-18.4-0.2-36.8-0.2-55.3-0.2c-3.1,0-4.5-0.6-4.9-4.2
		c-2.5-20.6-5.5-41.1-8.3-61.6c-1.9-14.4-3.8-28.8-5.7-43.3c-0.3-2.2-0.7-4.3-2.1-6.6c-0.4,1.5-0.9,3.1-1.2,4.6
		c-7.9,35.7-15.8,71.4-23.9,107.1c-0.3,1.5-2.1,3.7-3.2,3.7c-17.2,0.2-34.4,0.2-52.5,0.2c1.4-7,2.7-13.6,4.1-20.1
		c8-38.5,16.1-77,24.1-115.6c1.3-6,2.9-12,4-18.1c0.5-2.5,1.6-3,3.8-3c31.1,0,62.2,0.1,93.3,0c3.2,0,4,1.4,4.3,4.2
		c3.2,32,6.5,64,9.8,96c0.1,1.2,0.6,2.4,0.8,3.6c0.4,0.1,0.7,0.1,1.1,0.2c1.6-2.9,3.2-5.8,4.7-8.8c15.9-30.4,31.8-60.7,47.6-91.1
		c1.6-3.1,3.5-4.4,7.1-4.4c45.5,0.3,91.1,0.4,136.6,0.6c14.3,0,28.5,1,42.4,5.2c12.4,3.7,20.1,11.6,21.8,24.4
		c2.8,22.2-2,42.3-18.4,58.3C484.8,226.4,470.6,232.4,454.4,232.7z M715.8,182.2c-0.1,0.7-1.6,1.7-2.5,1.7c-21.1,0-42.1,0-63.2-0.1
		c-0.1,0-0.2-0.1-1-0.6c0-1.6,0-3.6,0-5.6c-0.1-14.2-6.6-21-20.9-21.8c-17.8-0.9-30.1,7.6-38.3,22.6c-7.7,14.2-11.6,29.6-11.9,45.6
		c-0.4,22.4,11.4,32.3,33.8,30c16.9-1.7,27.1-9.9,30.4-26.7c0.2-1,1.9-2.4,2.9-2.4c20.8,0,41.5,0.1,62.3,0.2c0.3,0,0.5,0.3,1,0.5
		c-3.2,22.2-15.8,37.1-35.3,46.6c-19.6,9.5-40.3,14.7-62.1,15c-20.4,0.4-40.7-0.6-60.5-5.6c-22.6-5.7-36.7-20.4-40.7-43.2
		c-1.5-8.7-0.1-18.2,1.3-27.1c3.6-22.9,12.2-43.5,30.1-59.3c15-13.2,32.1-22.1,51.9-25.8c16.4-3.1,32.9-5.4,49.6-4.4
		c18.7,1.1,37.2,3.7,54.6,11.2c11.1,4.8,19.4,12.5,20.3,25C718.3,166.1,716.7,174.2,715.8,182.2z"/>
	<path d="M192,346.8c-17.5-0.1-35.1-0.2-52.6-0.3c-1.7,0-3.4-0.2-5.1-0.2c0.7-8.3,0.8-8.3,8.2-8.3c3.5,0,7.1,0.1,10.6,0.1
		c9.1,0,18.2,0,27.6,0c0,1.8,0,2.9,0,4.2c8.4,0,16.5-0.4,24.6,0.1c6.2,0.4,5-4.4,6.3-7.5c1.4-3.5-1.1-5.1-3.8-5.7
		c-4.8-1.1-9.8-2.3-14.7-2.3c-24.6-0.2-49.2-0.2-73.8,0c-4.6,0-9.3,1-13.9,2c-3.8,0.9-6.3,3.4-7.3,7.5c-1.2,5.1-2.9,10.2-4.3,15.3
		c-1.9,6.9,0.3,11,7.3,12.7c3.7,0.9,7.6,1.2,11.4,1.2c12.8,0.1,25.6,0.1,38.9,0.1c-0.7,3-1.2,5.7-2.1,8.3c-0.3,0.9-1.8,1.9-2.7,1.9
		c-10.2,0.1-20.3,0.1-30.8,0.1c0-1.4,0-2.6,0-4.2c-8.8,0-17.3,0.3-25.8-0.1c-4.3-0.2-4.3,2.6-5,5.2c-0.8,2.9-2.4,6.4,2,7.7
		c4.6,1.4,9.4,2.8,14.1,2.8c24.6,0.2,49.2,0.1,73.8-0.4c5.9-0.1,11.8-1.9,17.7-3.2c3.1-0.7,5.2-2.8,6.2-6.2c1.4-4.8,3.3-9.4,5-14.1
		C207,354.4,201.6,346.9,192,346.8z"/>
	<path d="M678,327.3c-32.6-0.2-65.1,0-97.7-0.1c-2.5,0-3.2,1.2-3.8,3.2c-3.4,10.5-7,20.9-10.4,31.4c-2.8,8.3-5.4,16.7-8.2,25.2
		c1.4,0.1,2.2,0.2,3.1,0.2c30.1,0,60.1,0,90.2-0.1c3.7,0,7.3-0.6,10.9-1.3c6.3-1.2,10.5-5.1,12.6-11.1c4.1-11.5,8.1-23,12.1-34.5
		C690.4,330,689,327.4,678,327.3z M644.1,373.4c-0.2,0.9-1.6,2-2.4,2c-12.5,0.1-25,0.1-38.2,0.1c2.6-8.7,5.1-16.6,7.5-24.6
		c0.1-0.4,0.4-0.8,0.5-1.2c1.4-3.8,1.7-9.2,4.4-11.1c2.8-1.9,7.9-0.6,12.1-0.6c8.5,0,17,0,26.1,0
		C650.7,350.4,647.5,361.9,644.1,373.4z"/>
	<path d="M336.2,342.4c5.3-11.9,2.9-15.5-10.1-15.5c-27.7-0.1-55.4,0.5-83.1-0.5c-10.6-0.4-15.8,2.4-19.3,12.6
		c-5.6,16.2-13,31.8-19.7,47.8c13.1,0,25.8,0.1,38.4-0.1c1.2,0,3-1.6,3.6-2.9c2-4.4,3.7-9,5.2-13.6c0.9-3,2.4-4.1,5.6-4
		c8.7,0.2,17.4,0,26.1-0.1c10.3-0.1,20.6-0.1,30.9-0.3c6.2-0.1,11-2.9,14.1-8.3C330.8,352.5,333.9,347.6,336.2,342.4z M296.1,349.2
		c-0.3,0.7-1.7,1.2-2.5,1.2c-10.4,0.1-20.8,0.1-32,0.1c1.5-3.6,2.7-6.8,4.2-9.8c0.4-0.9,1.7-1.9,2.5-1.9c10.7-0.1,21.4-0.1,32.7-0.1
		C299.4,342.2,297.9,345.8,296.1,349.2z"/>
	<path d="M388.3,361.8c14.4,0,28.9-0.3,43.3-0.5c1.5,0,3.5-0.4,4.2-1.4c1.8-2.4,2.9-5.3,5-9.1c-17.6,0-34.3,0-51.7,0
		c1.5-3.3,2.6-5.5,3.4-7.9c1.2-3.6,3.4-4.7,7.2-4.6c14.6,0.2,29.2,0,43.8-0.1c1.5,0,3.7-0.1,4.4-1.1c2.2-2.8,3.9-6.1,6-9.5
		c-1.2-0.2-1.8-0.4-2.3-0.4c-30.5-0.2-61-0.4-91.5-0.4c-1.4,0-3.3,1.6-4,2.9c-6.5,12.5-12.9,25.1-19.2,37.7
		c-3.4,6.8-6.8,13.6-9.9,19.8c33.8,0,67.4,0,101-0.1c1,0,2.4-0.6,2.9-1.4c1.9-2.9,3.4-6,5.7-10.1c-19.9,0-38.8,0-58.8,0
		c2-4.1,3.7-7,4.7-10.1C383.4,362.3,385.3,361.8,388.3,361.8z"/>
	<path d="M502.3,361.4c14.4,0,28.9-0.3,43.3-0.6c1.3,0,3.3-0.4,3.8-1.3c1.4-2.6,2.3-5.5,3.8-9.5c-17.3,0-33.5,0-50.3,0
		c1.5-3.3,2.7-5.5,3.5-7.8c1.1-3.4,3.1-4.6,6.8-4.5c13,0.2,25.9,0.1,38.9,0.1c10.3,0,10.3,0,11.7-10.4c0-0.1-0.1-0.3-0.2-0.9
		c-1.5,0-3,0-4.6,0c-25.6,0-51.3,0.3-76.9-0.3c-8-0.2-12.4,1.7-15.8,9.6c-7.4,17.4-16.1,34.3-24.4,51.7c12.7,0,24.7,0.1,36.8,0
		c21.7-0.2,43.3-0.5,65-0.8c1.5,0,3.8-0.7,4.3-1.7c1.3-2.8,1.8-6,2.9-10c-20,0-39.2,0-59.3,0c1.7-3.7,3.3-6.3,4.2-9.2
		C496.9,362.4,498.8,361.4,502.3,361.4z"/>
</g>
</svg>
