<?xml version="1.0" encoding="utf-8"?>
<!-- Generator: Adobe Illustrator 27.5.0, SVG Export Plug-In . SVG Version: 6.00 Build 0)  -->
<svg version="1.1" id="Layer_1" xmlns="http://www.w3.org/2000/svg" xmlns:xlink="http://www.w3.org/1999/xlink" x="0px" y="0px"
	 viewBox="0 0 652.2 698.4" style="enable-background:new 0 0 652.2 698.4;" xml:space="preserve">
<style type="text/css">
	.st0{fill-rule:evenodd;clip-rule:evenodd;fill:#7670B2;}
	.st1{fill:#00ADEE;}
	.st2{fill:#7670B2;}
	.st3{fill:#2E3191;}
</style>
<g>
	<path class="st0" d="M421.1,115.3c6.4-23.2,23.8-24.8,44.1-20.4c26.9,5.6,49.3,16.9,67.3,33.6c11.6,13.3,7.5,24.2-1,34.5
		c-10.8,10.2-22.5,19.3-34.8,27.5c-11.6,7.7-23.8,14.4-36.6,20.5c-16.6,5.3-26.6-0.4-31-15.1c-4.3-13.6-6.7-26.7-7.9-39.5
		C419.9,142.3,420.1,128.7,421.1,115.3"/>
	<path class="st1" d="M403.4,198.8c23.3,12,42.5,27.8,50.3,50.4c17,48.9-18.5,90.3-67,112.3c18,0,56.5-15.7,82.5-31.3
		c-11,13.5-20.3,27.7-32.7,39.6c-24,23.1-70.8,49.1-124.3,63.7c142.3-13.9,198-65.6,236.7-121.5c-0.4-0.8-49.5,1-57.4-0.1
		c56-36.3,78.7-87.5,52-149.4c5.7,6.8,33.8,36.4,42.8,93.5C598.4,322.9,546,403.4,471,435.3c-51.6,23.4-102.2,32.8-152.9,28.5
		c-35-3-69.8-12.3-107.4-26.9c6.8-1.2,11.5-2,16.1-2.8c47.3-9.1,107.3-36.2,134.5-65c44.8-40.6,48.9-63.1,48.7-85
		c-0.1-15-11.9-29-32.3-42.1c-13.3-8.6-40.8-13.8-63.2-12.5c-44.1,2-64.5,11.2-94.2,25.7c-57.3,24.1-105,90.7-130.7,136.8
		c-10,18-16.8,37.5-25.3,56.8c-1.5-32.1,16-101.4,55.2-154.2c33.6-45.2,79.5-81.1,144.4-103.8c9.5-4.7,36.6-9.3,61.5-10.2
		C359.3,179.4,393.7,193.8,403.4,198.8z"/>
	<path class="st2" d="M411.7,98.7c4.9-8.4,10.6-13.3,16.8-15.6c-2.7-0.6-5.5-1.2-8.3-1.6c-24.6-3.8-59.7-3.9-70-1
		c-68,10.2-112,36.4-153.5,74.6c-48.4,44.5-78.6,109.3-83,141.1c11.9-17.4,22.2-35.3,35.4-51.1c33.9-40.5,79.2-69.7,140-82.6
		c26.9-5.7,55.6-7.7,88.7,1.1c6.7,1.8,28.3,11.4,34.7,14.5C404.4,142.5,404,120.9,411.7,98.7z"/>
	<g>
		<polygon class="st3" points="147.7,592.8 137.8,619.9 164.1,619.9 166.6,613.1 150.4,613.1 157.9,592.8 		"/>
		<polygon class="st3" points="167.9,619.9 175.6,599.5 184.5,599.5 176.8,619.9 		"/>
		<path class="st3" d="M186.7,599.5l2.5,20.4h9.6l17-20.4h-9.6c-1.2,1.3-2.8,3.4-5,6.2c-0.9,0.6-2.1,2.2-3.7,5v-1.9l-1.3-9.3H186.7z
			"/>
		<polygon class="st3" points="248.5,599.5 219.2,599.5 211.9,619.9 241,619.9 242.8,614.9 223.4,614.9 224.6,611.5 240.8,611.5 
			242.5,607.2 226.3,607.2 227.1,604.7 246.7,604.7 		"/>
		<path class="st3" d="M257.2,613.1h9.2l5-13.6h-9.2L257.2,613.1z M284,592.7l-8.3,22.7c-0.5,1.4-1.3,2.5-2.5,3.3
			c-1.2,0.8-2.5,1.2-3.9,1.2h-24.8l8.3-22.7c0.5-1.4,1.3-2.5,2.5-3.3c1.2-0.8,2.5-1.2,3.9-1.2H284z"/>
		<polygon class="st3" points="280.1,619.9 287.5,599.5 297.2,599.5 303.2,609.7 306.9,599.5 316.6,599.5 309.2,619.9 299.5,619.9 
			293.4,609.7 289.8,619.9 		"/>
		<path class="st3" d="M353.1,592.7h-25.8c-1.5,0-2.8,0.4-3.9,1.2c-1.2,0.8-2,1.9-2.5,3.3l-2.9,8c-0.4,1.1-0.3,2.2,0.4,3.1
			c0.7,1,1.6,1.4,2.8,1.4h15.6l-1.2,3.4h-20.4l-2.5,6.8h25.8c1.5,0,2.8-0.4,3.9-1.2c1.2-0.8,2-1.9,2.5-3.3l2.9-8
			c0.4-1.1,0.3-2.2-0.4-3.1c-0.7-1-1.6-1.4-2.8-1.4H329l1.2-3.4h20.4L353.1,592.7z"/>
		<polygon class="st3" points="358.6,619.9 362.5,610.5 368,619.9 377.4,619.9 371.2,609.7 385.3,599.5 375.1,599.5 362.5,608.9 
			366.4,599.5 356.2,599.5 349.2,619.9 		"/>
		<path class="st3" d="M397,604.7l-1.8,4.9h9.6l1.8-4.9H397z M381.8,619.9l6.2-17c0.4-1.1,1.1-1.9,2.1-2.5s2.2-0.9,3.6-0.9h24.6
			l-7.2,20.4h-9.8l1.8-5.2h-9.6l-1.8,5.2H381.8z"/>
		<polygon class="st3" points="438.1,604.6 433,619.9 423.5,619.9 428.6,604.6 419.1,604.6 420.6,599.5 448.3,599.5 446.1,604.6 		
			"/>
		<polygon class="st3" points="481,599.5 451.7,599.5 444.4,619.9 473.5,619.9 475.3,614.9 455.9,614.9 457.1,611.5 473.3,611.5 
			475,607.2 458.8,607.2 459.6,604.7 479.2,604.7 		"/>
		<path class="st3" d="M514.4,599.5h-24.8c-1.2,0-2.4,0.3-3.4,1c-1.1,0.6-1.7,1.4-1.9,2.4l-2.4,5.8c-0.2,0.9,0,1.7,0.7,2.4
			c0.7,0.7,1.6,1,2.6,1h14.6l-0.5,2.4h-19.5l-1.9,5.4h24.3c1.4,0,2.7-0.3,3.8-1c1.1-0.6,1.8-1.5,2-2.5l2.5-5.8
			c0.2-0.9,0-1.7-0.7-2.4c-0.7-0.7-1.6-1-2.7-1h-15.1l1-2.9h19.5L514.4,599.5z"/>
	</g>
	<path class="st1" d="M40.3,537.2l0,5.7h14.5l0-5.7H40.3z M27,564.3l0.1-36.1h34.2c1.6,0,3,0.6,4.4,1.9c1.4,1.3,2,2.7,2,4.1l0,10.6
		c0,1.8-0.6,3.3-1.7,4.3c-1.2,1.1-2.7,1.6-4.6,1.6h-1l11.7,13.5H58.5l-11.7-13.5h-6.2l0,13.5H27z"/>
	<polygon class="st1" points="118.8,528.3 118.6,564.3 153.6,564.3 153.6,555.3 132.2,555.3 132.3,528.3 	"/>
	<polygon class="st1" points="157.6,528.3 157.4,564.3 192.4,564.3 192.4,555.3 171,555.3 171.1,528.3 	"/>
	<polygon class="st1" points="237,528.2 196.4,528.2 196.3,564.3 236.9,564.3 236.9,555.3 209.8,555.3 209.7,549.4 232.2,549.4 
		232.5,541.9 209.9,541.9 209.9,537.2 237,537.2 	"/>
	<path class="st1" d="M256.9,537.2l0,5.7h14.5l0-5.7H256.9z M243.6,564.3l0.1-36.1h34.2c1.6,0,3,0.6,4.4,1.9c1.4,1.3,2,2.7,2,4.1
		l0,10.6c0,1.8-0.6,3.3-1.7,4.3c-1.2,1.1-2.7,1.6-4.6,1.6h-1l11.7,13.5h-13.5l-11.7-13.5h-6.2l0,13.5H243.6z"/>
	<path class="st1" d="M303.8,537.2h12.5l-0.1,18h-12.5L303.8,537.2z M290.2,528.2l-0.1,36.1h33.3c1.9,0,3.4-0.5,4.6-1.6
		c1.2-1.1,1.7-2.5,1.7-4.3l0.1-24.1c0-1.5-0.7-2.9-2-4.1c-1.4-1.3-2.8-1.9-4.4-1.9H290.2z"/>
	<path class="st1" d="M111.4,530.8c-1.1-1.1-2.4-1.7-3.7-1.8c-0.2,0-0.5-0.1-0.7-0.1h-28c-1.3,0-2.6,0.6-3.8,1.9
		c-0.7,0.8-1.2,1.6-1.4,2.4l-0.1,27.3c0.2,1.2,0.7,2.1,1.4,2.9c1,1.1,2.3,1.6,4,1.6h27.9c0.3,0,0.6,0,0.8-0.1
		c1.5-0.1,2.8-0.6,3.8-1.5c1.2-1.1,1.7-2.5,1.7-4.3l0.1-24.1C113.5,533.5,112.8,532.1,111.4,530.8z M99.8,555.9H87.3l0.1-18h12.5
		L99.8,555.9z"/>
	<path class="st1" d="M344.8,564.3h13.5l0.1-15.4l13.6-20.7h-13.3l-4.9,7.9c-0.9,2.1-1.3,3.4-1.4,3.8c-0.2-0.6-0.9-1.8-2-3.6l-5.3-8
		l-13.6-0.1l13.4,20.3L344.8,564.3z"/>
	<polygon class="st1" points="376.2,564.3 376.3,528.2 389.9,528.2 403.4,546.3 403.4,528.2 417,528.2 416.8,564.3 403.3,564.3 
		389.8,546.3 389.7,564.3 	"/>
	<path class="st1" d="M437.2,537.2l0,9h13.5l0-9H437.2z M423.5,564.3l0.1-30.1c0-1.8,0.6-3.3,1.7-4.3c1.2-1.1,2.7-1.6,4.6-1.6h34.3
		l-0.1,36.1h-13.6l0.1-9h-13.5l-0.1,9H423.5z"/>
	<path class="st1" d="M470.9,564.3l0.1-36.1h13.5l9,10.3l9.1-10.3h13.5l-0.1,36.1h-13.5c0-5.2,0-12.2,0-20.9
		c-0.1,0.2-0.2,0.5-0.4,0.7c-0.2,0.2-0.3,0.4-0.5,0.7c-0.2,0.2-0.3,0.4-0.5,0.5l-7.7,8.9l-7-8.4c-0.1-0.1-0.3-0.4-0.6-0.8
		c-0.3-0.4-0.6-0.8-0.9-1.2c-0.2-0.4-0.4-0.7-0.6-1.1l0.1,21.7H470.9z"/>
	<polygon class="st1" points="522.7,564.3 522.9,528.3 536.4,528.3 536.2,564.3 	"/>
	<path class="st1" d="M578.5,528.2H548c-1.9,0-3.4,0.5-4.6,1.6c-1.2,1.1-1.7,2.5-1.7,4.3l-0.1,24.1c0,1.4,0.6,2.8,2,4.1
		c1.4,1.3,2.8,2,4.4,2h30.3l0-9h-23.2l0.1-18h23.2L578.5,528.2z"/>
	<path class="st1" d="M625.2,528.2h-34.3c-1.9,0-3.5,0.5-4.6,1.6c-1.2,1.1-1.7,2.5-1.7,4.3l0,10.6c0,1.5,0.7,2.9,2,4.1
		c1.4,1.3,2.8,1.9,4.4,1.9h20.6l0,4.5h-27.1l0,9h34.3c1.9,0,3.5-0.5,4.7-1.6c1.2-1,1.7-2.5,1.7-4.3l0-10.6c0-1.5-0.7-2.9-2-4.1
		c-1.4-1.3-2.8-1.9-4.4-1.9h-20.6l0-4.5h27.1L625.2,528.2z"/>
</g>
</svg>
