<?xml version="1.0" encoding="utf-8"?>
<!-- Generator: Adobe Illustrator 26.2.1, SVG Export Plug-In . SVG Version: 6.00 Build 0)  -->
<svg version="1.1" id="Layer_1" xmlns="http://www.w3.org/2000/svg" xmlns:xlink="http://www.w3.org/1999/xlink" x="0px" y="0px"
	 viewBox="0 0 820.2 489.6" style="enable-background:new 0 0 820.2 489.6;" xml:space="preserve">
<g id="p14Umu_00000067958519096194923560000005034736063898426797_">
	<g>
		<g>
			<path d="M611.1,232.7c2.9,0.6,5.7,2,7.8,1.4c11-3.2,20.8-1.9,29.2,7.1c10.7-5.6,21.7-5.3,33-3.8c2.3,0.3,5-1,7.4-2
				c5.5-2.3,10.9-2.5,16.2,0.2c5.3,2.6,10.6,5.3,15.8,8c8.2,4.1,12.6,10.5,11.4,18.7c3.7,5.6,7,10,9.8,14.8
				c2.1,3.7,1.7,7.7-0.4,11.4c-7.5,13-17.3,23.4-32.5,27c-11.3,2.6-20.4-2.4-28.9-10c-15.6,8.8-31.7,9.9-48.4,1.7
				c-8.4,2.5-17,4.4-25.8,0.2c-1.5-0.7-3.8,0.1-5.7,0.2c-11.7,0.2-23.4,0.7-35.1,0.6c-3.1,0-6.2-2-10.2-3.3
				c-8.4,3.5-17.5,8.2-27.6,3.2c-6.5-3.3-10.5-8.9-12.8-16.6c-1.9,1.7-3.5,3.1-5.1,4.4c-21,17.9-44.2,30.4-72.8,30.6
				c-23.4,0.2-44.1-6.3-62.2-21.1c-1.9-1.5-4.6-2.3-7-2.9c-6.3-1.5-12.7-2.6-20.8-4.2c-3.9,3.4-10.5,4.5-17.6,4.2
				c-8.4-0.3-16.7,2.9-25.4,0.2c-3.2-1-7.5,2-11.4,2.3c-5.1,0.4-10.6,0.9-15.5-0.3c-4.8-1.2-9-0.9-13.3,0.9
				c-9.1,3.7-17.7,3.5-26.7-1.2c-6.7-3.5-14-3.3-20.5,1.4c-6.4,4.6-13.5,7.2-21.3,6.4c-4.2-0.4-8.2-1.9-12.6-3
				c-21.4,11.8-34,9.2-42.2-9.5c-2,2.3-4.1,4.2-5.5,6.6c-5.7,9.5-14.8,14.1-24.8,16.6c-16,4.1-32.6-6.7-32.3-24.9
				c0.2-11.8,7.2-18.4,18.9-17.3c1.6,0.1,3.2,0.5,5.7,0.9c1.3-5.2,2.5-10.2,3.7-15.4c-2.7-1.8-4.7-3.5-7-4.6
				c-5.8-2.9-9.2-8-10.5-13.8c-2.5-11-1.7-21.6,6.3-30.7c11.7-13.2,26.7-20,43.5-23.9c12.6-3,24.9-2,36.9,2.5
				c11.3,4.3,20,11.8,24.1,23.3c1.8,5.1,1.7,10.9,2.5,17.1c11.2-5.9,22.6-7.7,34.3-1.1c4.8-8.1,8.7-16,13.8-23.1
				c5.6-7.7,11.6-15.2,18.5-21.8c12.3-11.8,22.2-13.4,36.1-3.8c19.3-12.8,36.2-9,38.1,14.2c16.4-39.4,44.2-63.6,86.5-66.5
				c41.9-2.8,72.6,17.1,92.9,52.6c23.2-0.7,43.1,2.1,58.7,25.9C603.6,206.2,613.4,212.1,611.1,232.7z M334.8,205.6
				c0-1.7,0.1-4,0-6.2c-0.6-12.4-8.6-17.1-19.6-11.1c-5.1,2.8-9.8,6.5-14.7,9.8c-5.9-12.3-14.6-14.3-25-5.7
				c-1.3,1.1-2.4,2.3-3.6,3.4c-11.4,10.4-19.5,23.2-26.3,36.8c-2.6,5.2-5.1,10.4-7.9,15.9c-10.8-12.7-18.1-14-31.7-6.6
				c-2,1.1-3.9,2.4-5.7,3.8c-9,7.2-15.8,15.9-19,27.1c-1.1,4-2.6,7.4-8,6.5c0-6,0-11.8,0-18.8c2-1.5,4.9-3.5,7.7-5.8
				c11.8-9.6,16-23.9,10.1-36c-4.5-9.1-12-15.2-21.8-17.2c-8-1.7-16.4-2.6-24.5-1.9c-17.3,1.5-32.7,8.2-44.4,21.4
				c-13.3,15.2-7.1,34.4,10.2,38c1.4,0.3,2.7,1.6,4.2,2.6c-4.2,10.4-4,22.3-13.1,30.7c-2.4-1.8-4-3.5-6-4.5c-3.9-2-7.9-0.4-9.8,3.6
				c-4.9,10.4,2.4,23.4,14,24.5c11.9,1.1,21.7-3.4,28.2-13c4.2-6.2,6.5-13.6,9.6-20.5c1.4-3.1,1.3-7.1,5.3-9.6
				c0.7,1.4,1.6,2.4,1.7,3.5c0.8,6.2,1.4,12.4,2.1,18.6c1.2,11.3,9.6,17.2,20.2,13.3c5.3-2,10.1-5.7,15.2-8.7
				c13.7,9.6,25.9,4.8,36.6-4.1c6.5,0,12,0,18.2,0c10.7,9.2,22,5.2,33.4-0.8c8.6,5,17.6,4.9,26.6,1.4c3.6-1.4,6.7-1,10.4-0.4
				c11.4,1.6,22.9,0.9,33-2.5c3.6-3.3,2.3-8.7,7.1-9.9c7.3,13.3,17.9,14,28.5,9.9c10.8-4.2,17-12.4,21.6-22c4.6-9.8-0.9-16.6-12-16
				c-0.9,0-1.7-0.2-3.1-0.4c0.3-3.2,0.5-6.1,0.8-8.8c3.5-1.5,6.6-2.7,9.4-4.2c8.1-4.3,12.5-11.5,15-20c1.1-3.8,0-7.3-3-9.9
				c-3.1-2.7-6.5-2.5-10.1-0.8c-6.4,3-10.9,7.1-12,14.5c-0.5,3-1.8,6-2.7,8.6c-15.1-2.7-29-3.6-43.5,3.7c2.7-4.1,4.9-7.3,6.9-10.6
				c2.6-4.4,4.2-9.4,1.1-14C342.4,210.4,338.9,208.8,334.8,205.6z M494,250.5c-4,10.8-6.9,21.5-15.9,30.2c-4.4-5.2-9-8.9-15.2-3.9
				c-0.4,1-0.8,1.9-1,2.9c-3.3,13.7,3.7,22.5,17.7,22.8c13.1,0.2,21.8-6.7,28.1-17.1c4.1-6.8,7.3-14.3,11.1-21.9
				c4,4.3,4.6,8.6,3.9,13.4c-0.5,3.2-1.3,6.5-1.1,9.8c0.9,13,11.3,19.2,23.1,13.8c3.5-1.6,6.8-3.8,9.5-5.3c4.5,2,8.3,5.1,12.1,5
				c10.7-0.2,21.4-0.3,32.2-0.1c4.2,0.1,8-0.2,12.3,1.1c4.1,1.3,9,0.5,13.6,0c2.9-0.3,5.6-1.7,8.9-2.7c7.3,6.1,16.1,6.3,25.2,6.1
				c9.8-0.2,16.8-6.2,24.5-11.2c0.8,1.4,1.5,2.2,1.8,3.1c4.3,10.7,15.9,14.5,27.5,10c10.1-3.9,16.8-11.6,21.9-20.6
				c3.5-6.1-1.1-13.8-8.1-14.9c-1.8-0.3-3.8,0.1-6.6,0.3c1.5-2.3,2.6-3.9,3.5-5.6c3.3-6.3,2.7-9.2-3.2-13.4
				c-1.6-1.1-3.4-2.5-5.2-2.7c-4.5-0.7-7.8-3-11.2-5.7c-4.6-3.6-9.8-3.5-14.7-0.1c-1.9,1.3-3.6,2.8-5.4,4.2
				c-15.1-10.5-27.5-1.8-40,5.8c-3.7-14.7-13.7-17.7-24.5-10.6c-7.1-1.3-13.2-2.4-19.6-3.5c8-15.8,7.3-19.1-4.6-23.7
				c-12.9,5.2-14.4,6.9-17.9,19.8c-0.4,1.5-1.2,3-2,4.4c-3.4,5.6-7.1,11-10.4,16.6c-2.8,4.9-5,10.1-7.7,15c-1.7,3-4.2,3.9-6.9,1.6
				c0.4-6,0.8-11.4,1.2-17.2c2.8-1.7,6-3.5,8.8-5.7c2.9-2.2,5.8-4.5,8.1-7.3c8.7-10.5,10.1-23.2,0.1-34c-3.7-4-8.4-7.5-13.3-10
				c-24.2-12.1-55.9-3-71.5,12.9c-9.4,9.5-9.6,23.5-0.1,31.7C485.6,246.2,489.4,247.7,494,250.5z M509.1,188.8
				c4.4-1.4,3.4-3.8,2-5.7c-4.7-5.9-9.1-12.2-14.5-17.4c-23.2-22.6-50.9-30-82.5-23c-15.1,3.3-28.1,10.6-39.8,20.8
				c-11.8,10.3-19.3,23.1-24.6,37.5c-1.2,3.4-0.7,6.1,2.4,8.7c11.7-35.1,34.2-57.8,71.5-62.9C461.3,141.6,488.7,159,509.1,188.8z
				 M381.3,299.5c10.1,20.9,71.6,28.1,90.9,10.6c-3.4-2.9-6.6-0.9-10.1-0.1c-7.3,1.8-14.7,3.5-22.1,4.2
				c-18.7,1.8-35.9-3.3-51.6-13.3C386.1,299.5,384.2,297.3,381.3,299.5z M446,230.5c-0.2-6.7-5.3-11.6-12.1-11.5
				c-6.4,0.1-11.8,5.7-11.6,12.1c0.2,6.3,5.7,11.5,12.4,11.6C441.2,242.7,446.3,237.3,446,230.5z M390.6,165.7
				c3.8,7.4,7.1,14,10.6,20.9c2-1.2,3.1-1.9,4.3-2.6c-0.9-3.4-1.8-6.6-2.9-10.7c6.2,1.7,10.1,10.1,16.7,3c-2.7-5.5-5.3-10.8-8.1-16
				c-1.4-2.5-3.4-4.1-6.4-1.1c1,2.9,2,5.8,3.3,9.4C396.5,164,396.5,164,390.6,165.7z M469.5,186.3c8.3,13.8,9.5,14.7,14.8,12.1
				c-6.3-8.8-6.3-8.8-2.3-13.4c1.7,3,3.3,5.9,4.9,8.7c2-1.6,2.7-2.2,3.3-2.7c0.2-4.4-7.1-5.3-4.8-10.7c5,0,6,7.4,11.6,6
				c-3-7.7-3-7.7-11.5-14.5C480.4,176.4,475.1,181.2,469.5,186.3z M372.4,187.3c0,7,5.6,13,12.2,13.1c6.5,0.1,11.7-5.4,11.6-12.2
				c-0.1-6.4-6.1-12.2-13-12.5C377.6,175.4,372.5,180.9,372.4,187.3z M455.9,266.8c6.8-3.1,12.9-6,14.9-13.7
				c-5.2-6.6-11.4-9.7-20.1-7.4C448.7,253.4,450.2,260,455.9,266.8z M411.1,195.8c3.4,6.7,7.1,12.6,14.8,15.2c6.5-6.1,7.2-13,5.1-21
				C423.1,188.3,416.4,189.3,411.1,195.8z M462.5,182.8c2.9,2.8,5,2.3,6.2-0.2c2.8-5.9,5.3-11.9,8.1-18.3c-1.8-0.8-3.2-1.4-4.5-1.9
				c-1.9,2.4-3.5,4.4-4.9,6.2c-4.5-0.8-6.4-3-5.2-7c0.7-2.4,1.2-4.6-2.9-5.2c-4.3,6.4-8,13.3-10.2,21.3c6.9,3.2,6.1-5.2,11.2-5.6
				c1.1,0.5,3,1.5,5.2,2.7C464.3,177.5,463.5,180,462.5,182.8z M448.6,190.4c-5.8,8.2-6.4,15.2-1.7,22.2c7.1-1.4,14-3.4,18.1-10.7
				C460.7,196.1,455.7,191.8,448.6,190.4z M420.3,269c5.4,6.3,11.9,6.1,19.3,4.2c1.1-8.1,0.4-15.2-6.5-20.7
				C426.2,256.3,421.2,260.9,420.3,269z M415.2,242c-8.4-3-13.1,0.7-16.9,7c3,3.9,5.8,7.5,8.5,11.1
				C415.7,252.4,416.3,251.2,415.2,242z M444.4,159.3c2.5-1.3,4.6-2.3,7.5-3.7c-10.1-3.8-13.8-4.5-18.9-3.1c-1,0.3-1.6,1.7-3,3.2
				c3,1.3,5.2,2.3,7.3,3.2c-1.5,15.3-1.5,15.3,4,17.2C442.3,170.6,443.3,165.2,444.4,159.3z M468.6,236.6c0-7.1,0-13,0-19.6
				c-5.9,2.2-10.4,4.9-12.7,11.7C459.9,231.3,463.9,233.7,468.6,236.6z"/>
			<path d="M673.9,323.2c-7.7,0.9-15.4,2.4-23.2,2.7c-20,0.7-39,5.9-57.8,11.8c-22.6,7.2-45.7,12.7-69.2,15.5
				c-16.6,2-33.5,2.1-50.3,2.5c-25.4,0.6-50.5-1.8-75.4-7.9c4.2,0,8.3-0.2,12.5,0c22.1,1.1,43.1-3.6,63.4-12.1
				c13.1-5.4,26.4-10.2,40-14.2c17.1-5.1,34.8-6.8,52.5-7.7c6.6-0.3,13.1-1.9,19.6-1.6c14.8,0.6,29.5,1.7,44.2,3.3
				c14.6,1.6,29.1,4.1,43.7,6.2C674,322.3,674,322.8,673.9,323.2z"/>
			<path d="M448,338.3c-8.4,1.2-16.8,3.2-25.2,3.5c-15.2,0.6-30.5,1.3-45.5-0.2c-16-1.5-31.8-5.1-47.5-8.5
				c-11.5-2.6-22.8-6.4-34.1-9.8c-8.3-2.5-16.8-3.3-25.4-3.2c-3.1,0-6.3-0.3-9.5-1.2c6.7-3.6,13.6-5.8,21-6.7
				c9.8-1.2,19.5-2.3,29.3-3.4c2-0.2,4-0.4,5.9-0.2c9.1,1,18.2,2.9,27.4,3c14.4,0.2,27,6,39.5,11.7c18.9,8.6,38.6,13,59.3,12.7
				c1.6,0,3.2,0.2,4.8,0.3C448.2,336.9,448.1,337.6,448,338.3z"/>
			<path d="M297.5,331.9c-22.9-0.6-44.7,6.8-67.1,9.2c-19.8,2.1-39.8,5.4-59.9,1.3c-6.7-1.4-13.7-1.5-20.4-2.7
				c-4-0.7-7.9-2.5-11.5-5.3c1.5-0.1,3-0.5,4.5-0.4c15.6,0.8,30.6-2.9,45.7-5.9c23.6-4.7,47.5-7.3,71.5-5.7
				c9.4,0.6,18.8,2.7,28.1,4.4c3.1,0.6,6.1,2,9.1,3.1C297.6,330.6,297.5,331.2,297.5,331.9z"/>
			<path d="M287.3,226.9c7.7-9.8,14-20.8,23.8-28.8c2.8-2.3,5.7-4.6,8.9-6c5-2.1,8.5,0.3,8.8,5.7c0.1,2.3-0.1,4.6-0.8,6.8
				c-5.9,20.4-15.9,38.3-32.1,52.3c-0.7,0.6-1.7,0.9-3.1,1.6c-0.9-1.4-1.6-2.7-2.8-4.6c-3.2,9-6,17.5-4,27.2
				c5.6,2.7,9.8-0.1,12.9-3.9c3.3-4,5.8-8.8,8.1-13.5c3.9-8,7.3-16.2,11-24.5c4.2,0,8,0,12.5,0c-3.1,13.4-11.1,24.6-13.8,37.5
				c6,2.8,9.2,0.5,11.3-3.1c3.8-6.5,7.3-13.3,10.7-20c2.4-4.7,4.4-9.5,6.4-14c7.7-3,15.7,3.1,21.9-2.8c9.6,3.6,12.1,8.9,8.8,18.6
				c-1.4,4-3.6,7.8-5.4,11.7c-1.6,3.3-2.9,6.7,0.3,10.2c10.3-0.9,11.2-11.9,17.7-17c4.3,1.2,5.8,3.6,4.2,7.4
				c-5,11.6-13.3,19.6-26,22.1c-8.4,1.6-15.6-6.8-12.9-15.1c1.8-5.3,4.5-10.3,6.6-15.4c1.3-3.2,3.7-6.5,0.8-10c-3.3-1-5.1,1-6.4,3.4
				c-4.7,9-9.7,18-13.9,27.2c-4.4,9.5-4.7,10.1-15.4,9.7c-1.6-0.1-3.2,0.2-4.9,0.4c-9.1,0.8-9.9,0.7-18.2-3.3
				c-10,5.4-20.2,10.3-29.8,0.4c-6.5,2.5-12.3,5.6-18.6,7c-6.4,1.4-12.7,0.1-14.7-6c-7.8,0.6-14.4,1.2-21.1,1.8
				c-0.1-0.5-0.1-0.9-0.2-1.4c-3.5,2.5-6.8,5.2-10.5,7.3c-5.5,3.2-11.6,5.6-17.4,1.2c-6-4.5-6.8-11.1-4.9-17.9
				c2.8-10,7.4-19,15.3-26c4.7-4.2,9.5-7.9,16.1-9c9.2-1.4,15,2.5,15.1,11.8c0,4.8-1.5,9.7-2.8,14.4c-0.9,3.1-2.6,5.9-4,9.1
				c7.8,0.4,10.6-1.4,13.1-8.9c2.8-8.4,4.7-17.1,8.1-25.3c7.1-17.5,16.5-33.8,30.9-46.5c4.2-3.7,8.6-7.3,15-4.3
				c3.7,8.3,0.1,15.7-1.9,23.2c-0.9,3.1-1.7,6.3-2.6,9.4c-2.1,2.9-4.3,5.6-6.2,8.6c-6,9.4-12,18.6-21.8,24.9
				c-1.3-1.7-2.2-2.9-3.6-4.8c-2.2,9.9-6.9,18.9-1.4,29.6c3.1-1.4,6-1.8,7.6-3.5c4.7-5,9.1-10.1,11.2-17.1c3-10,7.1-19.7,10.8-29.5
				C285.1,232.3,286.2,229.6,287.3,226.9z M291.4,249.8c13.5-6.3,28.5-32.4,26.5-46.4C305,216.9,298.2,232.9,291.4,249.8z
				 M258.5,251.2c14.5-10.1,21.4-25.2,26.5-41.4c0.4-1.1-0.6-2.7-1.3-5.4C270.5,218.4,264.3,234.6,258.5,251.2z M210.5,283
				c-1.3-7.9-2.4-14.2-3.5-20.9c-8.9,11.8-9.8,17.6-3.8,24.4C205.6,285.3,208.2,284.1,210.5,283z"/>
			<path d="M178.8,286.8c-2,7.9-5.5,12.7-11.7,15.1c-7.8,3.1-13.8-0.7-14.6-9c-0.5-5.5-0.9-11.1-1.5-16.6
				c-0.9-7.6-5.9-11.3-13.8-13.6c-1.5,5-2.9,9.6-4.4,14.2c-3,9.4-5.1,19.3-13.4,25.8c-3.5,2.8-7.7,5.1-11.9,6.8
				c-4.1,1.6-8.4,1.3-12.1-1.8c-3.8-3.2-4.3-4.6-3.5-12.5c2.6,1.5,5.1,2.9,7.5,4.2c8.9-1.8,12.9-8.2,15.3-15.6
				c3.4-10.6,6.7-21.3,9.4-32.1c3.2-12.9,9.3-23.8,19.3-32.5c0.9-0.8,1.5-2,2.4-3.2c-12.1-1.3-26.2,5.9-31,15.7
				c-3.2,6.6-2.7,13.4,1,20.1c-5.6,2.6-9.5-0.1-12.7-4c-3.9-4.6-6-10.3-2.3-15.5c4.1-5.9,8.6-12.1,14.5-15.9
				c16-10.4,33.7-14.5,52.7-9.1c3.1,0.9,6.3,2.3,8.9,4.1c10.8,7.3,15.5,21.3,4.6,33.1c-5.4,5.9-12.5,10.2-19.3,15.5
				c4.5,2.3,4.7,7.1,4.5,12.1c-0.2,3.3-0.5,6.6-0.4,9.9c0.1,2.4-0.1,5.6,1.3,7.1c2.4,2.5,5.5,1,8-1
				C176,287.8,176.7,287.6,178.8,286.8z M159.1,216.6c-11.8,8-15.1,20.3-18,33.5c8.3,1.7,15.2,0.2,21.4-4.1
				C174.4,237.8,173.5,223.9,159.1,216.6z"/>
			<path d="M398.8,215.6c3.6,1.3,3.8,3.8,2.7,7c-2.9,8.4-7.4,12.5-16.6,13.8c3.2-2.9,4.1-5.6,3.8-9.4
				C388.1,221.8,390.4,220,398.8,215.6z"/>
			<path d="M338,215.5c3,8.3-2.4,12.2-7.1,16.1c-2.8,2.3-5.5,1.5-7.2-1.9C326.8,218.4,329.2,216,338,215.5z"/>
			<path d="M576.4,244.8c3.3,0,5.9-0.1,8.5,0c0.9,0,1.8,0.6,3.1,1.1c-0.8,7.1-5.6,12.5-7.9,18.8c-2.2,6-7.9,11.2-5.8,18.8
				c7.5,0.3,10.2-4,12.3-9.1c3.9-9.4,7.6-18.9,11.8-29.3c4.2,0.5,8.2,0.9,13,1.5c-3.1,13.4-11.4,24.6-12.8,38.5
				c11.7-2.7,19.4-11.4,23.6-26.1c-1.5-0.9-3.7-2.2-6.9-4c3.5-3.5,5.9-6.6,9-8.9c3.7-2.7,7.5-1.3,11.4,2.2
				c2.2,14.6-9.3,23.1-16.8,33.6c0.5,3.3,2.3,4.5,5.5,3.2c5.9-2.5,8.9-7.4,11.7-12.8c5.5-10.5,13.3-19,25.1-22.4
				c3.7-1.1,7.8-1.4,11.6-1c5.4,0.7,7.5,5,5.5,10.2c-2.1,5.3-5.2,10-10.2,13c-6.4,3.9-13,7.6-19.5,11.5c0.2,4.6,2.6,6.6,7,6.5
				c8.2-0.2,14.5-4.2,19.1-10.7c3.6-5.1,6.9-10.5,10-15.9c1.1-1.9,2-4.3,2-6.4c0-5.4,2.4-8.9,7.4-10.3c4.7-1.2,7.3,1.9,9.4,5.6
				c0.3,0.5,0.9,1,1.4,1.6c6.3-2.2,10.5,0.8,14.2,5.9c-3.8,10.7-14.2,18.3-14.5,31.7c10.7-0.5,14-9.4,19.8-15.1
				c4.5,0.9,5.3,3.6,4,7.3c-3.2,9.1-16.7,18.5-26.1,18.3c-10.7-0.3-16-9-11.1-18.4c2.7-5.3,6-10.2,8.9-15.4c0.7-1.3,0.8-3,1.2-4.8
				c-5-2.1-7.1,1.1-9.1,4c-3.4,5.2-6.8,10.5-10,15.9c-6.3,10.6-16.4,14.8-27.9,16.4c-6.3,0.8-14.1-2.9-20.4-9.3
				c-8.9,4.5-18.2,9.8-27.7,1.9c-11.6,2.6-16.8,3-21.6-0.5c-4.8,0.9-8.9,2.2-13,2.3c-11.9,0.4-16.6-7.1-11.4-18.1
				c4.1-8.6,8.6-17,12.9-25.4C574.2,249.1,575.1,247.4,576.4,244.8z M672.3,254.6c-9.2,4.3-14.2,9.6-18.9,18.1
				C663.1,269.3,669.5,265.4,672.3,254.6z"/>
			<path d="M540.4,253.6c5.3,5.7,5.4,11.5,3.1,17.9c-1.3,3.5-1.8,7.3-2.6,10.5c4.7,4,7.7,1.2,10.8-0.7c2.2,3.3,1.3,6.3-1.1,8.1
				c-3.6,2.7-7.4,5.7-11.6,6.7c-7.3,1.7-11.3-2.3-11.8-10.6c-0.2-2.9-0.3-6,0.3-8.9c2.1-9.7-1.7-16.5-10.3-21.8c-3.4,3-4.6,7.1-6,11
				c-3.4,9-6.6,18.2-14.6,24.2c-4.3,3.3-9.5,5.8-14.7,7.5c-5.2,1.7-9.6-1.2-13.1-5c-3.6-3.8-4.1-8-1.2-13.3c2.8,2.4,5.3,4.6,7.8,6.8
				c9.2-1.1,13-7.7,16.1-14.7c4.2-9.6,7.9-19.5,12.1-29.2c8.1-18.5,9.5-18.8,23.9-31.9c-10.3-2.2-21.9,1.9-29,10.8
				c-4.9,6.1-6.7,12.7-1.2,19.9c-3.1,2.6-5.7,1.8-8.3,0.1c-3.7-2.4-6.8-5.1-7.5-9.9c-1.1-7.7,1.9-14,7.6-18.3
				c16.9-12.9,36-17.1,56.8-11.9c6.1,1.5,11.2,5.1,16,9.4c11.3,10.1,7.3,24.1-0.3,31.4c-3.2,3.1-7.5,5.1-11.5,7.4
				C547.2,250.9,544,252,540.4,253.6z M520.6,243.5c9.4,2.4,16.5,0.3,23.2-3.4c5.6-3,8.8-8.4,8.5-14.5c-0.3-6.4-3.2-12-11.2-13.7
				C529.4,218.6,525.1,230.3,520.6,243.5z"/>
			<path d="M583.9,240c-4.4-7.6,0-14.7,11.5-18.3C601,229.2,596.5,236.4,583.9,240z"/>
			<path d="M376.8,187.2c1.7-3.6,3.9-7,7.9-5.1c2.5,1.1,4.3,4.4,5.5,7.2c0.4,0.9-2.2,4.3-3.7,4.6
				C381.7,194.6,378.9,191.4,376.8,187.2z"/>
			<path d="M148.6,244.7c2.4-8.9,4.5-16.4,11.5-21.5c5.3,2.5,5.4,7,4.1,11C162.2,240.7,156.9,243.7,148.6,244.7z"/>
			<path d="M529.5,237.5c0.6-8.1,5.7-13.3,10.7-18.4c6,2,7.3,3.6,6.6,7.7C545.6,234,539.6,237.8,529.5,237.5z"/>
		</g>
	</g>
</g>
</svg>
