<?xml version="1.0" encoding="utf-8"?>
<!-- Generator: Adobe Illustrator 26.2.1, SVG Export Plug-In . SVG Version: 6.00 Build 0)  -->
<svg version="1.1" id="Layer_1" xmlns="http://www.w3.org/2000/svg" xmlns:xlink="http://www.w3.org/1999/xlink" x="0px" y="0px"
	 viewBox="0 0 820.2 489.6" style="enable-background:new 0 0 820.2 489.6;" xml:space="preserve">
<g id="_x36_lfySA.tif">
	<g>
		<g>
			<path d="M573.7-197.7c-48.7,0-97.4,0-146.2,0c-1.1-6.6-3.2-13.2-3.3-19.8c-0.4-27.4,0.8-54.9-0.4-82.3
				c-1.2-28.2,10.5-46.6,35.4-59.6c53.4-27.8,106.2-56.8,159.2-85.3c4.6-2.5,9.4-5,13.4-8.3c5.8-5,7.5-11.5,3.2-18.4
				c-4.1-6.5-10.1-9.4-17.6-6.6c-4.9,1.8-9.6,4.5-14.2,7c-65.1,35.1-130,70.5-195.4,105.1c-13.1,6.9-18.2,15.3-17.9,29.9
				c0.8,39,0.5,78,0.1,117.1c-0.1,7.1-2.5,14.2-3.8,21.3c-27.5,0-55.1,0-82.6,0c-7.2-4.3-6.5-11.3-6.5-18.2
				c0-34.8,0.1-69.5-0.1-104.3c0-5.2-1.5-10.4-2.4-15.6c-1.2-0.2-2.4-0.4-3.6-0.6c-4.5,6.3-9.1,12.5-13.4,18.9
				c-26.3,39.9-52.6,79.9-78.8,119.8c-29.7,0-59.3,0-89,0c-8.1-11.2-8.2-11.3,0.5-24.6c50.2-77.4,100.5-154.8,150.7-232.1
				c22.1-34,44.3-68,66.3-102.1c4.2-6.4,8.4-11.8,17.3-11.7c24.9,0.3,49.7-0.1,74.6,0.3c11.6,0.2,15.1,6.3,10.3,16.6
				c-1.8,3.8-4.4,7.2-6.7,10.7c-16,24.8-32.1,49.5-48,74.4c-3.2,5-8.2,9.6-5.3,18.3c7-3.2,13.3-5.6,19.2-8.8
				c48.9-26.1,97.7-52.3,146.6-78.4c13.5-7.2,26.8-14.8,40.6-21.4c35.5-16.7,79.9-15.5,112.3,7.7c33.1,23.7,44.2,70.4,37.4,109.1
				c-6.9,39.5-40.6,64.2-74.7,80.4c-35.7,17-70,36.9-104.8,55.7c-4.7,2.5-11.1,3.7-12.2,12.9c32.6,2.8,64.6-0.3,99.1,2
				C612.6-257.2,593.2-227.5,573.7-197.7z"/>
		</g>
	</g>
</g>
<g id="sxtnXv.tif">
	<g>
		<g>
			<path d="M450.9,275c0,6.2,0,11.5,0,17.2c-2.2,0.1-4.1,0.3-6.1,0.3c-59.5,0-119,0-178.5,0.1c-12.8,0-24.8-2.2-35.6-9.5
				c-14.7-9.9-15.7-25.4-2.4-37c0.5-0.4,1-0.9,1.2-1.1c-3.2-4-7.3-7.6-9.2-12c-1.8-4.3-1.1-9.6-1.6-15c-0.4-0.1-1.5-0.4-2.6-0.4
				c-29.3,0-58.7-0.1-88,0.1c-3.2,0-6.8,0.8-9.5,2.5c-2.1,1.2-4.3,4.4-4.1,6.6c0.2,2.4,2.5,5.4,4.8,6.8c2.4,1.4,5.7,1.7,8.6,1.7
				c15.8,0.2,31.7,0.1,47.5,0.1c8.8,0,16.7,2.7,23.9,7.7c14.5,10.1,14.4,29.7-0.3,39.5c-11.6,7.7-25,10.3-38.6,10.4
				c-42,0.4-84,0.1-126,0.1c-0.8,0-1.6-0.2-2.8-0.3c0-6.9,0-13.6,0-21c2,0,4,0,5.9,0c36,0,72,0,108,0c1.8,0,3.7,0.1,5.5-0.1
				c3.7-0.4,7.6-0.6,8.1-5.6c0.8-7-0.8-10.3-6.3-11.8c-2-0.6-4.3-0.8-6.4-0.8c-12-0.1-24,0.1-36-0.1c-10.5-0.1-20.6-2-29.9-6.9
				c-7.9-4.2-14.1-9.9-13.8-19.7c0.3-10,5.6-17.6,14.5-20.9c9.4-3.5,19.5-7,29.3-7.1c77.8-0.6,155.7-0.3,233.5-0.3
				c1.1,0,2.3,0.1,3.7,0.2c0,5.8,0,11.4,0,17.5c-2,0-3.8,0-5.6,0c-21.3,0-42.7,0-64,0c-7.8,0-11.6,3.3-11.5,9.9
				c0.1,6.2,4.6,10.2,11.6,10.2c37,0,74,0,111,0c2,0,3.9,0,6.2,0c0,5.4,0,10.3,0,16.2c-2,0-4,0-6.1,0c-36.3,0-72.7,0.2-109-0.1
				c-11.8-0.1-13.8,7-12.4,16c0.6,3.9,3.8,6.2,7.8,6.7c1.6,0.2,3.3,0.1,5,0.1c54.3,0,108.7,0,163,0C446.2,275,448.3,275,450.9,275z"
				/>
			<path d="M584.4,246.8c5.2,3.3,10.4,6.2,8.4,13.8c0.4,0.1,0.9,0.2,1.3,0.3c2.2-2.1,4.6-4,6.5-6.3c12.6-15.7,25.2-31.5,37.6-47.4
				c5.4-6.9,11.4-10.5,20.7-10.1c17,0.8,34,0.3,51,0.2c6.7-0.1,11.5,2.3,15.6,7.9c19.6,26.8,39.5,53.3,59.3,79.9
				c0.9,1.2,1.9,2.4,2.6,3.6c1.4,2.5,0.9,4.5-2.1,4.5c-13.2,0.1-26.3,0.3-39.5-0.2c-2.4-0.1-5.2-2.9-6.9-5.1
				c-16.7-21.2-33.2-42.6-49.8-63.9c-5-6.4-8.8-6.4-13.7,0c-16.2,21.1-32.5,42.2-48.7,63.5c-2.9,3.8-6.2,5.6-11,5.6
				c-46.2-0.1-92.3,0-138.5-0.1c-1.1,0-2.3-0.1-3.8-0.2c0-6,0-11.9,0-18.3c2,0,3.7,0,5.5,0c19.3,0,38.7,0,58,0
				c8.2,0,11.1-2.7,11.1-10c0.1-7.7-3.3-11.2-11.4-11.2c-37.2-0.1-74.3,0-111.5,0c-2,0-3.9,0-6.1,0c0-5.8,0-11.1,0-17.1
				c2,0,4,0,5.9,0c35.7,0,71.3,0,107,0c2.8,0,5.7-0.2,8.4-0.8c4.5-1,7.6-5,7.6-9.3c0-4.8-2.4-7.8-7.7-9c-2.7-0.6-5.6-0.7-8.4-0.7
				c-51.7,0-103.3,0-155,0c-2,0-3.9,0-6.1,0c0-6.2,0-11.8,0-18c2.2,0,4.1,0,6,0c48.5-0.1,97,0,145.5-0.3c14.4-0.1,28.7-0.3,42.6,3.6
				c5.6,1.6,11.3,3.4,16.1,6.4c4.4,2.7,8.5,6.6,11.3,10.9c6.2,9.4,4.3,17.9-4.4,25.1C587,244.8,586,245.6,584.4,246.8z"/>
		</g>
	</g>
</g>
</svg>
