<?xml version="1.0" encoding="utf-8"?>
<!-- Generator: Adobe Illustrator 26.3.1, SVG Export Plug-In . SVG Version: 6.00 Build 0)  -->
<svg version="1.1" id="Layer_1" xmlns="http://www.w3.org/2000/svg" xmlns:xlink="http://www.w3.org/1999/xlink" x="0px" y="0px"
	 viewBox="0 0 820.2 489.6" style="enable-background:new 0 0 820.2 489.6;" xml:space="preserve">
<style type="text/css">
	.st0{fill:#F15A22;}
	.st1{fill:#FFF200;}
	.st2{fill:#B2D235;}
	.st3{fill:#AB4A9C;}
	.st4{fill:#ED1164;}
</style>
<g id="Kx8Zub.tif">
	<g>
		<g>
			<path d="M777,267.9c-2,2.4-4.1,4.8-6.1,7.2c-5,6-10,12-15,17.9c-1.8,2.1-3.5,4.3-5.3,6.4c-0.5,0.6-1.1,1.3-1.7,1.9
				c-0.1,0.1-0.3,0.1-0.3,0.1c-0.1,0-0.1-0.2-0.1-0.3c0-0.3,0-0.5,0-0.8c0-5.7,0-11.5,0-17.2c0-0.9,0.3-1.6,0.8-2.3
				c3.3-3.8,6.6-7.6,9.9-11.4c0.2-0.2,0.3-0.4,0.5-0.6c0.3-0.3,0.3-0.6,0-0.9c-0.9-1.1-1.8-2.2-2.7-3.3c-0.5-0.6-1.1-1.3-1.6-1.9
				c-0.2-0.2-0.5-0.3-0.7-0.1c-0.4,0.4-0.8,0.8-1.2,1.2c-6,6.3-11.9,12.7-17.9,19c-0.4,0.4-0.8,0.8-1.2,1.2
				c-0.1,0.1-0.3,0.1-0.4,0.1c-0.1,0-0.1-0.2-0.1-0.3c0-0.6,0-1.2,0-1.7c0-7.3,0-14.6,0-21.8c0-0.7,0.2-1.5-0.2-2.2
				c-0.4,0.6-0.9,1.1-1.3,1.7c-8.9,13.2-17.8,26.3-26.7,39.5c-0.3,0.4-0.6,0.9-0.9,1.3c-0.1,0.1-0.2,0.2-0.3,0.2
				c-0.3,0.1-0.2-0.2-0.3-0.4c0-0.6,0-1.2,0-1.7c0-12.9,0-25.8,0-38.6c0-0.7,0.3-1.4-0.3-2c-0.5,0.4-1,0.8-1.4,1.3
				c-4.3,4.4-8.3,9-12.3,13.6c-3.4,3.8-6.7,7.6-10.1,11.5c-0.2,0.2-0.4,0.5-0.6,0.7c-0.3,0.4-0.7,0.6-1.2,0.5c-0.3,0-0.5,0-0.8,0
				c-4.2,0-8.4,0-12.6,0c-0.3,0-0.6,0-1,0c-0.5,0-0.7-0.2-0.7-0.7c0-0.5,0-1,0-1.5c0-5.2,0-10.3,0-15.5c0-0.5,0-1,0-1.5
				c0-0.2-0.1-0.4-0.1-0.5c-0.2,0.1-0.4,0.1-0.5,0.3c-1,1.3-2.1,2.6-3.1,4c-3.7,4.7-7.3,9.5-11,14.2c-0.2,0.3-0.4,0.5-0.6,0.7
				c-0.1,0.1-0.2,0.1-0.3,0.1c0,0-0.1-0.1-0.1-0.2c0-0.6,0-1.2,0-1.7c0-7.7,0-15.3,0-23c0-0.6,0-1.2-0.1-1.7c0-0.1-0.2-0.2-0.3-0.1
				c-0.2,0.2-0.5,0.4-0.7,0.7c-2.4,2.9-4.8,5.7-7.2,8.6c-4.6,5.5-9.3,11.1-13.9,16.6c-0.1,0.1-0.2,0.2-0.3,0.3
				c-0.1,0.1-0.2,0.2-0.3,0.1c-0.1,0-0.2-0.2-0.2-0.3c0-0.6,0-1.2,0-1.7c0-7.5,0-14.9,0-22.4c0-0.4-0.1-0.8-0.1-1.1
				c-0.6-0.1-0.7,0.4-1,0.7c-7.8,8.2-15.5,16.5-23.3,24.8c-0.4,0.4-0.8,0.8-1.2,1.2c-0.1,0.1-0.3,0.2-0.3,0.1
				c-0.1-0.1-0.2-0.3-0.2-0.4c0-0.5,0-1,0-1.5c0-4.5,0-9,0-13.5c0-0.6,0-1.2-0.1-1.7c0-0.3-0.3-0.2-0.4-0.1c-0.4,0.3-0.7,0.6-1,0.9
				c-5.5,5.2-11,10.3-16.5,15.5c-1.7,1.6-3.5,3.3-5.2,4.9c-0.1,0.1-0.4,0.1-0.5,0.1c-0.1,0-0.1-0.2-0.1-0.3c0-0.6,0-1.2,0-1.7
				c0-9.3,0-18.5,0-27.8c0-0.6,0-1.2,0-1.7c0-0.1-0.1-0.2-0.1-0.4c-0.2,0.1-0.4,0.1-0.5,0.2c-2.3,2.9-4.5,5.8-6.8,8.7
				c-4.6,5.9-9.2,11.8-13.8,17.7c-0.2,0.2-0.3,0.4-0.5,0.6c-0.1,0.1-0.2,0.1-0.3,0.1c0,0-0.1-0.1-0.1-0.2c0-0.6,0-1.2,0-1.7
				c0-7.5,0-15.1,0-22.6c0-0.6,0-1.2,0-1.7c0-0.1-0.1-0.3-0.1-0.3c-0.1,0-0.3,0-0.3,0.1c-0.3,0.3-0.6,0.7-0.9,1
				c-6.9,9.4-13.7,18.8-20.6,28.2c-0.5,0.7-0.8,1.6-1.7,1.9c0-0.8-0.1-1.6-0.1-2.5c0.1-9.5,0.2-19.1,0.2-28.6c0-0.5,0.2-1.1-0.2-1.6
				c-0.3,0.4-0.7,0.7-1,1.1c-7.3,10-14.6,20-21.8,30c-2.5,3.4-5,6.9-7.5,10.3c-0.2,0.3-0.4,0.5-0.6,0.8c-0.1,0.1-0.3,0.2-0.3,0.2
				c-0.1-0.1-0.2-0.3-0.3-0.4c0-0.6,0-1.3,0-1.9c0-13.1,0-26.1,0-39.2c0-0.5-0.1-1-0.1-1.5c-0.7,0.1-0.8,0.7-1.1,1.2
				c-7.6,11.2-15.2,22.4-22.7,33.6c-6.2,9.2-12.4,18.3-18.6,27.5c-0.3,0.4-0.6,0.8-0.9,1.2c0,0-0.3,0-0.3-0.1
				c-0.1-0.1-0.1-0.2-0.1-0.4c0-0.6,0-1.3,0-1.9c0-17.8,0-35.7,0-53.5c0-0.6-0.1-1.3-0.1-1.9c0,0-0.2-0.1-0.3-0.1
				c-0.3,0.3-0.5,0.5-0.8,0.8c-2.8,3.9-5.6,7.7-8.4,11.6c-11.3,15.5-22.5,31.1-33.8,46.6c-9.3,12.9-18.7,25.8-28,38.6
				c-0.3,0.5-0.7,0.9-1,1.4c-0.1,0.1-0.2,0.1-0.3,0.2c0-0.1-0.1-0.2-0.1-0.4c0-0.2,0-0.4,0-0.6c0-0.5,0-0.9,0-1.4
				c0-75.9,0-151.7,0-227.6c0-0.7,0-1.4,0-2.1c0-0.2,0.3-0.4,0.6-0.3c0.3,0.2,0.7,0.4,1,0.6c7.1,4.3,14.2,8.6,21.3,12.9
				c0.1,0,0.1,0.1,0.2,0.1c1,0.4,1.5,1.2,1.3,2.3c-0.1,0.4,0,0.9,0,1.4c0,46.6,0,93.1,0,139.7c0,0.8-0.3,1.6,0.2,2.3
				c0.7-0.4,1-1.1,1.5-1.7c8-10.5,16-21,24-31.5c12.3-16.1,24.6-32.3,36.8-48.4c0.8-1.1,1.7-2.1,2.5-3.2c0.1-0.1,0.2-0.1,0.3-0.1
				c0.1,0,0.2,0.2,0.2,0.3c0,0.6,0,1.3,0,1.9c0,15.5,0,30.9,0,46.4c0,0.6,0,1.2,0,1.7c0,0.2,0.1,0.4,0.1,0.5
				c0.2-0.1,0.5-0.2,0.6-0.3c3.8-4.5,7.5-9,11.2-13.5c4.8-5.7,9.5-11.5,14.3-17.2c4.2-5.1,8.5-10.2,12.7-15.3
				c0.6-0.7,1.2-1.4,1.8-2.1c0.1-0.1,0.2-0.1,0.3-0.1c0.1,0,0.2,0.2,0.2,0.3c0,0.6,0,1.3,0,1.9c0,15.5,0,31,0,46.6
				c0,0.6,0,1.3,0,1.9c0,0.1,0.1,0.3,0.2,0.3c0.1,0,0.3,0,0.3-0.1c0.3-0.3,0.5-0.6,0.7-0.9c3.5-4.8,6.9-9.6,10.4-14.4
				c5-7,10-14,15.1-21c0.3-0.4,0.6-0.8,1-1.2c0,0,0.2,0,0.3,0.1c0.1,0.1,0.1,0.2,0.1,0.4c0,0.6,0,1.2,0,1.7c0,9.5,0,18.9,0,28.4
				c0,0.6,0,1.2,0,1.7c0,0.1,0.1,0.3,0.1,0.3c0.2,0,0.4-0.1,0.5-0.2c1.8-2.3,3.6-4.5,5.4-6.8c5.3-6.7,10.6-13.5,15.8-20.2
				c0.2-0.2,0.3-0.4,0.5-0.6c0.1-0.1,0.3-0.2,0.5-0.3c0.1,0.1,0.2,0.3,0.2,0.4c0,0.6,0,1.2,0,1.7c0,7.9,0,15.7,0,23.6
				c0,0.6,0,1.2,0.1,1.7c0,0,0.2,0.1,0.3,0.1c0.3-0.3,0.5-0.5,0.8-0.8c3.7-4.3,7.5-8.7,11.2-13c3.4-3.9,6.7-7.8,10.1-11.7
				c0.1-0.1,0.2-0.2,0.3-0.3c0.1-0.1,0.2-0.2,0.3-0.1c0.1,0,0.2,0.2,0.2,0.3c0,0.6,0,1.3,0,1.9c0,10.9,0,21.9,0,32.8
				c0,0.6,0,1.2,0,1.7c0,0.1,0.1,0.3,0.2,0.3c0.1,0,0.3,0,0.4,0c0.3-0.2,0.5-0.4,0.7-0.6c3.4-3.4,6.7-6.8,10.1-10.1
				c0.7-0.7,1-1.4,0.9-2.4c-0.1-2,0-4,0-6c0-0.6,0.1-1.1,0.6-1.6c3.1-3.7,6.2-7.4,9.4-11c0.1-0.1,0.3-0.1,0.5-0.2
				c0,0,0.1,0.2,0.1,0.3c0,0.6,0,1.2,0,1.7c0,6.9,0,13.8,0,20.7c0,0.5,0,1,0,1.5c0,0.2-0.1,0.6,0.3,0.6c0.2,0,0.4-0.3,0.6-0.4
				c0,0,0.1-0.1,0.1-0.1c6.3-7.6,12.6-15.2,18.9-22.7c1.6-2,3.3-4,5-5.9c0.2-0.2,0.4-0.5,0.6-0.7c0.1-0.1,0.2-0.1,0.3-0.1
				c0.1,0,0.2,0.2,0.2,0.3c0,0.6,0,1.2,0,1.7c0,7.4,0,14.8,0,22.2c0,0.5,0,0.9,0,1.4c0,0.3,0,0.8,0.2,0.9c0.4,0.2,0.6-0.3,0.8-0.6
				c6.8-8.1,13.6-16.2,20.4-24.3c0.4-0.4,0.8-0.8,1.2-1.2c0,0,0.2,0,0.3,0.1c0.1,0.1,0.1,0.2,0.1,0.4c0,0.6,0,1.2,0,1.7
				c0,7.2,0,14.4,0,21.6c0,0.6,0,1.2,0.1,1.7c0,0,0.2,0.1,0.3,0.1c0.2-0.2,0.4-0.4,0.5-0.6c6.7-7.7,13.3-15.4,20-23.1
				c0.8-0.9,1.6-1.7,2.4-2.6c1.2-0.1,2.3-0.1,3.5-0.1c4.1,0,8.2,0,12.4,0c0.5,0,1,0,1.5,0c0.4,0,0.6,0.2,0.6,0.6c0,0.5,0,1,0,1.5
				c0,5.1,0,10.2,0.1,15.3c0,0.6,0,1.2,0,1.7c0,0.1,0.1,0.3,0.2,0.3c0.1,0,0.3-0.1,0.3-0.2c0.8-0.9,1.5-1.7,2.3-2.6
				c4.2-4.9,8.4-9.8,12.6-14.7c0.3-0.3,0.5-0.6,0.8-0.8c0.1-0.1,0.2-0.1,0.3-0.1c0.1,0,0.2,0.2,0.2,0.3c0,0.6,0.1,1.3,0.1,1.9
				c0,9.3,0,18.7,0,28c0,0.6,0.1,1.3,0.2,1.9c0.9,0,1.1-0.8,1.5-1.3c6.7-8,13.4-16,20-24c1.6-1.9,3.1-3.8,4.7-5.7
				c0.4-0.5,0.9-1,1.3-1.4c0,0,0.1-0.1,0.2,0c0.1,0.1,0.2,0.1,0.2,0.2c0,0.6,0,1.2,0,1.7c0,9,0,17.9,0,26.9c0,0.6,0,1.2,0,1.7
				c0,0.1,0.1,0.2,0.1,0.3c0.2-0.1,0.4-0.1,0.5-0.2c0.4-0.4,0.7-0.8,1-1.1c3.9-4.6,7.8-9.2,11.8-13.8c4.8-5.6,9.5-11.2,14.3-16.8
				c1.3-1.5,2.5-2.9,3.8-4.4c0.3-0.3,0.6-0.7,0.9-1c0.1-0.1,0.3-0.1,0.3-0.1c0.1,0,0.1,0.2,0.1,0.3c0,0.5,0,1,0,1.5
				c0,5.7,0,11.5,0,17.2c0,0.3,0,0.5,0,0.8c0.1,0.8-0.2,1.5-0.8,2.1c-1.9,2-3.7,4.1-5.5,6.2c-1.3,1.4-2.6,2.9-3.8,4.3
				c-1,1.1-0.8,1,0,2.1c2.1,2.8,4.3,5.6,6.4,8.5c1.4,1.8,2.7,3.6,4,5.4C777,267.4,777,267.6,777,267.9z M685.6,249.6
				c0-1.7,0-3.3,0-5c0-1,0-1.9,0-2.9c0-0.1-0.1-0.2-0.2-0.3c-0.1,0-0.2,0-0.3,0.1c-0.1,0-0.1,0.1-0.1,0.1c-2.8,3.4-5.7,6.8-8.5,10.2
				c-0.5,0.6-0.7,1.2-0.7,1.9c0,2.6,0,5.3,0,7.9c0,1.9,0,3.9,0,5.8c0,0.2,0.1,0.4,0.1,0.6c0.2-0.1,0.4-0.1,0.5-0.2
				c2.9-3.1,5.9-6.3,8.8-9.4c0.4-0.5,0.5-1,0.5-1.6C685.6,254.3,685.6,252,685.6,249.6z"/>
			<path d="M154.9,362.9c-0.3-0.4-0.8-0.3-1.3-0.3c-5.5-0.4-10.9-1-16.3-2.1c-7.7-1.5-15.1-3.7-22.3-6.7c-4.1-1.7-8.1-3.6-12-5.8
				c-0.3-0.2-0.6-0.3-0.8-0.5c-0.1-0.1-0.1-0.4,0-0.4c0.4-0.3,0.9-0.6,1.3-0.8c16.8-10.2,33.6-20.4,50.3-30.6
				c19.1-11.6,38.3-23.3,57.4-34.9c0.4-0.3,0.9-0.5,1.3-0.8c0.3-0.1,0.6,0,0.6,0.3c0,0.4,0,0.9,0,1.4c0,22.1,0,44.3,0,66.4
				c0,1.9,0.1,1.8-1.6,2.7c-8.7,4.4-17.9,7.6-27.4,9.5c-3.7,0.8-7.3,1.3-11,1.8c-2.1,0.3-4.2,0.4-6.3,0.6c-0.5,0-1-0.1-1.5,0.3
				C161.9,362.9,158.4,362.9,154.9,362.9z"/>
			<path d="M280.1,250.4c-23.6,0-47.2,0-70.7,0c-0.4,0-0.8,0-1.2,0c-1.2-0.1-2.2,0.3-3.1,1.1c-9.3,7.7-18.6,15.3-27.9,22.9
				c-0.1,0.1-0.3,0.3-0.5,0.4c-0.2,0.1-0.5,0.2-0.5,0.2c-0.1-0.2-0.3-0.4-0.3-0.6c0-0.5,0-1,0-1.5c0-6.6,0-13.1,0-19.7
				c0-0.5,0-1,0-1.5c0-0.3-0.2-0.6-0.2-0.8c-0.2,0.2-0.4,0.3-0.6,0.5c-0.1,0.1-0.1,0.2-0.2,0.3c-7.4,10.2-14.8,20.3-22.2,30.5
				c-2.1,2.9-4.2,5.7-6.2,8.6c-0.2,0.3-0.5,0.6-0.7,0.9c-0.1,0.1-0.2,0.1-0.3,0.1c-0.1,0-0.1-0.2-0.1-0.3c0-0.6,0-1.2,0-1.7
				c0-10.9,0-21.8,0-32.6c0-0.6,0-1.2,0-1.7c0-0.2-0.1-0.4-0.1-0.5c-0.2,0.1-0.4,0.1-0.5,0.3c-0.6,0.7-1.1,1.4-1.6,2.1
				c-15,19.9-29.9,39.7-44.9,59.6c-1,1.4-2.1,2.8-3.2,4.1c-0.1,0.1-0.2,0.2-0.3,0.2c-0.3,0-0.3-0.2-0.3-0.4c0-0.6,0-1.2,0-1.7
				c0-47.2,0-94.4,0-141.6c0-0.8-0.3-1.7,0.3-2.4c0.8,0,1.4,0.6,2,1c4.4,2.6,8.7,5.2,13.1,7.8c0.2,0.1,0.4,0.3,0.7,0.4
				c0.6,0.3,0.8,0.8,0.8,1.4c0,0.6,0,1.2,0,1.7c0,26.4,0,52.8,0,79.2c0,0.6,0,1.3,0.1,1.9c0,0,0.2,0.1,0.3,0.1
				c0.2-0.2,0.5-0.4,0.7-0.7c4.7-6,9.4-12,14.1-17.9c8.3-10.6,16.6-21.2,24.9-31.8c1.3-1.7,2.6-3.3,3.9-5c0.1-0.1,0.3-0.1,0.5-0.1
				c0,0,0.1,0.2,0.1,0.3c0.1,1.7,0.2,3.3,0.2,5c0.1,10.1,0.1,20.2,0.2,30.3c0,0.5,0,1,0,1.5c0,0.2,0.1,0.3,0.2,0.4
				c0.2-0.1,0.3-0.2,0.5-0.3c0.2-0.2,0.4-0.5,0.7-0.7c6.6-7.4,13.2-14.8,19.9-22.1c2.6-2.9,5.2-5.9,7.9-8.8c0.1-0.1,0.2-0.3,0.4-0.4
				c0.1-0.1,0.3-0.2,0.5-0.2c0,0.1,0.1,0.2,0.1,0.4c0,0.6,0,1.2,0,1.7c0,9.7,0,19.3,0,29c0,0.6,0,1.2,0.1,1.7c0,0.1,0.2,0.2,0.3,0.2
				c0.3-0.1,0.6-0.3,0.8-0.5c3.9-3,7.7-6,11.6-9c0.1-0.1,0.2-0.2,0.3-0.2c0.9-0.9,1.9-1.1,3.2-1.1c49.9,0,99.7,0,149.6,0
				c2.3,0,2.3-0.2,2.3,2.2c0,2.1,0,4.1,0,6.2c0,0.4,0,0.9-0.1,1.3c0,0.2-0.3,0.4-0.5,0.5c-0.2,0.1-0.4,0.1-0.6,0.1
				c-0.6,0-1.2,0-1.7,0C327.6,250.4,303.9,250.4,280.1,250.4z"/>
			<path d="M213.3,175.9c0,10.8,0,21.6,0,32.4c0,0.6,0,1.2,0,1.7c0,0.5-0.3,0.6-0.8,0.4c-0.3-0.2-0.6-0.3-0.8-0.5
				c-5.6-3.4-11.1-6.7-16.7-10.1c-17.2-10.4-34.3-20.8-51.5-31.3c-13.3-8.1-26.5-16.1-39.8-24.2c-0.4-0.2-0.8-0.5-1.1-0.7
				c-0.6-0.4-0.5-0.6,0.1-0.9c4.1-2.3,8.3-4.3,12.7-6.1c7.9-3.2,16-5.6,24.4-7c3.5-0.6,7-1,10.5-1.3c5.8-0.5,11.6-0.4,17.4-0.2
				c4.4,0.2,8.8,0.8,13.2,1.6c7.7,1.4,15.3,3.5,22.6,6.5c2.9,1.2,5.6,2.5,8.4,3.8c1.4,0.7,1.4,0.6,1.4,2.4c0,0.4,0,0.8,0,1.2
				C213.3,154.3,213.3,165.1,213.3,175.9z"/>
			<path d="M244.3,293.9c0-10.3,0-20.6,0-30.9c0-2.4-0.2-2.2,2.2-2.2c9.2,0,18.4,0,27.6,0c0.5,0,1,0,1.5,0c0.5,0,0.7,0.3,0.6,0.8
				c-0.1,1.3-0.2,2.6-0.4,3.8c-0.9,5.9-2.3,11.7-4.2,17.4c-3.7,11.2-8.9,21.6-15.8,31.2c-2.9,4.1-6.2,7.9-9.8,11.4
				c-0.4,0.4-0.9,0.8-1.3,1.2c-0.1,0.1-0.2,0.1-0.4,0.1c-0.1,0-0.2-0.2-0.2-0.3c0-0.6,0-1.3,0-1.9
				C244.3,314.4,244.3,304.2,244.3,293.9z"/>
			<path d="M244.3,196.6c0-10.4,0-20.8,0-31.3c0-0.5,0.1-1,0.1-1.5c0.7-0.1,1,0.5,1.4,0.9c3.2,3,6.2,6.4,8.8,10
				c9.8,13.2,16.4,27.9,20.1,43.9c0.7,3.1,1.1,6.3,1.6,9.5c0.1,0.4,0.1,0.8,0,1.1c0,0.2-0.3,0.4-0.5,0.5c-0.4,0.1-0.8,0.1-1.2,0.1
				c-9.5,0-19.1,0-28.6,0c-1.8,0-1.8,0-1.8-1.8C244.3,217.5,244.3,207,244.3,196.6z"/>
			<path d="M76.5,294c0,10.2,0,20.5,0,30.7c0,0.6,0,1.2,0,1.7c0,0.1-0.1,0.3-0.1,0.3c-0.2,0-0.4,0-0.5-0.2c-2.2-2.1-4.4-4.2-6.3-6.5
				c-9.7-11.5-16.4-24.6-20.9-38.8c-1.7-5.5-2.9-11.1-3.8-16.7c-0.1-1-0.2-1.9-0.4-2.9c-0.1-0.5,0.1-0.7,0.7-0.7c0.4,0,0.9,0,1.4,0
				c9.3,0,18.6,0,27.8,0c2.4,0,2.2-0.2,2.2,2.2C76.5,273.4,76.5,283.7,76.5,294z"/>
			<path d="M76.5,196.7c0,10.3,0,20.6,0,30.9c0,2.3,0.2,2.1-2.1,2.1c-9.3,0-18.7,0-28,0c-0.5,0-1,0-1.5-0.1c-0.3,0-0.4-0.3-0.4-0.5
				c0.6-5.4,1.6-10.8,3.1-16.1c3.7-13.2,9.4-25.4,17.4-36.6c3-4.2,6.3-8.1,10.1-11.7c0.3-0.3,0.7-0.6,1-0.9c0.1,0,0.4,0.1,0.4,0.2
				c0,0.6,0.1,1.3,0.1,1.9C76.5,176.2,76.5,186.4,76.5,196.7z"/>
			<path d="M598,227.8c0-2.4,0-4.9,0-7.3c0-0.7,0.2-1.2,0.7-1.7c2.9-3,5.7-6,8.5-8.9c0.2-0.2,0.4-0.4,0.6-0.5c0.1,0,0.4,0.1,0.4,0.2
				c0.1,0.3,0.1,0.6,0.1,1c0,3.8,0,7.6,0.1,11.4c0,0.9-0.2,1.6-0.8,2.3c-3,3.7-5.9,7.5-8.9,11.2c-0.1,0.2-0.3,0.3-0.4,0.4
				c0,0-0.3,0-0.3-0.1c0-0.3-0.1-0.6-0.1-1C598,232.5,598,230.1,598,227.8z"/>
		</g>
	</g>
</g>
</svg>
