<?xml version="1.0" encoding="utf-8"?>
<!-- Generator: Adobe Illustrator 26.2.1, SVG Export Plug-In . SVG Version: 6.00 Build 0)  -->
<svg version="1.1" id="Layer_1" xmlns="http://www.w3.org/2000/svg" xmlns:xlink="http://www.w3.org/1999/xlink" x="0px" y="0px"
	 viewBox="0 0 820.2 489.6" style="enable-background:new 0 0 820.2 489.6;" xml:space="preserve">
<g>
	<g>
		<path d="M665.7,194.6c0.2-2.7,1.8-4.9,2.3-7.5c0.2-1,0.9-1.9,1.2-3c0.9-3.4,2.2-6.6,3.5-9.9c0.9-2.2,1.4-4.5,2.2-6.7
			c0.9-2.7,1.9-5.4,2.9-8c0.2-0.5,0.3-1.1,0.5-1.6c0.4-1.1,0.8-2.1,1.2-3.2c0.1-0.1,0.2-0.3,0.2-0.4c0.4-2.4,1.3-4.6,2.3-6.9
			c1.2-2.7,1.6-5.7,2.9-8.4c0.3-0.7,0.5-1.5,0.7-2.3c10.3,0,20.3,0,30.3,0c0.2,0.3,0.5,0.5,0.5,0.8c0.7,1.9,1.3,3.8,2,5.6
			c0.9,2.6,1.9,5.2,2.8,7.8c0.8,2.2,1.5,4.5,2.2,6.7c0.1,0.2,0.1,0.4,0.2,0.6c1,2.5,1.9,5.1,2.9,7.6c0.2,0.5,0.3,1.1,0.5,1.6
			c0.4,1.1,0.8,2.3,1.2,3.4c0.3,0.7,0.5,1.5,0.7,2.2c0.1,0.2,0,0.4,0.1,0.6c0.9,2.3,1.7,4.7,2.6,7c0.3,0.7,0.5,1.5,0.7,2.2
			c0.1,0.3,0.1,0.7,0.2,1c0.9,2.3,1.8,4.7,2.6,7c0.1,0.2,0.2,0.4,0.3,0.6c0.7,2.2,1.4,4.5,2.1,6.7c0.3,0.8,0.6,1.6,0.9,2.4
			c0.2,0.4,0.4,0.8,0.5,1.2c0.8,3.5,2.2,6.8,3.5,10.1c0.9,2.5,1.5,5,2.3,7.5c0.1,0.3,0.3,0.6,0.5,0.9c0.2,0.4,0.5,0.7,0.6,1.1
			c0.5,2.3,1.4,4.5,2.2,6.7c0.3,0.8,0.6,1.6,0.9,2.4c0.1,0.4,0.4,0.8,0.5,1.2c0.9,3.7,2.5,7.1,3.6,10.7c1,3.3,2.2,6.6,3.5,9.9
			c0.9,2.4,1.6,4.9,2.4,7.3c0.3,0.9,0.8,1.8,1.2,2.6c-0.6,1.1-1.4,0.8-2.2,0.8c-4.7,0-9.3,0-14,0c-2.3,0-4.6,0-6.9,0
			c-0.7,0-1.4,0-2.2,0c-0.7-2-1.5-3.8-2.1-5.7c-0.4-1-0.7-2-1-3c-0.3-0.9-0.5-1.8-0.8-2.6c-0.1-0.2,0-0.5-0.1-0.6
			c-1.4-2.2-1.4-4.9-2.6-7.2c-0.4-0.7-0.6-1.6-0.7-2.4c-0.4-2.6-1.7-3.7-4.4-3.7c-1.7,0-3.4,0-5.2,0c-13,0-26.1,0-39.1,0
			c-0.8,0-1.6,0.1-2.3,0.3c-1.4,0.4-2.2,1.4-2.4,2.9c-0.2,1.2-0.7,2.4-1.2,3.6c-0.1,0.4-0.4,0.8-0.5,1.2c-0.1,1.6-0.9,3-1.4,4.4
			c-0.7,2.1-1.3,4.2-2.1,6.2c-0.4,1.1-0.7,2.2-1.1,3.2c-0.4,1.1-0.8,2.1-1.2,3.2c-2.1,0.3-4.2,0.1-6.2,0.2c-2.2,0-4.3,0-6.5,0
			c-2.1,0-4.2,0-6.2,0c-2,0-4.1,0.2-6.2-0.1c0-0.5-0.1-0.8,0.1-1c1-1.3,1.2-2.9,1.5-4.4c0.1-0.5,0.4-0.9,0.6-1.3
			c0.2-0.5,0.5-1,0.7-1.6c0.4-1.1,0.7-2.2,1.1-3.2c0.3-0.8,0.5-1.7,0.7-2.5c0.3-1,0.8-2,1.1-3c0.2-0.6,0.6-1.2,0.7-1.8
			c0.2-1.3,0.8-2.6,1.3-3.8c0.9-2.5,1.7-5.1,2.5-7.7c0.2-0.5,0.4-1.1,0.6-1.6c0.3-0.7,0.7-1.4,0.8-2.2c0.2-1.3,0.6-2.5,1.4-3.5
			c0.2-0.3,0.4-0.7,0.4-1c0-1.6,0.7-2.9,1.4-4.2c0.2-0.4,0.3-0.9,0.4-1.4c0.1-0.4,0.1-0.9,0.3-1.3c0.8-1.9,1.5-3.8,2.1-5.8
			c0.4-1.3,1.1-2.4,1.3-3.8c0.1-0.5,0.4-1.1,0.6-1.6c0.2-0.4,0.4-0.8,0.5-1.2c0.5-2.3,1.5-4.5,2.3-6.7c0.4-1.1,0.9-2.2,1.4-3.3
			C665.6,194.9,665.6,194.8,665.7,194.6 M683.9,215.7c0.8,0,1.5,0.1,2.3,0.1c4.3,0,8.6,0,12.9,0c5.5,0,10.9,0,16.4,0
			c0.8,0,1.7-0.1,2.3-0.2c0.6-1,0.4-1.7,0.1-2.5c-0.4-1.1-0.7-2.2-1.1-3.3c-0.8-2.3-1.5-4.6-2.3-6.9c-0.9-2.6-1.8-5.1-2.7-7.7
			c-0.6-1.5-1.2-3.1-1.7-4.6c-1-2.9-1.8-5.9-2.8-8.8c-0.8-2.4-1.7-4.8-2.6-7.3c-0.4-1.1-0.7-2.3-1.3-3.4c-0.3-0.5-0.3-1.1-0.4-1.6
			c-0.3-1-0.4-2-0.8-2.9c-0.6-1.2-1.1-1.3-2.7-0.9c-0.1,0.3-0.3,0.6-0.3,0.9c-0.3,2-1,3.9-1.8,5.7c-0.2,0.5-0.2,1-0.4,1.4
			c-0.1,0.4-0.1,0.9-0.3,1.2c-0.8,1.5-1.3,3.2-1.6,4.9c-0.1,0.5-0.3,0.9-0.5,1.4c-0.3,0.7-0.7,1.4-0.9,2.2c-0.6,2.5-2,4.7-2.3,7.3
			c0,0.4-0.4,0.8-0.5,1.2c-0.3,0.7-0.5,1.3-0.7,2c-0.8,2.5-1.6,5-2.3,7.5c-0.1,0.3-0.3,0.5-0.4,0.8c-0.3,0.9-0.7,1.9-1,2.8
			c-0.2,0.5-0.2,1-0.5,1.4c-0.7,1-0.9,2.1-1.2,3.2c-0.3,1-0.7,2-1.1,3C683.4,213.7,683.1,214.5,683.9,215.7z"/>
		<path d="M146.6,174.1c-0.3-0.2-0.6-0.4-0.8-0.4c-3.3-0.6-5-3.1-6.6-5.7c-1.4-2.3-2.1-4.8-2-7.6c0.2-3.8,0-7.6,0-11.4
			c0-4.8,2-8.5,5.6-11.6c0.5-0.4,1.3-0.6,1.9-0.9c0.9-0.4,1.9-0.7,2.2-1.9c2.5,0,5,0,7.7,0c0.3,1,1.3,1.5,2.3,1.8
			c2.6,0.8,4.3,2.7,5.7,4.9c0.7,1,1.2,2.1,1.6,3.3c0.3,0.9,0.5,1.8,0.5,2.7c0.1,5.3,0,10.6,0.1,15.9c0.1,2.7-1.1,4.8-2.8,6.8
			c-0.5,0.6-1.1,1.1-1.7,1.7c-0.8,0.8-1.5,1.5-2.7,1.6c-0.5,0.1-1,0.5-1.5,0.8c0.2,1.4,0.9,2.1,2,2.7c1.4,0.8,2.8,1.6,3.8,2.7
			c1.1,1.2,1.9,2.7,2.7,4.1c0.5,1,0.9,2.1,1.2,3.2c0.3,0.8,0.5,1.7,0.5,2.5c0.2,5.5,0.3,11,0.4,16.5c0,1.8,0,3.6-0.5,5.3
			c-0.5,1.8-1.4,3.6-2.5,5.2c-1.5,2.1-3.3,3.9-5.8,5c-0.9,0.4-1.6,1.3-2.3,1.9c0.3,1.1,1,1.4,1.7,1.4c2,0,3.3,1.4,4.6,2.5
			c1,0.8,1.7,2.1,2.6,3.1c1.6,1.7,2.1,4,3,6.1c0.4,0.8,0.5,1.8,0.5,2.7c0.2,3.1,0,6.2,0.4,9.2c0.7,4.9,0.4,9.7,0.3,14.6
			c0,2.2-0.3,4.5-1,6.5c-0.8,2.2-2,4.4-3.7,6.2c-1.6,1.7-3.3,3.4-5.4,4.4c-1.2,0.5-2.6,0.9-3.9,1.1c-2.7,0.4-5.4,0.2-7.8-0.9
			c-2.3-1.1-4.4-2.5-6.1-4.6c-1.2-1.5-2.1-3.2-3.2-4.8c-0.3-0.5-0.5-1.2-0.6-1.8c-0.3-1.2-0.7-2.3-1-3.5c-0.2-0.7-0.3-1.4-0.3-2.1
			c0-7.2-0.1-14.3,0-21.5c0.1-3.3,0.9-6.4,2.3-9.5c1.4-2.8,3.3-5,5.8-6.7c0.6-0.4,1.3-0.5,1.9-0.8c0.8-0.3,1.7-0.2,2.4-1.2
			c-0.9-1.1-1.8-2.1-3.1-2.6c-2.7-1.1-4.6-3.2-6-5.6c-1.4-2.3-2.2-4.8-2.5-7.6c-0.3-2.5-0.1-4.9,0.1-7.4c0.2-3.5,0-7,0.1-10.5
			c0-0.8,0.1-1.6,0.2-2.3c0.1-1.5,1.1-2.6,1.5-4c0.7-2.2,2.1-3.7,3.7-5.1c0.6-0.5,1.3-0.9,1.9-1.3
			C145.2,176.3,146.5,175.9,146.6,174.1z"/>
		<path d="M118.6,299.5c-1,0.6-1.7,1.2-2.5,1.6c-0.7,0.3-1.5,0.5-2.2,0.6c-1.1,0.1-2.3,0.1-3.4,0.1c-15.6,0-31.1,0-46.7,0
			c-0.5,0-1,0-1.5,0c-1.8,0-3.4-0.1-4.7-1.6c-0.3-0.4-0.9-0.5-1.4-0.9c0-2,0-4.2,0-6.3c0-0.2,0-0.5,0.2-0.6c1.1-1.3,1.2-2.9,1.3-4.4
			c0.2-3.3,0.8-6.5,1.4-9.7c0.4-2.2,0.6-4.5,0.9-6.8c0.1-0.8,0.3-1.7,0.4-2.5c0.4-2.5,1-4.9,1.2-7.4c0.2-2.4,0.5-4.7,1.1-7
			c0.2-0.7,0.3-1.4,0.7-2c0.2-0.5,0.6-1.1,1.1-1.3c2-1.1,4.1-1.9,6.5-1.9c14.3,0,28.5,0,42.8,0c2.2,0,4.2,0.4,6.1,1.6
			c0.9,0.6,1.4,1.2,1.4,2.2c0,1.6,0,3.3,0,4.9c-0.1,3.3-0.2,6.6-0.3,9.9c-0.1,2.5,0.3,4.9-0.4,7.4c-0.4,1.5,0,3.3,0,4.9
			c0,0.6,0.1,1.3-0.1,1.9c-0.5,1.5-0.4,3-0.5,4.5c-0.1,3.6-0.3,7.1-0.5,10.7C119.1,298.1,118.8,298.9,118.6,299.5z"/>
		<path d="M216.8,301.7c-8.2,0-16.3-0.2-24.5,0.1c-4.1,0.1-7.5-2.7-7.6-7.4c0-2.6,0-5.2-0.1-7.7c-0.1-2.6,0-5.3-0.5-7.9
			c-1.2-5.6-1-11.3-1.2-17c-0.1-2.3-0.3-4.7-0.4-7c0-0.5,0-1,0-1.5c0.1-1.1,0.6-1.8,1.6-2.4c1.8-1.1,3.7-1.5,5.7-1.5
			c14.4,0,28.8,0,43.2,0c2.5,0,4.6,0.9,6.5,2.3c0.6,0.4,0.9,1.3,1.1,2c0.6,2.6,1.1,5.2,1.5,7.8c0.2,1.1,0.2,2.3,0.4,3.4
			c0.3,1.9,0.8,3.8,1.1,5.7c0.3,1.7,0.6,3.4,0.7,5.1c0.1,1.4,0.3,2.7,0.9,3.9c0.3,0.6,0.4,1.2,0.4,1.9c0.2,2,0.3,4,0.5,6
			c0,0.4,0.1,0.9,0.3,1.2c1.2,2.7,1.3,5.5,1.4,8.4c0,0.9,0.3,2-0.6,2.6c-1.2,0.9-2.2,2.1-3.9,2.2c-0.6,0-1.1,0-1.7,0
			C233.4,301.7,225.1,301.7,216.8,301.7z"/>
		<path d="M627.9,262.8c-0.9,0.1-1.5,0.2-2,0.3c-7.5,0.3-19.5,0.1-21.5-0.3c-0.1-0.5-0.2-1.1-0.2-1.7c0-2.7,0-5.3,0-8
			c0-38,0-76.1,0-114.1c0-0.6,0.1-1.2,0.1-2c0.7-0.1,1.2-0.3,1.8-0.3c6.5,0,13.1,0,19.6,0c0.6,0,1.2,0.1,2.1,0.2
			c0.1,0.7,0.2,1.4,0.2,2c0,40,0,80.1,0,120.1C627.9,260.2,627.9,261.4,627.9,262.8z"/>
		<path d="M454.4,199.1c0.5-0.1,1-0.1,1.2-0.3c0.3-0.2,0.5-0.7,0.5-1.1c0.1-1.6,0-3.3,0-4.9c0-0.8,0.2-1.6,0.3-2.4
			c2.1-0.4,8.9-0.3,10.6,0.1c0.1,0.4,0.3,0.9,0.3,1.4c0,1.2,0,2.4,0,3.7c0,19.8,0,39.5,0,59.3c0,1.2,0.1,2.4,0.2,3.9
			c-0.2,0.6-0.8,1.1-1.7,1.1c-3.1,0-6.1,0-9,0c-0.9-0.6-0.8-1.3-0.8-1.9c0-1.8,0.1-3.6,0-5.4c0-1.3-0.1-1.3-1.4-1.6
			c-1.1,1.1-2.1,2.3-3.2,3.4c-1.6,1.6-3.4,2.9-5.5,4c-1.9,1-4,1.6-5.9,2.6c-0.9,0.4-1.9,0.5-2.9,0.6c-1.6,0.2-3.3,0.3-4.9,0.4
			c-0.9,0-1.8-0.3-2.7-0.3c-1.2-0.1-2.5,0.1-3.7-0.1c-1.5-0.2-2.9-0.7-4.3-1.1c-0.4-0.1-0.8-0.4-1.2-0.5c-2.7-0.5-4.9-1.8-7.1-3.4
			c-1.8-1.4-3.7-2.6-5.5-4c-0.8-0.7-1.4-1.6-2.1-2.4c-2.3-2.5-4.1-5.4-5.4-8.4c-1.1-2.6-2.3-5.2-2.6-8.1c-0.4-3.4-1.3-6.7-1-10.2
			c0-0.4-0.1-0.9,0.1-1.3c0.9-2.3,0.8-4.8,1.3-7.1c0.1-0.7,0.5-1.3,0.7-2c0.8-2.5,1.8-4.8,3-7c0.9-1.7,2-3.5,3.3-4.9
			c2.3-2.4,4.9-4.6,7.3-6.9c2-0.6,3.3-2.5,5.5-2.7c0.3,0,0.5-0.2,0.8-0.3c1.3-0.8,2.7-1.4,4.2-1.3c0.1,0,0.3-0.1,0.4-0.1
			c2.5-1.1,5.3-0.9,8-1.4c0.5-0.1,1,0.1,1.5,0.1c2.8,0,5.4,1.1,8.1,1.6c0.3,0.1,0.7,0.1,1,0.3c2.3,1.2,4.8,2.2,6.9,3.8
			C451,195,452.9,196.7,454.4,199.1z M410.3,236.1c1,1.6,2,3.3,3,4.9c1.6,2.6,3.8,4.7,6.4,6.3c2,1.2,4.2,2.2,6.6,3
			c3.4,1.1,6.8,1.1,10.1,0.4c3.9-0.8,7.4-2.6,10.4-5.2c1.4-1.1,2.7-2.4,3.7-3.9c1.8-2.6,3.3-5.3,4.3-8.3c0.8-2.5,1.3-5.1,1.4-7.7
			c0.2-3.8-0.8-7.3-2.1-10.6c-1.4-3.7-3.7-6.9-6.6-9.6c-1.1-1-2.5-1.7-3.7-2.6c-3.1-2.5-6.8-3.4-10.7-3.6c-3.5-0.1-6.9,0.4-10.2,1.9
			c-3.3,1.6-5.8,3.8-8.2,6.4c-2.6,2.8-4.3,6.2-5.3,9.8c-1.6,5.4-1.7,10.8,0.2,16.2C409.9,234.3,410,235.2,410.3,236.1z"/>
		<path d="M583.4,239.3c-1,3.2-2.4,5.8-4,8.2c-1.5,2.3-3.4,4.4-5.5,6.3c-1.4,1.2-2.9,2.2-4.5,3.3c-0.4,0.3-0.9,0.4-1.4,0.6
			c-0.7,0.3-1.4,0.8-2.1,1.1c-0.8,0.3-1.6,0.6-2.4,0.9c-0.7,0.2-1.6,0.3-2.3,0.6c-1.8,0.9-3.7,1.1-5.6,1.1c-3.4,0-6.9,0-10.3-0.1
			c-1.3,0-2.7-0.4-4-0.7c-1.2-0.3-2.5-0.7-3.7-1.1c-0.1,0-0.3-0.1-0.4-0.1c-3.6-1.9-7.2-3.6-10.3-6.4c-2.6-2.3-5-4.9-6.8-7.9
			c-1-1.7-2-3.6-2.7-5.5c-0.9-2.4-1.5-4.8-2.1-7.2c-0.4-1.6-0.6-3.4-0.7-5.1c-0.1-1.1,0-2.3,0-3.4c-0.1-2,0-4,0.9-5.9
			c0.2-0.6,0.3-1.2,0.4-1.9c0.1-1.5,0.4-3,1.2-4.3c0.2-0.3,0.4-0.6,0.4-1c0.2-2.3,1.7-3.9,2.8-5.8c1.2-2.1,2.6-4,4.3-5.8
			c2.4-2.4,5.1-4.3,7.8-6.2c2-1.4,4.3-1.8,6.3-3.1c0.4-0.2,1-0.3,1.4-0.4c1.4-0.4,2.7-0.7,4.1-1.1c0.5-0.1,1.1-0.2,1.7-0.2
			c1.1-0.1,2.3-0.2,3.4-0.3c0.3,0,0.6-0.1,0.9,0c2.4,0.6,5,0.3,7.4,1.3c0.5,0.2,1.1,0.3,1.7,0.4c1.2,0.1,2.3,0.4,3.2,1.1
			c0.2,0.2,0.5,0.4,0.8,0.4c2,0.2,3.4,1.5,4.9,2.5c2.2,1.3,4.2,3,6,4.7c2,1.9,3.7,4.2,5,6.6c1,1.7,1.9,3.5,2.8,5.3
			c0.3,0.5,0.4,1.1,0.5,1.6c0.1,0.4,0.1,0.9,0.3,1.2c1.6,2.8,1.6,5.9,1.8,8.9c0.1,0.9,0.2,1.8,0.5,2.7c0.3,0.9,0.5,1.8,0,2.9
			c-0.6,0.1-1.4,0.2-2.1,0.2c-3.1,0-6.2,0-9.2,0c-14.8,0-29.7,0-44.5,0c-0.9,0-1.8,0.1-2.7,0.1c-0.7,1.4-0.5,2.5-0.1,3.7
			c1,2.7,1.9,5.4,3.3,7.9c1.5,2.5,3.5,4.6,5.7,6.4c1.4,1.1,2.9,2.1,4.4,3.1c0.3,0.2,0.7,0.2,1,0.4c0.9,0.3,1.7,0.6,2.6,1
			c1.7,0.8,3.6,0.9,5.5,1c2.5,0.1,5-0.2,7.5-0.3c0.5,0,1-0.2,1.4-0.4c5.2-1.7,9.1-4.9,12.2-9.3c0.2-0.3,0.4-0.7,0.5-1.1
			c0.4-1.1,1.2-1.6,2.3-1.6c2.7,0,5.5,0,8.2,0C581.9,238.7,582.6,239,583.4,239.3z M572.7,216.1c-1.2-2.3-2.2-4.6-3.6-6.8
			c-2.2-3.4-5.1-5.9-8.5-8c-2-1.2-4.1-1.9-6.3-2.5c-1.7-0.4-3.5-1-5.3-0.7c-3.5,0.6-7,1.4-10.1,3.3c-1.6,1-3,2.1-4.5,3.3
			c-1.8,1.4-3.1,3.3-4.4,5.3c-1.3,2.1-2.6,4.2-2.9,6.8c0.8,1.1,2.1,1,3.3,1c13,0,26.1,0,39.1,0c0.5,0,1,0,1.5,0
			c0.2,0,0.4-0.1,0.7-0.2C572.2,217.2,572.5,216.7,572.7,216.1z"/>
		<path d="M346.2,259.6c-3.5,0-6.6,0-9.8,0c-0.5,0-1.1-0.5-1.4-0.7c0-2.4,0.1-4.6,0.1-6.7c0-30.2,0-60.4,0-90.6c0-0.8,0-1.7,0-2.6
			c3.5-1.2,7-0.3,10.2-0.7c0.9,0.6,1,1.3,1,2c0,1,0,2,0,3c0,18.1,0,36.2,0,54.3c0,1.1-0.1,2.2,1.2,2.8c0.3-0.2,0.7-0.3,0.9-0.5
			c3.8-3.9,7.4-8,11.5-11.6c5.8-5.2,11.1-10.9,16.7-16.4c1.3-1.2,2.7-1.9,4.6-1.9c3.7,0.1,7.5,0,11.2,0c0.7,0,1.4,0.1,2.2,0.1
			c-0.6,1.8-1.9,2.9-3.1,4c-2.4,2-4.7,4.1-6.9,6.4c-2,2-4.1,3.9-6,6c-2.4,2.6-5.3,4.7-7.8,7.2c-0.5,0.4-0.9,0.9-1.2,1.5
			c-0.6,1.1-0.5,2.1,0.3,3.2c1.6,2.2,3.1,4.4,4.6,6.7c1.6,2.3,3.1,4.6,4.6,6.9c0.7,1,1.4,2,2,3c2.6,3.9,5.1,7.7,7.7,11.6
			c2.7,4,5.4,7.9,8.1,11.8c0.2,0.3,0.2,0.6,0.3,1.1c-0.6,0.1-1.1,0.2-1.6,0.2c-3.2,0-6.5-0.1-9.7,0c-1.5,0-2.5-0.6-3.4-1.9
			c-1.6-2.5-3.4-4.9-5.1-7.4c-1.5-2.2-2.9-4.5-4.4-6.8c-2-3-4-5.9-6-8.8c-1.5-2.3-3-4.7-4.5-7c-0.7-1.1-1.4-2.3-2.7-3.2
			c-2.6,1.7-4.5,4.2-6.6,6.3c-2.2,2.1-4.4,4.3-6.8,6.6c0,0.6-0.1,1.5-0.1,2.3c0,5.8,0,11.6,0,17.4
			C346.4,257.9,346.3,258.6,346.2,259.6z"/>
		<path d="M157.1,354.9c-2.2,0-4.8,0-7.5,0c-0.4-1.1-1.1-1.7-2.2-2c-2.7-0.9-4.8-2.8-6.4-5c-0.3-0.4-0.4-0.9-0.8-1.3
			c-1.4-1.2-1.9-3-2.7-4.6c-0.9-1.8-1.5-3.9-1.9-5.9c-0.8-4.3-1.3-8.7-0.8-13c0.7-6.3,0.1-12.6,0.4-18.9c0.1-2.6,0.2-5.3,1.5-7.7
			c0.2-0.3,0.3-0.7,0.3-1c0.6-3,2.4-5.3,4.3-7.5c0.8-0.9,1.7-1.7,2.6-2.6c0.2-0.1,0.3-0.4,0.5-0.4c1.9-0.7,3.5-2.1,5.6-2.4
			c2.1-0.3,4.1-0.3,6.2,0.2c3.6,0.9,6.4,2.9,8.7,5.7c0.6,0.7,1.1,1.5,1.7,2.2c1,1.1,1.4,2.4,2,3.7c2.2,4.7,2.5,9.7,2.6,14.8
			c0.1,4.9,0.3,9.8,0.5,14.8c0.1,2.1,0.4,4.1,0.3,6.2c-0.2,2.9,0,5.9-1.4,8.6c-0.3,0.5-0.3,1.1-0.4,1.7c-0.6,2.2-1.6,4.2-3,6
			c-0.6,0.8-1,1.7-1.7,2.5c-1.7,1.8-3.5,3.3-5.9,4.2C158.8,353.5,158.1,354.2,157.1,354.9z"/>
		<path d="M266.7,238.2c3.5,0,6.9,0,10.4,0c0.8,1.4,1.5,2.8,2.2,4.2c1.1,2.2,2.9,3.7,4.7,5.2c2.1,1.7,4.7,2.4,7.2,3.1
			c2.9,0.8,5.9,0.9,8.9,0.6c0.7-0.1,1.4-0.1,2.1-0.3c0.8-0.2,1.7-0.4,2.5-0.6c0.8-0.3,1.6-0.8,2.4-0.9c1.7-0.3,2.9-1.4,4-2.3
			c1.7-1.3,2.9-3.2,3.7-5.2c1.1-2.9-0.4-7.3-3.1-8.9c-1.4-0.8-2.8-1.7-4.5-2c-1.1-0.2-2.1-0.9-3.2-1.2c-1.5-0.4-3.1-0.5-4.6-0.8
			c-2.2-0.4-4.3-0.8-6.5-1.2c-0.6-0.1-1.1-0.1-1.7-0.1c-1.7,0-3.4-0.3-5-1.1c-0.5-0.2-0.9-0.5-1.4-0.5c-2.5,0-4.5-1.3-6.7-2.1
			c-0.9-0.3-1.8-0.9-2.6-1.5c-2.3-1.7-4.4-3.7-5.7-6.3c-0.3-0.6-0.3-1.4-0.5-2.1c-0.5-2.2-0.9-4.5-0.6-6.8c0.3-2.4,0.7-4.7,1.9-6.9
			c1.3-2.5,3.2-4.4,5.2-6.2c1.5-1.3,3.2-2.3,5-3.2c3.1-1.5,6.4-1.9,9.7-2.7c1-0.2,2,0.1,3-0.2c2.7-0.8,5.4,0.3,8.1,0.1
			c0.5,0,1,0.2,1.4,0.4c0.5,0.2,1.1,0.4,1.6,0.5c2.4,0.4,4.7,1,6.9,2.1c3.5,1.8,6.8,3.7,8.8,7.2c0.8,1.4,1.7,2.7,2.5,4
			c0.9,1.5,1.5,5.2,1.2,6.8c-1.4,0.6-5,0.7-9.8,0.4c-1-0.7-1.7-1.6-2.2-2.7c-1.1-2.4-2.9-4.2-5.1-5.6c-2.2-1.4-4.5-2.2-7-2.5
			c-3-0.4-6-0.6-8.9,0.3c-0.5,0.2-1,0.3-1.5,0.4c-3,0.4-5.4,1.9-7.3,4c-0.9,1-1.6,2.4-2.1,3.7c-0.4,1-0.3,2.3,0.2,3.3
			c0.9,1.9,2.3,3.1,4.3,3.9c4.2,1.8,8.7,2.3,13,3.3c3.9-0.2,7.5,1.7,11.4,1.9c0.5,0,1.1,0.4,1.6,0.6c0.5,0.2,1,0.5,1.6,0.6
			c2.8,0.6,5.1,2.1,7.4,3.6c2.7,1.7,4.1,4.3,5.4,6.9c0.6,1.2,0.7,2.6,0.8,4c0.1,2.3,0,4.7-0.1,7c0,0.5-0.2,1-0.2,1.5
			c0.1,1.3-0.5,2.3-0.9,3.5c-1.1,2.6-2.6,4.9-4.7,6.8c-2.7,2.4-5.7,4.5-9.3,5.5c-0.9,0.2-1.8,0.5-2.6,0.9c-1.9,0.8-3.9,0.8-5.9,0.8
			c-1.2,0-2.4,0.2-3.6,0.3c-0.4,0-0.9,0.1-1.3,0c-2.1-0.1-4.3-0.2-6.4-0.4c-1.1-0.1-2.3-0.3-3.4-0.6c-1.4-0.4-2.9-0.8-4.3-1.3
			c-1.6-0.7-3.1-1.5-4.6-2.3c-2.4-1.3-4.3-3.3-6.2-5.2c-0.8-0.7-1.5-1.6-1.9-2.5c-0.9-1.8-2.3-3.4-2.7-5.6c-0.2-1.1-0.7-2.2-1.1-3.2
			C265.9,239.8,265.9,239.1,266.7,238.2z"/>
		<path d="M124.9,163.7c0.9,2,0.9,4,0.5,6c-0.4,2-0.6,4.1-0.6,6.2c-0.1,4.5-0.3,9-0.4,13.5c0,1.6-0.1,3.1,0,4.7c0,2-0.7,3.4-2.7,4.2
			c-1.3,0.5-2.6,0.8-4,0.8c-13.6,0-27.2,0-40.9,0c-1.5,0-2.8-0.5-4-1.2c-1.2-0.6-1.5-1.9-1.4-3.2c0.2-2.1,0.5-4.1,0.8-6.1
			c0.3-2.1,0.8-4.2,1.1-6.3c0.1-0.6,0.2-1.3,0.2-1.9c0.2-2.6,0.3-5.2,1.1-7.8c0.5-1.5,0.5-3.2,0.6-4.9c0.2-3.8,1.3-4.9,5.6-5.7
			c0.5-0.1,1,0,1.5,0c12.2,0,24.4,0,36.6,0C121.1,162,123,162.5,124.9,163.7z"/>
		<path d="M224.5,163.4c1,2.4,2,4.6,2,7.1c0,1.7,0.3,3.4,0.8,5.1c0.7,2.6,1,5.3,1.3,8c0.3,2.3,0.9,4.6,1.3,6.9
			c0.3,1.6,0.4,3.2,0.6,5c-0.6,2.3-2,3.4-4.5,3.5c-1.1,0-2.1,0-3.2,0c-12.8,0-25.7,0-38.5,0c-1.7,0-3.2-0.5-4.7-1.3
			c-1.3-0.7-1.9-1.7-1.9-3.1c0-1,0.1-2,0-3c-0.3-3.5-0.1-6.9-0.7-10.4c-0.5-2.6-0.3-5.3-0.6-7.9c-0.3-2.4-0.5-4.8-0.4-7.3
			c0-0.8,0.1-1.6,0.1-2.3c1.8-1.1,3.5-1.9,5.5-1.8c12.5,0,24.9,0,37.4,0C220.9,162,222.6,162.8,224.5,163.4z"/>
		<path d="M510.1,251c0.8,2.9-0.2,6.1,0.5,9.1c-0.3,0.9-0.9,1.3-1.8,1.2c-2.9-0.1-5.7,0.2-8.4-1.2c-0.6-0.3-1.2-0.3-1.9-0.5
			c-0.4-0.1-0.9-0.1-1.2-0.4c-1.4-0.9-2.8-1.8-4.1-2.7c-2.5-1.9-4.1-4.5-5.6-7.2c-1.2-2.2-1.7-4.5-1.9-6.9c0-0.2,0-0.4-0.1-0.6
			c-1-1.9-0.7-3.9-0.7-5.9c0-10.8,0-21.6,0-32.4c0-1.2,0.2-2.5-1.2-3.6c-1.1,0-2.4,0-3.8,0c-0.8,0-1.6,0-2.4,0
			c-1.1-0.1-1.6-0.6-1.6-1.6c0-2.6,0-5.3,0-8.1c0.8-0.2,1.6-0.4,2.3-0.5c1.5-0.1,3,0,4.5,0c1.6-0.1,2.1-0.6,2.2-2.3
			c0-4.1,0-8.2,0-12.2c0-0.7-0.1-1.4-0.2-2.1c0.4-0.8,1-1,1.8-1c2.9,0,5.7,0,8.6,0c0.6,0,1.2,0.3,1.8,0.5c0,5.3,0,10.5,0,16
			c0.3,0.9,1.3,1.1,2.4,1.1c2.7,0,5.3,0,8,0c0.8,0,1.6,0.2,2.7,0.4c0,1.6,0,3,0,4.4c0,1.1,0,2.3,0,3.4c0,1.4-0.5,2-1.9,2
			c-2.4,0.1-4.9,0-7.3,0c-0.6,0-1.3,0-1.9,0c-1.1,0.1-1.6,0.7-1.7,1.8c0,0.5,0,1,0,1.5c0,10.8,0,21.6,0,32.4c0,3.3,0.7,6.5,2.6,9.3
			c1.5,2.1,3.3,3.9,6,4.6C507.1,249.9,508.5,250.4,510.1,251z"/>
		<path d="M293.9,298.6c-1.3,1.8-0.6,4-0.9,5.9c-1.8,0.8-3.1,0.8-4.4,0c0.3-7,0.1-14,0.1-21c0-0.7,0.1-1.5-0.1-2.1
			c-0.3-1,0.1-1.8,0.6-2.6c1.3-0.7,2.3,0.4,3.7,0.2c0.1,1,0.2,1.7,0.2,2.3c0,2.6,0,5.3,0,7.9c0,0.8,0.1,1.5,0.2,2.2
			c1.4,0.6,2.1,0,2.6-1c0.8-1.5,2-2.7,3.5-3.3c1.6-0.7,3.2-0.7,4.6,0.1c0.3,0.9-0.2,1.3-0.6,1.8c-1.2,1.2-2.3,2.3-3.5,3.5
			c-0.4,0.4-0.8,1-1.3,1.6c2.3,3.6,4.6,7.1,6.9,10.7c-0.4,0.2-0.7,0.4-1,0.4c-1.2,0-2.4,0-3.7,0c-0.8,0-1.3-0.4-1.7-1.1
			c-0.7-1.4-1.5-2.7-2.3-4.1C296,298.5,295.4,298.2,293.9,298.6z"/>
		<path d="M358.6,290.7c0.3,0.9,0.6,1.7,1,2.6c0.8,1.9,0.7,2.1-0.3,4.5c-0.7,0-1.4,0.1-2.2,0.1c-2.7,0-5.4,0-8.2,0
			c-0.7,0-1.4,0.1-2.3,0.2c-0.1,0.8-0.1,1.4-0.2,2c1.1,0.5,2,1.1,3,1.5c1.1,0.5,2.2,0.2,3.3-0.4c1.5-0.9,3-1.3,4.7-1.1
			c0.5,0.1,0.9,0.3,1.2,0.4c0.2,1.1-0.2,1.7-0.8,2.3c-2.6,2.4-5.6,3.2-9.1,2.6c-2-0.3-3.6-1.2-4.9-2.5c-2.1-2.1-2.9-4.8-2.7-7.8
			c0.1-2.4,1.3-4.5,2.8-6.1c1.4-1.4,3.3-2.4,5.5-2.6c2.9-0.4,5.3,0.7,7.4,2.6c0.5,0.5,1.1,1,1.6,1.4
			C358.6,290.5,358.6,290.6,358.6,290.7z M354.1,293.8c0-0.9,0-1.5,0-2.1c-0.3-0.2-0.6-0.4-0.9-0.6c-0.7-0.3-1.4-0.7-2.1-1
			c-1,0.3-2,0.6-2.9,1c-1.3,0.5-1.5,1.1-0.7,2.8C349.5,294,351.6,294.1,354.1,293.8z"/>
		<path d="M308.1,297.5c1-1.4,2-2.1,3.5-2.4c2.4-0.5,4.8-1.2,7.3-1.6c0.6-0.1,1.1-0.6,1.5-0.8c0-1.8-1.2-2.3-2.3-2.8
			c-1-0.5-1.9-0.3-2.8,0.3c-1.1,0.8-2.2,1.5-3.6,2.4c-0.8-0.2-1.9-0.5-3-0.7c-0.1-1.6,0.8-2.6,1.7-3.3c3.6-2.8,8.7-3.5,12.7-0.5
			c1.2,0.9,2,2.2,2.1,3.6c0.1,4.3,0,8.6,0,12.8c-1,0.8-2.1,0.6-3.1,0.3c-1.2-0.3-2.4-0.3-3.6,0.1c-2.2,0.7-4.4,0.5-6.6,0.1
			c-1.9-0.4-3.7-2.5-3.8-4.4C308,299.6,308.1,298.5,308.1,297.5z M312.5,298.9c0.6,2.2,1.1,2.7,2.9,2.8c2,0.2,3.5-0.8,5.1-1.8
			c0.2-0.8,0.3-1.6,0.5-2.5c-0.7-0.3-1.3-0.6-1.9-0.9C317,297.7,314.4,297.3,312.5,298.9z"/>
		<path d="M700.8,304.9c-2.2,0.6-3.9,0.2-5.5-0.4c-1.4,0.4-2.7,0.9-4,1c-2.1,0.1-4.3,0.1-6.1-1.3c-1.5-1.2-2.5-3.4-2-5.2
			c0.2-0.9,0.6-1.8,0.9-2.7c3.4-2,7.5-1.9,11.1-3c0.6-1.2,0.3-2-0.5-2.7c-0.9-0.7-1.9-1.1-3-0.6c-1.5,0.7-2.8,1.6-4.5,2.6
			c-0.6,0-1.7,0-2.7,0c-0.7-0.6-0.7-1.3-0.3-1.9c0.4-0.7,0.8-1.4,1.4-1.9c1.3-0.9,2.5-2,4.1-2.1c1.7-0.1,3.5-0.4,5.1-0.1
			c2.5,0.4,4.3,2,5.3,4.4c0.2,0.4,0.1,1,0.1,1.5c0,1.5,0,3,0,4.5C700.3,299.5,699.8,302.2,700.8,304.9z M695.5,296.7
			c-1.9-0.4-3.4,0.9-5.2,0.9c-0.9,0-2,0.4-2.6,1.4c-0.1,1,0.4,1.6,1.2,2.1c1.7,1,3.3,0.6,4.9-0.1
			C695.8,300.1,696.1,299.3,695.5,296.7z"/>
		<path d="M572.7,295.7c1.9-0.6,3.4-1.1,5-1.5c0.5-0.1,1.1-0.1,1.7-0.2c0.9-0.1,1.8-0.3,2.7-0.5c0.8-0.2,1.3-0.6,1.3-1.6
			c-0.9-1.8-2.3-2.5-4.4-2.1c-1,0.7-2.1,1.4-3.2,2.1c-1.7,1.1-2.1,1.1-3.9-0.3c-0.1-1.2,0.6-2.1,1.5-2.9c2.9-2.4,6.3-3.1,9.9-2
			c1.4,0.4,2.6,1.6,3.9,2.6c0.3,0.3,0.5,0.9,0.6,1.3c0.5,3.5,0.5,7,0.2,10.4c-0.1,0.7,0.1,1.4,0.1,2.1c0,0.5,0.1,1,0.1,1.4
			c-1.7,1-3.1,0.5-4.6-0.3c-2.6,1.2-5.3,1.3-8.1,0.8c-2.7-0.5-5.1-3.5-4.7-6.2c0.1-0.6,0.4-1.2,0.7-1.7
			C571.8,296.6,572.4,296.1,572.7,295.7z M584.2,297.7c-0.3-0.6-0.8-0.7-1.4-0.7c-2.2-0.2-4.1,0.9-6.2,1.2c-0.7,0.1-1.1,0.7-1.1,1.4
			c0,0.7,0.4,1.2,1,1.5c1.3,0.5,2.6,1,4.1,0.4C582.4,300.7,584.1,299.9,584.2,297.7z"/>
		<path d="M649.5,296c-0.1,3.6-1.6,6.5-4.6,8.5c-1.6,1.1-3.7,1.1-5.6,1c-6.4-0.4-9.9-7.1-7.9-12.7c1.4-4,5.2-6.6,9.2-6.4
			c3.1,0.1,6.2,2.1,7.6,4.8C649.4,293.6,649.4,293.6,649.5,296z M644.5,293.8c-0.5-0.6-0.8-1.3-1.3-1.8c-0.4-0.4-0.9-0.9-1.5-1.1
			c-2.8-1.1-5.3,1-6,3.3c-0.6,2-0.3,4.1,1.4,5.7c0.9,0.9,2,1.4,3.1,1.7C643.6,300.6,645.8,298.1,644.5,293.8z"/>
		<path d="M735,286.3c3.2-0.3,7.5,2.9,8.4,6.1c0.8,3,0.4,5.6-0.4,8.3c-0.1,0.5-0.5,0.9-0.8,1.3c-3.1,3.6-6.5,4.2-10.8,3
			c-1.4-0.4-2.6-1.4-3.6-2.6c-2.5-2.9-2.6-6.3-1.7-9.7c0.5-1.9,1.8-3.5,3.5-4.7C731.3,287,733,286.3,735,286.3z M734.8,301.7
			c2.9-1.2,2.9-1.2,4.2-3.6c0.1-0.1,0.1-0.2,0.2-0.4c0.8-1,0.7-2.1,0.2-3.2c-0.2-0.5-0.6-1-0.8-1.5c-0.8-1.9-2.5-2.3-4.2-2.4
			c-1.7,0-3.4,1.4-3.9,3.2c-0.9,3.3,0,6.1,3.2,7.5C734.1,301.5,734.4,301.6,734.8,301.7z"/>
		<path d="M523.3,296.1c-0.1,0.9,0,1.9-0.2,2.8c-1,4.2-4.9,7-9.6,6.7c-3.5-0.3-5.8-2.1-7.4-5c-0.9-1.6-0.9-3.4-0.8-5.2
			c0.1-0.9,0.2-1.8,0.4-2.7c0.1-0.5,0.4-1.1,0.7-1.6c1.2-1.8,2.7-3.3,4.6-4c2.6-0.9,5.4-1.4,7.9,0.6c0.8,0.6,1.6,1.1,2.3,1.8
			c1.7,1.6,2.2,3.6,2.1,5.8C523.3,295.5,523.3,295.8,523.3,296.1C523.3,296.1,523.3,296.1,523.3,296.1z M514.4,301.8
			c0.4-0.2,0.7-0.3,1-0.4c2.2-0.7,3.1-2.6,3.8-4.6c0.2-0.7,0-1.5-0.2-2.3c-0.2-0.7-0.6-1.3-0.9-1.9c-1.3-2.2-4.6-2.7-6.5-1
			c-1.7,1.5-1.8,3.5-1.7,5.5c0.1,1.7,0.7,3,2.5,3.7C513.1,301.1,513.7,301.4,514.4,301.8z"/>
		<path d="M420.1,291.6c-1.5,0.6-2.8-0.2-4.1-0.4c-0.6-0.1-1.2-0.5-1.8-0.6c-1.4-0.2-2.7-0.1-3.6,1.2c0,1.1,0.6,1.7,1.5,1.7
			c2.8,0,5.2,1.5,7.8,2c1.9,2.6,1.9,2.6,1.8,5.6c-0.6,0.8-1.3,1.9-2.2,2.8c-2.1,1.8-4.7,1.7-7.3,1.6c-0.5,0-1-0.2-1.5-0.2
			c-1.1,0-1.9-0.4-2.7-1.2c-0.5-0.5-1-1-1.6-1.5c-0.9-0.8-1.3-1.8-0.8-3.1c1-0.6,2.2,0,3-0.3c1.3,0.8,2.2,1.5,3.3,2
			c2.3,1.1,3.7,0.6,5.1-1.8c-0.2-1.2-1.3-1.2-2.2-1.4c-2.4-0.6-4.8-1.2-7.2-1.8c-0.7-0.9-1.4-1.6-2-2.3c-1.3-3.7,2.7-7.4,6-7.5
			c1.6-0.1,3.3,0.1,4.9,0.4c1.4,0.3,2.4,1.4,3.4,2.5C420.5,289.8,420.4,290.2,420.1,291.6z"/>
		<path d="M600.2,290.1c-2.3,0.9-2.3,0.9-2.4,2.7c1.3,1,3,0.6,4.5,1.1c1.5,0.5,2.9,1,4.7,1.6c0.5,0.7,1.2,1.6,1.8,2.5
			c0.4,3.7-1.8,6.4-5.3,7.2c-2.2,0.4-4.3,0.4-6.4-0.2c-2.3-0.6-3.9-2.3-4.9-4.5c-0.1-0.2-0.1-0.4,0-0.6c0-0.2,0.2-0.4,0.4-0.7
			c1.1,0,2.2,0,3.3,0c1.3,0.7,2.6,1.5,3.9,2.2c1.1,0.6,2.1,0.2,3.1-0.4c0.8-0.4,1.3-1.1,1.2-2.1c-1.3-1.4-3.2-0.8-4.8-1.4
			c-1.6-0.6-3.2-1.1-5-1.7c-0.5-0.6-1-1.4-1.6-2.1c-0.7-1.8,0.2-3.4,0.9-4.9c0.1-0.2,0.3-0.5,0.6-0.6c2.3-1.5,4.6-2.3,7.5-1.9
			c1.7,0.3,3.1,1.1,4.5,1.8c1.1,0.6,1.7,1.7,1.2,3.1c-1.3,1-2.5,0.3-3.7,0C602.4,291.1,601.3,290.5,600.2,290.1z"/>
		<path d="M619.7,290.2c-2.4,0.8-2.5,0.8-2.5,2.6c1.3,1,3,0.6,4.5,1.2c1.4,0.5,2.8,1,4.7,1.6c2.8,1.8,2.3,7.6-2.1,9.2
			c-1.6,0.6-3.5,0.5-5.3,0.6c-0.8,0-1.6-0.2-2.3-0.3c-0.2,0-0.4,0-0.6-0.1c-1.8-1-3.3-2.3-4.3-4.1c-0.3-0.5-0.3-1.1,0.3-1.7
			c1,0,2.1,0,3.1,0c1.4,0.8,2.6,1.5,3.9,2.2c1.1,0.6,2.2,0.3,3.2-0.4c0.8-0.6,1.1-1.3,0.7-2.2c-1.4-1.2-3.2-0.7-4.7-1.3
			c-1.5-0.6-3-1-4.6-1.6c-0.5-0.6-1-1.4-1.6-2.1c-0.4-1.5-0.2-2.9,0.6-4.3c0.4-0.7,1-1.1,1.7-1.6c2.4-1.8,5.1-1.9,7.7-1.2
			c1.3,0.3,2.7,1,3.8,1.8c0.9,0.6,1.3,1.7,0.9,2.8C625.2,292,625.2,292,619.7,290.2z"/>
		<path d="M282.8,295.7c0.2,0.4,0.5,0.8,0.7,1.2c1.4,2.4,1.1,4.2-0.6,6.2c-1.9,2.2-4.4,2.5-7,2.4c-3.4,0-6-1.5-7.8-4.4
			c-0.4-0.6-0.5-1.2,0.1-1.9c1,0,2.1,0,3.3,0c0.8,0.5,1.6,1.1,2.5,1.5c2.5,1.3,3.1,1.2,5.5-0.5c0-0.2,0.1-0.5,0.1-0.8
			c0-0.3-0.1-0.5-0.2-0.7c-1.5-1.3-3.4-0.7-5-1.3c-1.5-0.6-3.1-1.1-4.6-1.6c-2.5-2.4-2.5-4.9-0.1-7.6c1.3-0.5,2.5-1.7,4.2-1.8
			c2.2-0.2,4.4-0.2,6.4,1.1c0.3,0.2,0.6,0.3,1,0.4c1.5,0.8,1.8,1.4,1.4,3.5c-2.6,0.8-4.7-0.8-7-1.3c-2.5,1-2.5,1-2.4,2.7
			c1.4,1,3.2,0.6,4.7,1.2C279.6,294.6,281.1,295.1,282.8,295.7z"/>
		<path d="M555.3,291.7c-1.4,0.2-2.8,0.2-4-0.5c-0.7-0.4-1.5-0.5-2.3-0.7c-1.5-0.3-2.9,0-3.6,1.6c0.2,1,0.9,1.4,1.8,1.4
			c1.8,0,3.4,0.5,4.9,1.3c0.5,0.3,1.1,0.3,1.6,0.5c1.6,0.5,2.6,1.6,2.6,3.3c0,1.1-0.2,2.3-0.4,3.4c-0.1,0.4-0.5,0.9-0.8,1.2
			c-2.3,2.2-5.1,2.6-8.2,2.3c-0.9-0.1-1.8-0.3-2.7-0.5c-1-0.6-1.9-1.3-3.1-2.1c-0.3-0.8-0.7-1.9-1-3c1.2-1,2.4-1,3.7-0.4
			c0.7,0.3,1.3,0.7,1.8,1.1c1.7,1.2,3.4,1.5,5.4,0.2c0.2-0.4,0.4-1.1,0.6-1.5c-0.5-1.1-1.4-1.1-2.1-1.3c-1.9-0.5-3.9-1-5.8-1.5
			c-2.3-0.6-3.3-2.2-3.2-4.6c0.1-2.8,2.7-4.9,4.9-5.2c1.3-0.2,2.6-0.3,3.8-0.3c2.3,0,4.1,1.3,5.5,2.9
			C555.3,289.9,555.9,290.6,555.3,291.7z"/>
		<path d="M451.1,286.9c1.3,0,2.4,0,3.6,0c0.9,0.4,0.9,1.3,0.9,2.3c0,2.4,0,4.9,0,7.3c0,0.9,0,1.9,0,2.6c2.4,3.1,4.4,3,7.3-0.1
			c0-0.7,0.1-1.5,0.1-2.4c0-2.4,0-4.9,0-7.3c0-2.3,0.6-2.8,2.9-2.2c0.3,0.1,0.7,0.1,1.2,0.3c0.1,0.7,0.3,1.3,0.3,2c0,4-0.1,8-0.1,12
			c0,1.1,0.2,2.1,0.3,3.4c-1.8,0.9-3.6,0.7-5.3-0.2c-1.3,0.4-2.4,0.8-3.6,1c-2.4,0.5-5.5-1-6.6-3.3c-0.8-1.7-1.3-3.4-1.3-5.4
			c0.1-2.4,0-4.9,0-7.3C451,288.7,451.1,287.9,451.1,286.9z"/>
		<path d="M401,305.1c-1.5,0.1-2.8,0.4-4-0.3c-0.6-4.3,0.6-8.7-0.8-13c-1-0.4-1.9-0.8-2.6-1.1c-3.1,0.7-4,1.9-4.1,4.8
			c0,2.6,0,5.2,0,7.7c0,0.5-0.1,1-0.1,1.4c-2,1-3.1,0.9-4.4-0.4c0.1-1.3,0.2-2.6,0.2-3.9c0-3.4,0-6.9,0-10.3c0-0.8,0-1.6,0-2.1
			c1.6-1.8,3.1-1,4.7-0.5c1.1-0.3,2.3-0.7,3.4-0.9c3.2-0.7,6.7,1.3,7.7,4.4c0.2,0.6,0.2,1.3,0.2,1.9c0,2.5,0,5,0,7.5
			c0,1.1,0.2,2.1,0.2,3.2C401.3,304,401.1,304.6,401,305.1z"/>
		<path d="M748.4,287.7c1.2-0.9,2.2-1.3,3.4-0.4c0.4,0.3,1.4,0.4,1.8,0.1c2.1-1.3,4.2-1,6.8-0.5c1.1,1.2,2.5,2.5,3.7,3.8
			c0,4.9,0,9.6,0,14.3c-2.6,0.4-3,0.4-4.1-0.5c0-3.1,0-6.1,0-9.1c0-0.6-0.2-1.1-0.3-1.7c-0.1-1.7-1.1-2.5-2.7-2.9
			c-0.2,0-0.4-0.1-0.5-0.1c-2.5,0.1-3.5,1.7-4,3.3c0,3.7,0,7,0,10.5c-1.4,1-2.9,0.9-4.3,0c0.4-4.8,0.1-9.5,0.2-14.2
			C748.3,289.4,748.4,288.5,748.4,287.7z"/>
		<path d="M670.4,292.6c-1.7,0.4-3.3,0.2-4.8,0.1c-0.6-0.5-1.1-1-1.7-1.5c-0.7-0.2-1.5-0.4-2.3-0.6c-0.7,0.2-1.5,0.4-2.3,0.6
			c-0.7,0.8-1.5,1.6-2,2.5c-0.9,1.5-1,3.1,0,4.6c0.6,0.8,1.2,1.7,2,2.2c2.2,1.4,2.7,1.7,4.8,0.1c1.7-1.3,3.5-1.8,5.8-1.3
			c0.5,1.7-0.5,2.8-1.6,3.8c-3,2.8-6.6,2.9-10.2,1.9c-1.8-0.5-3.3-2-4.3-3.7c-2.2-3.7-1.8-7.4,0.1-11c0.1-0.2,0.3-0.5,0.5-0.7
			c2.9-3.1,6.5-4.1,10.5-2.9c1,0.3,2,0.9,2.7,1.7c1,1,1.9,2.2,2.7,3.3C670.5,291.8,670.4,292.1,670.4,292.6z"/>
		<path d="M489,292.7c-1.4,0-2.7,0-4.1,0c-0.2-0.2-0.5-0.4-0.7-0.6c-1.9-2.1-4.2-1.5-6.1-0.5c-0.5,0.2-0.8,0.8-1,1.3
			c-0.5,1-0.9,2.1-1.4,3.3c0.3,0.7,0.6,1.5,0.8,2.3c0.6,1.9,2.1,2.7,3.7,3.2c0.5,0.2,1.3,0,1.8-0.2c1.1-0.6,2.2-1.4,3.3-2.1
			c2.3-0.2,2.3-0.2,3.6,0.3c0.5,0.8,0.1,1.6-0.4,2.1c-1,1.1-2.1,2-3.1,3c-0.2,0.1-0.4,0.3-0.6,0.3c-2.7,0.5-5.6,1-8.2-0.1
			c-2.7-1.1-4.5-3.3-5-6.3c-0.2-1.7-0.2-3.4,0-5.1c0.5-4,4.3-6.9,8.6-7.1c3.6-0.1,6.4,1.3,8.3,4.3
			C489.1,291.2,489.5,291.7,489,292.7z"/>
		<path d="M426.7,282.2c1.4,0,2.3,0,3.5,0c0.6,0.3,0.7,1.1,0.7,1.8c0.2,2.6,0.3,2.7,2.7,3.4c0.7,1,0.7,1.9,0,2.9
			c-2.4,0.8-2.8,1.2-2.8,3.8c0,1.2-0.1,2.4,0,3.6c0.1,0.8,0.3,1.5,0.5,2.4c0.9,0.4,1.8,0.7,2.7,1c0.2,1.2,0.9,2.4,0.2,3.9
			c-0.6,0.1-1.2,0.1-1.8,0.2c-0.6,0-1.1,0-1.5,0c-1.8-1.1-3.3-2.2-4-4c-0.3-0.9-0.6-1.9-0.7-2.8c-0.1-1.3,0-2.7,0.1-4.1
			c0.1-1.5-0.3-2.8-1.5-3.8c-0.2-0.1-0.3-0.3-0.5-0.6c0-0.6,0-1.3,0-2.1c0.3-0.3,0.6-0.7,1-1.1c0.6-0.6,1-1.3,0.9-2.3
			C426.2,283.7,426.6,282.9,426.7,282.2z"/>
		<path d="M334.7,283.5c0,0.4,0.1,0.7,0,1c-0.1,1.2,0.4,1.9,1.6,2.2c0.6,0.2,1.2,0.5,1.6,0.7c0.4,2.5,0.1,2.9-2.8,3.8
			c-0.1,0.4-0.3,0.8-0.4,1.3c0,1.6,0,3.1,0,4.7c0,1.4,0.5,2.5,1.8,3.2c0.5,0.3,1,0.8,1.6,1.2c0,1,0,2,0,3c-1.7,0.7-3.1,0.7-4.5-0.5
			c-0.7-0.5-1.3-1.1-2-1.8c-1.7-3.2-1-6.8-1.2-10.4c-0.3-0.4-0.7-0.8-1.1-1.2c-0.4-0.3-0.8-0.6-1.3-0.9c0-0.8,0-1.5,0-2.3
			c0.7-0.7,1.6-1.2,2-2.1c0.4-0.8,0.4-1.8,0.6-2.7C332.5,281.7,333,281.7,334.7,283.5z"/>
		<path d="M498.9,291.4c-0.3,2.2-0.2,4.5,0,6.7c0.1,0.9,0.6,1.7,1.5,2.3c0.6,0.4,1.2,0.9,1.8,1.4c0,1.1,0,2,0,2.9
			c-2.9,1.6-4.6-0.6-6.5-2.1c-1.7-3.2-1-6.9-1.2-10.6c-0.7-0.6-1.4-1.2-2.3-2c0-0.6,0-1.5,0-2.3c2.2-2,2.2-2,2.6-4.9
			c0.5-0.3,1.1-0.6,1.8-1c0.8,0.5,1.5,0.9,2,1.2c0.5,1.2-0.1,2.4,0.9,3.1c0.8,0.5,1.8,0.9,2.6,1.3
			C502.4,289.9,502.1,290.2,498.9,291.4z"/>
		<path d="M707,303c-1.9-3.8-0.9-7.7-1.3-11.4c-0.7-0.5-1.3-1-2-1.5c0-0.8,0-1.7,0-2.5c0.6-0.6,1.4-1.1,1.8-1.7
			c0.4-0.6,0.3-1.5,0.5-2.5c0.4-0.8,1.3-1.2,2.3-1.3c1,0.3,1.4,1,1.4,2c0.2,2.2,0.2,2.2,2.3,2.8c0.2,0.1,0.4,0.2,0.6,0.3
			c0.1,0.1,0.2,0.2,0.4,0.4c0,0.4,0.1,0.9,0.1,1.4c0,0.5-0.1,1-0.2,1.6c-0.9,0.2-1.7,0.5-2.7,0.7c-1.1,1.4-0.6,3.1-0.6,4.7
			c0,1,0.2,2.1,0.6,3.1c0.2,0.6,0.9,1,1.5,1.5c0.4,0.3,1,0.6,1.5,0.9c0.2,1,0.4,1.9,0.6,2.8C711.9,305.9,710.4,305.6,707,303z"/>
		<path d="M438.1,287.8c1.7-1.9,3.1-0.6,4.6,0.2c1.6-1.3,3.3-2.3,5.5-0.7c-0.1,1-0.3,2-0.5,3.2c-0.6,0.2-1.2,0.4-1.8,0.5
			c-2.4,0.4-3.7,1.8-3.7,4.1c-0.1,2.6,0,5.3,0,7.9c0,0.6-0.1,1.1-0.1,1.7c-1.6,0.5-3.1,0.9-4.2-0.3c0-4.9,0-9.5,0.1-14.2
			C438.1,289.4,438.1,288.5,438.1,287.8z"/>
		<path d="M528.1,287.7c1.6-1.3,2.8-0.9,4.1,0c1.9-0.7,3.8-2.1,6.1-0.4c-0.2,0.9-0.3,1.9-0.5,3c-0.7,0.2-1.3,0.6-2,0.7
			c-2.6,0.3-3.4,2.3-3.8,4.3c-0.6,3-0.8,6.1-0.2,9.1c-1.4,1.2-2.5,1.2-4,0.1c0.1-1.8,0.2-3.5,0.2-5.2c0-3.3-0.1-6.6-0.1-9.8
			C527.9,288.8,528,288.1,528.1,287.7z"/>
		<path d="M721.7,305c-1.6,0-3,0-4.2,0c-0.2-0.3-0.3-0.4-0.3-0.5c0-4.6-0.1-9.3-0.1-13.9c0-1.2,0.3-2.4,0.4-3.5
			c1.4-0.5,2.5-0.4,3.7-0.2c0.8,0.8,0.6,1.8,0.6,2.7c0,3.7,0,7.4,0,11.2c0,0.9,0.1,1.8,0.1,2.8C721.9,304,721.7,304.4,721.7,305z"/>
		<path d="M679.1,304.7c-2.3,0.7-3.2,0.7-4.6-0.2c0.5-5,0.1-10.1,0.2-15.1c0-0.8,0.1-1.5,0.2-2.2c1.5-1,2.6-0.2,3.9,0.2
			c0.6,1.9,0.2,3.9,0.3,5.8c0.1,1.9,0,3.9,0,5.8C679.1,300.8,679.1,302.7,679.1,304.7z"/>
		<path d="M375.8,287.3c1.2-0.3,2.1-0.5,2.9-0.7c1,0.7,1.2,1.5,1.2,2.4c0,5.1,0,10.2,0,15.2c0,0.1-0.1,0.3-0.2,0.5
			c-1.4,0.5-2.7,0.7-4.1-0.3C375.9,298.8,375.5,293.2,375.8,287.3z"/>
		<path d="M717.5,284c-0.7-1.8-0.7-1.9,0.4-3.6c1,0,2,0,3.2,0c0.7,1.1,1.3,2.2,0.3,3.6C720.1,284,718.8,284,717.5,284z"/>
		<path d="M675,284c-0.9-1.8-0.8-2.2,1-3.7c0.8,0.2,1.7,0.4,2.5,0.6c0.7,0.9,0.7,1.9,0.3,2.8C677.4,284.2,677.4,284.2,675,284z"/>
		<path d="M375.9,280.9c1.1-0.2,2-0.4,2.8-0.6c1.4,1.5,1.5,1.9,0.7,3.7c-1.4,0.1-2.9,0.6-4.1-0.9
			C375.5,282.4,375.7,281.7,375.9,280.9z"/>
	</g>
</g>
</svg>
