<?xml version="1.0" encoding="utf-8"?>
<!-- Generator: Adobe Illustrator 26.2.1, SVG Export Plug-In . SVG Version: 6.00 Build 0)  -->
<svg version="1.1" id="Layer_1" xmlns="http://www.w3.org/2000/svg" xmlns:xlink="http://www.w3.org/1999/xlink" x="0px" y="0px"
	 viewBox="0 0 820.2 489.6" style="enable-background:new 0 0 820.2 489.6;" xml:space="preserve">
<g>
	<g>
		<path d="M691.2,335.6c0,2.4,0,4.6,0,6.8c0,2,0,2-1.8,3.3c-0.2,1.8-0.3,3.6-0.5,5.4c-0.5,0.3-0.9,0.6-1.4,0.9c-1,1.5-0.3,3.2-0.7,5
			c-0.5,0.4-1,0.8-1.7,1.3c-0.1,1-0.3,2.1-0.4,3.2c-0.5,0.3-1,0.7-1.5,1c-0.1,0.5-0.2,1.2-0.2,1.8c0,1.1-0.5,1.8-1.7,1.9
			c-0.2,0.6-0.4,1.1-0.5,1.6c-0.1,0.5-0.1,0.9-0.2,1.5c-0.5,0.3-1.1,0.6-1.6,0.9c-0.3,1.1-0.6,2.1-0.9,3.2c-0.7,0.5-1.4,0.9-1.8,1.8
			c-0.2,0.5-0.9,0.8-1.4,1.2c-0.2,1-0.4,2-0.7,3c-0.6,0.3-1.1,0.7-1.7,1c-0.3,0.7-0.6,1.4-1.4,1.8c-0.3,0.1-0.6,0.5-0.7,0.9
			c-0.3,0.8-0.9,1.1-1.7,1.3c-0.2,0.9-0.6,1.7-1.4,2.3c-0.7,0.5-1.2,1.5-1.5,2.3c-0.3,0.9-0.9,1.3-1.7,1.6c-0.2,0.4-0.3,0.8-0.6,1.4
			c-0.4,0.2-0.9,0.4-1.5,0.6c-0.2,0.4-0.4,0.9-0.6,1.5c-0.4,0.2-0.8,0.4-1.4,0.7c-0.2,0.4-0.4,0.9-0.7,1.4c-0.5,0.2-1.1,0.4-1.5,0.6
			c-0.2,0.5-0.4,1-0.6,1.6c-0.8,0.1-1.6,0.3-2.5,0.4c-0.3,0.8-0.7,1.5-1.5,2c-0.5,0.3-0.8,1.1-1.3,1.7c-0.5,0.1-1.2,0.3-1.8,0.4
			c-0.8,1.6-0.8,1.6-2.6,2.1c-0.3,0.5-0.5,1-0.8,1.5c-0.8,0.2-1.5,0.4-2.3,0.6c-0.2,0.5-0.5,1-0.7,1.6c-0.6,0.2-1.2,0.3-1.9,0.5
			c-0.2,0.4-0.5,0.9-0.8,1.5c-0.7,0.2-1.5,0.3-2.3,0.5c-0.2,0.5-0.5,1.1-0.8,1.7c-0.8,0.1-1.6,0.2-2.5,0.3c-0.2,0.5-0.5,1-0.9,1.7
			c-0.9,0.1-1.9,0.2-2.9,0.3c-0.1,0.5-0.3,1-0.4,1.4c-1.1,1.1-2.4,0.4-3.6,0.9c-0.2,0.4-0.5,0.9-0.8,1.5c-1,0.2-2,0.4-3.1,0.6
			c-0.2,0.4-0.4,0.9-0.6,1.4c-1.3,0.6-2.7,0.1-4.1,0.5c-0.2,0.4-0.3,0.8-0.5,1.2c-1.2,1.3-2.9,0.6-4.3,0.9c-0.4,0.5-0.6,1.2-1.1,1.5
			c-0.5,0.3-1.2,0.3-1.8,0.3c-1,0-2.1,0-3.2,0c-0.4,0.6-0.7,1.2-1.1,1.9c-2.2,0.4-4.5,0-6.7,0.2c-0.3,0.5-0.6,1.1-0.9,1.7
			c-1.8,0.3-3.5,0.1-5.3,0.2c-1.7,0-3.4,0-5.1,0c-0.5,0.4-0.9,0.7-1.5,1.2c-0.4,0-0.8,0.1-1.2,0.1c-5.3,0-10.6,0-15.8,0
			c-1.2,0-2.3-0.1-2.8-1.2c-3.4-0.2-6.6,0.1-9.8-0.2c-0.3-0.6-0.5-1.1-0.8-1.6c-0.2-0.1-0.4-0.2-0.6-0.2c-1,0-2.1,0-3.1,0
			c-0.6,0-1.3-0.1-2-0.1c-0.3-0.6-0.6-1.1-1-1.8c-0.6,0-1.3-0.1-2-0.1c-0.6-0.1-1.2-0.2-1.9-0.2c-0.3-0.5-0.5-1-0.8-1.5
			c-0.4-0.1-1-0.1-1.5-0.2c-0.5-0.1-0.9-0.3-1.4-0.5c-0.3-0.5-0.5-1-0.8-1.5c-0.8-0.1-1.6-0.2-2.4-0.3c-0.3-0.5-0.5-0.9-0.9-1.7
			c-0.6-0.3-1.7-0.4-2.2-1.6c-0.4-0.9-2.1-0.8-2.2-2.3c-0.9-0.6-1.8-1-1.9-2.3c-0.5-0.2-0.9-0.3-1.4-0.5c-0.8-0.5-0.5-1.9-1.8-2
			c-0.2-0.5-0.5-1-0.8-1.6c-0.2-0.1-0.6-0.4-1.1-0.7c-0.1-0.4-0.3-0.9-0.5-1.4c-0.7-0.4-1.7-0.5-2-1.4c-0.2-0.8-0.2-1.6-0.3-2.4
			c-0.3-0.6-1.1-0.6-1.5-1c-0.8,0.3-1.6,0.5-2.3,0.7c-0.4,0.6-0.7,1.3-1.2,1.7c-0.5,0.3-1.2,0.3-1.9,0.4c-0.2,0.4-0.5,0.9-0.8,1.5
			c-0.6,0.1-1.3,0.3-2.1,0.5c-0.2,0.5-0.5,1.1-0.7,1.7c-0.6,0.2-1.1,0.4-1.7,0.6c-0.2,0.4-0.5,0.9-0.6,1.2c-0.9,0.7-1.8,0.4-2.8,0.6
			c-0.2,0.5-0.4,1.1-0.7,1.7c-0.8,0.1-1.6,0.3-2.4,0.4c-0.2,0.4-0.4,0.9-0.6,1.3c-0.9,0.7-2,0.3-3,0.5c-0.2,0.5-0.4,1.1-0.5,1.5
			c-1.1,0.9-2.3,0.4-3.5,0.7c-0.2,0.4-0.5,0.8-0.7,1.3c-0.9,0.7-2,0.5-3.1,0.7c-0.2,0.5-0.5,1-0.9,1.7c-1.3,0.1-2.5,0.1-3.9,0.2
			c-0.1,0.2-0.3,0.5-0.4,0.8c-0.3,0.9-0.9,1.3-1.8,1.4c-1,0-2.1,0-3,0c-0.5,0.7-0.7,1.3-1.2,1.6c-0.5,0.3-1.2,0.3-1.8,0.3
			c-1.1,0.1-2.2,0.1-3.3,0.1c-0.4,0.7-0.7,1.2-1,1.9c-1.1,0-2.2,0.1-3.3,0.1c-1,0-2.1,0-3.1,0c-0.3,0.6-0.6,1.1-0.8,1.5
			c-0.8,0.5-1.6,0.4-2.4,0.4c-3.3,0-6.6,0-10,0c-0.9,1.1-2.1,1.4-3.6,1.3c-5-0.1-10.1,0-15.1-0.1c-0.4,0-0.8,0-1.3-0.1
			c-0.5-0.4-1-0.7-1.5-1.2c-2.7-0.1-5.5,0.1-8.3-0.1c-0.3-0.6-0.5-1.1-0.8-1.6c-0.2-0.1-0.4-0.2-0.6-0.2c-1.6,0-3.2-0.1-4.8-0.1
			c-0.3-0.7-0.6-1.2-0.8-1.8c-1.3-0.5-2.7,0.2-4.1-0.6c-0.2-0.4-0.5-0.9-0.7-1.4c-0.4,0-0.8-0.1-1.2-0.1c-1.4,0-2.3-0.6-2.5-2.1
			c-0.8-0.1-1.6-0.2-2.5-0.3c-0.3-0.5-0.5-1-0.8-1.6c-0.6-0.2-1.4-0.4-2.2-0.7c-0.2-0.4-0.4-0.9-0.6-1.3c-0.6-0.2-1.1-0.4-1.8-0.6
			c-0.2-0.5-0.4-1-0.6-1.6c-0.4-0.2-1-0.3-1.5-0.5c-0.2-0.4-0.4-0.9-0.6-1.4c-0.4-0.2-0.8-0.3-1.4-0.6c-0.2-0.4-0.4-1-0.6-1.5
			c-0.6-0.3-1.1-0.6-1.5-0.9c-0.7-1-0.5-2.1-0.8-3.2c-0.4-0.2-0.9-0.5-1.5-0.8c-0.1-0.4-0.3-0.8-0.5-1.4c-0.7-0.4-1.7-0.7-1.9-1.8
			c-0.2-0.8-0.2-1.7-0.2-2.6c-0.6-0.5-1.1,0.2-1.6,0c-0.3,0.7-0.6,1.2-0.9,1.9c-0.6,0.2-1.3,0.4-2,0.6c-0.3,0.5-0.5,1-0.8,1.5
			c-0.7,0.2-1.4,0.3-2.1,0.5c-0.2,0.5-0.5,1-0.7,1.5c-0.7,0.1-1.3,0.3-1.9,0.4c-0.2,0.6-0.4,1.1-0.7,1.7c-0.7,0.2-1.5,0.4-2.2,0.6
			c-0.3,0.5-0.5,0.9-0.8,1.5c-0.8,0.2-1.6,0.3-2.4,0.4c-0.2,0.5-0.4,1-0.6,1.7c-0.9,0.1-1.7,0.2-2.6,0.4c-0.3,0.5-0.6,1-0.9,1.6
			c-1,0.1-1.9,0.2-3,0.3c-0.2,0.5-0.4,1-0.7,1.5c-0.8,0.8-1.8,0.5-2.9,0.7c-0.3,0.4-0.6,1-1,1.6c-1,0.2-2.1,0.3-3.2,0.5
			c-0.2,0.5-0.4,1-0.7,1.4c-1.4,0.6-2.8,0-4.2,0.5c-0.1,0.2-0.4,0.6-0.5,0.9c-0.4,0.7-1,1.1-1.7,1.1c-1,0-1.9,0.1-2.9,0.1
			c-0.3,0.5-0.5,1-0.8,1.5c-1.8,0.7-3.7,0.1-5.6,0.5c-0.2,0.5-0.5,1-0.8,1.6c-1.1,0.6-2.3,0.3-3.5,0.3c-1.1,0-2.2,0-3.3,0
			c-0.3,0.6-0.6,1.1-0.8,1.5c-0.7,0.5-1.4,0.4-2.1,0.4c-3,0-5.9,0-9,0c-0.9,1.1-2.1,1.3-3.6,1.3c-5-0.1-9.9,0-14.9,0
			c-0.6,0-1.1,0-1.7,0c-0.6-0.4-1.1-0.8-1.6-1.2c-2.7-0.1-5.5,0.1-8.3-0.2c-0.3-0.6-0.5-1.1-0.8-1.6c-0.2-0.1-0.4-0.2-0.6-0.2
			c-1.1,0-2.2,0-3.4,0c-0.6,0-1.3-0.1-1.9-0.1c-0.3-0.6-0.6-1.2-0.8-1.7c-1.2-0.5-2.6,0.2-3.8-0.6c-0.2-0.4-0.5-0.9-0.8-1.4
			c-1.4-0.2-3.2,0.2-3.3-2.2c-1.1-0.1-2-0.2-3-0.3c-0.3-0.5-0.5-1-0.8-1.6c-0.4-0.2-1-0.4-1.7-0.7c-0.2-0.4-0.4-0.8-0.7-1.3
			c-0.5-0.2-1.1-0.4-1.8-0.6c-0.2-0.5-0.4-1-0.7-1.6c-0.4-0.1-0.8-0.3-1.3-0.4c-0.8-0.5-0.5-1.9-1.8-2c-0.3-0.5-0.5-1-0.9-1.6
			c-0.3-0.1-0.9-0.4-1.4-0.6c-0.2-0.5-0.4-1-0.6-1.5c-0.6-0.5-1.2-1-2-1.5c-0.1-0.7-0.2-1.5-0.3-2.4c-0.5-0.3-1-0.6-1.6-1
			c-0.1-1.1-0.2-2.1-0.3-3.3c-0.4,0-0.7,0.1-1.1,0.1c-0.3,0.5-0.5,1-0.8,1.6c-0.6,0.2-1.3,0.4-2,0.6c-0.2,0.4-0.3,0.9-0.5,1.4
			c-0.5,0.2-1,0.4-1.6,0.6c-0.2,0.4-0.4,0.9-0.7,1.4c-0.6,0.1-1.2,0.3-1.9,0.4c-0.2,0.5-0.4,1-0.5,1.4c-0.8,0.9-1.8,0.5-2.7,0.8
			c-0.4,0.5-0.6,1.2-1.1,1.5c-0.5,0.3-1.2,0.3-1.9,0.5c-0.2,0.5-0.5,1.1-0.7,1.7c-0.8,0.1-1.6,0.2-2.5,0.3c-0.2,0.5-0.5,1-0.8,1.6
			c-1,0.2-1.9,0.4-2.7,0.5c-0.3,0.6-0.6,1.1-0.9,1.7c-0.9,0.1-1.8,0.3-2.8,0.4c-0.2,0.4-0.4,0.8-0.6,1.2c-1,0.9-2.3,0.6-3.6,0.8
			c-0.2,0.5-0.5,1-0.8,1.5c-1.2,0.6-2.4,0.1-3.6,0.4c-0.1,0.1-0.3,0.3-0.4,0.5c-0.4,1.1-1.2,1.5-2.2,1.6c-0.9,0.1-1.8,0-2.7,0
			c-0.3,0.6-0.7,1.1-1,1.6c-1.9,0.7-3.8,0-5.7,0.5c-0.2,0.5-0.4,1-0.6,1.6c-2.3,0.6-4.6,0.1-7,0.4c-0.3,0.5-0.6,1.1-0.9,1.7
			c-3.5,0.2-7,0-10.6,0.2c-0.6,0.8-1.3,1.2-2.4,1.2c-5.6,0-11.2,0-16.8,0c-0.2,0-0.5-0.1-0.8-0.1c-0.4-0.3-0.8-0.7-1.3-1.1
			c-3.3-0.2-6.7,0.1-10-0.2c-0.4-0.6-0.7-1.2-0.9-1.7c-1.7-0.3-3.4,0.2-5.1-0.4c-0.3-0.5-0.5-1.1-0.8-1.6c-1.4-0.5-2.9,0.2-4.3-0.6
			c-0.2-0.4-0.4-0.8-0.6-1.3c-0.8-0.2-1.6-0.4-2.5-0.6c-0.4-0.6-0.7-1.1-1.1-1.7c-0.7-0.1-1.5-0.2-2.4-0.3c-0.3-0.5-0.5-1-0.9-1.6
			c-0.8-0.4-2.1-0.5-2.2-1.9c-0.7-0.2-1.4-0.4-2.1-0.7c-0.2-0.5-0.3-0.9-0.5-1.4c-0.5-0.4-1.3-0.7-1.6-1.3c-0.3-0.7-1-1-1.4-1.5
			c-0.4-0.4-0.6-1.2-1.1-1.5c-0.7-0.4-1-0.9-1.1-1.8c-0.7-0.5-1.9-0.9-1.9-2.1c-0.6-0.6-1.3-1.2-2-1.9c-0.1-0.7-0.2-1.5-0.3-2.3
			c-0.5-0.3-0.9-0.5-1.3-0.8c-1.1-1.7,0-3.8-1.2-5.4c-0.4-0.2-0.8-0.5-1.1-0.7c-0.1-0.3-0.2-0.5-0.2-0.8c0-1.2,0-2.4-0.1-3.6
			c0-0.5,0-1-0.3-1.3c-0.6-0.7-0.6-1.4-0.6-2.2c0-6.7,0-13.4,0-20.2c0-1.1,0.3-2,1-2.8c0-2.3,0-4.5,0-6.8c0.6-0.5,1.2-0.9,1.9-1.4
			c0-0.7,0-1.6,0-2.5c0-1.5,0.2-2.9,2-3.5c0.1-1.2,0.1-2.4,0.2-3.6c0.2-0.2,0.4-0.5,0.7-0.7c1.2-0.7,1.6-1.7,1.5-3
			c0-0.5,0.1-1.1,0.1-1.7c0.6-0.4,1.1-0.8,1.7-1.2c0.1-0.9,0.1-1.9,0.2-2.9c0.5-0.3,1.1-0.7,1.6-1c0.3-0.6,0.5-1.3,0.9-1.9
			c0.2-0.3,0.7-0.4,1.1-0.6c0.3-1,0.6-2.1,0.9-3.2c0.4-0.2,0.9-0.4,1.4-0.6c0.1-0.5,0.2-1,0.3-1.5c0.5-0.6,1-1.2,1.4-1.9
			c0.4-0.7,0.7-1.4,1-2.2c0.4-0.2,0.8-0.4,1.3-0.6c0.2-0.8,0.5-1.6,1.3-2.2c0.4-0.3,0.6-0.9,0.9-1.4c0.5-1.1,0.9-2.2,2.1-2.7
			c0.3-0.1,0.4-0.8,0.6-1.3c0.5-0.2,1-0.4,1.6-0.6c0.1-0.4,0.3-0.9,0.5-1.4c0.6-0.4,1.3-0.9,1.7-1.8c0.2-0.5,1-0.7,1.7-1.2
			c-0.1,0.1,0,0.1,0,0c0.1-0.4,0.3-0.7,0.5-1.2c0.4-0.2,0.9-0.4,1.4-0.7c0.1-0.4,0.3-0.9,0.4-1.4c0.9-0.4,1.6-1.1,1.8-2.1
			c0.8-0.2,1.4-0.4,2.1-0.5c0.2-0.5,0.3-0.9,0.5-1.5c0.4-0.2,0.8-0.4,1.4-0.6c0.2-0.4,0.4-0.8,0.7-1.4c0.4-0.1,0.9-0.3,1.4-0.5
			c0.2-0.4,0.4-0.9,0.7-1.6c0.5-0.2,1.1-0.5,1.6-0.7c0.3-0.5,0.5-1.1,0.9-1.4c0.4-0.3,1-0.4,1.5-0.6c0.2-0.5,0.4-1,0.6-1.6
			c0.7-0.2,1.3-0.3,1.9-0.5c0.3-0.5,0.5-0.9,0.8-1.5c0.7-0.1,1.4-0.2,2.1-0.3c0,0,0.1,0,0.1-0.1c0.2-0.5,0.3-1,0.5-1.6
			c0.7-0.2,1.4-0.4,2.1-0.6c0.3-0.6,0.6-1.1,0.9-1.7c0.7-0.1,1.3-0.2,2-0.3c0.3-0.5,0.6-1,0.9-1.6c0.8-0.1,1.6-0.2,2.3-0.3
			c0.9-1.9,0.9-1.9,3.3-2.2c0.6-0.4,0.4-1.4,1.2-1.6c0.7-0.1,1.4-0.2,2.2-0.4c0.2-0.5,0.5-1.1,0.8-1.7c0.6-0.1,1.1-0.2,1.7-0.2
			c0.5,0,1,0,1.5,0c0.3-0.6,0.6-1.1,1-1.8c1-0.1,2-0.2,3.2-0.3c0.2-0.5,0.5-1.1,0.7-1.6c0.6-0.6,1.4-0.5,2.1-0.5c0.6,0,1.3,0,2,0
			c0.3-0.5,0.5-1,0.8-1.5c1.3-0.9,2.8-0.2,4.3-0.6c0.2-0.5,0.5-1,0.8-1.6c1.9-0.6,3.8,0,5.8-0.5c0.2-0.5,0.4-1,0.7-1.4
			c2.3-0.9,4.6-0.6,7.1-0.7c0.3-0.5,0.6-1,1.1-1.7c0.5-0.1,1.1-0.2,1.8-0.2c10,0,20,0,30,0c0.5,0,1.1,0.1,1.7,0.2
			c0.3,0.6,0.7,1.1,1,1.7c1.9,0.1,3.9-0.1,5.9,0.7c0.2,0.4,0.5,0.9,0.8,1.5c1.4,0.1,2.7,0.1,4.1,0.2c0.3,0.7,0.6,1.2,0.8,1.8
			c0.9,0.1,1.8,0.2,2.8,0.4c0.3,0.6,0.6,1,0.9,1.5c0.8,0.2,1.5,0.3,2.3,0.5c0.3,0.5,0.5,1,0.8,1.6c0.7,0.2,1.5,0.4,2.3,0.7
			c0.2,0.4,0.5,0.9,0.7,1.5c0.4,0.1,0.9,0.3,1.4,0.5c0.2,0.5,0.4,1,0.7,1.6c0.5,0.1,1,0.3,1.6,0.5c0.7,0.6,0.5,1.8,1.6,2.1
			c1.1,1.9,2.9,3.3,3.5,5.5c0.5,0.4,1,0.7,1.5,1c0.3,1,0.6,1.9,0.8,2.7c0.6,0.4,1,0.7,1.5,1.1c0.1,1.1,0.3,2.2,0.4,3.2
			c1.3,1,1.3,1,2.1,2.3c0.1-0.5,0.3-0.9,0.4-1.4c0.5-0.3,1-0.5,1.5-0.8c0.2-0.4,0.4-0.9,0.6-1.3c0.8-0.2,1.5-0.4,2.3-0.6
			c0.2-0.5,0.5-1,0.8-1.5c0.6-0.1,1.2-0.3,1.9-0.5c0.2-0.4,0.4-0.9,0.7-1.5c0.6-0.2,1.2-0.3,1.7-0.5c0.2-0.6,0.4-1.1,0.6-1.7
			c0.7-0.2,1.4-0.3,2.1-0.5c0.4-0.5,0.7-1.2,1.3-1.6c0.5-0.3,1.2-0.4,1.8-0.5c0.3-0.5,0.5-1,0.7-1.5c0.8-0.1,1.6-0.2,2.5-0.4
			c0.3-0.5,0.5-1.1,0.9-1.8c0.7-0.1,1.5-0.3,2.3-0.4c0.2-0.4,0.5-0.9,0.7-1.3c1-0.7,2-0.4,3.1-0.6c0.1-0.2,0.2-0.6,0.4-0.9
			c0.1-0.3,0.3-0.5,0.5-0.9c0.9-0.1,1.9-0.2,2.9-0.3c0.3-0.5,0.6-1.1,0.9-1.6c1.1-0.1,2.1-0.3,3.1-0.4c0.3-0.6,0.6-1,0.8-1.5
			c1.1-0.9,2.5-0.2,3.9-0.7c0.1-0.2,0.3-0.6,0.4-0.9c0.3-0.7,0.9-0.8,1.6-0.8c1.1,0,2.2-0.1,3.4-0.1c0.3-0.6,0.6-1.2,0.9-1.7
			c1.8-0.5,3.6,0,5.4-0.4c0.3-0.5,0.5-1,0.8-1.5c1.1-0.3,2.2-0.5,3.3-0.8c0-0.4,0-0.7-0.1-1.2c-1.2-0.2-2.3-0.4-3.5-0.5
			c-0.3-0.6-0.6-1-0.8-1.5c-0.9-0.2-1.9-0.2-2.7-0.9c-0.3-1-0.6-1.9-0.9-2.8c-0.6-0.3-1.1-0.6-1.5-0.8c-0.7-1.2-0.2-2.5-0.6-3.8
			c-0.2-0.1-0.6-0.3-0.9-0.5c-0.7-0.4-0.9-1.1-0.9-1.9c0-3.6,0-7.2,0-10.8c0-1.2,0.7-1.7,1.6-2.1c0.8-1.7-0.3-3.6,1.1-5.2
			c0.4-0.2,0.9-0.4,1.4-0.6c0.2-0.5,0.4-1,0.7-1.6c0.5-0.2,1.1-0.3,1.5-0.5c0.3-0.5,0.5-1,0.7-1.5c0.9-0.2,1.8-0.4,2.6-0.6
			c0.6-1,0.6-1.9,0.5-2.8c-0.1-0.7,0-1.4,0-2.2c0-8.2,0-16.3,0-24.5c0-0.8,0-1.6,0-2.5c-0.3-0.2-0.6-0.4-0.9-0.6c-0.7-0.4-1-1-1-1.8
			c0-3.3,0-6.6,0-9.8c0-0.3,0.1-0.6,0.2-0.9c0.4-1.3,0.9-1.7,2.2-1.8c0.4,0,0.8,0,1.2,0c0.4,0,0.8,0,1.2-0.1
			c0.2-0.2,0.4-0.3,0.4-0.5c0.4-1,1.2-1.5,2.2-1.5c0.9,0,1.7,0.1,2.7-0.2c0.4-2.5,0.1-4.9,0.2-7.3c-0.6-0.4-1.1-0.6-1.6-1
			c-0.2-0.4-0.4-0.8-0.6-1.4c-1.6-0.1-2.9-0.9-3.9-2.3c-0.3-2.7-0.2-7.6,0.1-9.4c0.9-1.3,2.5-0.9,3.8-1.2c0.2-0.5,0.4-1,0.8-1.4
			c0.2-0.3,0.7-0.3,1.2-0.6c0.1-0.4,0.3-0.9,0.6-1.5c1.6-1.2,3.6-0.1,5.4-0.8c0-0.4,0.2-0.8,0.2-1.3c0-2.1,0-4.2,0-6.2
			c0-1.1,0.1-2.2,0.6-3.4c0.4-0.3,0.9-0.6,1.6-1c0-1.8,0.1-3.8,0.1-5.7c0.6-0.4,1-0.8,1.7-1.3c0.1-0.8,0.1-1.8,0.2-2.7
			c0-0.9,0.1-1.7,0.1-2.6c0.7-0.3,1.2-0.6,1.8-0.9c0-0.6,0.2-1.3,0.1-1.9c-0.1-1.6,0.4-2.8,1.8-3.3c0.2-1.2,0.4-2.2,0.5-3.2
			c0.5-0.3,1-0.6,1.6-1c0.1-0.4,0.3-0.9,0.5-1.5c0.4-0.2,0.9-0.5,1.5-0.8c0.1-0.4,0.3-1,0.3-1.5c0-1.3,0.6-2.1,2-2.3
			c0.3-0.9,0.6-1.9,1.8-1.9c0.3-0.7,0.4-1.6,0.9-1.9c1.1-0.7,1.2-2.4,2.7-2.3c0.3-0.6,0.5-1.1,0.8-1.6c0.5-0.1,1.1-0.3,1.7-0.5
			c0.3-1.2,1-2.1,2.3-2.1c0.3-0.6,0.6-1.1,0.9-1.6c0.8-0.1,1.6-0.3,2.4-0.4c0.3-0.5,0.5-1.1,0.9-1.7c1.1-0.1,2.2-0.2,3.4-0.3
			c0.3-0.5,0.6-1,0.9-1.6c1.8-0.5,3.7,0,5.6-0.4c0.6-2.5,0.3-5,0.3-7.5c-0.3-0.2-0.5-0.3-0.7-0.4c-1-0.3-1.5-1-1.5-1.9
			c0-2.7-0.1-5.4,0-8.1c0.1-1.9,0.2-1.9,2.1-2.8c0-0.6,0.1-1.2,0.1-1.8c0-4,0-8,0-12c0-2.9,0.3-3.3,3.2-4.2c0.2-0.1,0.4-0.2,0.6-0.3
			c0.4-0.9-0.1-2,1-2.8c2.8-0.6,5.7-0.3,8.6-0.1c0.9,0.6,1.8,1.1,2.7,1.7c0.5,0.8,0.3,1.7,0.3,2.5c0,5.4,0,10.7,0,16.1
			c0,1-0.1,2.1,0.6,3.3c0.1,0.1,0.4,0.3,0.8,0.5c0.5,0.3,0.8,0.8,0.8,1.4c0,2.2,0,4.5,0,6.7c0,0.7-0.3,1.2-0.9,1.6
			c-0.3,0.2-0.7,0.4-1,0.6c-0.3,1.9-0.3,5.6,0,7.7c2,0.5,4.1-0.1,6.2,0.4c0.2,0.3,0.4,0.5,0.5,0.8c0.1,0.3,0.3,0.6,0.4,0.9
			c1.2,0.1,2.4,0.1,3.6,0.2c0.3,0.6,0.6,1.2,0.9,1.9c1,0.1,2.1,0.2,3.2,0.3c0.3,0.6,0.6,1.1,0.9,1.7c1.3,0,2.4,0.5,2.7,2.1
			c0.7,0.2,1.4,0.3,2.1,0.5c0.2,0.5,0.4,0.9,0.6,1.5c0.7,0.2,1.4,0.4,2.3,0.6c0.3,0.4,0.5,0.9,0.9,1.5c0.7,0.3,1.6,0.7,1.9,1.9
			c0.3,0.9,1.2,1.6,1.8,2.4c0.3,0.4,0.7,0.9,1.1,1.4c0.4,0.2,0.9,0.4,1.4,0.7c0.2,0.6,0.3,1.1,0.5,1.7c0.5,0.4,1,0.7,1.5,1.1
			c0.2,0.9,0.3,1.7,0.4,2.6c0.6,0.3,1.1,0.6,1.6,0.9c0.2,1.3,0.4,2.4,0.5,3.4c0.6,0.4,1,0.7,1.5,1c0.1,1,0.1,2.1,0.2,3.2
			c0.2,0.1,0.3,0.3,0.4,0.3c1.4,0.4,1.8,1.4,1.8,2.8c-0.1,1.2,0,2.4,0,3.6c0.6,0.4,1.1,0.8,1.8,1.2c0.1,0.7,0.1,1.4,0.1,2.1
			c0,1.9,0,3.8,0,5.8c0,1.9,0,1.9,1.8,3.1c0.6,1.9-0.1,3.9,0.4,5.9c1.5,0.1,2.9,0.2,4.3,0.3c0.3,0.7,0.6,1.2,0.9,1.9
			c0.7,0.1,1.5,0.3,2.3,0.4c0.1,0.4,0.4,0.8,0.4,1.1c0,4,0,8,0,12c0,0.2-0.1,0.3-0.2,0.6c-0.4,0.2-1,0.5-1.6,0.9c0,2.4,0,4.9,0,7.4
			c0.9,0.6,1.8,0.3,2.8,0.3c1,0.1,2.1-0.1,3.1,1c0.1,0.8,0.2,1.7,0.3,2.8c0.5,0.1,1,0.2,1.5,0.2c0.9,0.1,0.9,0.1,2,1.1
			c0.4,1.8,0.4,10.2,0.1,12.7c-0.5,0.4-1.1,0.8-1.6,1.2c-0.2,3-0.2,27.8,0.1,29.8c1.7,0.8,3.8-0.4,5.6,0.8c0.3,1,0.5,2,0.8,2.9
			c0.5,0.4,1,0.7,1.3,0.9c0.4,0.7,0.5,5.3,0.2,9.7c-0.5,0.7-1,1.5-1.6,2.4c-1,0.4-2.1,0.3-3.2,0.1c-0.4-0.4-0.7-0.7-1-1.1
			c-0.1,0.1-0.3,0.2-0.3,0.3c0,1.7-0.2,3.3,0.1,5c2.2-0.4,4.4-0.3,6.5-0.2c0.4,0,0.7,0.3,1.2,0.5c1,3,0.8,6.1,0.2,9.1
			c-0.6,0.3-1.1,0.6-1.7,1c0,1.6-0.1,3.2-0.1,4.7c-0.5,0.9-1.2,1.2-1.9,1.2c-0.5,0-1,0-1.4,0c-8,0-16,0-24,0c-4.3,0-8.6,0-13,0
			c-0.9,0-1.8,0-2.4-0.5c-1.1,0.2-2.1,0.5-3.1,0.5c-3.8,0.1-7.5,0-11.3,0c-0.8,0-1.6,0.1-2.3-0.8c-0.3-2.1-0.2-4.4-0.1-6.4
			c1-1.6,2.5-0.9,3.6-1.3c0.4-1.9,0.4-10.6,0.1-13.7c-0.3,0.6-0.5,1-0.8,1.5c-1.2,0.4-2.5,0.3-3.7,0.1c-1.4-0.9-1-2.7-2-3.8
			c-0.2-0.1-0.5-0.1-0.8-0.2c-0.4,1.8-0.5,10.5-0.2,15.9c0.4,0.3,0.9,0.5,1.5,0.9c0.1,0.4,0.4,0.8,0.4,1.3c0.1,1.6,0.1,3.2,0.1,4.8
			c0,1.2-0.7,1.7-1.9,1.8c-0.4,0-0.8,0-1.2,0c-3.6,0-7.2,0-10.8,0c-0.8,0-1.6,0.1-2.4-0.6c-0.1-0.3-0.3-0.7-0.4-1.2
			c-0.1-1.5-0.1-3,0-4.6c0.1-1.4,0.6-2,2.1-2.1c0.6-0.1,1.1-0.1,1.7-0.1c0.1-0.3,0.3-0.6,0.3-0.9c0-5.4,0-10.9,0-16.3
			c0-0.2-0.1-0.5-0.2-0.7c-0.3,0-0.5,0-0.8,0c-0.3,0.9-0.9,1.6-0.8,2.6c0.1,1-0.4,1.9-0.8,2.7c-1.8,0.8-1.9,0.8-4.3,0.4
			c-0.2-0.4-0.5-0.9-0.8-1.5c-0.6-0.1-1.3-0.2-2.1-0.4c-0.2-0.5-0.5-1-0.5-1.5c0.1-2.7-0.4-5.4,0.4-8.1c0.6-0.4,1.1-0.7,1.7-1
			c0.1-1,0.1-2.1,0.2-3c0.4-0.7,1-0.9,1.7-1c0.7,0,1.4,0,2.2,0c10.5,0,21,0,31.4,0c1.1,0,2.2,0,3.4,0c0-0.3,0.1-0.7,0.1-1.2
			c-0.5-0.4-1.1-0.8-1.8-1.3c-0.1-0.9-0.2-1.9-0.3-2.9c-0.4-0.3-1-0.6-1.5-1c-0.3-1-0.6-2-0.9-3.1c-0.4-0.2-0.8-0.5-1.3-0.9
			c-0.2-0.7-0.4-1.5-0.5-2.3c-0.2-0.8-1.2-0.8-1.7-1.5c-0.1-0.5-0.2-1.1-0.3-1.9c-0.5-0.4-1-0.9-1.7-1.5c-0.1-0.7-0.3-1.5-0.5-2.5
			c-1.7-1.1-1.7-1.1-2-4c-1-0.4-1.7-1.2-2-2.4c-10.2,0-20.2,0-30.4,0c-0.2,0.5-0.4,1.1-0.7,1.5c-0.3,0.4-0.8,0.7-1.3,1
			c-0.2,0.9-0.3,1.7-0.5,2.6c0,0.1-0.1,0.1-0.2,0.4c-0.3,0.2-0.8,0.5-1.3,0.9c0,0.1-0.1,0.3-0.2,0.5c-0.2,0.4-0.2,1.1-0.6,1.3
			c-1.3,0.8-1.5,2.2-2,3.5c-0.5,0.2-0.9,0.5-1.5,0.8c-0.1,1-0.2,2-0.2,3.1c-0.5,0.3-1.1,0.6-1.7,1c-0.1,0.7-0.2,1.5-0.3,2.3
			c-0.2,0.9-1.1,1.1-1.7,1.5c-0.2,0.6-0.4,1.2-0.5,1.9c-0.4,0.2-0.9,0.4-1.3,0.6c-0.7,1-0.6,2.1-0.6,3.3c0.8,0,1.5,0.1,2.2,0.1
			c2,0,4,0,6,0c1.5,0,2,0.6,2.2,2c0,0.2,0,0.5,0,0.7c0,0.3,0,0.6,0.1,1.1c0.3,0.2,0.6,0.4,0.9,0.6c0.3,0.2,0.6,0.5,1,0.8
			c0.2,2.9,0.1,5.8,0.1,8.6c-0.8,1-1.4,1.8-2.2,2.8c-1.1,0-2.4,0.1-3.8,0.2c-0.1,0.5-0.3,0.9-0.3,1.3c0,2.6,0,5.1,0,7.7
			c0,0.8,0,1.6,0,2.1c-0.6,1-1.3,1.1-2,1.1c-1.3,0-2.7,0-4,0c-0.4,0.9,0.1,1.7,0.1,2.4c0,0.9,0.1,1.8,0,2.6c0,0.8-0.2,1.6-0.3,2.5
			c0.4,0.1,0.8,0.2,1.2,0.2c1.2,0,2.4,0,3.6,0c0.6,0,1.3,0.1,1.9,0.2c0.4,0.6,0.7,1.1,1.1,1.7c1.9,0.1,3.8-0.1,5.8,0.7
			c0.2,0.4,0.6,1,0.9,1.6c1.2,0.1,2.4,0.1,3.6,0.2c0.3,0.6,0.6,1.2,0.9,1.8c0.6,0.1,1.1,0.2,1.7,0.2c1.1,0,1.8,0.5,1.9,1.8
			c0.6,0.1,1.2,0.1,1.7,0.2c0.4,0.1,0.9,0.3,1.3,0.5c0.2,0.5,0.3,1,0.5,1.5c0.6,0.1,1.2,0.3,1.9,0.4c0.3,0.5,0.6,1,0.9,1.5
			c0.4,0.1,0.9,0.3,1.4,0.5c0.2,0.5,0.4,1,0.6,1.5c0.5,0.2,1,0.4,1.5,0.6c0.4,0.7,0.7,1.5,1.6,2c0.5,0.2,0.7,1,1.2,1.7
			c0.9,0.1,1.5,0.8,1.7,1.9c0.6,0.3,1.1,0.5,1.7,0.8c0.2,1.1,0.5,2.2,0.7,3.3c0.5,0.5,1.6,0.5,1.7,1.5c0.1,0.8,0.2,1.6,0.3,2.4
			c0.5,0.2,1,0.5,1.5,0.7c0.7,1.2,0,2.6,0.5,3.7c0.7,0.7,1.4,0.3,2.2,0.1c0.1-0.2,0.3-0.5,0.4-0.8c0.1-0.3,0.2-0.6,0.4-1
			c0.7-0.2,1.5-0.4,2.3-0.6c0.2-0.4,0.4-0.8,0.6-1.3c0.6-0.2,1.2-0.4,1.8-0.6c0.2-0.5,0.3-1,0.5-1.6c0.6-0.2,1.2-0.3,1.8-0.5
			c0.2-0.5,0.4-0.9,0.6-1.4c0.6-0.2,1.2-0.3,1.8-0.5c0.2-0.5,0.3-1,0.5-1.7c0.9-0.2,1.8-0.4,2.7-0.5c0.8-1.6,0.8-1.6,2.6-2.1
			c0.3-0.5,0.5-1,0.8-1.6c0.8-0.1,1.7-0.2,2.7-0.3c0.2-0.5,0.5-1,0.8-1.7c0.6-0.2,1.2-0.4,1.9-0.6c0.3-0.5,0.5-0.9,0.9-1.5
			c0.9-0.1,1.9-0.2,2.9-0.4c0.2-0.5,0.3-1,0.5-1.5c1.1-0.7,2.3-0.2,3.4-0.6c0.3-0.5,0.6-1,0.9-1.6c1.1-0.1,2.1-0.2,3.3-0.2
			c0.2-0.5,0.4-1.1,0.6-1.6c1.2-0.9,2.5-0.3,3.9-0.7c0.1-0.2,0.3-0.6,0.4-0.9c0.3-0.7,0.9-0.8,1.6-0.8c1,0,2.1-0.1,3.1-0.1
			c0.4-0.7,0.7-1.2,1-1.9c1.8-0.1,3.5-0.1,5.3-0.2c0.3-0.6,0.6-1.1,0.9-1.6c2.7-0.8,5.4-0.5,8-0.6c0.3-0.5,0.5-1,0.8-1.6
			c0.5-0.1,1-0.3,1.5-0.3c0.8-0.1,1.6,0,2.4,0c8.9,0,17.8,0,26.6,0c0.9,0,1.9-0.2,2.9,0.4c0.2,0.4,0.5,0.9,0.8,1.3
			c1.8,0.2,3.6,0.4,5.5,0.6c0.3,0.6,0.7,1.1,1,1.7c1.3,0.1,2.6,0.1,4.1,0.2c0.3,0.6,0.6,1.1,0.9,1.8c0.8,0.1,1.8,0.3,2.7,0.4
			c0.3,0.5,0.5,1,0.8,1.5c0.8,0.1,1.5,0.3,2.4,0.4c0.3,0.6,0.5,1.2,0.8,1.8c0.6,0.1,1.2,0.2,1.8,0.4c0.2,0.5,0.5,1,0.8,1.5
			c0.5,0.1,1,0.2,1.6,0.4c0.2,0.5,0.4,1,0.7,1.6c0.7,0.4,1.6,0.6,1.7,1.7c0,0.2,0.4,0.5,0.7,0.6c0.8,0.4,1.2,1,1.3,1.9
			c0.5,0.2,0.9,0.4,1.4,0.6c0.5,0.7,0.5,1.7,1.6,2.2c0.4,0.2,0.6,0.9,0.8,1.5c2,1.2,2,1.2,2.3,3.9c0.5,0.4,1,0.7,1.5,1.1
			c0.6,1.7-0.1,3.6,0.7,5.3c0.4,0,0.8,0,1.2,0c0.2-0.5,0.4-1,0.6-1.6c0.5-0.2,0.9-0.4,1.6-0.7c0.2-0.3,0.4-0.7,0.6-1.2
			c0.5-0.2,1.1-0.4,1.7-0.7c0.1-0.4,0.3-0.9,0.4-1.5c0.6-0.2,1.3-0.4,2-0.6c0.2-0.4,0.5-0.9,0.7-1.4c0.6-0.2,1.2-0.4,1.9-0.6
			c0.2-0.5,0.4-1,0.7-1.6c0.7-0.1,1.5-0.3,2.3-0.5c0.3-0.4,0.6-1,0.9-1.6c0.6-0.1,1.2-0.3,2-0.5c0.2-0.4,0.5-1,0.9-1.6
			c0.7-0.1,1.4-0.2,2.3-0.3c0.2-0.5,0.5-1.1,0.7-1.6c0.8-0.8,1.9-0.4,2.9-0.7c0.2-0.4,0.5-0.9,0.8-1.4c0.4-0.1,0.8-0.3,1.3-0.3
			c0.4-0.1,0.8-0.1,1.2-0.1c0.3-0.6,0.5-1.1,0.8-1.8c0.9-0.1,1.9-0.2,2.9-0.3c0.2-0.5,0.5-1,0.7-1.4c1.2-0.7,2.5-0.1,3.8-0.6
			c0.1-0.3,0.2-0.8,0.4-1.2c0.6-0.9,1.5-0.8,2.4-0.8c0.8,0,1.6,0,2.3,0c0.3-0.6,0.6-1.1,0.8-1.5c1.3-0.8,2.8-0.1,4.1-0.6
			c0.2-0.5,0.5-1.1,0.7-1.6c1.8-0.5,3.6-0.1,5.4-0.3c0.3-0.5,0.5-1,0.8-1.5c2.5-1,5-0.5,7.5-0.7c0.3-0.4,0.5-0.9,0.9-1.5
			c0.4-0.1,0.8-0.3,1.3-0.3c0.6-0.1,1.1,0,1.7,0c9.2,0,18.4,0,27.6,0c0.9,0,1.9-0.2,3,0.4c0.2,0.3,0.4,0.8,0.7,1.4
			c1.7,0.2,3.6-0.2,5.5,0.7c0.2,0.4,0.5,0.9,0.8,1.4c0.2,0.1,0.4,0.2,0.6,0.2c1.2,0.1,2.4-0.1,3.6,0.3c0.3,0.5,0.5,1.1,0.8,1.8
			c0.5,0,1.1,0,1.6,0c1.2,0,2,0.4,2.2,1.8c0.5,0.1,0.8,0.1,1.2,0.2c0.4,0.1,0.8,0.2,1.2,0.3c0.2,0.5,0.5,1,0.7,1.5
			c0.7,0.2,1.4,0.3,2.3,0.6c0.3,0.4,0.6,1,1,1.6c1.2,0,2,0.7,2.2,1.9c0.6,0.2,1.1,0.5,1.7,0.7c0.2,0.5,0.4,0.9,0.5,1.4
			c0.5,0.3,1.1,0.6,1.6,0.8c0.4,1.1,0.8,2.1,1.2,3.2c0.2,0.1,0.4,0.3,0.6,0.3c1.1,0.3,0.7,1.9,1.9,2.3c1.2,0.4,1,1.7,1.2,2.7
			c0,0.2,0.1,0.3,0.2,0.6c0.5,0.3,1,0.5,1.6,0.9c0.1,0.6,0.1,1.3,0.2,1.9c0.1,0.5,0.3,1.1,0.4,1.5c0.5,0.3,0.9,0.6,1.2,0.8
			c1,1.7,0.2,3.6,0.9,5.3c1.1,0.3,1.7,1.1,1.7,2.4c-0.1,1.9,0,3.8,0,5.9c1,0.9,1,2.2,1,3.5c0,4.8,0,9.6,0,14.4
			C692.2,333.4,692.2,334.6,691.2,335.6z M615.7,326.6c1.4,0.6,2.4,1.7,3.5,3.1c1.6,2.1,3.6,4.1,5.4,6.1c2.1,2.2,4.1,4.4,6.2,6.7
			c0.1,0.1,0.2,0.3,0.3,0.4c0.9,1.1,1.9,2.2,2.8,3.3c0.3,0.4,0.7,0.7,1,1.1c1.4,1.6,2.8,3.3,4.2,4.9c1.7,1.9,3.4,3.8,5.1,5.7
			c0.3,0.3,0.7,0.6,1.1,0.9c1.3,0.7,2.3,0.3,2.6-1c0.4-1.6,1.1-3.2,2-4.6c0.3-0.5,0.4-1.1,0.6-1.6c0.2-0.5,0.3-1.1,0.6-1.6
			c0.7-1.1,1.3-2.2,1.5-3.5c0.1-0.5,0.4-0.9,0.6-1.3c1.2-2.1,1.9-4.4,3-6.5c0.2-0.3,0.3-0.7,0.4-1.1c0.4-1.6,0-2.6-1.3-3.5
			c-0.7-0.5-1.4-0.7-2.2-0.7c-1.5,0-3,0-4.6-0.1c-0.5,0-1.1-0.1-1.5-0.2c-0.5-0.7-0.5-1.2-0.1-1.7c0.7-0.8,1.2-1.7,1.5-2.7
			c0.3-0.8,0.8-1.3,1.7-1.6c0.8-0.3,1.7-0.5,2.6-0.3c0.8,0.1,1.6,0.2,2.4,0.2c9.6,0,19.2,0,28.8,0c1.6,0,3.2-0.3,4.8-0.9
			c0.2-0.6,0.5-1.2,0.5-1.8c0.1-1.6,0.1-3.2-0.1-4.8c-0.5-3.3-1.1-6.6-1.7-9.9c-0.1-0.8-0.3-1.6-0.7-2.3c-1.1-2.3-1.2-5-2.9-7
			c-0.4-1.6-1.3-2.9-2.2-4.2c-1-1.4-1.8-3-2.9-4.4c-1.9-2.6-4.1-4.9-6.5-7c-1.5-1.2-3.1-2.3-4.6-3.4c-0.8-0.6-1.5-1.2-2.3-1.7
			c-0.9-0.5-1.9-0.8-2.8-1.2c-0.1-0.1-0.3-0.2-0.4-0.3c-0.7-0.7-1.5-1.1-2.6-1.2c-0.5-0.1-1-0.4-1.5-0.7c-0.4-0.2-0.8-0.5-1.3-0.6
			c-3-0.7-5.7-2-8.8-2.4c-1-0.1-2.1-0.3-3.1-0.4c-2.3-0.2-4.6-0.6-6.9-0.6c-2.6-0.1-5.3-0.3-7.9,0.4c-0.5,0.1-1,0-1.4,0.1
			c-2.4,0.2-4.8,0.4-7.2,0.6c-0.4,0-0.8,0.1-1.2,0.3c-1.8,0.9-3.8,1.2-5.8,1.4c-1.6,0.2-2.9,0.9-4.3,1.4c-1.5,0.5-3.1,0.9-4.6,1.4
			c-0.8,0.2-1.5,0.6-2.2,0.9c-2.4,0.9-4.8,1.8-7.1,2.7c-0.2,0.1-0.5,0.2-0.6,0.4c-1,1.1-2.3,1.5-3.1,1.6c-1.3,0.7-2.1,1.4-3.1,1.7
			c-0.9,0.3-1.8,0.7-2.5,1.4c-0.3,0.3-0.6,0.5-1,0.6c-2.3,0.9-4.3,2.4-6.3,3.8c-0.3,0.2-0.5,0.3-0.8,0.5c-1.7,0.9-3.3,1.9-4.7,3.3
			c-0.3,0.3-0.6,0.6-0.9,0.7c-1.1,0.4-1.9,1.2-2.8,1.9c-4,3.1-7.9,6.2-11.3,10c-0.2,0.2-0.4,0.5-0.7,0.6c-0.6,0.4-1.5,0.2-1.8-0.5
			c-0.1-0.2-0.2-0.4-0.2-0.7c-0.4-1.6-0.7-3.3-1.7-4.7c-0.2-0.2-0.3-0.6-0.3-0.9c-0.2-1-0.7-1.9-1.3-2.8c-0.4-0.5-0.6-1.1-0.8-1.7
			c-0.2-0.4-0.3-0.8-0.5-1.1c-1.2-1.7-2.5-3.3-3.7-5c-0.6-0.8-1.3-1.4-1.8-2.2c-1.4-2.2-3.8-3.4-5.6-5.1c-0.1-0.1-0.3-0.1-0.4-0.2
			c-0.5-0.3-0.9-0.6-1.3-1c-1.5-1.2-3-2.4-4.8-3.1c-0.4-0.2-0.9-0.4-1.3-0.7c-0.8-0.7-1.8-1.1-2.8-1.3c-0.4-0.1-0.8-0.2-1.1-0.4
			c-1.3-1-2.9-1.3-4.5-1.6c-0.5-0.1-1-0.2-1.4-0.4c-1.8-1-3.8-1.2-5.8-1.4c-2-0.2-4-0.3-5.9-0.6c-3.3-0.5-6.7-0.4-10-0.1
			c-2.4,0.3-4.8,0.5-7.1,0.7c-1.8,0.1-3.5,0.4-5.2,0.9c-1.6,0.4-3.3,0.8-4.9,1.1c-3.1,0.7-6,2-9.1,2.8c-0.2,0.1-0.4,0.2-0.6,0.3
			c-2,0.8-4.1,1.4-5.9,2.6c-0.2,0.1-0.4,0.2-0.7,0.2c-1.3,0.3-2.6,0.7-3.7,1.7c-0.2,0.2-0.6,0.3-0.9,0.4c-1.1,0.3-2.1,0.7-3,1.5
			c-0.2,0.2-0.5,0.3-0.8,0.5c-2.2,0.9-4.3,2-6.2,3.6c-0.3,0.2-0.7,0.4-1.1,0.6c-1.7,0.8-3.3,1.9-4.8,3.1c-0.4,0.3-0.7,0.7-1.1,0.9
			c-3.5,1.7-6.1,4.6-9.2,6.8c-0.2,0.1-0.3,0.3-0.5,0.5c-0.4,0.7-1,1.2-1.8,1.5c-0.4,0.2-0.8,0.6-1.1,0.9c-0.8,0.8-1.4,1.9-2.3,2.3
			c-1.8,1-3,2.6-4.6,3.8c-0.2,0.2-0.6,0.3-0.9,0.4c-0.2-0.3-0.5-0.5-0.6-0.8c-0.1-0.5-0.1-1-0.2-1.4c-0.6-2.8-1.9-5.2-3.1-7.7
			c-0.3-0.7-0.8-1.4-1.1-2.1c-0.3-0.6-0.6-1.3-1-1.9c-1.9-3.2-4.1-6-7-8.4c-0.1-0.1-0.2-0.3-0.3-0.4c-1.4-1.4-2.9-2.8-4.3-4.1
			c-0.9-0.8-2-1.3-3-2c-2.3-1.5-4.6-3.1-7.4-3.9c-0.2-0.1-0.5-0.2-0.6-0.3c-1.2-0.9-2.6-1.2-4-1.6c-1.6-0.4-3.3-0.8-4.8-1.5
			c-0.6-0.3-1.4-0.3-2.1-0.4c-2.2-0.2-4.5-0.3-6.7-0.7c-3-0.5-6.1-0.4-9.1-0.2c-1,0-2.1,0.3-3.1,0.4c-2.3,0.2-4.6,0.4-6.9,0.6
			c-1.2,0.1-2.3,0.5-3.5,0.8c-1.4,0.3-2.8,0.7-4.2,1c-1.5,0.3-3,0.6-4.3,1.4c-0.5,0.3-1.2,0.5-1.8,0.6c-1.4,0.2-2.8,0.7-4.1,1.4
			c-0.6,0.3-1.2,0.5-1.8,0.7c-2.3,0.9-4.6,1.8-6.9,2.7c-0.4,0.1-0.7,0.4-1,0.6c-0.4,0.2-0.8,0.5-1.3,0.6c-2.4,0.6-4.2,2.3-6.4,3.2
			c-0.9,0.4-1.8,1-2.6,1.6c-0.8,0.6-1.5,1.2-2.4,1.5c-0.5,0.2-1,0.6-1.4,0.9c-0.5,0.3-1,0.7-1.6,1c-0.9,0.4-1.7,0.9-2.3,1.6
			c-0.3,0.3-0.6,0.5-1,0.7c-1.5,0.7-2.7,1.7-3.9,2.8c-1.4,1.2-2.9,2.4-4.4,3.6c-2.8,2.2-5.7,4.2-7.9,7c-1,1.3-2.6,1.1-3.1-0.5
			c-0.7-2.2-1.2-4.5-2.7-6.4c-0.2-1.6-1.2-2.9-2-4.3c-1-1.7-2.3-3.3-3.4-4.9c-1.7-2.5-4-4.5-6.2-6.6c-0.5-0.5-1.1-0.9-1.7-1.3
			c-1.3-0.8-2.6-1.5-3.8-2.5c-1.7-1.4-3.7-2.1-5.6-3.1c-1.3-0.7-2.9-1-4.1-1.9c-0.2-0.2-0.6-0.3-0.9-0.3c-1.5-0.1-2.9-0.7-4.4-1.2
			c-0.9-0.3-1.8-0.6-2.8-0.7c-2.2-0.3-4.4-0.4-6.7-0.7c-0.6-0.1-1.3-0.1-1.9-0.2c-1-0.1-1.9-0.2-2.9-0.2c-2.6,0-5.1,0-7.6,0.4
			c-2.7,0.4-5.4,0.5-8.1,0.7c-0.5,0-1,0.1-1.4,0.3c-1.9,0.9-4,1.1-6,1.5c-0.9,0.2-1.9,0.4-2.8,0.8c-1.4,0.6-2.9,1-4.3,1.3
			c-1.5,0.4-2.9,1.2-4.4,1.8c-0.3,0.1-0.6,0.2-0.9,0.3c-2.2,0.5-3.9,2.1-6.1,2.5c-0.1,0-0.3,0.2-0.4,0.3c-1.8,1.1-3.9,1.8-5.7,3
			c-0.2,0.1-0.5,0.1-0.7,0.2c-0.4,0.2-0.9,0.4-1.2,0.7c-0.7,0.6-1.4,1-2.3,1.3c-0.5,0.1-0.9,0.3-1.3,0.6c-2.1,1.4-4,3.1-6.4,4.1
			c-0.2,0.1-0.4,0.3-0.6,0.4c-2.2,1.7-4.4,3.4-6.7,5c-2.2,1.6-4.6,3.2-6.4,5.4c-0.2,0.2-0.5,0.5-0.7,0.6c-1.4,0.6-2.3,1.8-3.3,2.7
			c-1.7,1.6-3.2,3.5-5,5.1c-1.7,1.5-3.2,3.1-4.6,4.9c-1.6,2-3.4,3.8-5.1,5.7c-0.9,1-1.6,2.2-1.8,3.5c0.3,0.9,0.9,1.4,1.8,1.5
			c0.5,0,1,0,1.4,0c12.5,0,24.9,0,37.4,0c1.4,0,2.7-0.1,4.1-0.2c0.9-0.1,1.7,0.1,2.4,0.5c0.5,1,0.1,1.8-0.2,2.6
			c-0.4,0.9-0.5,1.9-1.4,2.5c-0.6,0.4-1.3,0.6-2,0.8c-0.4,0.1-1,0-1.4,0c-1.3,0-2.6,0.1-3.8,0.1c-2.3,0-4.2,1-6,2.1
			c-0.8,0.5-1.4,1.2-1.8,2.2c-0.3,0.7-0.5,1.6-1,2.2c-0.8,1-0.8,2.2-1.3,3.3c-0.5,1.2-1.2,2.2-1.7,3.4c-0.4,1.1-0.8,2.3-1.5,3.2
			c-0.2,0.3-0.5,0.7-0.5,1.1c-0.3,1.4-0.8,2.8-1.8,3.9c-0.5,2.1-1.6,4-2.6,5.9c-0.4,0.7-0.5,1.5-0.9,2.2c-0.8,1.4-0.6,2.6,0.2,3.8
			c0.5,0.8,1.1,1.5,1.9,2.2c1.3,1,2.6,2.1,4.4,2.3c0.5,0,1,0.4,1.5,0.6c0.5,0.2,1,0.4,1.6,0.5c2.1,0.2,4.3,0.5,6.4,0.5
			c2.4,0.1,4.8,0,7.2-0.1c1.9,0,3.8-0.4,5.6-1c0.6-0.2,1.2-0.5,1.8-0.6c1.9-0.3,3.6-1,5.4-1.9c1.5-0.8,2.9-1.7,4.2-2.7
			c1.9-1.4,3.3-3.3,4.3-5.4c0.9-1.9,2.2-3.7,2.7-5.8c0-0.2,0.2-0.4,0.3-0.6c1.2-1.9,1.4-4.3,2.9-6c0.2-0.2,0.2-0.6,0.3-0.9
			c0.6-2.3,2.2-4.2,2.8-6.6c0.1-0.3,0.4-0.5,0.6-0.8c0.7-1,1-2.2,1-3.4c0.1-1.5-0.8-2.7-2.3-3c-1.7-0.3-3.4-0.8-5.2-0.7
			c-0.8,0.1-1.6,0-2.4-0.1c-0.5-0.1-1-0.4-1.6-0.6c0.9-2.5,1.6-4.8,4.2-5.8c1.7,0.1,3.2,0.2,4.8,0.2c9.8,0,19.5,0,29.3,0
			c1.8,0,3.5-0.2,5.3-0.2c0.2,0,0.3,0,0.5,0c1.2,0,2,0.9,1.7,2c-0.2,0.8-0.5,1.5-0.8,2.3c-0.7,1.5-1.9,2.3-3.6,2.3
			c-1.5,0-3-0.1-4.6,0c-2.6,0.2-4.7,1.4-6.6,3.1c-0.5,0.4-0.8,1-1,1.6c-0.9,1.9-2.1,3.6-2.6,5.7c-0.1,0.4-0.5,0.8-0.7,1.2
			c-1,2.1-1.7,4.3-2.9,6.3c0,0.1-0.1,0.2-0.1,0.2c-0.2,1.3-1,2.3-1.6,3.5c-0.6,1.2-0.7,2.6-1.5,3.7c-0.1,0.1-0.2,0.3-0.3,0.4
			c-0.1,0.3-0.3,0.6-0.4,0.9c-0.5,2.5-1.9,4.6-3.4,6.5c-2.7,3.4-5.7,6.5-10,8c-0.4,0.1-0.7,0.4-1.1,0.6c-2.3,1.5-5,1.9-7.5,3.1
			c-0.3,0.2-0.8,0.1-1.2,0.2c-1.5,0.3-3,0.7-4.4,1.1c-2.2,0.6-4.5,1.2-6.8,1.1c-1.1,0-2.2,0.1-3.3,0.2c-1.3,0.1-2.5,0.3-3.8,0.3
			c-5,0-9.9,0.1-14.9,0c-3.4-0.1-6.9-0.4-10.3-0.6c-0.7-0.1-1.5-0.2-2.1-0.4c-3.1-1.2-6.6-1.2-9.5-3.2c-0.1-0.1-0.3-0.1-0.4-0.2
			c-1.9-0.3-3.3-1.5-4.9-2.5c-1.4-0.9-2.5-2.1-3.5-3.3c-1.2-1.4-1.5-3.2-1.5-4.9c0-1.1,0.2-2.2,0.4-3.3c0.2-1.1,0.5-2.2,1.1-3.1
			c0.2-0.3,0.5-0.7,0.6-1c0.9-2.3,1.8-4.6,2.8-6.9c0.9-2,2-3.8,2.6-5.9c0-0.2,0.1-0.3,0.2-0.4c1-2,1.9-4,2.9-6
			c0.2-0.4,0.4-0.9,0.5-1.4c0.5-1.8-0.2-3.1-2-3.7c-0.7-0.2-1.4-0.3-2.1-0.4c-2.1-0.5-4.1-0.3-6.2,0c-1.1,1.6-2.3,3.1-3.2,4.9
			c-0.8,1.8-1.9,3.6-2.9,5.4c-0.4,0.8-1,1.6-1.2,2.6c-0.1,0.5-0.4,1-0.7,1.5c-0.6,0.9-1,1.8-1.2,2.8c-0.1,0.5-0.2,1-0.5,1.3
			c-1,1.4-1.4,3-1.8,4.7c-0.1,0.5-0.2,1-0.4,1.4c-0.8,1.3-1,2.7-1.3,4.1c-0.3,1.1-0.4,2.2-0.7,3.3c-1,3.3-1.3,6.8-1.4,10.2
			c-0.3,5.1-0.2,10.2,1.5,15.2c0.2,0.6,0.2,1.3,0.4,1.9c0.3,1.6,0.7,3.1,1.5,4.5c0.9,1.5,1.2,3.3,2.4,4.6c0.1,0.1,0.1,0.1,0.1,0.2
			c0.3,2.1,2.1,3.3,2.9,5.2c1.9,1.8,2.9,4.2,5.1,5.7c0.9,1.3,2.1,2.2,3.3,3c1.3,0.8,2.2,2,3.6,2.7c1.3,0.6,2.3,1.7,3.7,2
			c0.3,0.1,0.6,0.3,0.8,0.5c0.7,0.7,1.5,1.1,2.5,1.2c0.4,0,0.8,0.2,1.1,0.4c1.1,1,2.6,1.3,3.9,1.6c0.8,0.2,1.6,0.4,2.3,0.7
			c1.6,0.8,3.4,1,5.1,1.3c2.2,0.3,4.5,0.5,6.6,0.9c2.1,0.4,4.1,0.6,6.2,0.6c1.5,0,3,0,4.6,0c2.4,0,4.8,0.1,7.1-0.6
			c0.7-0.2,1.4-0.3,2.1-0.3c2.4-0.3,4.8-0.6,7.1-0.9c0.6-0.1,1.1-0.1,1.6-0.4c1.6-0.7,3.2-1,4.9-1.3c1.1-0.2,2.2-0.4,3.2-0.9
			c1.5-0.6,3-1.1,4.5-1.5c1.5-0.4,3-1.1,4.4-1.7c0.2-0.1,0.5-0.1,0.7-0.2c2.2-0.6,3.9-2.1,6.2-2.6c0.1,0,0.3-0.2,0.4-0.3
			c0.7-0.8,1.6-1,2.5-1.3c0.5-0.1,1-0.3,1.3-0.6c0.8-0.8,1.9-1.1,3-1.5c0.5-0.2,1.1-0.4,1.5-0.7c2.5-1.9,5.3-3.2,7.8-5
			c1-0.7,1.8-1.6,2.9-2.1c1.8-0.9,3.2-2.1,4.5-3.5c1-1,2.4-1.5,3.2-2.8c0.1-0.2,0.4-0.2,0.6-0.3c0.5-0.4,1.1-0.7,1.5-1.1
			c0.8-0.8,1.6-1.6,2.4-2.3c0.3-0.3,0.8-0.5,1.2-0.7c0.3,0.2,0.6,0.4,0.6,0.5c0.4,1.7,1.4,3.1,1.9,4.6c0.6,1.8,2.1,3.2,2.7,5
			c1.9,2,3.2,4.6,5.5,6.2c0.3,0.2,0.4,0.5,0.6,0.7c1.2,1.2,2.3,2.5,3.6,3.5c2.2,1.6,4.3,3.5,7.1,4.3c0.2,0.1,0.4,0.2,0.6,0.4
			c1.6,1.5,3.8,1.6,5.4,3c2.8,0.8,5.5,1.6,8.3,2.4c0.1,0,0.2,0,0.2,0c2.3,0.4,4.6,0.7,6.8,1.2c2.4,0.5,4.9,0.7,7.4,0.7
			c1.4,0,2.7-0.1,4.1,0c3.5,0.2,7-0.6,10.5-1c1.1-0.1,2.2-0.3,3.3-0.5c1.8-0.3,3.7-0.4,5.4-1c1.7-0.5,3.3-1.1,5.1-1.4
			c0.5-0.1,0.9-0.2,1.4-0.4c1.4-0.5,2.9-0.9,4.3-1.4c2.5-0.8,4.9-2,7.4-2.6c1.1-0.8,2.4-1.2,3.6-1.7c1.4-0.7,2.8-1.5,4.4-1.9
			c0.4-0.1,0.7-0.6,1.1-0.8c0.6-0.4,1.2-0.9,1.8-1.1c1-0.3,1.8-0.7,2.5-1.3c0.4-0.3,1-0.5,1.5-0.8c0.6-0.3,1.2-0.7,1.9-1.1
			c0.5-0.3,1.1-0.7,1.6-1c1.6-1,3.2-2,4.8-3.1c2.3-1.6,4.5-3.3,6.7-5c2.2-1.6,4.3-3.2,6.2-5.3c0.9-1,2-1.8,2.9-2.6
			c0.8,0.1,0.9,0.5,1,1c0.1,1.5,0.3,2.8,1.4,4c0.3,0.3,0.4,0.7,0.5,1.1c0.2,1,0.6,1.8,1.3,2.5c0.3,0.4,0.5,1,0.8,1.5
			c0.2,0.5,0.4,1.1,0.7,1.5c2.1,2.8,4.3,5.6,6.8,8c2.7,2.6,5.9,4.6,9,6.7c2.5,1.7,5.6,2.2,8.3,3.7c0.1,0.1,0.3,0.1,0.5,0.1
			c4,1.2,8.1,2.3,12.3,2.9c3.1,0.4,6.1,1.1,9.3,0.9c0.5,0,1,0,1.4,0c3.8,0.3,7.5-0.3,11.2-0.7c2.9-0.3,5.8-0.8,8.8-1.3
			c0.4-0.1,0.8-0.2,1.2-0.3c1.5-0.4,3.1-0.8,4.6-1.2c1.7-0.4,3.5-0.6,5-1.6c0.3-0.2,0.6-0.2,0.9-0.3c2.7-0.2,4.8-2.1,7.4-2.5
			c0.3,0,0.6-0.3,0.8-0.5c0.8-0.7,1.8-1,2.8-1.2c1.1-0.2,2.1-0.7,3.1-1.3c0.4-0.3,0.8-0.5,1.2-0.7c2.1-0.8,3.9-2,5.8-3.2
			c1.7-1,3.5-1.9,5.1-3c1.6-1.1,3.5-2,4.9-3.3c0.2-0.2,0.5-0.4,0.8-0.5c1.7-1.2,3.4-2.3,5.1-3.6c1.1-0.9,2.2-1.8,3.3-2.7
			c0.5-0.5,1.1-0.9,1.6-1.4c1.1-0.9,2-2,3.3-2.6c1.2,0.6,1.7,1.6,1.9,2.7c0.2,0.9,0.6,1.6,1.1,2.4c0.4,0.5,0.6,1.1,0.9,1.7
			c0.4,0.6,0.7,1.2,1.1,1.8c0.3,0.5,0.6,0.9,1,1.4c1.1,1.6,2.1,3.3,3.4,4.6c2,2.1,3.8,4.5,6.5,5.9c0.3,0.2,0.6,0.6,0.9,0.8
			c0.6,0.4,1.2,0.8,1.8,1.2c0.4,0.3,0.9,0.4,1.2,0.8c0.8,0.9,1.9,1.1,2.9,1.6c1,0.5,1.9,1.1,2.9,1.6c0.2,0.1,0.5,0.1,0.7,0.2
			c0.4,0.2,0.9,0.3,1.3,0.6c1,0.8,2.1,1,3.3,1.4c0.8,0.2,1.6,0.4,2.3,0.7c1.8,0.8,3.7,1.1,5.6,1.3c2,0.3,4,0.4,5.9,0.9
			c2.2,0.6,4.4,0.6,6.7,0.6c2.1,0,4.2,0,6.2,0c1.6,0,3.2-0.1,4.7-0.5c0.9-0.3,1.9-0.3,2.8-0.5c2.5-0.3,4.9-0.6,7.4-0.9
			c0.4-0.1,0.8-0.1,1.2-0.3c1.6-0.8,3.4-1,5.1-1.4c1-0.2,2.1-0.3,3-0.7c1.6-0.7,3.2-1.4,5-1.6c0.5-0.1,0.9-0.3,1.3-0.5
			c1-0.7,2.1-1.1,3.3-1.4c0.6-0.1,1.3-0.3,1.8-0.6c1.9-1.4,4.4-1.5,6.2-3c2.7-1.1,5.2-2.5,7.6-4c1-0.6,1.9-1.5,3-2
			c1.3-0.6,2.4-1.5,3.7-2.2c1.8-1.1,3.6-2.4,5.3-3.7c2.7-2,5.2-4.1,7.8-6.3c0.8-0.7,1.5-1.4,2.3-2.1c0.9-0.8,1.6-1.8,2.6-2.4
			c1.3-0.8,2.2-1.8,3.2-2.9c1.2-1.3,2.1-2.8,3.5-3.9c0.3-0.2,0.5-0.6,0.8-0.9c1.1-1.2,1.7-2.7,3.1-3.6c0.3-0.2,0.4-0.7,0.7-1
			c0.3-0.4,0.5-0.8,0.8-1.2c2.9-3.3,5.4-6.9,7.5-10.7c0.7-1.2,1.7-2.3,2-3.8c0-0.1,0.1-0.3,0.3-0.4c0.9-0.7,1.2-1.8,1.7-2.8
			c0.8-1.5,1.7-3.1,2.1-4.8c0.1-0.2,0.2-0.4,0.4-0.6c0.9-1.2,1.3-2.5,1.6-4c0.1-0.5,0.3-1.1,0.6-1.6c0.8-1.2,1.2-2.6,1.4-4
			c0.2-0.9,0.2-1.8,0.6-2.6c1.2-2.4,1.3-4.9,1.7-7.4c0.2-1.2,0.3-2.3,0.4-3.5c-2-1.1-2.1-1.1-3.7-1.1c-2.7-0.1-5.2,0.4-7.6,1.7
			c-1.4,0.7-2.3,1.6-2.8,3.1c-0.6,1.9-1.9,3.5-2.2,5.5c-0.1,0.3-0.3,0.6-0.4,0.8c-0.4,0.9-0.8,1.7-1.1,2.6c-0.8,2.4-2,4.5-2.8,6.9
			c-0.5,1.4-1.2,2.7-1.8,4.1c-0.7,1.8-1.7,3.4-2.1,5.3c-0.1,0.5-0.5,1-0.8,1.5c-0.2,0.3-0.5,0.7-0.6,1c-0.3,1.7-1.2,3.1-1.9,4.6
			c-1.1,2.4-2,4.9-2.9,7.3c-0.6,1.7-1.9,2.7-3.8,2.6c-4.9-0.1-9.8,0-14.6-0.1c-0.7,0-1.4-0.1-2.1-0.1c-0.4-0.3-0.7-0.5-1-0.8
			c-2.6-2.8-5.4-5.4-7.8-8.4c-2.3-2.8-4.9-5.2-7.2-8c-2.4-3-5.2-5.6-7.8-8.4c-0.5-0.6-1.1-1.1-1.7-1.7c-1.9-2.1-3.7-4.2-5.6-6.2
			c-0.2-0.2-0.4-0.5-0.7-0.7c-1.1-0.9-2.2-0.7-2.6,0.6c-0.4,1.2-0.9,2.4-1.6,3.5c-0.2,0.3-0.2,0.6-0.4,0.9c-1,2.4-1.9,4.9-3.1,7.3
			c-0.6,1.2-1.2,2.4-1.6,3.7c-0.2,0.5-0.5,1-0.7,1.5c-0.3,0.5-0.6,1-0.7,1.5c-0.4,1.1-0.9,2.2-1.5,3.3c-0.4,0.7-0.7,1.5-0.9,2.2
			c-0.3,1.1,0.2,1.9,1.2,2.3c1.1,0.4,2.3,0.7,3.5,0.7c1.3,0,2.6-0.1,3.8,0c0.5,0,0.9,0.2,1.3,0.3c0.7,1,0.3,1.8-0.1,2.6
			c-0.6,1-1.2,1.9-1.4,3c-0.2,0.9-0.9,1.3-1.8,1.3c-0.4,0-0.8,0-1.2,0c-12.7,0-25.4,0-38.1,0c-0.6,0-1.1,0-1.7-0.1
			c-0.5-0.1-0.9-0.3-1-1.2c0.9-0.8,1.1-2.1,1.7-3.4c0.7-1.5,1.8-2.6,3.7-2.5c2.4,0.1,4.8,0.2,7.1-0.4c0.2-0.1,0.5,0,0.7,0
			c2.2,0.1,3.6-1.1,4.5-3c0.9-1.8,2-3.4,2.5-5.4c0.1-0.5,0.4-0.9,0.6-1.3c0.4-0.8,0.7-1.6,1.1-2.4c0.3-0.6,0.6-1.3,0.9-2
			c0.3-0.7,0.7-1.4,1-2.2c1-2.3,1.9-4.7,3-7c0.6-1.1,1.1-2.3,1.5-3.5c0.1-0.5,0.4-0.9,0.6-1.3c0.4-0.8,0.7-1.6,1.1-2.4
			c0.4-0.8,0.8-1.6,1.1-2.4c0.4-0.9,0.9-1.9,1.1-2.9c0.3-1.1-0.2-2-1.2-2.7c-1-0.7-2.1-1.1-3.4-1.1c-1.3,0-2.6,0-3.8,0
			c-0.5,0-0.9-0.2-1.5-0.3c0-0.5-0.1-1.1,0.1-1.4c0.9-1,1.2-2.2,1.6-3.4c0.1-0.4,0.5-0.6,0.8-1c1-0.1,2-0.5,3.1-0.4
			c1.2,0.1,2.4,0.2,3.6,0.2c7.4,0,14.9,0,22.3,0C612.2,326.7,613.8,326.6,615.7,326.6z M465.4,184.4c0.6-1,0.5-1.9,0.5-2.8
			c0-2.4,0.1-4.8,0-7.2c0-1.7,0.5-3,2.4-3.3c0.1,0,0.2-0.2,0.4-0.3c0.7-2,0.6-3.7-0.5-6.1c-0.5-0.1-1.1-0.2-1.8-0.2
			c-5.2-0.1-10.4-0.2-15.6-0.1c-2.3,0.1-4.6-0.2-6.9-0.2c-4.6,0-9.1,0.2-13.7,0.2c-2.8,0-5.6-0.2-8.4-0.2c-2.1,0-4.2,0.1-6.2,0.3
			c-1.2,0.1-1.8,1-1.5,2.2c0.1,0.4,0.3,0.7,0.5,1.1c1.2,1.8,1.9,3.8,3,5.7c0.7,1.2,1.1,2.4,2,3.4c0.2,0.9,0.3,1.7,0.6,2.5
			c0.3,0.7,0.8,1.4,1.2,2.1c0.2,0.3,0.3,0.7,0.5,1.1c0.3,1.2,1.2,1.8,2.3,2.3c0.9,0.4,1.8,0.5,2.8,0.5c3.1,0,6.2,0,9.4,0
			c8.2,0,16.3,0,24.5,0C462.3,185.2,463.9,185,465.4,184.4z M363.1,185.1c0.9,0,1.8,0.1,2.7,0.1c10.4,0,20.8,0,31.2,0
			c0.4,0,0.8,0.1,1.2,0c1.5-0.4,3.1-0.8,3.7-2.3c0.6-1.5,1.3-3,2.2-4.4c0.2-0.3,0.2-0.8,0.3-1.1c0.1-0.3,0.2-0.7,0.4-0.9
			c1.1-1.2,1.8-2.6,2.1-4.2c0.1-0.3,0.3-0.6,0.5-0.8c0.7-1.1,1.4-2.1,1.4-3.5c0-0.4,0.4-0.9,0.5-1.3c0.1-0.3,0.1-0.7,0.2-1.2
			c-1.7-0.5-3.2-0.7-4.8-0.7c-12.8,0-25.6,0-38.4,0c-0.8,0-1.6,0-2.4,0c-1.1,0.1-2.3,0.1-3.3,0.5c-1.2,0.5-2.5,1-3.8,1.2
			c-0.6,1-0.4,1.9-0.2,2.8c1.1,1.3,2.1,2.6,3.1,3.8c0.8,0.4,2.1,0,2.6,1.3C362.1,182.9,362.1,182.9,363.1,185.1z M457.2,146.4
			c0.5-1.8,0.6-1.8-0.2-3.3c-0.7-1.5-1.1-3.1-1.4-4.8c-0.3-1.6-1.2-3.1-1.8-4.7c-0.1-0.2-0.1-0.5-0.2-0.7c-0.3-0.7-0.7-1.4-1.1-2.1
			c-0.3-0.6-0.8-1.2-1-1.9c-0.5-2-2-2.6-3.7-2.9c-0.6-0.1-1.3-0.1-1.9-0.1c-5.6,0-11.2,0.1-16.8,0c-4.3-0.1-8.6,0.3-12.9-0.3
			c-0.8-0.1-1.4,0.2-1.9,0.8c-0.8,0.7-0.9,1.7-0.9,2.7c0,5,0,10.1,0,15.1c0,1.8,0.6,2.4,2.5,2.5c0.5,0,1,0,1.4,0c1.8,0,3.5,0,5.3,0
			c10.1,0,20.1,0,30.2,0C454.2,146.8,455.7,146.9,457.2,146.4z M473.6,202.4c-1.1-0.7-2.1-0.5-3-0.5c-10.6,0-21.1,0-31.7,0
			c-1.4,0-2.7-0.1-4.1-0.2c-2-0.1-3,1-2.6,3c0.1,0.3,0.2,0.6,0.3,0.9c0.7,1.2,1.3,2.4,2.1,3.5c0.7,0.9,1.3,1.8,1.5,2.9
			c0,0.3,0.2,0.6,0.4,0.9c0.9,1.2,1.6,2.6,2.3,3.9c0.6,1.2,1.4,2.3,1.9,3.6c0.7,1.6,1.9,2.4,3.8,2.4c9.1-0.1,18.2,0,27.3,0
			c0.6,0,1.2-0.1,1.7-0.2c0.8-0.8,0.8-1.6,0.8-2.4c0-4.7,0-9.4,0-14.2C474.4,204.7,474.2,203.5,473.6,202.4z M354.8,202.7
			c-0.7,1.1-0.7,2.3-0.7,3.4c0,4.5,0,8.9,0,13.4c0,0.5,0,1,0.1,1.4c0.1,0.9,0.6,1.4,1.6,1.6c0.6,0.1,1.3,0.1,1.9,0.1
			c8.1,0,16.1,0,24.2-0.1c0.5,0,1.1-0.1,1.5-0.2c0.8-1.2,1.8-2.3,2.3-3.5c0.6-1.3,1.6-2.4,2.2-3.7c0.8-1.8,2.3-3.2,2.8-5.2
			c0.1-0.3,0.4-0.5,0.6-0.7c0.8-1.3,1.7-2.5,2.4-3.8c0.3-0.5,0.3-1.2,0.2-1.9c-0.1-1.4-1-2.1-2.5-2c-1.6,0.1-3.2,0.2-4.8,0.3
			c-9,0-18.1,0-27.1,0C358,201.9,356.4,202,354.8,202.7z M437.5,264.7c-0.2-0.5-0.3-0.8-0.3-1.1c-0.1-3.1-0.1-6.2-0.1-9.3
			c0-0.9,0.4-1.7,1.3-2.3c0.2,0,0.5-0.1,0.9-0.1c2.5,0,5,0,7.4,0c0.4,0,0.8,0,1.2,0.1c1.5,0.2,2.1,0.9,2.2,2.4c0,3,0,5.9,0,8.9
			c0,0.4-0.3,0.9-0.4,1.2c-0.8,0.4-1.5,0.7-2.1,0.9c-0.2,1,0.3,1.2,0.9,1.3c1.8,0.1,3.7,0.3,5.5,0.3c0.8,0,1.4-0.3,1.9-0.9
			c0.1-0.1,0.1-0.3,0.1-0.5c-0.6-0.2-1.1-0.5-1.6-0.7c-0.5-0.8-0.4-1.5-0.5-2.2c0-7.2,0-14.4,0-21.6c0-1.3,0.3-2.4,1.4-3.1
			c0.4-0.2,0.9-0.5,0.7-1.1c-2.6-1.1-5.8-1.1-8.3,0c-0.1,0-0.1,0.3-0.2,0.6c0.3,0.2,0.6,0.5,0.9,0.6c1.2,0.6,1.7,1.5,1.7,2.9
			c-0.1,2,0,4,0,6c0,0.5,0,1-0.1,1.4c-0.2,0.8-0.7,1.3-1.4,1.4c-0.5,0.1-1.1,0.1-1.7,0.1c-2.4,0-4.8,0-7.2,0c-0.5,0-0.9-0.1-1.3-0.1
			c-1.2-1.5-1.2-1.5-1.2-3.1c0-1.7,0.1-3.4,0-5c-0.1-1.7,0.5-2.9,1.9-3.8c0.4-0.2,0.6-0.7,0.9-1.1c-0.3-0.2-0.5-0.4-0.7-0.5
			c-2.5-0.4-4.9-0.4-7.4-0.1c-0.8,0.1-1.1,0.8-0.8,1.8c0.2,0.2,0.5,0.5,0.8,0.7c1.2,0.8,1.6,2,1.8,3.3c0.1,0.5,0.1,1,0.1,1.4
			c0,5.5,0,11,0,16.5c0,0.5,0,1,0,1.4c-0.2,1.6-0.7,2.9-2.3,3.7c-0.4,0.2-0.6,0.6-1.1,1c0.4,0.3,0.6,0.6,0.9,0.6
			c2.4,0,4.8,0.1,7.2,0c0.5,0,1.1-0.3,1.2-1.1C438.9,265.3,438.3,265.1,437.5,264.7z M482.3,241.9c0.4-0.9,0.1-1.7-0.1-2.6
			c-0.6-2.8-1.3-3.3-4.1-3.3c-4.5,0-8.9,0-13.4,0.1c-1.1,0-2.2,0.3-3.3,0.4c-0.3,0-0.5,0.3-0.7,0.4c0,0.2-0.1,0.3,0,0.4
			c0.2,0.3,0.4,0.7,0.7,0.9c1.3,0.8,1.7,2,1.6,3.5c0,0.1,0,0.2,0,0.2c0,6.3,0,12.6,0,18.9c0,1.1-0.1,2.2-0.2,3.3
			c0,0.2-0.2,0.4-0.2,0.5c-0.5,0.8-1.5,0.4-1.9,1.2c0.9,1.1,1,1.2,2.1,1.2c1.9,0,3.8-0.1,5.7-0.1c3,0,5.9,0,8.9,0
			c1,0,2.1-0.1,3.1-0.2c1.2-0.1,1.7-0.5,1.9-1.7c0.2-1.4,0.7-2.6,1.2-3.9c0.3-0.7,0.5-1.4,0.1-2.1c-0.4-0.5-0.9-0.8-1.8-0.5
			c-0.1,0.3-0.3,0.6-0.5,1c-0.9,2.3-3,3.4-4.9,4.6c-0.3,0.2-0.6,0.2-0.9,0.2c-2.2,0-4.3,0-6.5,0c-1,0-1.7-0.6-2-1.4
			c-0.2-0.6-0.4-1.2-0.4-1.9c0-1.9,0-3.8,0-5.8c0-0.5,0-1,0.2-1.4c0.4-1.4,1.5-2.1,2.9-2c1.1,0.1,2,0.5,2.8,1.3c0.5,0.5,1,1,1.6,1.6
			c0.5-0.2,0.9-0.3,1.4-0.5c0.4-2.4,0.2-4.7,0.1-7c0-0.3-0.2-0.5-0.4-0.8c-1-0.1-1.5,0.4-1.9,1c-0.6,0.9-1.4,1.5-2.3,2
			c-2.1,1.2-4,0.1-4.3-2.3c0-0.2,0-0.5,0-0.7c-0.1-2.2,0.2-4.5,0.5-6.6c0.6-0.9,1.5-1.1,2.4-1.1c1.9,0,3.8,0,5.8,0
			c1.1,0,2.2,0.2,3.3,0.7C479.6,241,480.4,242.3,482.3,241.9z M344,251.3C343.9,251.3,343.9,251.3,344,251.3c0,1-0.1,2.1,0,3.1
			c0.1,1.4,0.2,2.7,1.1,3.9c0.4,0.6,0.7,1.2,0.9,1.9c0.1,0.7,0.5,1.3,1.1,1.8c0.3,0.3,0.6,0.5,0.8,0.9c1.4,2.3,3.9,3.2,6,4.5
			c0.2,0.2,0.6,0.2,0.9,0.2c2.4,0,5,0.5,7.2-1.2c0.2-0.1,0.4-0.2,0.7-0.2c1-0.3,1.9-0.9,2.5-1.7c1.2-1.4,2.6-2.6,3.1-4.5
			c0.1-0.4,0.5-0.8,0.7-1.2c0.2-0.4,0.4-0.9,0.5-1.3c0.7-3.5,0.8-7,0.3-10.5c-0.2-1.5-0.7-2.9-1.5-4.2c-0.8-1.5-2-2.7-3.1-3.9
			c-0.9-1-2.1-1.7-3.2-2.5c-0.3-0.2-0.8-0.2-1.1-0.3c-0.8-0.1-1.6-0.3-2.4-0.3c-0.8-0.1-1.6-0.2-2.4-0.1c-2.5,0.3-4.8,0.8-6.7,2.7
			c-1.5,1.5-3.1,2.9-3.6,5.2c-0.1,0.5-0.4,0.9-0.6,1.3c-0.7,1-1,2.2-1.1,3.4C343.9,249.2,344,250.3,344,251.3z M371.2,237.3
			c0.5,0.3,0.7,0.5,0.9,0.6c1.6,0.8,2.1,2.1,2.1,3.9c-0.1,3.5,0,7,0,10.6c0,3.1,0,6.2,0,9.4c0,1.6-0.5,2.8-2.1,3.4
			c-0.2,0.1-0.4,0.3-0.5,0.3c-0.1,0.8,0.2,1.2,0.7,1.2c2.1,0.1,4.1,0.2,6.2,0.2c0.8,0,1.5-0.5,1.7-1.5c-0.7-0.3-1.4-0.5-1.9-0.7
			c-0.8-3.5-0.2-6.8-0.5-10.2c-0.1-0.6,0.4-1.3,1.1-1.5c1.1-0.3,2.3-0.4,3.3,0.2c1.3,0.8,2.8,1.6,3.3,3.3c0,0.2,0.3,0.3,0.5,0.4
			c0.6-0.3,0.6-0.8,0.6-1.2c0-2.6,0-5.3,0-7.9c0-0.3-0.2-0.6-0.3-0.8c-0.9-0.3-1.3,0.3-1.7,0.8c-0.8,1-1.4,2.1-2.7,2.8
			c-1.1-0.1-2.2,0.7-3.4,0.4c-0.7-1.1-0.7-1.1-0.7-1.5c0.2-2.9,0.2-5.7,0-8.6c0-0.5,0.3-1,0.5-1.6c3.6,0.1,7.1-0.6,10.3,0.8
			c0.4,0.9,0.7,1.7,1.2,2.3c0.5,0.7,1.1,0.8,2,0.3c0.4-1.1,0.3-2.3,0-3.4c-0.6-2.2-1.5-2.9-3.8-2.9c-2.6,0-5.3,0-7.9,0
			c-1.7,0-3.4,0-5,0C373.8,236.1,372.6,236.3,371.2,237.3z M409.1,240c0.8-0.4,1.5-0.8,2.3-1.2c0.4-0.2,0.9-0.3,1.4-0.4
			c1.5-0.2,2.4,0.7,2.4,2.3c0,0.9-0.1,1.8-0.1,2.6c0,5.7,0,11.4,0,17c0,0.6,0,1.1,0,1.7c-0.1,1.4-0.6,2.5-2.1,2.9
			c-0.4,0.1-0.8,0.5-1.3,0.8c0.3,0.4,0.4,0.7,0.7,0.8c0.3,0.2,0.8,0.3,1.1,0.3c1.8,0.1,3.5,0.1,5.3,0.2c0.7,0,1.4-0.2,2-0.7
			c0.1-0.1,0.1-0.4,0.2-0.7c-0.6-0.3-1.2-0.5-1.9-0.8c-0.3-1.6-0.6-3.3-0.6-5c0-6.2,0-12.3,0-18.5c0-0.5,0-1,0.1-1.4
			c0.2-0.8,0.9-1.5,1.7-1.4c1.7,0.2,3.3,0.4,4.6,1.8c0.4,0.4,0.8,0.8,1.2,1.2c0.6,0.6,1.3,0.9,2.3,0.8c-0.1-0.5,0-1-0.2-1.4
			c-0.7-1.2-1-2.5-1.4-3.8c-0.1-0.4-0.3-0.9-0.5-1.4c-0.6,0-1.2-0.1-1.7,0c-1.9,0.4-3.8,0.4-5.7,0.3c-1,0-1.9,0-2.9,0
			c-2.2,0-4.5,0.2-6.7-0.3c-0.7-0.2-1.4-0.2-2,0.4c-0.5,1.1-0.9,2.2-1.4,3.3c-0.5,1.1-0.3,2.2,0.4,3.2
			C408,242.7,408.2,241.2,409.1,240z M417.5,89.5c-0.5-0.2-1.2-0.6-1.8-0.8c-1.2-0.3-2.1,0.3-2.2,1.5c-0.1,0.5,0,1,0,1.4
			c0,4.1,0,8.1,0,12.2c0,0.8,0,1.6,0,2.4c0,1.9,1.4,3.2,3.4,3.2c3.2-0.1,6.4,0,9.6,0c0.5,0,1.2,0,1.6-0.2c0.5-0.2,0.9-0.7,1.2-1.1
			c0.2-0.3,0-0.7-0.1-1.1c-0.9-0.4-1.8-0.6-2.5-1.1c-1.2-0.8-2.6-1.2-4-1.4c-0.7-0.1-1.4-0.3-2.1-0.5c-1.1-0.4-2.2-0.8-3.4-1.3
			c-0.7-0.6-0.7-1.5-0.7-2.4c0-1.8,0.1-3.5,0-5.3c-0.1-1.9,0-3.7,1.1-5.2C417.6,89.8,417.6,89.7,417.5,89.5z M401.7,153.6
			c0.7-1.8,2.7-2.5,3.1-4.2c-0.3-0.8-0.9-1-1.6-1.1c-0.6-0.1-1.1,0-1.7,0c-0.9,0-1.5-0.4-1.9-1.2c-0.2-0.4-0.4-0.9-0.6-1.3
			c-0.8-1.2-2.3-1.1-2.9,0.2c-0.1,0.3-0.2,0.6-0.3,0.9c-0.3,1-1,1.4-2,1.4c-0.7,0-1.4,0-2.2,0c-0.7,0.1-1.2,0.3-1.3,1.3
			c0.4,0.8,1.2,1.3,1.9,2c0.9,0.9,1.4,1.9,1.2,3.2c-0.2,0.8-0.3,1.6,0.3,2.2c0.5,0.4,1.1,0.4,1.6,0.2c0.3-0.1,0.6-0.3,0.8-0.5
			c1.1-0.7,2.1-0.6,3.1,0.1c0.3,0.2,0.6,0.5,1,0.7c0.5,0.3,1.1,0.4,1.6-0.2C402.4,156.2,401.9,155,401.7,153.6z M390.7,122.9
			c0.7,1.4,1.9,2.5,2.7,3.8c0.3,1.4-0.6,2.8,0.3,4c0.8,0.5,1.4,0.2,2.1-0.2c1.5-0.9,2.8-0.9,4.1,0.4c0.5,0.5,1.1,0.7,1.8,0.3
			c1.1-1.4-0.1-2.9,0-4.4c0.5-0.5,0.9-0.9,1.3-1.4c0.4-0.5,0.7-1.1,0.9-1.7c0.2-0.7,0-1.3-0.8-1.7c-0.7,0-1.4,0.1-2.1,0.1
			c-0.9-0.6-1.2-1.5-1.6-2.2c-0.8-1.5-1-1.6-2.9-1.2c-0.9,1-0.7,2.7-2,3.3C393.3,122.6,391.8,121.2,390.7,122.9z M386.6,143.9
			c0.2-1.5-1.3-3.1-0.1-4.7c0.7-0.8,2-0.7,2.4-1.9c-0.1-0.8-0.6-1.2-1.3-1.4c-0.6-0.1-1.3-0.1-1.9-0.2c-0.5-0.1-1-0.3-1.4-0.4
			c-0.8-1.4-0.2-3.1-1.3-4.2c-0.7-0.4-1.3-0.1-1.6,0.6c-0.4,1-0.8,2.1-1.1,3c-0.8,0.8-1.6,1-2.5,1c-0.5,0-1,0-1.4,0.2
			c-0.7,0.2-1,0.7-0.9,1.4c0.3,0.8,1.1,1.1,1.7,1.5c0.9,0.7,1.1,1.4,0.7,2.5c-0.2,0.5-0.5,1-0.6,1.5c-0.1,0.6,0.2,1.1,0.6,1.4
			c0.5,0.4,1.1,0.3,1.6,0c0.5-0.4,1-0.8,1.5-1.2c0.4-0.3,1-0.5,1.4-0.6C383.7,143.2,384.6,145.3,386.6,143.9z M408.2,177.4
			c-0.1,1.2-0.1,2.3-0.2,3.4c1.4,0.2,2.7,0.1,4.1,0.1c1.3,0,2.7,0.3,4-0.3c-0.1-1-0.2-2-0.2-2.9c-0.6-0.4-1.1-0.8-1.6-1.1
			c-0.2-1.1-0.3-2.2-0.5-3.4c-0.6-0.3-1.3-0.7-1.8-0.9c-0.7,0.4-1.2,0.7-1.7,1C410.1,176.4,410.1,176.4,408.2,177.4z M457.4,241.1
			c0,0.9-0.1,1.7-0.1,2.5c0,4.1,0,8.3,0,12.4c0,1.5,0,3,0.1,4.5c0,0.1,0.1,0.3,0.2,0.4c0.5,0.3,1,0.4,1.5,0c0.1-0.1,0.1-0.3,0.1-0.4
			c0-6.2,0-12.4,0-18.6c0-0.3-0.2-0.6-0.3-0.9C458.4,240.9,457.9,241,457.4,241.1z M441,260.9c0.4,0.2,0.8,0.3,1.1,0.5
			c0.4,0.2,0.7,0.5,0.9,0.6c1.4-0.4,2.5-0.7,3.7-1.1c0-1.8,0.3-3.7-0.2-5.7c-1.5,0-2.8,0-4.2,0c-0.4,0-0.9,0.2-1.3,0.3
			C441,257.3,441,259.1,441,260.9z M440.9,246.7c1.1,0,2,0.1,2.8,0.1c0.9,0,1.9,0.1,2.8-0.2c0.3-2.6,0.3-3.9-0.1-5.5
			c-1.1-0.4-2.4-0.1-3.4-1c-0.7,0.4-1.4,0.8-2.1,1.2c0,0.7,0,1.3,0,1.9C440.9,244.3,440.9,245.3,440.9,246.7z M415.4,62.9
			c-1,0.2-1.8,0.8-1.9,1.8c-0.1,1.3-0.3,2.7-0.3,4c0,1.1,1,2,2.2,2.1c1.1,0.1,2-0.4,2.1-1.5c0.4-2.3,0.1-4.6-1.7-6.3
			C415.8,63,415.7,63,415.4,62.9z M369.9,153.3c0.8-0.8,1.6-1.5,2.3-2.2c0.3-0.3,0.6-0.5,0.9-0.7c0.4-0.4,0.5-0.8,0.3-1.3
			c-0.2-0.5-0.6-0.7-1.1-0.8c-1.9-0.2-3.6,1.1-3.6,2.9c0,1.5-0.2,3-0.8,4.3c0.3,1.3,0.6,2.4,2,2.7
			C371.6,157.1,371.6,156.4,369.9,153.3z M469.7,261.1c0.8-0.1,1.4-0.1,1.9-0.2c-0.1-1-0.2-1.7-0.1-2.5c0-1.2-0.6-2.1-1.1-3
			c0-0.1-0.3,0-0.6,0C469.6,257.2,469.8,259,469.7,261.1z M469.8,246c0.3-0.3,0.5-0.6,0.7-0.9c0.3-0.3,0.7-0.6,1-1
			c-0.1-0.4-0.1-0.8-0.2-1.3c-0.6,0-1,0.1-1.5,0.1C469.8,244.1,469.8,245,469.8,246z M366.6,267.3c-0.1,1-0.6,1.2-0.2,1.9
			c0.2,0,0.5-0.1,0.8-0.1C367.1,268.6,366.9,268.2,366.6,267.3z M386.4,117.1c0.3-0.3,0.2-0.5,0-0.7c-0.1,0-0.3,0-0.4,0.1
			C385.8,116.8,386,117,386.4,117.1z"/>
		<path d="M262.2,224.2c0.1-1,0.2-1.7,0.3-2.4c0.6-0.6,1.1-1,1.7-1.6c0-0.6,0.1-1.1,0.1-1.7c0-17.4,0-34.7,0-52.1c0-0.2,0-0.3,0-0.5
			c0-1.4-0.2-2.6-1.7-3.1c-0.1-0.7-0.3-1.3-0.4-2c-0.3-0.1-0.5-0.2-0.7-0.2c-2,0-4,0-6-0.1c-0.8,0-1.6-0.2-2.3-0.4
			c-0.8-0.2-1.2-0.8-1.2-1.6c0-2.8,0-5.6,0-8.4c0-1.2,0.6-1.7,1.8-1.9c0.8-0.1,1.6-0.2,2.4-0.2c11.3,0,22.5,0,33.8,0
			c1,0,2.1-0.1,2.9,0.7c0.1,0.2,0.2,0.3,0.2,0.5c0,3.2,0.1,6.4,0.1,9.6c0,1.2-0.6,1.7-1.8,1.8c-1.7,0.1-3.4,0-5,0c-1,0-1.9,0-2.8,0
			c-0.6,0.8-0.5,1.6-0.5,2.4c0,7,0,13.9,0,20.9c0,0.3,0.1,0.6,0.2,1.1c0.3-0.3,0.6-0.4,0.8-0.6c0.2-0.3,0.3-0.9,0.6-1
			c0.9-0.4,0.9-1.3,1.2-2.1c0.4-0.2,0.9-0.5,1.5-0.7c0.1-0.3,0.3-0.7,0.5-1.2c0.5-0.2,1-0.5,1.6-0.7c0.2-0.5,0.4-1,0.6-1.6
			c0.5-0.1,0.9-0.3,1.5-0.5c0.3-0.8,0.5-1.8,1.6-1.9c0.2-0.6,0.4-1.2,0.7-1.7c0.6-0.2,1.1-0.4,1.7-0.7c0.2-0.9,0.7-1.7,1.8-1.8
			c0.2-0.5,0.4-1,0.6-1.5c0.4-0.2,0.9-0.4,1.5-0.6c0.1-0.1,0.2-0.2,0.2-0.3c0.3-0.5,0.5-1.1,0.9-1.3c0.7-0.4,1-0.9,1.4-1.6
			c0.3-0.4,0.9-0.7,1.4-1.1c0.1-0.3,0.4-0.8,0.6-1.4c0.5-0.2,1-0.4,1.7-0.6c0-0.4,0.1-0.8,0.2-1.4c-1.1-0.1-2.1-0.2-3.1-0.3
			c-0.9-0.5-1.3-1.2-1.3-2c-0.1-3.1-0.1-6.2,0-9.1c0.7-1,1.4-1.3,2.2-1.4c0.6,0,1.1,0,1.7,0c9.9,0,19.8,0,29.7,0
			c0.6,0,1.1-0.1,1.7,0.1c0.5,0.1,1,0.4,1.5,0.6c0.1,0.6,0.2,1,0.2,1.5c0,2.6,0,5.3,0,7.9c0,0.2,0,0.5,0,0.7
			c-0.1,1.1-0.6,1.6-1.6,1.7c-0.7,0.1-1.4,0-2.2,0c-1.8,0-3.7,0-5.6,0c-0.3,0.6-0.6,1.2-0.9,1.9c-0.6,0.2-1.3,0.3-2.1,0.5
			c-0.2,0.4-0.5,0.8-0.8,1.4c-0.5,0.2-1,0.4-1.6,0.6c-0.1,0.9-0.6,1.7-1.8,1.9c-0.2,0.5-0.4,0.9-0.6,1.4c-0.4,0.2-0.9,0.4-1.6,0.6
			c-0.2,0.4-0.4,0.9-0.6,1.5c-0.4,0.2-0.8,0.4-1.4,0.7c-0.2,0.4-0.4,0.8-0.7,1.4c-0.5,0.2-1,0.4-1.6,0.6c-0.1,0.4-0.3,0.9-0.5,1.4
			c-0.5,0.2-1,0.4-1.5,0.6c-0.2,0.4-0.5,0.9-0.7,1.4c-0.4,0.2-0.8,0.3-1.2,0.5c-0.2,0.4-0.4,1-0.6,1.6c-0.5,0.2-1.1,0.5-1.8,0.8
			c-0.1,1-0.8,1.6-1.8,1.8c-0.2,0.6-0.4,1-0.6,1.5c-0.5,0.2-1,0.4-1.5,0.5c-0.2,0.5-0.5,1-0.7,1.5c-0.5,0.3-1.1,0.6-1.6,0.8
			c-0.6,1.3,0.8,1.9,0.6,3c0.7,0.7,2,1,1.9,2.2c0.5,0.3,1,0.6,1.4,0.9c0.1,0.3,0.3,0.5,0.3,0.7c0.3,1.2,0.7,2.2,1.8,3
			c0.5,0.4,0.7,1.2,1.1,1.9c0.7,0.2,1.2,0.7,1.3,1.7c0.3,0.1,0.7,0.3,1.1,0.4c0.6,0.2,0.9,0.7,1,1.3c0.2,0.8,0.4,1.5,0.6,2.3
			c0.5,0.3,0.9,0.6,1.3,0.9c0.1,0.4,0.3,0.8,0.4,1.4c0.3,0.2,0.8,0.3,1.3,0.6c0.2,0.4,0.4,0.9,0.7,1.5c0.4,0.3,0.9,0.5,1.3,0.8
			c0.4,1,0.8,2,1.2,3c0.4,0.3,0.8,0.6,1.3,0.9c0.1,0.4,0.3,0.9,0.4,1.3c0.4,0.3,0.9,0.5,1.2,0.8c0.3,0.3,0.4,0.8,0.6,1.4
			c0.4,0.2,0.9,0.4,1.5,0.6c0.4,1,0.8,2.1,1.3,3.2c0.8,0.5,1.9,1,2,2.2c0.5,0.2,0.8,0.4,1.3,0.6c0.3,0.5,0.5,1.1,0.9,1.7
			c1,0,2.1,0,3.1,0c2,0,4,0,6,0c1.6,0.1,2.4,0.8,2.5,2.4c0.3,3.3,0.3,6.5,0,9.8c-0.1,1.6-0.9,2.3-2.4,2.4c-0.5,0-1,0-1.4,0
			c-11.8,0-23.7,0-35.5,0c-0.6,0-1.1,0-1.7,0c-1.1-0.1-1.8-0.8-2-1.8c-0.1-0.5-0.1-1-0.1-1.4c0-2.7,0-5.4,0-8.2c0-0.5,0-1,0.1-1.4
			c0.2-1,0.9-1.7,2-1.8c1.1-0.1,2.2-0.1,3.3-0.1c0.4-0.6,0.2-1.1-0.2-1.3c-0.9-0.5-1.1-1.3-1.3-2.2c-0.4-0.2-0.8-0.4-1.4-0.7
			c-0.2-0.4-0.4-0.9-0.7-1.5c-0.3-0.2-0.7-0.5-1.1-0.7c-0.4-1-0.8-1.9-1.2-3c-0.4-0.2-0.9-0.5-1.4-0.8c-0.2-0.5-0.4-1-0.6-1.6
			c-0.8-0.3-1.4-0.7-1.7-1.7c-0.2-0.7-0.6-1.5-1.2-2c-0.7-0.7-0.9-1.4-1-2.3c-0.7-0.5-1.7-0.5-1.8-1.5c0-0.2-0.2-0.6-0.3-0.6
			c-1.2-0.4-1.7-1.3-1.8-2.6c-0.8,0.2-1.4,0.3-2.1,0.5c-0.3,0.9-0.4,2.1-1.9,2c-0.2,1.3-1,1.9-2,2.2c0,6,0,11.8,0,17.7
			c0.5,0.1,0.9,0.3,1.4,0.3c1.9,0,3.8,0,5.8,0c0.9,0,1.8,0.1,2.7,0.9c0.1,0.5,0.4,1.2,0.4,1.8c0,3,0,5.9,0,8.9c0,0.3,0,0.6-0.1,1
			c-0.3,1.2-1.1,1.9-2.3,2c-0.5,0-1,0-1.4,0c-10.7,0-21.4,0-32.1,0c-2.1,0-3.8-0.5-4.9-2.3c-0.3-1.8-0.4-6.5-0.1-9.9
			c0.5-1.1,1.5-1.7,2.8-2.5C257.1,224.2,259.5,224.2,262.2,224.2z M289.1,152.1c-1.8-0.2-3.4-0.4-5-0.5c-7.6,0-15.2,0-22.8,0
			c-1.7,0-3.3,0.4-4.8,0.9c-1,4,0.7,4.7,3.6,4.8c1,0,1.9,0,2.9,0c1.6,0,2.5,0.7,3,2.2c0.9,2.5,1.1,5,1.1,7.6
			c0.1,16.9,0.1,33.8,0,50.6c0,2.6-0.3,5.3-1,7.8c-0.2,0.8-0.2,1.6-0.9,2.1c-2.1,1-4.3,0.8-6.1,1.4c-0.9,0.7-1.7,1.4-2.9,2.4
			c-0.2,0.9-0.1,2.1,1.2,3.1c0.7,0.1,1.6,0.2,2.5,0.2c8.7,0,17.4,0,26.1,0c0.6,0,1.3-0.1,1.9-0.1c0.6-0.1,1.1-0.5,1.2-1.1
			c0.2-1.4,0.4-2.8-0.4-4.2c-1.3-0.7-2.8-0.9-4.2-0.8c-1.7,0-3.3-0.5-4.6-1.4c-0.9-1.3-0.9-2.7-0.9-4c-0.1-5-0.2-10.1-0.2-15.1
			c0-2.1,0.4-3.9,2.3-5.3c1.1-0.8,1.9-1.9,2.9-2.9c1.1-1.1,2.2-2.3,3.4-3.4c1.2-1,2.3-0.8,3,0.5c0.4,0.8,0.8,1.5,1.6,2
			c0.2,0.2,0.3,0.5,0.5,0.8c0.4,0.5,0.7,1.1,1.1,1.5c1.1,1.2,1.6,2.9,3.1,3.9c0.1,0,0.1,0.1,0.1,0.2c0.8,1.5,1.8,2.8,2.9,4.1
			c1.1,1.3,1.7,2.9,3.1,3.9c0.1,0,0.1,0.1,0.1,0.2c0.8,1.8,2.2,3.1,3.3,4.7c0.9,1.2,1.9,2.4,2.6,3.7c0.5,0.9,1,1.6,1.6,2.3
			c0.4,0.5,0.7,1.1,0.8,1.7c0.3,1-0.2,1.8-1.1,2.1c-0.5,0.2-1.1,0.3-1.6,0.4c-0.8,0.1-1.6,0-2.4,0c-0.9,0-1.8,0-2.6,0.7
			c-0.9,1.5-0.9,3.2-0.4,4.8c0.8,0.8,1.7,0.7,2.6,0.7c9.8,0,19.5,0,29.3,0c0.6,0,1.1,0,1.7-0.1c1.5-0.2,2.1-0.8,2.2-2.3
			c0-0.2,0-0.5,0-0.7c0-1.9-0.4-2.4-2.3-2.7c-2.3-0.4-4.5-0.8-6.7-1.2c-0.8-0.7-1.6-1.2-2.3-1.8c-1-1-2.1-1.9-3-3.1
			c-1.5-1.9-2.7-3.9-4.2-5.7c-1.1-1.4-2.4-2.7-3.8-4.3c-0.1-1-1.1-1.7-1.7-2.7c-1-1.7-2.7-2.8-3.5-4.5c-1-0.6-1.1-1.7-1.7-2.6
			c-1.4-1.9-3.1-3.6-4.4-5.6c-1-1.7-2.4-3.1-3.5-4.8c-0.2-0.4-0.7-0.7-1-1c-0.3-0.3-0.6-0.7-0.9-1.1c-0.5-0.7-1-1.4-1.6-2.1
			c-1-1.2-0.9-2.5,0.2-3.6c2.4-2.3,4.8-4.6,7.2-6.9c0.9-0.8,1.7-1.7,2.5-2.5c1.1-1.1,2.2-2.3,3.3-3.4c1.1-1.1,2.2-2.3,3.4-3.4
			c0.9-0.8,1.2-1.9,2-2.6c0.8-0.6,1.2-1.5,1.6-2c1.9-1.3,3.9-2,5.2-3.7c0.2-0.3,0.6-0.6,1-0.6c1.4-0.2,2.3-1,3.4-2
			c1.2-0.1,2.4-0.1,3.7-0.2c0.7,0,1.4-0.1,2.1-0.2c0.7-0.1,1.2-0.5,1.3-1.2c0.2-1.3,0.4-2.7-0.4-4c-0.6-0.1-1.2-0.2-1.9-0.2
			c-8.7,0-17.4,0-26.1,0c-0.5,0-0.9,0.1-1.3,0.2c-0.7,2-0.8,2.9-0.4,4.1c0.3,0.8,0.8,1.2,1.6,1.3c0.4,0,0.8-0.1,1.2-0.1
			c0.7,0,1.4-0.1,2.2-0.1c1.3,0.1,2,1,1.8,2.3c-0.2,1.2-0.5,2.3-1.5,3.2c-1.1,1-2.1,2.2-3.2,3.2c-2.1,2.1-4,4.5-6.3,6.5
			c-1.3,1.1-2.5,2.3-3.4,3.7c-1.6,2.3-3.6,4-5.5,5.9c-1.1,1.1-2.2,2.1-3,3.4c-0.9,1.4-2.2,2.5-3.3,3.7c-1.7,1.8-3.7,3.5-5.1,5.6
			c-0.2,0.3-0.6,0.5-1,0.7c-0.3-0.4-0.5-0.6-0.6-0.9c-0.1-0.6-0.1-1.3-0.1-1.9c0.1-4.1,0.2-8.1,0.2-12.2c0-5.3,0-10.6,0-15.8
			c0-1.6,0-3.2,0.2-4.6c0.2-0.3,0.3-0.4,0.4-0.5c0.7-0.6,1.5-1.2,2.1-1.7c0.3-0.1,0.4-0.2,0.6-0.2c1,0,2.1,0,3.1-0.1
			c0.6,0,1.3,0,1.9-0.1c1.5-0.2,2.2-1.2,2.1-2.7C289.5,153.7,289.3,153,289.1,152.1z"/>
		<path d="M613.2,210.8c-0.2-3.5,0-7.1-0.1-10.5c-0.6-0.8-1.1-1.6-1.7-2.5c-1.6-0.1-3.2-0.1-4.9-0.2c-0.3-0.6-0.6-1.2-0.9-1.9
			c-2.2-0.2-4.4-0.2-6.5,0c-0.3,2.2-0.3,23.9,0,26.1c0.3,0.1,0.7,0.2,1.1,0.2c7.8,0,15.5,0,23.3,0c0.2,0,0.3,0,0.6-0.1
			c0.3-0.5,0.6-1,0.9-1.5c1.4-0.5,2.9-0.1,4.4-0.4c0.2-0.5,0.5-1,0.8-1.8c0.8-0.2,1.6-0.3,2.5-0.5c0.2-0.4,0.4-0.8,0.6-1.3
			c0.6-0.2,1.1-0.5,1.8-0.8c0.2-0.4,0.3-0.8,0.5-1.3c0.4-0.2,0.9-0.5,1.6-0.8c0.4-0.9,0.8-2,1.3-3.3c0.3-0.2,0.6-0.4,1-0.7
			c0.2-0.7,0.3-1.4,0.5-2.1c0.5-0.3,1-0.6,1.4-0.8c0.9-1.2,0.3-2.6,0.7-3.8c0.4-0.7,1-1.2,1.9-1.2c2.8,0,5.6,0,8.4,0
			c0.3,0,0.6,0.2,1,0.3c0.2,0.4,0.4,0.8,0.6,1.3c0.7,0.3,1.4,0.6,2.2,1c0.5,1.9,0.3,3.8,0.1,6c-0.5,0.4-1.1,0.9-1.8,1.5
			c0,0.9-0.1,1.8-0.1,2.6c0,1.2-0.3,2.1-1.5,2.2c-0.5,0.9-0.4,1.8-0.4,2.7c0,0.9-0.1,1.8-0.7,2.6c-0.4,0.2-0.9,0.4-1.4,0.7
			c-0.1,1.7-0.1,3.4-0.2,5.1c-0.6,0.4-1.1,0.7-1.6,1.1c0,0.1-0.1,0.3-0.2,0.4c0,0.8,0,1.6-0.1,2.4c-0.1,0.8-0.2,1.6-0.3,2.4
			c-0.7,0.3-1.2,0.6-1.8,1c-0.2,0.5-0.4,1-0.6,1.4c-0.3,0.1-0.5,0.3-0.7,0.3c-0.7,0.1-1.4,0.1-2.2,0.1c-23,0-46,0-69.1,0
			c-0.7,0-1.4,0-2.2-0.1c-0.8-0.1-1.3-0.6-1.4-1.4c0-0.3,0-0.6,0-1c0-2.6,0-5.1,0-7.7c0-0.5,0.1-0.9,0.1-1.3c0.6-0.9,1.3-1,2.2-1
			c1.2,0,2.4,0,3.6,0c0.8,0,1.6,0,2.4,0c0.3-0.6,0.4-1.2,0.7-1.6c0.3-0.4,0.7-0.5,1.2-0.8c0-20.2,0-40.3,0-60.4
			c-0.6-0.8-1.2-1.5-1.8-2.3c-2.5-0.5-5.4,0.5-8.1-0.7c-0.1-0.6-0.2-1-0.2-1.5c0-2.7,0-5.4,0-8.2c0-0.2,0-0.5,0-0.7
			c0.1-1,0.6-1.5,1.5-1.6c0.6-0.1,1.1,0,1.7,0c22.6,0,45.3,0,67.9,0c0.8,0,1.6-0.1,2.4,0.3c0.9,0.9,0.2,2.3,0.9,3.3
			c0.5,0.5,1.2,0.9,1.5,1.5c0.3,0.5,0.2,1.2,0.3,1.9c0.1,0.9,0.1,1.7,0.1,2.6c0.5,0.4,1.2,0.7,1.5,1.2c0.3,0.5,0.3,1.2,0.4,1.8
			c0,0.1,0,0.2,0,0.2c0.2,2.1,0.2,2.1,1.9,3.5c0.1,1.2,0.1,2.6,0.2,3.9c0.5,0.3,1,0.6,1.4,0.9c1,2,0.7,4.1,0.6,6.1
			c0,0.5-0.5,1-0.7,1.5c-0.9,0.1-1.7,0.2-2.5,0.3c-0.2,0.5-0.5,0.9-0.7,1.5c-2.6,0.8-5.3,0.8-7.9,0.2c-0.7-0.8-0.8-1.8-1.9-2.2
			c-0.4-0.1-0.7-0.9-0.8-1.4c-0.2-0.6-0.1-1.3-0.2-2c-1.8-0.7-1.8-2.6-2.5-4.2c-0.3-0.1-0.8-0.3-1.3-0.5c-0.2-0.4-0.4-0.9-0.7-1.5
			c-0.7-0.2-1.4-0.4-2.2-0.7c-0.2-0.5-0.4-0.9-0.6-1.4c-0.9-0.1-1.8-0.2-2.8-0.4c-0.3-0.6-0.6-1.2-0.9-1.8c-0.2-0.1-0.4-0.2-0.6-0.2
			c-1.1,0-2.2,0-3.4,0c-6.9,0-13.8,0-20.6,0c-0.9,0-1.7,0-2.7,0c-0.1,0.5-0.3,0.9-0.3,1.2c0,6.7,0,13.4,0,20.2
			c0,0.2,0.1,0.5,0.1,0.8c1.6,0.5,3.3,0.2,4.9,0.2c1.7,0.1,3.3,0,5,0c0.2-0.6,0.4-1.1,0.7-1.8c0.5-0.2,1.1-0.4,1.7-0.6
			c0.5-0.7,1.1-1.4,1.8-2.4c0-1.8,0-3.9,0-6c0-0.4,0-0.8,0-1.2c0.1-1.7,0.7-2.3,2.3-2.4c0.2,0,0.5,0,0.7,0c2.9,0,5.8,0,8.6,0
			c0.5,0,1,0,1.4,0.1c0.8,0.1,1.3,0.6,1.4,1.4c0.1,0.5,0,1,0,1.4c0,12.4,0,24.8,0,37.2c0,2.7-0.9,3.3-3.2,3.2c-2.6-0.1-5.1,0-7.7,0
			C615,212.1,615,212.1,613.2,210.8z M645.9,205.5c-0.3,1.7-1,3.1-2.1,4.2c-0.2,0.2-0.3,0.4-0.3,0.6c-0.3,1.9-2.1,3-2.8,4.7
			c-1.8,1.8-3.1,4.1-5.5,5.2c-0.2,0.1-0.3,0.4-0.5,0.5c-0.4,0.3-0.9,0.6-1.4,0.9c-1.1,0.6-2.2,1.2-3.8,2c-1.2,0.2-2.9,0.5-4.5,1.5
			c-0.4,0.2-0.9,0.3-1.4,0.3c-2.8,0.2-5.6,0.4-8.4,0.5c-5,0.1-10.1,0-15.1,0c-1.1,0-2.2-0.1-3.3-0.3c-0.4-0.1-0.9-0.4-1.4-0.6
			c-0.1-1.1-0.2-2.2-0.2-3.4c0-4.3,0-8.6,0-13c0-4.2,0-8.3,0-12.5c0-1-0.2-2.1,0.8-3c0.3-0.1,0.7-0.2,1.1-0.2
			c4.1,0,8.2-0.2,12.2,0.5c1.5,0.3,3,0.6,4.2,1.2c0.6,0.7,1,1.5,1.6,2c1.3,1,1.8,2.4,1.8,4c0,1.7,0,3.4,0.1,5c0,1,0.1,1.9,1.2,2.7
			c0.6,0,1.5,0.1,2.4,0.1c3.1,0,3.4-0.3,3.4-3.4c0-10.2,0-20.3,0-30.5c0-0.7-0.1-1.4-0.1-1.9c-0.6-0.8-1.2-1.1-2-1.1
			c-1.6-0.1-3.1,0.2-4.7,0.8c-0.6,3.1,0.2,6.3-0.9,9c-1,1.2-1.9,2.1-2.8,3.2c-0.7,0.3-1.5,0.5-2.3,0.9c-2.1,1.1-4.4,1.4-6.7,1.4
			c-2.6,0.1-5.3-0.2-7.9,0.2c-0.7,0.1-1.2-0.2-1.4-0.6c0-9.8,0-19.2,0-28.7c0.3-0.6,0.9-0.7,1.6-0.7c1.5,0.1,3,0.2,4.5,0.2
			c6.8,0,13.6,0,20.4,0c1,0,1.9,0,2.9,0.1c1.4,0.1,2.7,0.4,3.8,1.2c0.5,0.4,1.2,0.5,1.8,0.6c0.5,0.1,0.9,0.2,1.4,0.3
			c0.5,0.5,1,1.2,1.6,1.4c1.1,0.4,1.8,1.3,2.6,2c1.4,1.3,2.7,2.6,3.5,4.5c0.1,0.3,0.4,0.5,0.6,0.7c0.8,0.7,1.2,1.7,1.4,2.7
			c0.1,0.8,0.3,1.6,1,2.2c1.2,0.3,2.4,0.9,3.7,0.3c1-0.5,1.8-1.2,2.2-2.5c-0.2-0.5-0.2-1.1-0.6-1.5c-0.7-0.9-1-2-1.1-3.1
			c-0.1-1-0.4-2-1.1-2.9c-0.4-0.5-0.6-1.3-0.8-2c-0.4-1.8-0.9-3.6-2.1-4.9c-0.1-0.6-0.1-1.1-0.1-1.5c-0.1-1.2-0.6-2.3-1.3-3.3
			c-0.8-1.3-1.9-2.1-3.6-1.9c-0.4,0.1-0.8,0-1.2,0c-19.9,0-39.8,0-59.7,0c-0.6,0-1.1,0-1.7,0c-0.5,0.1-0.9,0.3-1.3,0.4
			c-0.4,1.7-0.5,3.4,0,4.9c0.9,0.6,1.7,0.4,2.5,0.5c1,0,2.1,0,3.1,0c0.8,0,1.4,0.2,1.9,0.8c0.7,0.8,1.4,1.5,2.2,2.5
			c0,0.5,0.1,1.2,0.1,1.9c0,1,0,2.1,0,3.1c0,18.6,0,37.1,0,55.7c0,1,0,1.9,0.1,2.9c0,0.7,0,1.5-0.6,2c-1.1,1-1.7,2.6-3.3,3
			c-0.5,0.1-1.1,0.1-1.7,0.1c-1,0-1.9-0.1-2.9,0c-0.4,0-0.9,0.3-1.4,0.4c-0.4,1.7-0.5,3.3,0.1,4.9c1,0.6,2,0.4,2.9,0.4
			c20.9,0,41.9,0,62.8,0c0.6,0,1.1,0,1.7,0c1.7-0.1,2.8-1,3.2-2.7c0.1-0.5,0.1-1,0.1-1.4c0-0.8,0.2-1.6,0.8-2.2
			c0.8-1,1.1-2.1,1.2-3.3c0.1-1,0.5-2,1-2.9c0.5-0.9,0.9-1.9,1.1-2.9c0.2-0.9,0.3-1.9,1-2.6c0.2-0.2,0.3-0.5,0.4-0.9
			c0.3-1.1,0.5-2.2,0.9-3.2c0.4-1.1,1-2.2,1.5-3.2c-1.4-2.2-1.8-2.5-4-2.5C647.6,205.3,646.9,205.4,645.9,205.5z"/>
		<path d="M219.4,163.2c-0.7-0.2-1.3-0.4-1.9-0.6c-0.3-0.6-0.6-1.1-0.9-1.7c-0.8-0.1-1.6-0.2-2.5-0.3c-0.3-0.6-0.6-1.1-0.9-1.6
			c-1.5-0.2-2.9-0.3-4.3-0.4c-0.3-0.6-0.6-1.1-0.9-1.5c-0.1-0.1-0.3-0.2-0.4-0.2c-2.7,0-5.4,0-8.3,0c-0.3,0.4-0.6,1-1,1.5
			c-1,0.6-2.2,0.5-3.4,0.7c-0.3,0.5-0.6,1-0.9,1.6c-0.5,0.1-0.9,0.3-1.4,0.4c-0.2,0.5-0.4,1-0.7,1.4c-0.3,0.4-0.7,0.6-1.1,1
			c0,1.7,0,3.5,0,5.2c0.5,0.3,0.9,0.6,1.3,0.8c0.2,0.4,0.3,0.8,0.5,1.3c1,0.3,2,0.8,2.2,2.1c0.7,0,1.3,0.1,2,0.1
			c1.7,0.1,1.7,0.1,2.6,1.8c1.6,0.8,3.3,0.1,5.1,0.6c0.3,0.4,0.6,1,1,1.7c1.9,0,4,0.1,6.1,0.1c0.4,0.7,0.7,1.3,1.1,2
			c1.3,0,2.6,0,4,0c1.3-0.1,2.2,0.4,2.5,1.7c1.8,0.5,3.7-0.1,5.5,0.5c0.3,0.6,0.5,1.2,0.8,1.8c1.2,0.1,2.4,0.2,3.7,0.3
			c0.3,0.6,0.5,1.1,0.8,1.6c0.9,0.1,2,0.2,3,0.3c0.3,0.6,0.7,1.1,1.1,1.7c0.7,0.1,1.6,0.3,2.5,0.4c0.3,0.5,0.5,1,0.9,1.6
			c1,0.3,2.2,0.7,2.2,2c0.7,0.4,1.2,0.6,1.7,0.9c0.2,1,0.5,2,0.7,3c0.5,0.2,0.9,0.4,1.3,0.6c1,1.2,0.3,2.6,0.7,3.7
			c0.6,0.5,1.3,0.8,1.6,1.4c0.3,0.6,0.4,1.4,0.4,2.1c0,2.7,0,5.4,0,8.2c0,2-0.2,2.2-2.1,3.6c0,0.9,0,2,0,3c0,2-0.1,2.1-2.1,3.1
			c-0.1,0.4-0.3,0.9-0.5,1.4c-0.7,0.4-1.4,0.8-1.7,1.8c-0.1,0.3-0.4,0.5-0.7,0.6c-0.6,0.2-0.9,0.6-1.1,1.2c-0.2,0.7-0.9,0.9-1.5,1.1
			c-0.2,0.4-0.5,0.9-0.7,1.5c-0.7,0.2-1.3,0.3-2,0.5c-0.2,0.5-0.3,1.1-0.6,1.7c-0.8,0.2-1.5,0.3-2.4,0.5c-0.3,0.4-0.6,1.1-1,1.4
			c-0.5,0.3-1.2,0.3-1.8,0.4c-0.6,0.1-1.3,0.1-1.9,0.2c-0.1,0.3-0.3,0.6-0.4,0.9c-0.1,0.3-0.3,0.5-0.6,0.9c-3.3,0.2-6.7,0-10,0.1
			c-0.3,0.6-0.6,1.1-0.9,1.6c-2.2,0.4-5.2,0.4-7.1,0c-0.2-0.4-0.5-0.9-0.7-1.4c-0.3-0.1-0.5-0.2-0.7-0.2c-2.1,0-4.2,0-6.2,0
			c-0.8,0-1.6,0-2.4-0.1c-0.3-0.6-0.6-1.1-1-1.8c-1.2-0.1-2.6-0.3-3.9-0.4c-0.3-0.6-0.6-1.1-0.9-1.6c-0.8-0.1-1.6-0.2-2.5-0.3
			c-0.2,1.3-1,2.1-2.3,2.2c-0.2,0.6-0.4,1.1-0.6,1.5c-1.7,0.5-5.5,0.6-8.6,0.2c-1.1-1.1-1.1-1.1-1.3-3.8c-0.3-0.2-0.6-0.3-0.9-0.6
			c-0.3-0.2-0.5-0.4-0.8-0.7c-0.3-3,0-6-0.2-9.2c-0.1-0.1-0.3-0.3-0.5-0.4c-1.3-0.4-1.6-1.4-1.6-2.6c0-1.3,0-2.6,0-3.8
			c0-1.8,0-3.5,0-5.3c-0.3-0.2-0.6-0.4-0.9-0.5c-0.6-0.3-1-0.9-1-1.5c0-2.4,0-4.8,0-7.2c0-0.4,0.3-0.7,0.5-1.1
			c0.9-0.1,1.8-0.3,2.7-0.4c0.1-0.3,0.3-0.5,0.4-0.8c0.1-0.3,0.3-0.6,0.4-0.8c1.9-0.6,5.7-0.6,7.7,0c0.2,0.5,0.5,1.1,0.8,1.7
			c2.5,0.2,2,2.1,2.1,3.9c0.5,0.3,1,0.7,1.7,1.2c0.1,0.9,0.3,1.9,0.5,3c0.3,0.2,0.8,0.4,1.2,0.7c0.1,0.3,0.3,0.5,0.3,0.8
			c0.2,1.2,0.6,2.2,1.7,3c0.5,0.3,0.6,1.1,1,1.7c0.3,0.2,0.7,0.4,1.2,0.7c0.2,0.4,0.5,0.9,0.7,1.4c0.6,0.1,1.1,0.2,1.8,0.3
			c0.3,0.5,0.6,1.1,0.9,1.7c0.8,0.2,1.5,0.3,2.3,0.5c0.3,0.5,0.6,1,0.8,1.5c1,0.4,2.1-0.1,3.2,0.7c0.2,0.4,0.4,1,0.7,1.6
			c2.2,0,4.5,0.1,6.7,0.1c0.4,0.6,0.7,1.2,1,1.7c0.4,0,0.9,0,1.4,0c0.3-0.5,0.5-1,0.7-1.5c0.3-0.1,0.5-0.3,0.7-0.3
			c1,0,1.9,0,2.9-0.1c0.8,0,1.6,0,2.5-0.1c0.3-0.6,0.6-1.1,0.8-1.6c0.8-0.8,1.7-0.4,2.7-0.7c0.2-0.4,0.5-0.9,0.8-1.4
			c0.7-0.2,1.3-0.5,2-0.7c0.4-1,0.8-2.1,1.2-3.2c0.4-0.2,0.8-0.5,1.3-0.8c0.3-1,0.1-2.1,0.1-3.3c-1.9-0.7-1.7-2.7-2.6-4.2
			c-0.6-0.1-1.2-0.3-2-0.4c-0.3-0.6-0.6-1.1-0.9-1.7c-1.1-0.5-2.4,0.2-3.6-0.6c-0.2-0.4-0.4-0.8-0.7-1.4c-0.8,0-1.6-0.1-2.3-0.1
			c-2.4,0-2.4,0-3.6-2.2c-2.1,0-4.2-0.1-6.4-0.1c-0.4-0.7-0.7-1.2-1-1.8c-1.3-0.4-2.7-0.2-4-0.2c-1.2,0-2-0.5-2.1-1.8
			c-0.6,0-1.2-0.1-1.7-0.1c-1,0-2.1,0-3.1,0c-1.5-0.1-1.7-0.2-2.2-2.1c-1.2-0.1-2.5-0.2-3.8-0.2c-0.3-0.5-0.6-1.1-1-1.7
			c-0.8-0.1-1.7-0.1-2.6-0.2c-0.3-0.5-0.6-1.1-0.9-1.8c-0.1,0-0.3-0.2-0.5-0.2c-1.1-0.1-1.8-0.6-1.9-1.6c-0.6-0.3-1.1-0.6-1.6-0.8
			c-0.2-0.5-0.3-0.9-0.5-1.5c-0.5-0.2-1-0.4-1.5-0.6c-0.2-0.5-0.4-1-0.7-1.5c-0.6-0.3-1.1-0.6-1.7-0.9c-0.1-1.1-0.2-2.1-0.2-3.2
			c-0.5-0.2-0.9-0.5-1.4-0.8c-0.6-1-0.7-2.1-0.7-3.2c0-3,0-5.9,0-8.9c0-1.2,0.3-2.4,0.4-3.6c0.5-0.3,0.9-0.6,1.4-0.9
			c0.2-0.9,0.4-2,0.6-3.2c0.4-0.2,0.9-0.5,1.5-0.8c0.3-0.9,0.6-1.9,0.9-3.1c0.5-0.2,1.1-0.4,1.7-0.7c0.2-0.5,0.4-1,0.6-1.6
			c0.7-0.2,1.4-0.4,2.1-0.5c0.3-0.5,0.6-1.1,1.1-1.4c0.5-0.4,1.2-0.4,1.9-0.7c0.2-0.4,0.4-0.9,0.7-1.3c1.1-0.7,2.4-0.1,3.5-0.5
			c0.1-0.1,0.3-0.2,0.3-0.4c0.4-1.4,1.4-1.8,2.7-1.8c1.3,0,2.7,0,4,0c0.3-0.6,0.5-1,0.6-1.3c0.6-0.5,1.2-0.6,1.8-0.6
			c4.2,0,8.5,0,12.7,0c1.3,0,2.3,0.3,2.4,1.7c2.2,0.5,4.3-0.2,6.3,0.5c0.2,0.3,0.3,0.5,0.4,0.8c0.1,0.3,0.2,0.6,0.3,0.8
			c1,0.4,2,0.2,3,0.3c0.8-0.6,2-0.8,2.7-1.7c0.3-0.4,1-0.5,1.5-0.5c2.1-0.1,4.2,0,6.2,0c0.7,0,1.3,0.2,1.8,0.9
			c0.2,0.8,0.5,1.7,0.8,2.7c0.4,0.3,0.9,0.6,1.4,0.9c0.8,2.3-0.1,4.8,0.6,7.1c0.3,0.2,0.5,0.4,0.8,0.6c0.3,0.2,0.5,0.4,0.8,0.5
			c0.6,2.5-0.3,5.1,0.6,7.5c0.5,0.3,0.9,0.6,1.4,0.9c0.2,0.8,0.5,1.7,0.4,2.5c-0.1,3,0.5,6.1-0.5,9c-1.3,0.9-2.7,0.8-4,0.9
			c-0.3,0.5-0.6,1-0.8,1.5c-1.8,0.6-3.7,0.2-5.5,0.3c-0.4,0-0.9-0.3-1.3-0.5c-0.3-1-0.5-1.9-0.8-2.9c-0.6-0.3-1.1-0.6-1.7-0.8
			c-0.1-0.6-0.2-1.2-0.3-1.9c-0.6-1.2-2.1-2.2-1.9-4.1c-1-0.3-1.9-0.6-1.9-1.9c-0.5-0.2-0.9-0.4-1.5-0.6c-0.2-0.4-0.4-0.9-0.6-1.5
			c-0.4-0.2-0.9-0.4-1.3-0.7C219.8,164,219.6,163.6,219.4,163.2z M217.9,157.4c1.2,0.9,1.9,1.5,2.7,2c0.6,0.4,1.2,0.8,1.6,1.4
			c0.2,0.3,0.5,0.6,0.8,0.9c2,1.7,3.8,3.6,5.4,5.7c0.8,1.1,1.4,2.3,2.4,3.3c0.2,0.2,0.2,0.4,0.3,0.6c0.3,1.8,1.7,2.8,3.2,3.9
			c1.3-0.8,2.8-1,4.1-2c0.3-2.4,0-4.8-1.1-7c-0.5-1-0.8-2-0.9-3.2c-0.1-1.8-0.3-3.6-1.1-5.1c-0.7-1.3-0.9-2.7-1.1-4.1
			c-0.1-1.2-0.3-2.4-0.5-3.5c-0.3-1.6-1.4-2.3-2.9-2.5c-0.7-0.1-1.4,0-2.2,0c-0.8,0.1-1.3,0.6-1.6,1.3c-0.1,0.4-0.1,0.8-0.2,1.2
			c-0.4,1.6-2,2.4-3.3,1.3c-1.4-1.2-2.9-1.9-4.6-2.4c-0.1,0-0.1-0.1-0.2-0.1c-1.2-1.1-2.6-1.4-4.2-1.5c-0.5,0-1.1-0.2-1.6-0.4
			c-3.6-1.2-7.3-1.5-11.1-1.3c-1.4,0.1-2.9,0.3-4.2,0.8c-1.3,0.5-2.5,0.9-3.9,1c-0.6,0.1-1.3,0.1-1.9,0.3c-1.4,0.7-2.6,1.8-4.3,1.9
			c-0.1,0-0.2,0.1-0.2,0.1c-1.2,1.5-3.2,2.1-4.6,3.4c-0.3,0.3-0.7,0.5-0.9,0.8c-1.4,2.2-3.7,3.8-4.4,6.4c-0.1,0.2-0.2,0.4-0.4,0.6
			c-1.1,1-1.3,2.4-1.4,3.7c-0.1,2.2-0.1,4.5,0,6.7c0,0.8,0.2,1.7,0.7,2.3c0.9,1.1,1.3,2.3,1.4,3.7c0.9,0.8,1.7,1.5,2.2,2.6
			c0.1,0.3,0.5,0.7,0.8,0.9c0.7,0.4,1.2,1,1.7,1.7c0.3,0.4,0.6,0.8,1,0.9c1.5,0.6,2.5,2.3,4.3,2.5c0.1,0,0.3,0.2,0.4,0.3
			c0.8,0.9,1.8,1.3,2.9,1.4c0.8,0,1.5,0.3,2.2,0.9c0.3,0.3,0.7,0.6,1.1,0.9c0.8,0.1,1.5,0.1,2.2,0.2c0.8,0.2,1.8,0.3,2.5,0.8
			c1.1,0.7,2.3,1,3.6,1.2c1,0.1,2.2,0.1,3,0.6c1.7,1.1,3.6,1.2,5.5,1.6c0.9,0.2,1.9,0.4,2.7,0.9c1,0.6,2,0.9,3.2,1
			c1.2,0,2.2,0.4,3.1,1.2c0.3,0.3,0.6,0.5,0.9,0.6c0.3,0.1,0.6,0.1,0.8,0.1c1.2,0,2.1,0.4,2.9,1.4c0.5,0.6,1.3,0.8,1.7,1
			c0.9,1,1.6,1.7,2.3,2.5c0.6,0.7,1,1.5,1.4,2.4c0.4,0.8,0.8,1.6,0.8,2.5c0,1.6,0,3.2,0,4.1c-0.8,2-1.3,3.4-1.8,4.7
			c-0.8,0.8-1.4,1.5-2.1,2.2c-0.3,0.3-0.6,0.6-0.9,0.7c-0.7,0.2-1.2,0.7-1.8,1.2c-0.3,0.3-0.8,0.5-1.2,0.8c-1,0.6-2.1,1.1-3.3,1.8
			c-2.2,0.4-4.6,1-7,1.4c-1.2,0.2-2.4,0.1-3.6-0.1c-1.9-0.3-3.8-0.8-5.6-1c-1.7-0.1-3.1-0.6-4.1-1.9c-1.4-0.2-2.8-0.4-3.7-1.7
			c-0.1-0.2-0.4-0.3-0.6-0.4c-1-0.1-1.6-0.9-2.4-1.5c-1.9-1.3-3.4-3.2-5.1-4.7c-0.2-0.2-0.5-0.5-0.6-0.7c-0.4-1.3-1.8-2-2-3.5
			c0-0.3-0.3-0.5-0.6-0.7c-0.8-0.6-1.1-1.5-1.4-2.4c-0.2-0.6-0.4-1.3-0.8-1.7c-0.7-0.8-1.1-1.7-1.3-2.8c-0.2-1.1-0.9-1.9-2-2.1
			c-1-0.1-2.1-0.1-3.1,0.2c-1.6,0.4-2.2,1.5-1.9,3.1c0.3,1.7,0.5,3.3,1.1,4.9c0.5,1.5,0.7,2.9,0.8,4.4c0.2,2.1,0.2,4.3,1.5,6.2
			c0.2,0.3,0.2,0.8,0.3,1.1c0.2,1.9,0.4,3.8,0.5,5.7c0.1,2,0.9,3.7,2.1,5.2c0.3,0.1,0.6,0.2,1,0.2c2.2,0.1,3.2-0.6,3.8-2.8
			c0.1-0.5,0.2-1.1,0.4-1.6c0.4-1.1,0.9-2,1.9-2.7c1.2,0.7,2.5,1.2,3.3,2.4c0.2,0.3,0.6,0.6,0.9,0.7c1.4,0.2,2.3,1.1,3.2,2
			c1.5,0.3,2.8,0.6,4,1.6c0.4,0.4,1.2,0.4,1.8,0.5c2.2,0.4,4.4,0.6,6.6,1.1c2.4,0.5,4.8,0.4,7.2,0.2c2.3-0.2,4.5-0.9,6.8-1.2
			c2.4-0.3,4.4-2,6.7-2.3c0.1,0,0.2-0.1,0.2-0.1c1.2-1.5,3.4-1.8,4.5-3.5c2.2-1.2,3.4-3.5,5.4-5c0.2-0.1,0.4-0.4,0.4-0.6
			c0.3-1.2,1.3-2,2-3c0.1-1.3,0.3-2.7,1.3-3.7c0.1-0.1,0.1-0.3,0.2-0.4c0.8-2.9,0.7-5.9,0.5-8.8c0-0.3-0.1-0.6-0.3-0.9
			c-0.9-1.5-1.4-3.2-1.8-5c-0.9-0.5-1.5-1.3-2-2.3c-0.6-1.1-1.5-2.1-2.4-2.9c-1.9-1.6-3.8-3.4-6.4-4c-0.4-0.1-0.6-0.5-1-0.7
			c-0.3-0.2-0.6-0.5-1-0.6c-1.7-0.4-3.3-1.1-4.8-2c-0.6-0.3-1.4-0.3-2.1-0.5c-0.6-0.2-1.3-0.2-1.8-0.6c-1.2-0.8-2.6-1.1-4-1.3
			c-1.2-0.2-2.4-0.4-3.4-1c-1.2-0.7-2.4-1-3.6-1.2c-1.4-0.2-2.9-0.3-4.1-1.3c-0.3-0.2-0.7-0.3-1.1-0.4c-1.2-0.3-2.5-0.5-4-0.8
			c-1.1-1.1-2.6-1.7-4-1.8c-1.3-0.9-2.4-1.6-3.5-2.3c-0.4-0.3-0.8-0.6-1.1-0.9c-0.9-1-1.7-2.1-2.6-3.3c0-0.3-0.1-0.7-0.2-1.1
			c-0.6-2.1-0.4-4.3,0.1-6.4c0.1-0.6,0.4-1.2,0.8-1.7c0.7-1,1.5-2,2.1-2.8c1-0.7,2-1.2,2.7-1.9c0.7-0.6,1.4-0.9,2.3-1.1
			c0.9-0.1,1.9-0.4,2.7-0.8c0.8-0.4,1.6-0.6,2.5-0.6c2.4,0,4.8,0,7.2,0c0.5,0,1.2,0,1.6,0.3c1.2,0.9,2.5,1,3.8,1.3
			c0.9,0.2,1.9,0.3,2.6,1.1C216.2,157.1,217.2,157.3,217.9,157.4z"/>
		<path d="M533.2,222.1c1.7,0,3.4,0,5,0c0.6,0,1.1,0,1.7,0.1c0.9,0.1,1.4,0.7,1.5,1.6c0,0.1,0,0.2,0,0.2c0,2.9,0,5.8,0,8.6
			c0,0.8-0.3,1.4-1.2,2c-0.6,0-1.4,0.1-2.2,0.1c-10.9,0-21.7,0-32.6,0c-0.6,0-1.3,0-1.9-0.1c-0.8-0.1-1.3-0.6-1.4-1.4
			c-0.1-0.4,0-0.8,0-1.2c0-2.2,0-4.5,0-6.7c0-0.4,0-0.8,0-1.2c0.1-1.1,0.7-1.7,1.8-1.9c0.5-0.1,1.1-0.1,1.7-0.1c1.7,0,3.4,0,5,0
			c0.5,0,0.9-0.1,1.5-0.1c0.1-0.7,0.1-1.2,0.2-1.7c0.3-17,0.1-58.9-0.3-61.2c-2-0.3-4.1-0.1-6.2-0.1c-0.3,0.6-0.6,1.1-0.9,1.7
			c-1,0.1-1.9,0.2-3,0.2c-0.4,0.8-0.6,1.8-1.6,2.1c-0.2,0.1-0.5,0.4-0.6,0.7c-0.2,1-1,1.1-1.8,1.5c-0.1,0.8-0.5,1.6-1.5,1.9
			c-0.2,0.6-0.4,1.2-0.5,1.9c-0.5,0.2-1,0.5-1.5,0.7c-0.9,1.4-0.1,3-0.8,4.7c-0.5,0.3-1.2,0.6-2,1.1c-0.2,0.4-0.5,0.9-0.7,1.3
			c-0.8,0.5-1.3,0.5-3.7,0.2c-0.3-0.5-0.6-1-0.9-1.6c-1.5-0.1-3.1-0.1-4.7-0.2c-0.7-0.7-1.3-1.5-2-2.2c-0.2-1.8-0.3-3.6,0.1-5.5
			c0.6-0.3,1.1-0.6,1.8-1c0-0.8,0.1-1.7,0-2.6c-0.1-1.5,0.3-2.7,1.8-3.3c0-0.5,0.1-0.8,0.1-1.2c0-1.5,0.5-2.7,2.1-3
			c0.1-1.2,0.2-2.3,0.2-3.4c0.4-0.3,0.8-0.5,1.3-0.8c0.5-0.8,0.5-1.7,0.5-2.7c0-1.2,0.2-2.2,1.3-2.9c2.1-0.3,57.1-0.5,64.5-0.2
			c0.5,0,0.9,0.1,1.5,0.2c0.2,0.5,0.4,1,0.7,1.6c0.5,0.3,1.1,0.7,1.6,1c0.8,1.5,0.1,3.1,0.6,4.7c0.5,0.2,1,0.5,1.7,0.9
			c0.1,1.1,0.2,2.2,0.2,3.3c0.6,0.4,1.1,0.9,1.7,1.3c0.1,1,0.1,1.9,0.2,3c0.2,0.1,0.5,0.3,0.7,0.5c0.9,0.4,1.3,1.2,1.4,2.1
			c0.1,0.8,0.1,1.6,0.1,2.5c0.3,0.2,0.7,0.4,1,0.7c0.3,0.3,0.7,0.7,0.8,1.1c0.1,1.5,0.3,3-0.2,4.6c-1.1,0.5-2,1.4-3.4,1.4
			c-1.2,0-2.4,0-3.6,0c-0.3,0.6-0.6,1-0.9,1.6c-1,0.5-2,0.3-3.1,0.2c-0.4-1.2-1.6-1.6-2.7-1.8c-0.3-1.3-0.5-2.5-0.7-3.7
			c-0.4-0.3-0.8-0.6-1.2-0.9c-0.3-1-0.5-1.9-0.8-3c-0.5-0.2-1-0.5-1.5-0.7c-0.1-0.5-0.2-1-0.4-1.7c-0.7-0.5-1.8-0.7-1.6-1.8
			c-0.7-0.3-1.2-0.5-1.7-0.7c-0.2-0.5-0.4-1-0.6-1.7c-1-0.1-2-0.2-3.1-0.2c-0.3-0.5-0.6-1-1-1.6c-0.5-0.3-4.6-0.3-7.7,0
			c-0.1,0.4-0.2,0.8-0.3,1.3c0,0.5,0,1,0,1.4c0,18.6,0,37.1,0,55.7c0,0.8,0,1.6,0,2.3c0.5,0.4,1,0.7,1.4,1.1
			C532.8,221.1,533,221.6,533.2,222.1z M530.5,225.1c-1.2-1.8-1.8-3.6-1.8-5.7c0-1.4-0.1-2.7-0.1-4.1c0-17.7,0-35.4,0-53
			c0-1.1-0.2-2.2-0.2-3.3c0-0.8,0.1-1.6,0.2-2.4c0.2-0.8,0.7-1.2,1.5-1.4c0.4-0.1,0.8-0.2,1.2-0.2c1.5,0,3.1-0.1,4.6,0.1
			c1.4,0.2,2.9,0.2,4.2,0.8c1,0.4,2.1,0.7,3.2,1.1c0.6,0.2,1.3,0.3,1.7,0.7c1.9,1.6,3.7,3.3,5.5,5c0.2,0.2,0.3,0.4,0.4,0.6
			c0.7,1,1.3,2,2.1,3.2c0.5,1.9,1.8,4,3.6,5.7c1.2-0.5,2.6-0.3,3.7-1.6c0-0.5,0.1-1.1,0.1-1.7c0-1.4-0.2-2.7-1.2-3.7
			c-0.3-0.3-0.5-0.7-0.6-1c-0.2-1.7-0.9-3.1-1.8-4.4c-0.2-0.3-0.3-0.6-0.3-0.9c-0.2-1.6-1-3-2.1-4.1c-0.1-0.7-0.1-1.2-0.2-1.8
			c-0.4-1.9-1.5-2.9-3.5-3c-0.6,0-1.3,0-1.9,0c-17.6,0-35.2,0-52.8,0c-0.6,0-1.3,0-1.9,0c-0.7,0-1.4,0.3-1.7,0.7
			c-0.5,1.1-0.8,2-1.4,2.7c-0.8,1-1.3,2-1.4,3.2c-0.1,1-0.5,1.8-1.1,2.6c-0.3,0.4-0.6,0.8-0.8,1.1c-0.1,0.9-0.3,1.7-0.4,2.5
			c-1.6,1.2-1.6,3-1.9,4.6c-0.6,0.8-1.1,1.5-1.5,2c0,1,0.4,1.5,1,1.8c0.7,0.5,1.4,0.7,2.3,0.6c1-0.1,2-0.3,3.1-0.4
			c0.5-1.6,1-3.1,2.2-4.3c0.2-0.2,0.2-0.4,0.3-0.6c0.8-2,2.3-3.4,3.7-4.9c1-1.1,2.3-1.9,3.3-3.1c0.5-0.6,1.2-1,2.1-1.1
			c0.5-0.1,1.2-0.2,1.5-0.6c1.1-1.1,2.5-1.4,4-1.3c0.6,0,1.3-0.2,1.9-0.2c2-0.1,4-0.1,6-0.1c0.3,0,0.6,0.2,0.8,0.3
			c0.6,1.1,0.4,2.3,0.4,3.4c0,12.3,0,24.6,0,37c0,7.8,0,15.7,0,23.5c0,1.1,0,2.2-0.1,3.4c-0.2,1.8-1.1,2.7-2.8,3.1
			c-0.9,0.2-1.7,0.2-2.6,0.2c-0.9,0.1-1.8,0-2.6,0.1c-1,0.1-1.7,0.7-1.8,1.6c-0.2,1.1-0.3,2.2,0.3,3.4c1.2,0.2,2.4,0.3,3.6,0.3
			c8.4,0,16.8,0,25.2,0c0.3,0,0.6,0,1,0c0.9-0.1,1.7-0.4,2.4-1.2c0.4-1.4,0.2-2.7-0.8-3.9C535.4,225.6,532.9,226.4,530.5,225.1z"/>
		<path d="M270.2,331.6c0.3-0.8,0.6-1.7,0.9-2.5c0.5-1.1,1.3-1.8,2.3-2.4c0.5-0.2,1.1-0.3,1.6-0.3c1.5,0,3,0.2,4.5,0.2
			c7.2,0,14.4,0,21.6,0c1,0,2.1,0.1,3.1-0.1c1.9-0.4,3.3,0.3,4.6,1.5c1,1,2.1,2,2.9,3.2c0.6,1,1.6,1.8,2.4,2.7
			c0.2,0.2,0.5,0.4,0.7,0.7c1.1,1.8,2.7,3.2,4.1,4.7c2.3,2.5,4.5,5.1,6.8,7.7c2.2,2.5,4.5,5,6.7,7.5c0.9,1,1.8,2.1,2.7,3.1
			c0.5,0.6,1.1,1.2,1.9,1.3c0.8,0,1.2-0.5,1.5-1.1c0.4-1.1,0.9-2.1,1.6-2.9c0.1-0.1,0.2-0.3,0.2-0.4c0.2-2.4,2.1-4.1,2.6-6.4
			c0.1-0.5,0.5-1,0.7-1.5c0.3-0.6,0.6-1.1,0.8-1.7c0.5-1.4,0.9-2.7,1.8-3.9c0.2-0.3,0.4-0.7,0.5-1.1c0.2-1.1,0.7-2.1,1.2-3.1
			c0.1-0.3,0.2-0.6,0.2-0.9c-1.2-1.7-2.8-2.6-4.8-2.7c-1.1,0-2.2,0-3.4,0c-0.8,0-0.8-0.1-1.9-1c0.5-2.3,1.7-4.2,3.6-5.4
			c9.1,0.2,18.1,0.1,27,0.1c3.1,0,6.2,0,9.4,0c1.3,0,2.5,0,3.8,0c0.4,0.3,0.4,0.8,0.2,1.3c-0.3,0.8-0.8,1.6-1.1,2.4
			c-0.6,1.8-1.9,2.5-3.6,2.6c-0.9,0.1-1.8,0-2.6,0c-2.3,0.1-4.6,0.5-6.7,1.7c-1.5,0.8-3,2.7-3.4,4.4c-0.1,0.5-0.2,1.2-0.5,1.6
			c-1,1.2-1.5,2.6-1.8,4.1c-0.1,0.5-0.4,0.9-0.6,1.3c-0.1,0.3-0.4,0.5-0.5,0.8c-0.6,2.5-2,4.7-2.8,7.1c-0.1,0.2-0.1,0.5-0.2,0.7
			c-1.2,2.1-1.6,4.5-2.9,6.5c-0.5,0.7-0.6,1.6-0.9,2.4c-0.3,0.9-0.7,1.8-1.1,2.6c-0.2,0.6-0.6,1.1-0.8,1.7c-0.3,1-0.8,1.9-1.2,2.8
			c-1,2.2-1.7,4.4-2.8,6.6c-0.3,0.7-0.1,1.6-0.8,2.2c-0.7,0.6-1.7,0.5-2.5,0.5c-5,0-10.1,0-15.1,0c-0.5,0-1,0-1.4-0.1
			c-0.8-0.1-1.5-0.5-2-1.1c-1.8-2-3.9-3.8-5.4-6c-2.1-3.1-5.1-5.3-7.3-8.3c-1.4-1.8-3.2-3.4-4.8-5c-1.4-1.4-2.8-2.9-4.1-4.4
			c-0.7-0.8-1.2-1.7-1.9-2.4c-1.9-2-3.9-4-5.6-6.2c-0.2-0.3-0.4-0.5-0.7-0.7c-1-0.7-2.5-0.5-3.2,0.5c-0.2,0.3-0.4,0.7-0.5,1.1
			c-0.2,0.5-0.2,0.9-0.4,1.4c-1,2.1-2,4.2-2.9,6.2c-0.1,0.1-0.2,0.3-0.2,0.4c-0.6,2.1-1.6,4-2.5,5.9c-0.5,1.1-0.8,2.4-1.6,3.5
			c-0.3,0.4-0.3,1.1-0.5,1.6c-0.4,0.9-0.8,1.8-1.1,2.6c-0.1,0.3-0.3,0.5-0.5,0.8c-0.4,1,0,2,1,2.3c1,0.3,2,0.5,3,0.6
			c1.3,0.1,2.6,0,3.8,0c0.6,0,1.3,0,1.9,0.6c0,0.3,0.1,0.8,0.1,1.2c-0.2,1.4-0.8,2.6-1.5,3.7c-0.7,1.1-1.6,1.7-3,1.6
			c-1.4-0.1-2.9,0-4.3,0c-11.2,0-22.4,0-33.6,0c-2.5,0-3.1-0.8-2-3.1c0.7-1.4,1.5-2.6,2.3-4c0.7,0,1.3-0.1,1.9-0.1
			c2.9,0.1,5.7,0,8.6-0.5c1.5-0.2,2.7-0.9,3.5-2.2c1.7-2.6,3-5.4,4.1-8.3c0.3-0.7,0.6-1.5,1-2.2c0.4-0.9,0.7-1.8,1.1-2.6
			c0.4-0.8,0.7-1.6,1.1-2.4c0.1-0.2,0.3-0.4,0.4-0.6c0.5-2.3,2-4.2,2.7-6.4c0.2-0.5,0.5-1,0.7-1.5c0.2-0.4,0.5-0.7,0.6-1
			c0.8-2.8,2.4-5.2,3.4-7.9c0.3-0.8,0.2-1.5-0.4-2.2c-1.1-1.3-2.4-2.1-4.2-2c-1,0-2.1,0-3.1,0C271.4,332.9,270.7,332.7,270.2,331.6z
			"/>
		<path d="M495.8,380.6c-2.6,0-5.1,0-7.7,0c-1.5,0-3,0-4.5-0.4c-0.6-0.2-1.3-0.1-1.9-0.1c-2.9,0-5.7-0.5-8.5-1.3
			c-0.7-0.2-1.4-0.5-2.1-0.6c-2.1-0.3-4.1-0.8-5.9-1.8c-0.5-0.3-1.2-0.4-1.8-0.6c-0.4-0.1-0.8-0.2-1.1-0.4c-1.3-0.9-2.9-1.4-4.2-2.2
			c-1.8-1.1-3.8-2.1-5.4-3.5c-1.8-1.7-3.4-3.6-4.8-5.6c-0.3-0.4-0.4-1-0.6-1.5c-0.2-0.5-0.3-1.1-0.5-1.6c-1.3-2.7-1.2-5.4-0.3-8.2
			c0.1-0.3,0.2-0.6,0.3-0.9c0.3-2.8,2-4.8,3.6-6.9c2.9-3.8,6.6-6.7,10.7-9c1.9-1.1,3.8-2.4,6-2.9c0.4-0.1,0.8-0.4,1.3-0.7
			c0.3-0.2,0.5-0.4,0.8-0.5c3.2-0.6,6-2.7,9.4-2.8c0.9,0,1.8-0.6,2.7-0.8c1.3-0.4,2.6-0.9,3.9-0.9c2.9-0.1,5.7-0.7,8.5-1.3
			c0.8-0.2,1.6-0.2,2.4-0.3c0.9-0.1,1.7-0.2,2.6-0.3c0.8-0.1,1.6-0.2,2.4-0.2c4.7,0,9.4,0,14.1,0c1,0,2.1,0.2,3.1,0.3
			c0.7,0.1,1.4,0.2,2.1,0.2c1.1,0,2.2,0.1,3.3,0.6c0.6,0.2,1.2,0.3,1.9,0.4c3.2,0.3,6.4,0.7,9.3,2.1c0.1,0,0.1,0.1,0.2,0.1
			c2.6,0.2,4.9,1.3,7.2,2.3c0.8,0.3,1.6,0.8,2.3,1.2c0.4,0.2,0.7,0.5,1,0.6c1.5,0.5,2.7,1.3,3.9,2.2c1.6,1.2,3.3,2.3,4.6,3.8
			c1.7,2,3.4,4.5,3.7,7.1c0.2,2.5,0.3,4.9-0.1,7.4c-0.1,0.6-0.2,1.1-0.3,1.7c-0.1,0.4,0,0.8-0.2,1.2c-1,1.7-1.8,3.6-3.1,5.1
			c-1.4,1.6-2.9,3.2-4.6,4.6c-1.6,1.4-3.4,2.7-5.2,3.8c-2,1.3-4.2,2.3-6.3,3.4c-0.5,0.3-1.1,0.4-1.6,0.5c-0.7,0.2-1.4,0.4-2,0.8
			c-1,0.7-2.1,1-3.3,1.3c-1.3,0.3-2.6,0.8-3.9,1.2c-1.7,0.6-3.4,0.8-5.2,1c-0.8,0.1-1.6,0.1-2.3,0.4c-2.6,1.2-5.4,1.3-8.2,1.5
			c-1.7,0.1-3.3,0.1-5,0.4c-1.1,0.2-2.2,0.1-3.3,0.1C500.8,380.6,498.3,380.6,495.8,380.6C495.8,380.6,495.8,380.6,495.8,380.6z
			 M496.6,373.1c0-0.1,0-0.2,0-0.2c1.7,0,3.4,0.2,5,0c1.4-0.2,2.8-0.4,4.3-0.4c1.4-0.1,2.7-0.4,3.9-1c0.5-0.3,1-0.5,1.5-0.6
			c2.4-0.4,4.2-2,6.1-3.2c2.6-1.6,4.6-3.9,6.6-6.2c0.3-0.3,0.6-0.6,0.7-0.9c1.3-2.4,2.8-4.6,3.8-7.2c0.2-0.4,0.4-0.7,0.4-1.1
			c0.3-2.5,0.7-5.1,0.2-7.6c-0.1-0.5-0.2-1.1-0.5-1.6c-1.8-2.6-3.5-5.4-6.7-6.6c-0.7-0.3-1.3-1-2-1.2c-1.8-0.6-3.7-1-5.5-1.6
			c-2.5-0.7-5.1-0.5-7.6-0.6c-2.2,0-4.5,0.1-6.7,0.6c-1.3,0.3-2.6,0.8-4,1c-2.7,0.3-4.9,1.8-7.3,2.9c-3.1,1.4-5.6,3.8-7.9,6.4
			c-1.8,2-3.5,4.1-4.8,6.5c-0.3,0.6-0.6,1.1-0.7,1.7c-0.5,1.7-0.9,3.4-1.3,5.1c-0.1,0.7-0.2,1.4,0,2.1c0.4,1.5,0.9,2.9,1.3,4.3
			c0.1,0.3,0.3,0.6,0.4,0.9c2.4,4,6.3,6,10.4,7.6c0.4,0.1,0.8,0.2,1.2,0.2C490.6,372.6,493.6,372.8,496.6,373.1z"/>
		<path d="M403.5,336c-1-1.8-2.4-2.7-4.2-2.7c-1.8-0.1-3.5-0.2-5.3-0.3c-1.2-0.1-1.2,0-2.4-0.9c0.1-2.4,1.4-4.1,3.3-5.6
			c1.4,0.1,2.8,0.2,4.2,0.2c14.4,0,28.8,0,43.2,0c1,0,2.1-0.2,3.2,0.4c0,1.8-1.1,3.3-1.5,4.9c-1.1,0.9-2.4,1.1-3.7,1
			c-1.9-0.1-3.8,0-5.7,0.4c-2.9,0.7-5.3,2-6.5,5c-1.1,2.7-2.4,5.2-3.5,7.8c-0.3,0.7-0.4,1.6-0.8,2.2c-0.9,1.7-1.6,3.5-2.3,5.3
			c-0.5,1.4-1.2,2.8-1.9,4.1c-1.2,2.2-1.8,4.6-3,6.8c-0.9,1.6-1.5,3.3-2.3,5c-0.1,0.3-0.2,0.6-0.2,0.9c-0.1,0.9,0.3,1.6,1.2,1.8
			c1.2,0.3,2.3,0.5,3.5,0.6c1.7,0.1,3.4,0,5,0c0.5,0,1.1,0.1,1.5,0.1c0.7,0.5,0.7,1.1,0.4,1.6c-0.7,1.4-1.6,2.8-1.9,4.4
			c-0.1,0.6-0.8,0.9-1.5,1c-0.8,0.1-1.6,0.1-2.4,0.1c-14.4,0-28.8,0-43.2,0c-1.4,0-2.7,0.1-4.1,0.1c-1.3-0.8-1.5-1.3-0.7-2.3
			c0.8-1,1.4-2.1,1.8-3.4c0.4-1.2,1.2-1.6,2.4-1.6c0.8,0,1.6,0,2.4,0c2.6,0.1,5.1-0.2,7.7-0.8c1.6-1.4,3.1-3,3.7-5.3
			c0.2-0.6,0.5-1.2,0.8-1.7c0.1-0.2,0.3-0.4,0.4-0.6c1-2.3,1.9-4.5,2.9-6.8c0.1-0.1,0-0.3,0.1-0.5c1.4-2,1.8-4.4,3-6.5
			c0.1-0.2,0.3-0.4,0.4-0.6c0.5-2.3,1.9-4.2,2.7-6.4c0.8-2.2,1.8-4.2,2.8-6.4C403.1,337,403.3,336.5,403.5,336z"/>
		<path d="M351.9,240.1c3.3-2.3,6.5-1.9,9.9-0.8c0.7,0.8,1.5,1.7,2.2,2.6c0.5,1.7,1.1,3.4,1.6,5c0.7,2.3,0.5,8.2-0.3,10.4
			c-0.3,0.8-0.7,1.6-0.9,2.5c-0.2,0.8-0.6,1.5-1.2,2c-0.5,0.4-0.9,0.9-1.3,1.4c-1.6,2-3.7,2.3-6,1.9c-0.6-0.1-1.3-0.2-1.8-0.3
			c-0.2-0.1-0.4-0.2-0.5-0.3c-3.6-3.1-4.3-4.6-5.2-9.3c-0.5-2.9-0.1-6.3,0.4-8.8c0.1-0.3,0.2-0.6,0.2-0.9c0.2-1.6,0.9-2.9,2-4
			C351.3,241,351.7,240.4,351.9,240.1z M354.8,261.1c1.6,0,3,0.2,4.5-0.2c-0.2-1.2,0.7-1.7,1.3-2.1c0.2-1,0.3-1.8,0.4-2.6
			c0.2-0.9,1.3-0.8,1.7-1.5c0-2.5,0-4.9,0-7.4c-0.5-0.3-1-0.6-1.6-1c-0.2-1-0.4-2.1-0.6-3.3c-0.5-0.2-1-0.4-1.5-0.5
			c-0.3-0.6-0.6-1.1-0.9-1.6c-0.6,0-1.1,0.1-1.5,0.1c-0.4,0.6-0.7,1.2-1,1.6c-0.6,0.1-1.1,0.2-1.4,0.3c-0.5,0.8-1,1.5-1.6,2.4
			c-0.1,0.9-0.1,1.9-0.2,2.9c-0.6,0.4-1.1,0.7-1.7,1.1c0,1.3,0,2.6,0,3.9c0.6,0.5,1.2,1,1.8,1.4c0,1.4,0,2.7,0,3.9
			C354,259.5,354,259.5,354.8,261.1z"/>
	</g>
</g>
</svg>
