<?xml version="1.0" encoding="utf-8"?>
<!-- Generator: Adobe Illustrator 27.5.0, SVG Export Plug-In . SVG Version: 6.00 Build 0)  -->
<svg version="1.1" id="Layer_1" xmlns="http://www.w3.org/2000/svg" xmlns:xlink="http://www.w3.org/1999/xlink" x="0px" y="0px"
	 viewBox="0 0 652.2 698.4" style="enable-background:new 0 0 652.2 698.4;" xml:space="preserve">
<style type="text/css">
	.st0{fill:#004EAA;}
</style>
<g id="_x36_FDFL7_00000087374135566134031200000007960771321041468830_">
	<g>
		<g>
			<path class="st0" d="M646.3,441.5c0,0.2,0,0.4,0,0.5c-0.9,1-1.8,2.1-2.7,3.1c-2.4,2.6-4.8,5.1-7.1,7.8
				c-6.4,7.4-14.1,12.7-23.5,15.8c-7.6,2.5-15.3,4.1-23.3,4.5c-5.4,0.3-10.9,0.2-16.2-0.7c-9.8-1.7-19.1-5.2-27.7-10.2
				c-0.4-0.2-0.9-0.4-1.7-0.7c1.1,3.1,2,5.9,2.9,8.8c-2.3,0-4.3,0-6.2,0c-12.1-0.1-24.1-0.1-36.2-0.2c-14.5-0.1-29.1-0.2-43.6-0.3
				c-15.3-0.1-30.5-0.2-45.8-0.3c-17.3-0.1-34.6-0.2-51.9-0.3c-10-0.1-20-0.2-30-0.2c-9.5-0.1-18.9-0.1-28.4-0.1
				c-1,0-1.5-0.3-1.8-1.3c-2.1-6.8-4.3-13.5-6.5-20.2c-0.1-0.4-0.4-0.9-0.7-1.5c-0.6,0.6-1,1-1.4,1.5c-7.7,9.9-17.8,16.5-29.7,20.5
				c-7.9,2.6-16.1,3.6-24.5,3.4c-8.2-0.3-16.1-1.8-23.9-4.3c-11.8-3.9-22.5-10.1-32.3-17.7c-3.3-2.6-6.4-5.5-9.6-8.3
				c-1-0.9-1.2-0.8-1.8,0.4c-0.7,1.3-1.3,2.7-2.1,4c-6.9,11.3-16.6,19.3-28.9,24.2c-6.5,2.6-13.2,3.9-20.2,4.3
				c-0.3,0-0.6,0.1-0.9,0.2c0.9,0.3,1.7,0.3,2.6,0.3c1.9,0.1,3.9,0.2,5.8,0.3c-7.5,0-14.9,0-22.4,0c0.9-0.1,1.8-0.3,2.8-0.3
				c2.1,0,4.2,0,6.2,0c-0.5-0.4-1-0.4-1.4-0.5c-5-0.7-10.1-1.2-15-2.2c-8.2-1.6-16-4.6-23.7-7.9c-11.9-5.2-22.5-12.5-33.1-19.8
				c-0.5-0.3-0.9-1-0.9-1.6c-0.6-5.7-1.2-11.4-1.8-17.2c-0.7-7.3-1.3-14.6-1.9-21.8c-0.7-7.9-1.4-15.7-2.1-23.5
				c-0.2-1.9-0.1-3.7-1.6-5.4c-5.6-6.5-10.2-13.6-14.1-21.2c-6.1-11.9-10.1-24.6-12.4-37.8c-1.4-8-2-16.1-1.6-24.2
				c0.5-9.1,2.2-18,5.9-26.4c6.3-14.5,16.6-25.1,31.1-31.5c10.4-4.7,21.4-5.8,32.6-4.6c9.6,1,18.7,3.8,27.4,7.9
				c9.1,4.2,17.4,9.8,25.3,15.9c0.7,0.6,1.2,1,1.9-0.1c2.8-4.2,6.4-7.8,10.2-11.2c4.5-4,9.6-7.1,15.1-9.7c6.6-3.1,13.7-4.8,21-5.5
				c7.8-0.7,15.5-0.2,23.2,1.4c8.1,1.7,15.8,4.6,23.1,8.4c1.7,0.9,3.3,1.8,5,2.6c0.1-0.1,0.2-0.1,0.4-0.2c-1-3.1-2-6.2-3-9.4
				c0.8-0.1,1.4-0.1,2-0.1c6.4,0,12.8,0,19.2,0.1c15.1,0.1,30.1,0.2,45.2,0.3c18.3,0.1,36.6,0.2,54.8,0.3
				c21.4,0.2,42.8,0.4,64.2,0.5c18.9,0.1,37.8,0.2,56.7,0.3c1,0,1.5,0.3,1.9,1.3c2.3,7.2,4.6,14.4,6.9,21.6c0.1,0.3,0.3,0.7,0.6,1.3
				c0.7-1,1.2-1.7,1.7-2.5c6.3-8.3,14.2-14.8,23.8-18.9c7.1-3.1,14.5-4.7,22.2-5.1c8.1-0.4,16.1,0.9,24,2.8
				c11.6,2.8,22.1,8.2,32.6,13.6c0.6,0.3,1,1,1.2,1.6c0.9,2.5,1.6,5.1,2.4,7.6c5.8,17.7,11.6,35.4,17.4,53.2
				c6.3,19.2,12.5,38.4,18.8,57.6c4.1,12.7,8.3,25.4,12.4,38.1c3.9,11.9,7.7,23.8,11.6,35.8C645.1,439.1,645.8,440.3,646.3,441.5z
				 M507.4,401.1c0,0,0.1,0,0.1,0c2.9,4.1,5.6,8.4,8.7,12.4c10.9,14.6,23.6,27.2,39.9,35.8c7.3,3.9,15,6.7,23.3,7.4
				c7.4,0.7,14.7,0.1,22-1.5c5.1-1.2,10-2.9,14.5-5.6c4.2-2.5,7.2-6.3,10.5-9.7c1.3-1.3,1.5-2.3,0.9-4.2c-3.5-10.3-6.8-20.7-10.2-31
				c-4.5-13.8-9-27.5-13.5-41.3c-5.5-16.7-11-33.5-16.4-50.2c-2.6-7.9-5.1-15.7-7.7-23.6c-3.2-9.8-6.6-19.6-9.6-29.4
				c-0.9-3-2.3-5-5.3-6.3c-5.7-2.5-11.3-5.2-17.3-6.9c-6.2-1.8-12.4-2.9-18.9-3.1c-7-0.2-13.7,1-20.1,3.9
				c-11.8,5.4-19.4,14.6-24.2,26.4c-3.6,8.9-5.2,18.3-5.6,27.9c-0.1,3.5,0,7,0,10.7c-0.5-1.3-1-2.3-1.4-3.5
				c-3.2-9.9-6.5-19.8-9.7-29.7c-3.5-10.6-7-21.3-10.4-31.9c-0.4-1.2-1-1.5-2.2-1.5c-24.9-0.1-49.8-0.3-74.7-0.4
				c-9.5-0.1-18.9-0.2-28.4-0.2c-21.4-0.1-42.9-0.2-64.3-0.4c-8.2,0-16.5-0.2-24.7-0.2c-4.7,0-9.3,0-14-0.1c-0.8,0-1.5,0-1.1,1.2
				c1.2,3.3,2.3,6.6,3.4,9.9c4.1,12.3,8.1,24.7,12.2,37c0.4,1.3,0.8,2.5,1.2,3.8c-0.1,0-0.2,0.1-0.3,0.1c-0.6-0.9-1.2-1.8-1.8-2.7
				c-9.4-14.1-20.5-26.6-34.4-36.5c-10-7.1-20.8-12.5-33-14.8c-7.5-1.4-15-1.6-22.5,0c-11.7,2.5-21.2,8.4-28.4,17.9
				c-8.1,10.6-11.5,22.9-12.4,35.9c-0.4,5.7-0.3,11.4,0,17.1c0.3,5.1,1.3,10.2,2,15.3c0.1,1,0.4,1.9,0.6,3.1
				c-0.4-0.2-0.6-0.2-0.7-0.4c-1.9-1.8-3.9-3.5-5.8-5.3c-0.4-0.4-0.6-1-0.7-1.5c-0.6-5.8-1.2-11.5-1.8-17.3
				c-0.8-7.9-1.5-15.9-2.3-23.8c-0.5-4.7-1.1-9.4-1.4-14.1c-0.1-1.6-0.7-2.6-1.9-3.5c-3.4-2.4-6.6-5.1-10.1-7.4
				c-8.6-5.9-17.8-10.5-28-12.8c-8.8-2-17.7-2.4-26.5,0c-8.9,2.4-16.2,7.3-22,14.5c-7.1,8.8-10.1,19.2-11,30.3
				c-0.6,7.3,0,14.5,1.3,21.7c1.7,9.8,4.5,19.3,8.6,28.5c4.5,10.1,10.4,19.4,18.1,27.4c0.4,0.4,0.8,1.1,0.9,1.7
				c0.6,5.4,1.1,10.8,1.6,16.3c0.6,6.6,1.1,13.2,1.7,19.7c0.8,8.5,1.6,16.9,2.3,25.4c0.2,2,0.6,3.5,2.6,4.3c0.5,0.2,1,0.6,1.4,1
				c12.6,8.8,26.2,15.4,41.2,19c8.2,1.9,16.5,2.9,24.9,1.3c17-3.2,28.4-13.2,34.3-29.4c2.5-7,3.4-14.3,3.2-21.7c0-0.4,0-0.8,0-1.3
				c0.3,0.1,0.4,0.1,0.4,0.2c0.2,0.2,0.3,0.4,0.5,0.6c8.9,12.9,19.4,24.4,32.1,33.6c9.6,6.9,20,12.1,31.6,14.6
				c8.8,1.9,17.7,2.2,26.4,0.2c14.5-3.4,25.2-11.7,32.2-24.8c5.3-9.9,7.5-20.6,7.7-31.7c0-1.5,0.2-3,0.3-4.5c0.1,0,0.3,0,0.4,0
				c1.2,4,2.5,7.9,3.8,11.9c3.9,11.9,7.8,23.8,11.7,35.8c1.2,3.6,2.3,7.2,3.5,10.7c0.3,0.9,0.6,1.8,1.9,1.8
				c17.8,0.1,35.7,0.3,53.5,0.4c23.7,0.1,47.4,0.2,71.1,0.3c9.4,0,18.9,0.2,28.3,0.2c17.9,0.1,35.8,0.1,53.6,0.2
				c0.4,0,0.7-0.1,1.2-0.2C518.8,436.1,513.1,418.6,507.4,401.1z"/>
			<path class="st0" d="M625.7,244.5c0,7.5-6.3,13.5-14,13.5c-7.4,0-13.6-6.3-13.6-13.8c0-7.3,6.2-13.5,13.5-13.5
				C619.2,230.7,625.9,236.3,625.7,244.5z M622.9,244.3c0.6-5-4.6-10.9-11-10.9c-6.1-0.1-11.2,4.9-11.2,11c0,5.7,5,10.7,10.7,10.9
				C618.1,255.5,623.4,250.2,622.9,244.3z"/>
			<path class="st0" d="M431.8,436.9c-1.9,0-3.5,0-5.2,0c-9.8,0-19.7-0.1-29.5-0.1c-0.9,0-1.5-0.3-2-1c-3.6-5.4-7.3-10.7-11-16
				c-5.7-8.3-11.5-16.6-17.2-25c-6.8-9.8-13.5-19.7-20.2-29.5c-4.5-6.6-9.1-13.2-13.6-19.8c-0.2-0.3-0.7-0.6-1-0.8
				c-0.1,0.1-0.3,0.2-0.4,0.2c0.2,0.6,0.3,1.3,0.5,1.9c2.7,6.6,5.8,13.2,8.2,19.9c3.5,9.6,6.8,19.4,10,29.2
				c4.2,12.7,8.4,25.4,12.5,38.1c0.9,2.7,0.9,2.7-2.1,2.7c-10.3-0.1-20.5-0.1-30.8-0.1c-2.4,0-2.4,0-3.2-2.3
				c-5.3-16.3-10.6-32.6-15.9-48.9c-4.4-13.6-8.9-27.2-13.3-40.8c-5.7-17.4-11.4-34.8-17.1-52.3c-3.3-9.9-6.5-19.8-9.8-29.8
				c-0.1-0.3-0.1-0.6-0.2-1.1c0.5,0,1,0,1.4,0c11.2,0.1,22.3,0.2,33.5,0.2c1,0,1.5,0.3,2.1,1.1c8.3,12.4,16.7,24.7,25,37
				c7.7,11.4,15.4,22.9,23.2,34.3c5.1,7.5,10.1,15.1,15.2,22.6c0.6,0.9,1.3,1.7,2,2.5c0.2-0.1,0.4-0.2,0.5-0.3
				c-0.2-0.7-0.3-1.5-0.6-2.2c-4.6-11.1-9.4-22.2-13.7-33.4c-2.9-7.5-5.2-15.3-7.8-23c-4-12-7.9-24.1-11.8-36.1
				c-0.2-0.7-0.4-1.4-0.7-2.3c0.5,0,0.8-0.1,1.2-0.1c11.2,0.1,22.3,0.2,33.5,0.2c1,0,1.6,0.1,2,1.3c2.2,6.8,4.4,13.7,6.6,20.5
				c3.5,10.7,7,21.5,10.5,32.2c4,12.4,8.1,24.8,12.1,37.1c6,18.3,12,36.5,17.9,54.8c3,9.1,6,18.3,9,27.4
				C431.6,435.8,431.6,436.3,431.8,436.9z"/>
			<path class="st0" d="M241.7,438.8c-10.1-0.7-19.3-4-28-9.1c-9.9-5.8-18.3-13.5-25.8-22.1c-7.1-8.1-13-17.2-18.2-26.6
				c-6.7-12.2-11.8-25.1-15.8-38.4c-2.4-8-4.2-16.2-5.2-24.5c-1.3-10.2-1.4-20.3,1-30.4c1.5-6.2,3.7-12.1,7.7-17.2
				c5-6.5,11.6-10.4,19.7-11.9c9.1-1.6,17.7,0.3,26,3.7c11.7,4.8,21.4,12.4,30,21.4c8.9,9.3,16.4,19.6,22.7,30.8
				c6.7,11.9,12,24.4,16.1,37.4c3.1,9.8,5.4,19.8,6.5,30.1c0.7,6.2,0.9,12.5,0.2,18.7c-0.6,5.6-1.6,11.1-3.8,16.4
				c-4.3,10.5-11.7,17.8-23.1,20.4C248.5,438.3,245.1,438.4,241.7,438.8z M190.9,331.6c0.1,7.1,1.6,13.5,3.8,19.7
				c3.4,9.6,8.1,18.5,15.8,25.5c3.3,3.1,7.1,5.4,11.6,6.2c5.9,1.2,11.1-1.6,13.1-7.4c1.6-4.6,1.4-9.3,0.8-13.9
				c-0.7-5.2-2.1-10.1-3.9-15c-3.1-8.3-7.3-16-13.4-22.5c-3.9-4.2-8.4-7.5-14.2-8.7c-4.3-0.9-9,1.2-11.1,5
				C191.4,324.2,191,328.1,190.9,331.6z"/>
			<path class="st0" d="M110,320.6c-0.6-0.4-1.1-0.7-1.5-1.1c-4.9-4.3-10.3-7.9-16.4-10.3c-2.7-1.1-5.6-1.8-8.6-1.7
				c-3.7,0.1-5.9,2.6-5.5,6.3c0.7,5.1,3.2,8.8,8.1,10.6c4.6,1.6,9.2,3.2,13.8,4.8c8.7,3.1,16.2,8,22.6,14.6
				c8,8.1,13.5,17.9,17.6,28.4c2.6,6.7,4.8,13.6,6.1,20.7c1.6,8.4,2.2,16.9,0.2,25.3c-1.7,7-5,13.1-10.9,17.4
				c-5.2,3.8-11.1,5.3-17.5,5.3c-8,0-15.5-2-23-4.7c-7.7-2.8-14.8-6.6-21.7-11c-0.5-0.3-0.9-1-0.9-1.6c-0.5-5.4-1-10.8-1.4-16.1
				c-0.7-7.2-1.3-14.5-2-21.7c-0.3-2.9-0.6-5.7-0.9-8.6c0-0.4,0-0.9,0-1.7c1.3,1.2,2.3,2.1,3.3,3.1c5.2,4.8,10.8,9.2,17.1,12.4
				c3.5,1.8,7.1,3.1,11,3.1c5.2,0,7.9-3.6,6.8-8.7c-1.5-6.8-6-10.1-12.5-11.7c-4.3-1.1-8.6-2.3-12.7-3.9c-9.5-3.7-17-9.9-23.4-17.8
				c-6.6-8.2-11.2-17.5-14.4-27.5c-2.5-7.7-4.3-15.6-4.9-23.7c-0.6-8.2,0.1-16.4,3.6-23.9c4.9-10.5,13.1-16.1,24.9-16.2
				c9-0.1,17.3,2.4,25.1,6.7c4.2,2.3,8.2,5.1,12.3,7.7c0.9,0.6,1.4,1.3,1.5,2.5c0.3,4.2,0.7,8.5,1.1,12.7c0.4,4.4,0.8,8.7,1.2,13.1
				c0.5,5.3,1.1,10.6,1.6,15.9C110.1,319.7,110,320,110,320.6z"/>
			<path class="st0" d="M577.1,333.8c-0.4-0.5-0.7-1.1-1.2-1.6c-5.1-5.1-10.5-10-17-13.3c-2.7-1.4-5.5-2.4-8.6-2.5
				c-4.9-0.2-8.3,2.3-10.4,6.5c-1.9,3.8-2.3,7.9-2.2,12c0.2,8.7,2.7,16.8,6.5,24.5c3.5,7.2,8.1,13.7,14.3,18.8c3,2.5,6.2,4.6,10,5.7
				c6.5,1.9,12.1,0,16.2-5.3c2.1-2.8,3.4-5.9,4.5-9.4c0.3,0.6,0.6,1.2,0.8,1.9c2.1,6.8,4.2,13.6,6.3,20.5
				c4.1,13.2,8.2,26.5,12.3,39.7c0.9,3,1,3-1.8,4.6c-3.9,2.3-8.2,3.2-12.5,3.9c-2.7,0.5-5.5,0.7-8.2,0.8c-7,0.3-13.6-1.6-19.8-4.6
				c-10.6-5.1-19.5-12.4-27.3-21c-10.3-11.3-18.7-23.9-25.5-37.5c-4.9-9.9-9-20.1-12.1-30.7c-2.6-8.9-4.7-18-5.7-27.3
				c-1.1-10.6-1.2-21.2,1.4-31.6c1.8-7.5,4.9-14.5,10.6-20.1c5.5-5.4,12.2-7.8,19.7-7.6c9.3,0.1,18,2.9,26.4,6.8
				c0.7,0.3,1.4,1.2,1.7,2c4.3,12.3,8.5,24.6,12.7,36.9c3,8.7,6,17.3,9,26c0.2,0.5,0.3,1,0.4,1.5
				C577.4,333.5,577.3,333.7,577.1,333.8z"/>
			<path class="st0" d="M501.7,437.4c-4.1,0-7.9,0-11.7,0c-8.1-0.1-16.2-0.2-24.3-0.2c-1.3,0-1.8-0.4-2.2-1.7
				c-4.3-13.4-8.8-26.8-13.2-40.3c-2.4-7.4-4.8-14.7-7.2-22.1c-4-12.2-8-24.5-12-36.7c-3.8-11.7-7.6-23.4-11.4-35.1
				c-4.2-12.7-8.4-25.5-12.6-38.2c-0.1-0.2-0.1-0.5-0.2-0.9c0.4-0.1,0.6-0.1,0.9-0.1c10.4,0.1,20.7,0.3,31.1,0.4c1.3,0,2.7,0,4-0.2
				c1.1-0.1,1.8,0.3,2.1,1.4c2.3,7.2,4.7,14.3,7,21.5c4.5,13.8,9,27.6,13.6,41.4c4.9,15.1,9.9,30.1,14.8,45.2
				c5.1,15.5,10.1,31.1,15.2,46.6c1.9,5.7,3.8,11.4,5.6,17C501.4,436.1,501.5,436.7,501.7,437.4z"/>
			<path class="st0" d="M605.8,237.1c3,0,5.7-0.1,8.4,0c1.9,0.1,3.4,1.8,3.6,3.6c0.2,1.6-1,3.2-2.8,3.9c-0.4,0.1-0.7,0.4-0.9,0.5
				c1.3,1.7,2.5,3.3,3.6,5c0.2,0.3,0.2,0.8,0.3,1.2c-0.4,0.1-0.7,0.1-1.1,0.2c-0.3,0-0.5,0-0.8,0c-1.5,0.2-2.4-0.4-3-1.9
				c-0.5-1.2-1.3-2.2-2-3.2c-0.2-0.3-0.8-0.3-1.2-0.5c-0.1,0.4-0.3,0.7-0.3,1.1c0,1.1,0,2.1,0,3.2c0,0.9-0.2,1.4-1.2,1.3
				c0,0-0.1,0-0.1,0c-2.5,0.1-2.4,0.1-2.4-2.4c0.1-3.2-0.1-6.4-0.1-9.6C605.6,238.7,605.7,238,605.8,237.1z M610.8,239.5
				c-0.4,0.3-1.2,0.5-1.4,1c-0.8,1.8,0.1,2.9,2.1,2.7c0.4,0,0.9,0,1.2-0.2c0.5-0.4,1.3-0.9,1.4-1.4c0.1-0.5-0.6-1.2-1.1-1.5
				C612.4,239.7,611.7,239.7,610.8,239.5z"/>
		</g>
	</g>
</g>
</svg>
