<?xml version="1.0" encoding="utf-8"?>
<!-- Generator: Adobe Illustrator 26.2.1, SVG Export Plug-In . SVG Version: 6.00 Build 0)  -->
<svg version="1.1" id="Layer_1" xmlns="http://www.w3.org/2000/svg" xmlns:xlink="http://www.w3.org/1999/xlink" x="0px" y="0px"
	 viewBox="0 0 820.2 489.6" style="enable-background:new 0 0 820.2 489.6;" xml:space="preserve">
<g id="H5kzr5_00000096017825984534244900000009041045745394930315_">
	<g>
		<g>
			<path d="M430.4,218.6c2.9-2.1,5.7-4.2,8.6-6.2c14.3-9.8,29.2-18.4,44.8-25.9c13.3-6.5,26.9-12.3,41.2-16.6
				c10.7-3.2,21.5-5.6,32.6-6.6c7.3-0.7,14.5-0.9,21.8,0.3c10.2,1.7,19.7,5.2,28.3,11c5.8,3.9,10.8,8.8,15,14.4
				c23.5-10.1,47-9.3,70.7-1.1c17.2,6,31.2,16.6,43.3,30c-40.8-27-81.3-24.8-121.7,0.4c-3.3-3.2-6.5-6.8-10.2-9.9
				c-8.9-7.6-19.2-12.4-30.5-15.1c-15.8-3.8-31.7-3.7-47.7-2.5c-12.6,0.9-25,3.3-37.3,6.6c-16.4,4.3-32.4,9.9-47.9,16.9
				c-3.6,1.6-7.1,3.1-10.7,4.7C430.6,218.8,430.5,218.7,430.4,218.6z"/>
			<path d="M445.1,295.6c-2.7,6.9-5.2,13.3-7.7,19.7c-1.3,3.4-2.6,6.9-4,10.2c-0.2,0.6-1,1.3-1.5,1.3c-7,0.1-14.1,0-21.1,0
				c-0.2,0-0.4-0.1-0.7-0.3c2.4-6.1,4.7-12.1,7.1-18.1c8.1-20.8,16.3-41.6,24.4-62.4c0.7-1.9,1.7-2.6,3.7-2.5
				c5.4,0.2,10.9,0.1,16.3,0.1c0.6,0,1.3,0,2.1,0c-0.7,2.1-1.3,3.9-2.2,6.3c1.3-0.9,2.2-1.4,3-2.1c6.3-4.9,13.4-6.6,21.3-5.4
				c6.8,1,11.9,6.4,12.6,13.7c1.2,12.6-2.9,23.7-10.2,33.8c-4.5,6.2-10,11.3-17.4,13.8c-4.8,1.6-9.6,1.8-14.5,0.6
				C451.4,303.3,447.7,300.5,445.1,295.6z M475.8,265.3c0-6-3.5-9.1-8.4-7.9c-2.1,0.5-4.3,1.6-5.8,3.1c-5.8,5.7-8.7,12.8-9.7,20.7
				c-0.5,4.6,2.2,7.9,6.6,8.4c2.9,0.3,5.4-1,7.5-3C472.3,280.7,474.9,272.9,475.8,265.3z"/>
			<path d="M721.4,303.8c-8.3,0-16.4,0-24.6-0.1c-0.4,0-1.2-0.8-1.2-1.2c-0.5-5.5-0.9-11.1-1.3-16.6c-0.2-2.4-0.4-4.7-0.6-7.4
				c-0.9,0.6-1.6,1-2.2,1.4c-3.6,2.5-7.2,5-10.7,7.6c-0.7,0.5-1.4,1.4-1.7,2.2c-1.7,4.2-3.3,8.4-5,12.6c-0.3,0.6-1,1.5-1.6,1.5
				c-7,0.1-14,0.1-21.3,0.1c0.7-1.8,1.3-3.5,2-5.1c9.9-25.4,19.9-50.9,29.8-76.3c0.5-1.4,1.2-2,2.8-1.9c6,0.1,12,0,18,0
				c0.6,0,1.3,0,2.3,0c-5.7,14.6-11.3,28.8-16.8,43.1c0.1,0.1,0.2,0.2,0.3,0.3c2.6-2,5.2-3.9,7.8-5.9c5.9-4.5,11.8-9,17.8-13.5
				c0.6-0.4,1.4-0.8,2.1-0.8c8-0.1,15.9,0,23.9,0c0.2,0,0.5,0.1,1.1,0.2c-4.4,3.2-8.6,6.1-12.7,9c-4.9,3.5-9.9,7-14.9,10.5
				c-1.1,0.8-1.3,1.6-1,2.9C716.2,278.7,718.7,291.2,721.4,303.8z"/>
			<path d="M156.8,240.9c-8.4,0-16.8,0-25.1,0c-1.4,0-2.1,0.4-2.7,1.8c-7.7,19.7-15.4,39.4-23.1,59.2c-0.6,1.5-1.2,2-2.9,2
				c-7.8-0.1-15.5,0-23.6,0c8.2-21,16.3-41.8,24.6-62.9c-8.8,0-17.2,0-25.9,0c1.8-4.7,3.5-9.1,5.2-13.5c0.7-1.9,1.4-3.8,2.2-5.5
				c0.3-0.6,1.1-1.3,1.7-1.3c25.5-0.1,50.9-0.1,76.4,0c0.2,0,0.4,0.1,0.8,0.2C161.9,227.4,159.4,234.1,156.8,240.9z"/>
			<path d="M209.5,259.9c2.4-5.5,6.1-9.6,11.1-12.7c4.8-2.9,10.2-4.1,15.6-4.6c8.5-0.8,17-0.8,25.4,1.1c5.3,1.2,9.5,3.8,10.7,9.6
				c0.7,3.2,0.2,6.5-0.9,9.5c-2.7,7.5-5.5,15-8.4,22.4c-2.3,5.9-4.2,11.8-3.2,18.4c-7.5,0-14.7,0-22.2,0c0-2.1,0-4.2,0-6.5
				c-0.7,0.5-1.3,0.8-1.8,1.2c-8.5,6.1-17.7,8.3-28,5.9c-8.2-1.9-11.1-9.6-10.1-16.2c1.7-10.7,8.6-16.4,20-18.6
				c7.8-1.5,15.7-2.2,23.5-3.2c1.5-0.2,3.1-0.5,4.6-0.8c2.9-0.5,4-2,4.2-5.1c0.1-2.1-1.1-3.7-3.7-4.2c-5.9-1.1-11.5-0.6-15.3,5.1
				c-0.3,0.5-1.1,1-1.6,0.9C222.8,261.5,216.2,260.7,209.5,259.9z M243.5,276.5c-6,1.5-12,2.8-17.9,4.5c-1.5,0.4-2.9,1.8-3.9,3
				c-1.4,1.7-1.7,3.8-0.7,5.8c0.9,2,2.7,2.7,4.7,2.8c1.1,0.1,2.2,0.1,3.3-0.2C237.1,290.4,241.2,284.5,243.5,276.5z"/>
			<path d="M513.6,260c3.3-7.2,8.3-12,15.4-14.7c4.9-1.9,10.1-2.5,15.3-2.8c7.3-0.4,14.4-0.2,21.5,1.4c4.6,1,8.5,3.1,10.2,7.9
				c1.1,3.2,1,6.4,0,9.5c-2.4,7.2-5.2,14.3-7.7,21.4c-1.5,4.2-3,8.5-4.1,12.8c-0.6,2.6-0.3,5.4-0.5,8.2c-7.2,0-14.5,0-21.8,0
				c0-2.1,0-4.2,0-6.5c-2.1,1.3-3.9,2.6-5.9,3.7c-7.5,4.2-15.4,5.2-23.7,3.3c-8.4-1.9-11.2-9.8-10.2-16.3c1.7-10.7,8.7-16.4,20-18.5
				c7.8-1.5,15.7-2.2,23.5-3.2c1.5-0.2,2.9-0.5,4.4-0.7c3-0.6,4.8-3,4.2-6c-0.2-1-1.2-2.2-2.1-2.7c-4.8-2.7-12.7-1-15.9,3.5
				c-1.1,1.6-2.1,2-4,1.8C526,261.2,520,260.6,513.6,260z M547.9,277.2c-0.1-0.2-0.2-0.5-0.3-0.7c-5.9,1.4-11.9,2.7-17.7,4.4
				c-1.5,0.4-2.9,1.7-4,2.9c-1.5,1.6-1.8,3.7-0.9,5.8c0.9,2.1,2.7,3,4.8,2.9c1.9,0,3.9-0.3,5.6-0.9
				C542.3,289.1,545.8,283.6,547.9,277.2z"/>
			<path d="M315.2,243.7c-1.2,3-2.2,5.8-3.3,8.5c0.1,0.1,0.3,0.2,0.4,0.3c1.4-1.1,2.8-2.2,4.2-3.2c6.4-4.7,13.6-7.2,21.7-7
				c5.3,0.2,10,1.6,12.2,7.1c1.3,3.4,1,6.7-0.2,10c-3.6,9.7-7.2,19.3-10.8,28.9c-1.8,4.7-3.6,9.4-5.5,14c-0.2,0.6-0.9,1.4-1.4,1.4
				c-7.2,0.1-14.5,0.1-22,0.1c0.6-1.5,1-2.8,1.5-4.1c4.2-11,8.5-22,12.7-33c0.5-1.2,0.9-2.6,1-3.9c0.2-2.4-1.1-3.8-3.5-3.9
				c-3.5-0.1-6.5,1.4-9.1,3.7c-4.1,3.8-6.8,8.6-8.8,13.7c-3.4,8.6-6.8,17.1-10.1,25.7c-0.5,1.3-1.1,1.8-2.5,1.7c-7-0.1-14,0-21.2,0
				c0.3-0.8,0.5-1.5,0.8-2.2c7.3-18.7,14.7-37.4,21.9-56.1c0.5-1.4,1.2-1.8,2.6-1.8C302.1,243.7,308.5,243.7,315.2,243.7z"/>
			<path d="M656.9,264.4c-7.3,0.4-14.1,0.8-21,1.1c-1-8.5-8.3-8.7-14.3-7.3c-5.6,1.3-9.3,5.3-12.3,10c-2.6,4-4.3,8.3-4.6,13.2
				c-0.4,5.5,4.9,8.6,9.5,8.3c6.1-0.4,10.3-3.7,13.6-8.5c0.9-1.4,1.7-1.7,3.4-1.5c6.2,0.8,12.4,1.4,18.8,2.1
				c-2.6,5.1-5.9,9.6-10.1,13.3c-9.3,8-20.3,10.4-32.2,10.1c-4.8-0.1-9.5-0.7-14-2.4c-8.5-3.1-12.4-10.3-11.5-19.6
				c1-11.4,5.9-20.8,14.2-28.6c6.7-6.4,14.7-10.1,23.8-11.5c7.3-1.1,14.7-1.1,21.9,0.9c7.2,2.1,12.6,6.2,14.2,14
				C656.5,259.9,656.6,261.9,656.9,264.4z"/>
			<path d="M350.3,287.2c7.5-0.7,15-1.3,22.4-1.9c0.1,0.1,0.3,0.2,0.3,0.3c1.6,5.8,3.5,7.3,9.5,6.9c2.4-0.2,4.8-1.2,7.1-2.2
				c1-0.4,1.8-1.5,2.3-2.5c1.6-2.9,0.6-5.3-2.6-6.1c-4.3-1-8.7-1.8-13-2.8c-1.9-0.4-3.7-1.2-5.5-1.9c-6.9-2.8-9.2-9.1-6.7-16.1
				c2.7-7.6,8.3-12.3,15.5-15.2c7.8-3.2,16-4.1,24.3-3.2c3.3,0.3,6.5,0.8,9.7,1.7c6.4,1.9,9.6,6.7,9.4,13.7
				c-7.2,0.8-14.4,1.5-21.7,2.3c-0.4-3.2-2.2-4.9-5.2-5.2c-4.1-0.4-8.1-0.2-10.9,3.2c-1.8,2.2-0.9,5.2,1.9,6c2.9,0.9,5.9,1.3,8.8,2
				c3.3,0.8,6.7,1.3,9.9,2.4c7.7,2.5,10.5,7.8,8.5,15.6c-2.1,7.7-7.4,12.7-14.2,16.2c-7.2,3.7-14.9,4.7-22.9,4.7
				c-6,0-12-0.1-17.8-2.1C352.6,300.5,349.2,294.7,350.3,287.2z"/>
			<path d="M208.7,244c-2,3.1-3.9,6-5.8,8.9c-1.6,2.5-3.2,5-4.9,7.4c-0.4,0.6-1.5,1.2-2.1,1.1c-7.8-1.3-13.5,1.7-18,7.9
				c-3.6,4.9-5.7,10.5-7.9,16.1c-2.4,6.1-4.7,12.1-7.1,18.4c-3.7,0-7.5,0-11.3,0c-3.8,0-7.6,0-11.6,0c1.6-4.2,3.2-8.3,4.7-12.3
				c6-15.4,12-30.7,17.9-46.1c0.5-1.4,1.2-1.8,2.6-1.8c6.4,0.1,12.8,0,19.5,0c-1.5,3.8-2.9,7.4-4.2,10.9c2.1-1.9,4.2-3.7,6.3-5.6
				c3-2.9,6.3-5.1,10.3-6.2C201,241.7,204.8,242.2,208.7,244z"/>
		</g>
	</g>
</g>
</svg>
